G04 Layer: BottomSilkscreenLayer*
G04 EasyEDA Pro v3.2.149.88089769, 2026-07-17 12:15:34*
G04 Gerber Generator version 0.3*
G04 Scale: 100 percent, Rotated: No, Reflected: No*
G04 Dimensions in millimeters*
G04 Leading zeros omitted, absolute positions, 4 integers and 5 decimals*
G04 Generated by one-click*
G04 Object Configs: Pad,Via,Track,Text,Image,Dimension,BoardOutline,BoardCutout,CopperFilled,SolidRegion,FPCStiffener,Line,PlaneZone,ComponentProperty,ComponentSilkscreen,TearDrop*
G04 Layer Configs: 1,2,3,4,5,6,7,8,9,10,11,13,14,56*
G04 Copper Areas: 0*
%FSLAX45Y45*%
%MOMM*%
%ADD10C,0.1*%
%ADD11C,0.203*%
%ADD12C,0.254*%
%ADD13C,0.4696*%
G75*


G04 Text Start*
G36*
G01X574460Y-2005429D02*
G01X576581Y-2008399D01*
G01X582521Y-2016884D01*
G01X583793Y-2018581D01*
G01X582415Y-2019058D01*
G01X577005Y-2019217D01*
G01X569581Y-2019217D01*
G01X568945Y-2018156D01*
G01X557490Y-2000975D01*
G01X555369Y-1997581D01*
G01X551551Y-1991854D01*
G01X550915Y-1991111D01*
G01X550278Y-1991005D01*
G01X549430Y-1991854D01*
G01X548581Y-1993338D01*
G01X546036Y-1997157D01*
G01X543915Y-2000550D01*
G01X532460Y-2017732D01*
G01X531718Y-2018581D01*
G01X530763Y-2019005D01*
G01X523127Y-2019217D01*
G01X516551Y-2019217D01*
G01X517187Y-2018156D01*
G01X520157Y-2013914D01*
G01X522278Y-2010944D01*
G01X528218Y-2002460D01*
G01X530339Y-1999490D01*
G01X539248Y-1986763D01*
G01X541369Y-1983793D01*
G01X542430Y-1981035D01*
G01X542589Y-1979657D01*
G01X542218Y-1978914D01*
G01X541369Y-1977854D01*
G01X540733Y-1976793D01*
G01X538612Y-1973823D01*
G01X537763Y-1972763D01*
G01X536490Y-1971066D01*
G01X535006Y-1968944D01*
G01X533945Y-1967460D01*
G01X533096Y-1966399D01*
G01X531824Y-1964702D01*
G01X530339Y-1962581D01*
G01X529278Y-1961096D01*
G01X528430Y-1960035D01*
G01X527157Y-1958338D01*
G01X525672Y-1956217D01*
G01X524612Y-1954732D01*
G01X523763Y-1953672D01*
G01X522490Y-1951975D01*
G01X521006Y-1949854D01*
G01X519945Y-1948369D01*
G01X519096Y-1947308D01*
G01X520581Y-1946831D01*
G01X525884Y-1946672D01*
G01X531399Y-1946884D01*
G01X533521Y-1947520D01*
G01X534369Y-1948793D01*
G01X546036Y-1965126D01*
G01X549006Y-1969369D01*
G01X550278Y-1970854D01*
G01X551339Y-1970854D01*
G01X552187Y-1969581D01*
G01X553036Y-1968096D01*
G01X554096Y-1966399D01*
G01X556642Y-1962581D01*
G01X557915Y-1960460D01*
G01X564278Y-1950914D01*
G01X565339Y-1949217D01*
G01X566612Y-1947520D01*
G01X569104Y-1946884D01*
G01X574884Y-1946672D01*
G01X580347Y-1946831D01*
G01X581884Y-1947308D01*
G01X580824Y-1948793D01*
G01X579551Y-1950702D01*
G01X575308Y-1956641D01*
G01X569369Y-1965126D01*
G01X567248Y-1968096D01*
G01X561309Y-1976581D01*
G01X559187Y-1979551D01*
G01X558339Y-1981247D01*
G01X558551Y-1982732D01*
G01X559399Y-1984005D01*
G01X560460Y-1985490D01*
G01X563430Y-1989732D01*
G01X565551Y-1992702D01*
G01X574460Y-2005429D01*
G37*
G36*
G01X861036Y-1946672D02*
G01X871642Y-1946672D01*
G01X871854Y-1947732D01*
G01X872066Y-1984005D01*
G01X872066Y-2019217D01*
G01X859763Y-2019217D01*
G01X859763Y-1998217D01*
G01X859551Y-1976581D01*
G01X859127Y-1971490D01*
G01X858702Y-1969369D01*
G01X858066Y-1967035D01*
G01X857218Y-1964914D01*
G01X856369Y-1963217D01*
G01X855521Y-1962157D01*
G01X853399Y-1960035D01*
G01X852339Y-1959187D01*
G01X847672Y-1956854D01*
G01X845127Y-1956217D01*
G01X842581Y-1955793D01*
G01X839611Y-1955581D01*
G01X836642Y-1955793D01*
G01X834733Y-1956429D01*
G01X832399Y-1957278D01*
G01X830915Y-1958338D01*
G01X829854Y-1959187D01*
G01X828581Y-1960460D01*
G01X827521Y-1962157D01*
G01X826672Y-1963854D01*
G01X826036Y-1966399D01*
G01X825612Y-1968520D01*
G01X825187Y-1974884D01*
G01X824975Y-1997369D01*
G01X824975Y-2019217D01*
G01X813096Y-2019217D01*
G01X813096Y-1992066D01*
G01X813309Y-1964278D01*
G01X813733Y-1962157D01*
G01X814369Y-1959823D01*
G01X815005Y-1958126D01*
G01X815642Y-1956641D01*
G01X816490Y-1955157D01*
G01X817763Y-1953248D01*
G01X819036Y-1951763D01*
G01X821157Y-1950066D01*
G01X822642Y-1949005D01*
G01X824763Y-1947945D01*
G01X826672Y-1947096D01*
G01X828581Y-1946460D01*
G01X831975Y-1945611D01*
G01X834945Y-1945187D01*
G01X839187Y-1944975D01*
G01X842157Y-1945187D01*
G01X846399Y-1946035D01*
G01X848096Y-1946672D01*
G01X850218Y-1947520D01*
G01X852127Y-1948581D01*
G01X854036Y-1949854D01*
G01X855521Y-1951126D01*
G01X858702Y-1954308D01*
G01X859551Y-1955369D01*
G01X860399Y-1956217D01*
G01X860877Y-1955157D01*
G01X861036Y-1951551D01*
G01X861036Y-1946672D01*
G37*
G36*
G01X632794Y-2019853D02*
G01X630460Y-2020278D01*
G01X628551Y-2020490D01*
G01X627066Y-2020702D01*
G01X625157Y-2020914D01*
G01X622824Y-2020702D01*
G01X618581Y-2020278D01*
G01X616460Y-2019853D01*
G01X614127Y-2019217D01*
G01X612218Y-2018581D01*
G01X610521Y-2017944D01*
G01X608612Y-2017096D01*
G01X606915Y-2016247D01*
G01X605430Y-2015187D01*
G01X603733Y-2014126D01*
G01X601612Y-2012429D01*
G01X599490Y-2010308D01*
G01X597369Y-2007763D01*
G01X596521Y-2006490D01*
G01X595884Y-2005217D01*
G01X595036Y-2003732D01*
G01X594187Y-2002035D01*
G01X593339Y-2000126D01*
G01X592490Y-1997369D01*
G01X591854Y-1994399D01*
G01X591430Y-1992278D01*
G01X591005Y-1988884D01*
G01X590858Y-1984005D01*
G01X603096Y-1984005D01*
G01X603309Y-1987187D01*
G01X603733Y-1991005D01*
G01X604581Y-1995247D01*
G01X605218Y-1996944D01*
G01X606066Y-1999066D01*
G01X607127Y-2000975D01*
G01X608187Y-2002460D01*
G01X609460Y-2004157D01*
G01X611369Y-2005853D01*
G01X614339Y-2007975D01*
G01X616460Y-2009035D01*
G01X618794Y-2009884D01*
G01X618794Y-2009884D01*
G01X621975Y-2010520D01*
G01X625581Y-2010732D01*
G01X627490Y-2010520D01*
G01X628763Y-2010308D01*
G01X630460Y-2010096D01*
G01X632157Y-2009460D01*
G01X634066Y-2008611D01*
G01X635763Y-2007550D01*
G01X637248Y-2006490D01*
G01X639369Y-2004369D01*
G01X640642Y-2002884D01*
G01X641915Y-2000975D01*
G01X642975Y-1999066D01*
G01X643824Y-1996944D01*
G01X644672Y-1994399D01*
G01X645309Y-1991005D01*
G01X645733Y-1987611D01*
G01X645945Y-1981884D01*
G01X645733Y-1977005D01*
G01X645309Y-1973611D01*
G01X644884Y-1971702D01*
G01X644248Y-1969581D01*
G01X643612Y-1967884D01*
G01X642975Y-1966399D01*
G01X642127Y-1964914D01*
G01X640854Y-1963005D01*
G01X639157Y-1961096D01*
G01X637672Y-1959823D01*
G01X636612Y-1958975D01*
G01X635127Y-1957914D01*
G01X633006Y-1956854D01*
G01X630672Y-1956005D01*
G01X627490Y-1955369D01*
G01X623460Y-1955157D01*
G01X620703Y-1955369D01*
G01X619006Y-1955793D01*
G01X617097Y-1956429D01*
G01X615187Y-1957278D01*
G01X613703Y-1958126D01*
G01X612642Y-1958975D01*
G01X610945Y-1960248D01*
G01X609248Y-1962157D01*
G01X607127Y-1965126D01*
G01X606066Y-1967248D01*
G01X605218Y-1969581D01*
G01X604369Y-1972338D01*
G01X603733Y-1975732D01*
G01X603309Y-1979551D01*
G01X603096Y-1984005D01*
G01X590858Y-1984005D01*
G01X590793Y-1981884D01*
G01X591005Y-1974884D01*
G01X591430Y-1972338D01*
G01X592066Y-1969581D01*
G01X592702Y-1967460D01*
G01X593339Y-1965551D01*
G01X594612Y-1962581D01*
G01X595460Y-1961096D01*
G01X596521Y-1959399D01*
G01X597581Y-1957914D01*
G01X598854Y-1956217D01*
G01X601399Y-1953672D01*
G01X602884Y-1952399D01*
G01X605854Y-1950278D01*
G01X607551Y-1949217D01*
G01X609248Y-1948369D01*
G01X611157Y-1947520D01*
G01X613066Y-1946884D01*
G01X614763Y-1946460D01*
G01X616884Y-1945823D01*
G01X619430Y-1945399D01*
G01X621127Y-1945187D01*
G01X625157Y-1944975D01*
G01X629187Y-1945187D01*
G01X632157Y-1945611D01*
G01X634066Y-1946035D01*
G01X636187Y-1946672D01*
G01X638309Y-1947520D01*
G01X640218Y-1948369D01*
G01X641915Y-1949217D01*
G01X643400Y-1950066D01*
G01X644884Y-1951126D01*
G01X646369Y-1952399D01*
G01X648490Y-1954096D01*
G01X649551Y-1955157D01*
G01X652096Y-1958338D01*
G01X652733Y-1959611D01*
G01X653793Y-1961308D01*
G01X654642Y-1963217D01*
G01X655278Y-1964702D01*
G01X655915Y-1966399D01*
G01X656551Y-1968308D01*
G01X657187Y-1970854D01*
G01X657612Y-1973187D01*
G01X658036Y-1975732D01*
G01X658248Y-1978914D01*
G01X658460Y-1980823D01*
G01X658672Y-1983793D01*
G01X658460Y-1986763D01*
G01X658036Y-1991854D01*
G01X657187Y-1996096D01*
G01X656551Y-1998217D01*
G01X655703Y-2000550D01*
G01X655066Y-2002247D01*
G01X654430Y-2003732D01*
G01X653581Y-2005217D01*
G01X652521Y-2006914D01*
G01X651460Y-2008399D01*
G01X650400Y-2009460D01*
G01X648703Y-2011581D01*
G01X645521Y-2014126D01*
G01X644036Y-2015187D01*
G01X642339Y-2016247D01*
G01X638945Y-2017944D01*
G01X637248Y-2018581D01*
G01X635339Y-2019217D01*
G01X632794Y-2019853D01*
G37*
G36*
G01X723369Y-2019429D02*
G01X721248Y-2019853D01*
G01X718702Y-2020278D01*
G01X715733Y-2020702D01*
G01X710642Y-2020914D01*
G01X705975Y-2020702D01*
G01X702157Y-2020278D01*
G01X700036Y-2019853D01*
G01X697702Y-2019217D01*
G01X693884Y-2017944D01*
G01X691763Y-2017096D01*
G01X689642Y-2016035D01*
G01X687733Y-2014975D01*
G01X686248Y-2013914D01*
G01X685187Y-2013066D01*
G01X683490Y-2012005D01*
G01X678824Y-2007338D01*
G01X677763Y-2006066D01*
G01X676915Y-2004793D01*
G01X675854Y-2003308D01*
G01X673733Y-1999914D01*
G01X672672Y-1997793D01*
G01X671824Y-1995672D01*
G01X670975Y-1993763D01*
G01X670339Y-1992066D01*
G01X669915Y-1990581D01*
G01X668854Y-1987399D01*
G01X670339Y-1987187D01*
G01X672460Y-1986763D01*
G01X674581Y-1986126D01*
G01X678824Y-1985066D01*
G01X682005Y-1984005D01*
G01X682218Y-1985490D01*
G01X682854Y-1987823D01*
G01X684127Y-1991641D01*
G01X684975Y-1993550D01*
G01X686036Y-1995460D01*
G01X687096Y-1997157D01*
G01X687945Y-1998429D01*
G01X688793Y-1999490D01*
G01X691975Y-2002672D01*
G01X694096Y-2004369D01*
G01X695369Y-2005217D01*
G01X698763Y-2006914D01*
G01X700672Y-2007763D01*
G01X703430Y-2008611D01*
G01X705763Y-2009035D01*
G01X707248Y-2009247D01*
G01X712127Y-2009460D01*
G01X717005Y-2009247D01*
G01X719127Y-2008823D01*
G01X721248Y-2008187D01*
G01X724642Y-2006914D01*
G01X728036Y-2005217D01*
G01X729309Y-2004369D01*
G01X732702Y-2001823D01*
G01X735248Y-1998853D01*
G01X736309Y-1997581D01*
G01X737369Y-1995884D01*
G01X738430Y-1993975D01*
G01X740127Y-1990157D01*
G01X740975Y-1987823D01*
G01X741612Y-1985490D01*
G01X742884Y-1979126D01*
G01X743096Y-1977217D01*
G01X743309Y-1975732D01*
G01X743521Y-1971914D01*
G01X743733Y-1968308D01*
G01X743733Y-1967248D01*
G01X743309Y-1960460D01*
G01X742884Y-1957490D01*
G01X742036Y-1953248D01*
G01X741399Y-1951338D01*
G01X740763Y-1949217D01*
G01X740127Y-1947520D01*
G01X739278Y-1945611D01*
G01X738218Y-1943490D01*
G01X736945Y-1941369D01*
G01X735884Y-1939884D01*
G01X735036Y-1938823D01*
G01X732915Y-1936702D01*
G01X730369Y-1934581D01*
G01X729309Y-1933732D01*
G01X728036Y-1933096D01*
G01X726339Y-1932035D01*
G01X724218Y-1931187D01*
G01X722521Y-1930551D01*
G01X720399Y-1929914D01*
G01X716157Y-1929066D01*
G01X713187Y-1928854D01*
G01X711066Y-1928642D01*
G01X708521Y-1928642D01*
G01X705551Y-1928854D01*
G01X703854Y-1929066D01*
G01X701733Y-1929702D01*
G01X698975Y-1930551D01*
G01X697066Y-1931399D01*
G01X693672Y-1933520D01*
G01X690066Y-1937126D01*
G01X688793Y-1938823D01*
G01X687521Y-1940732D01*
G01X686672Y-1942217D01*
G01X685824Y-1943914D01*
G01X684975Y-1945823D01*
G01X684339Y-1947520D01*
G01X683915Y-1948793D01*
G01X682854Y-1949217D01*
G01X681369Y-1949005D01*
G01X677551Y-1948157D01*
G01X675430Y-1947520D01*
G01X672460Y-1946884D01*
G01X671346Y-1946460D01*
G01X670975Y-1945611D01*
G01X671399Y-1943702D01*
G01X672248Y-1941581D01*
G01X673096Y-1939672D01*
G01X674793Y-1936278D01*
G01X675854Y-1934581D01*
G01X677339Y-1932460D01*
G01X679036Y-1930339D01*
G01X681581Y-1927793D01*
G01X684551Y-1925248D01*
G01X685612Y-1924399D01*
G01X687096Y-1923551D01*
G01X689005Y-1922490D01*
G01X692399Y-1920793D01*
G01X694521Y-1919945D01*
G01X697066Y-1919096D01*
G01X700036Y-1918460D01*
G01X702157Y-1918036D01*
G01X705127Y-1917611D01*
G01X710642Y-1917399D01*
G01X716157Y-1917611D01*
G01X719127Y-1918036D01*
G01X723369Y-1918884D01*
G01X727824Y-1920369D01*
G01X729945Y-1921217D01*
G01X731854Y-1922066D01*
G01X733551Y-1922914D01*
G01X736521Y-1924611D01*
G01X737793Y-1925460D01*
G01X741187Y-1928005D01*
G01X745430Y-1932248D01*
G01X746278Y-1933308D01*
G01X746915Y-1934369D01*
G01X747763Y-1935429D01*
G01X748824Y-1936914D01*
G01X749884Y-1938823D01*
G01X751581Y-1941793D01*
G01X752430Y-1943702D01*
G01X754127Y-1947945D01*
G01X754763Y-1950066D01*
G01X755187Y-1951975D01*
G01X755612Y-1953672D01*
G01X756460Y-1957914D01*
G01X756884Y-1960884D01*
G01X757097Y-1964914D01*
G01X757309Y-1967672D01*
G01X757309Y-1969793D01*
G01X757097Y-1973823D01*
G01X756884Y-1977005D01*
G01X756036Y-1982944D01*
G01X755400Y-1985066D01*
G01X754763Y-1987611D01*
G01X753490Y-1991429D01*
G01X751581Y-1996520D01*
G01X749884Y-1999914D01*
G01X748824Y-2001611D01*
G01X747551Y-2003520D01*
G01X746490Y-2005005D01*
G01X745218Y-2006702D01*
G01X740551Y-2011369D01*
G01X739490Y-2012217D01*
G01X738430Y-2012853D01*
G01X736945Y-2013914D01*
G01X735248Y-2014975D01*
G01X731854Y-2016672D01*
G01X729945Y-2017520D01*
G01X726127Y-2018793D01*
G01X723369Y-2019429D01*
G37*
G36*
G01X938884Y-2019429D02*
G01X937187Y-2019853D01*
G01X935066Y-2020278D01*
G01X932733Y-2020702D01*
G01X929551Y-2020914D01*
G01X926581Y-2020702D01*
G01X922339Y-2020278D01*
G01X920430Y-2019853D01*
G01X918309Y-2019217D01*
G01X914490Y-2017944D01*
G01X912581Y-2017096D01*
G01X910672Y-2016035D01*
G01X908975Y-2014975D01*
G01X907066Y-2013702D01*
G01X903672Y-2011156D01*
G01X902824Y-2010679D01*
G01X902400Y-2010944D01*
G01X901975Y-2013066D01*
G01X901339Y-2015399D01*
G01X900703Y-2017308D01*
G01X899854Y-2018793D01*
G01X893278Y-2019217D01*
G01X887339Y-2019217D01*
G01X887551Y-2018369D01*
G01X888187Y-2016884D01*
G01X888824Y-2015187D01*
G01X889460Y-2013278D01*
G01X890097Y-2010520D01*
G01X890521Y-2007126D01*
G01X890733Y-2000550D01*
G01X890945Y-1994823D01*
G01X891036Y-1987823D01*
G01X903460Y-1987823D01*
G01X903672Y-1993550D01*
G01X904096Y-1996520D01*
G01X904733Y-1998429D01*
G01X905581Y-2000338D01*
G01X906642Y-2002035D01*
G01X907915Y-2003520D01*
G01X910036Y-2005641D01*
G01X911096Y-2006490D01*
G01X912581Y-2007550D01*
G01X914703Y-2008611D01*
G01X916612Y-2009460D01*
G01X918733Y-2010096D01*
G01X920642Y-2010520D01*
G01X920642Y-2010520D01*
G01X922763Y-2010944D01*
G01X927006Y-2011156D01*
G01X929975Y-2010944D01*
G01X931248Y-2010732D01*
G01X933157Y-2010308D01*
G01X935066Y-2009460D01*
G01X936551Y-2008399D01*
G01X937612Y-2007338D01*
G01X938884Y-2005853D01*
G01X939945Y-2003944D01*
G01X940581Y-2001611D01*
G01X940793Y-1998641D01*
G01X940369Y-1996308D01*
G01X939733Y-1994823D01*
G01X938672Y-1993126D01*
G01X937187Y-1991641D01*
G01X935702Y-1990581D01*
G01X933581Y-1989520D01*
G01X931248Y-1988884D01*
G01X929551Y-1988460D01*
G01X927430Y-1988035D01*
G01X922339Y-1987187D01*
G01X919369Y-1986763D01*
G01X916824Y-1986338D01*
G01X914703Y-1985914D01*
G01X912157Y-1985278D01*
G01X909400Y-1984641D01*
G01X907278Y-1984005D01*
G01X905369Y-1983369D01*
G01X903884Y-1982944D01*
G01X903566Y-1984058D01*
G01X903460Y-1987823D01*
G01X891036Y-1987823D01*
G01X891369Y-1962157D01*
G01X891793Y-1960248D01*
G01X892430Y-1958126D01*
G01X893278Y-1956217D01*
G01X894339Y-1954308D01*
G01X895400Y-1952823D01*
G01X896460Y-1951763D01*
G01X898581Y-1950066D01*
G01X899854Y-1949217D01*
G01X901551Y-1948369D01*
G01X903460Y-1947520D01*
G01X905369Y-1946884D01*
G01X908763Y-1946035D01*
G01X910884Y-1945611D01*
G01X913006Y-1945399D01*
G01X914703Y-1945187D01*
G01X919581Y-1944975D01*
G01X924460Y-1945187D01*
G01X928278Y-1945611D01*
G01X930399Y-1946035D01*
G01X932733Y-1946672D01*
G01X936551Y-1947945D01*
G01X938460Y-1948793D01*
G01X940157Y-1949641D01*
G01X941854Y-1950702D01*
G01X943339Y-1951975D01*
G01X945460Y-1954096D01*
G01X946308Y-1955157D01*
G01X947369Y-1956641D01*
G01X948430Y-1958338D01*
G01X949278Y-1960035D01*
G01X950127Y-1962369D01*
G01X951824Y-1967460D01*
G01X950339Y-1967460D01*
G01X948218Y-1967672D01*
G01X945248Y-1968096D01*
G01X941854Y-1968520D01*
G01X940369Y-1968732D01*
G01X939733Y-1968520D01*
G01X939521Y-1967884D01*
G01X939096Y-1966187D01*
G01X938248Y-1964066D01*
G01X937187Y-1961944D01*
G01X936127Y-1960460D01*
G01X934005Y-1958338D01*
G01X932733Y-1957490D01*
G01X931248Y-1956854D01*
G01X929551Y-1956217D01*
G01X927854Y-1955793D01*
G01X925309Y-1955369D01*
G01X919793Y-1955157D01*
G01X915551Y-1955369D01*
G01X913854Y-1955793D01*
G01X911733Y-1956429D01*
G01X909612Y-1957278D01*
G01X908127Y-1958338D01*
G01X907066Y-1959187D01*
G01X905793Y-1960460D01*
G01X904733Y-1962581D01*
G01X904096Y-1964278D01*
G01X903672Y-1966399D01*
G01X903460Y-1970641D01*
G01X903460Y-1973399D01*
G01X904945Y-1973611D01*
G01X907278Y-1974247D01*
G01X908975Y-1974672D01*
G01X910460Y-1974884D01*
G01X912157Y-1975308D01*
G01X919793Y-1976581D01*
G01X922763Y-1977005D01*
G01X929551Y-1977854D01*
G01X932096Y-1978278D01*
G01X934430Y-1978702D01*
G01X936551Y-1979338D01*
G01X938460Y-1979975D01*
G01X940581Y-1980823D01*
G01X942702Y-1981884D01*
G01X944612Y-1982944D01*
G01X946096Y-1984005D01*
G01X948218Y-1986126D01*
G01X949490Y-1987611D01*
G01X950763Y-1989520D01*
G01X951824Y-1991429D01*
G01X952672Y-1993763D01*
G01X953308Y-1996096D01*
G01X953733Y-1998641D01*
G01X953945Y-2001399D01*
G01X953733Y-2003308D01*
G01X953308Y-2005217D01*
G01X952672Y-2007338D01*
G01X951824Y-2009247D01*
G01X950763Y-2011156D01*
G01X949702Y-2012641D01*
G01X947581Y-2014763D01*
G01X946096Y-2016035D01*
G01X944399Y-2017096D01*
G01X942702Y-2017944D01*
G01X940793Y-2018793D01*
G01X938884Y-2019429D01*
G37*
G36*
G01X980672Y-2019217D02*
G01X968369Y-2019217D01*
G01X968369Y-1946672D01*
G01X980672Y-1946672D01*
G01X980672Y-2019217D01*
G37*
G36*
G01X1016733Y-1946672D02*
G01X1027763Y-1946672D01*
G01X1027763Y-1982732D01*
G01X1027551Y-2019005D01*
G01X1021399Y-2019217D01*
G01X1015460Y-2019217D01*
G01X1015460Y-1998853D01*
G01X1015248Y-1977854D01*
G01X1014824Y-1972763D01*
G01X1013975Y-1968520D01*
G01X1013339Y-1966611D01*
G01X1012490Y-1964490D01*
G01X1011430Y-1962793D01*
G01X1010369Y-1961308D01*
G01X1009096Y-1960248D01*
G01X1007612Y-1959399D01*
G01X1005915Y-1958551D01*
G01X1003369Y-1957914D01*
G01X1000187Y-1957702D01*
G01X997854Y-1957914D01*
G01X996369Y-1958338D01*
G01X994672Y-1958975D01*
G01X993187Y-1959611D01*
G01X992604Y-1959558D01*
G01X992127Y-1958975D01*
G01X991278Y-1956854D01*
G01X988733Y-1949854D01*
G01X988680Y-1948952D01*
G01X989369Y-1948369D01*
G01X991066Y-1947520D01*
G01X992975Y-1946672D01*
G01X994884Y-1946035D01*
G01X996581Y-1945611D01*
G01X998702Y-1945187D01*
G01X1001248Y-1944975D01*
G01X1003369Y-1945187D01*
G01X1004854Y-1945611D01*
G01X1006763Y-1946460D01*
G01X1008672Y-1947520D01*
G01X1009945Y-1948581D01*
G01X1011005Y-1949641D01*
G01X1012066Y-1950914D01*
G01X1012915Y-1952187D01*
G01X1013975Y-1953672D01*
G01X1015036Y-1955369D01*
G01X1015884Y-1956429D01*
G01X1016256Y-1956588D01*
G01X1016521Y-1956217D01*
G01X1016733Y-1951126D01*
G01X1016733Y-1946672D01*
G37*
G36*
G01X980672Y-1933096D02*
G01X968369Y-1933096D01*
G01X968369Y-1919096D01*
G01X980672Y-1919096D01*
G01X980672Y-1933096D01*
G37*
G36*
G01X1533036Y-1933096D02*
G01X1521157Y-1933096D01*
G01X1521157Y-1919096D01*
G01X1533036Y-1919096D01*
G01X1533036Y-1933096D01*
G37*
G36*
G01X1133240Y-2113770D02*
G01X1133399Y-2110217D01*
G01X1133399Y-2105338D01*
G01X1144005Y-2105338D01*
G01X1144005Y-2177884D01*
G01X1132127Y-2177884D01*
G01X1132127Y-2158156D01*
G01X1131914Y-2137793D01*
G01X1131490Y-2131005D01*
G01X1131066Y-2128035D01*
G01X1130430Y-2126126D01*
G01X1129581Y-2123793D01*
G01X1128733Y-2122096D01*
G01X1127884Y-2120823D01*
G01X1125763Y-2118702D01*
G01X1124278Y-2117429D01*
G01X1122157Y-2116157D01*
G01X1120036Y-2115308D01*
G01X1118339Y-2114884D01*
G01X1116217Y-2114460D01*
G01X1112824Y-2114247D01*
G01X1110278Y-2114460D01*
G01X1108369Y-2115096D01*
G01X1106036Y-2116369D01*
G01X1104551Y-2117854D01*
G01X1103490Y-2119338D01*
G01X1102430Y-2121460D01*
G01X1101793Y-2123793D01*
G01X1101369Y-2126338D01*
G01X1101157Y-2152853D01*
G01X1101157Y-2177884D01*
G01X1088854Y-2177884D01*
G01X1088854Y-2154763D01*
G01X1088642Y-2131005D01*
G01X1088218Y-2127611D01*
G01X1087581Y-2125702D01*
G01X1086733Y-2123369D01*
G01X1085460Y-2121247D01*
G01X1084187Y-2119550D01*
G01X1081642Y-2117429D01*
G01X1080369Y-2116581D01*
G01X1078884Y-2115944D01*
G01X1077187Y-2115308D01*
G01X1075490Y-2114884D01*
G01X1072945Y-2114460D01*
G01X1069551Y-2114247D01*
G01X1067430Y-2114460D01*
G01X1065521Y-2115096D01*
G01X1063187Y-2116369D01*
G01X1060642Y-2118914D01*
G01X1059793Y-2120187D01*
G01X1059157Y-2121884D01*
G01X1058733Y-2123581D01*
G01X1058521Y-2125066D01*
G01X1058096Y-2131005D01*
G01X1057884Y-2154763D01*
G01X1057884Y-2177884D01*
G01X1046006Y-2177884D01*
G01X1046006Y-2150096D01*
G01X1046218Y-2121672D01*
G01X1046642Y-2119550D01*
G01X1047278Y-2117217D01*
G01X1047915Y-2115520D01*
G01X1048551Y-2114035D01*
G01X1049399Y-2112550D01*
G01X1050672Y-2110641D01*
G01X1052157Y-2109157D01*
G01X1053218Y-2108308D01*
G01X1054702Y-2107247D01*
G01X1056612Y-2106187D01*
G01X1058521Y-2105338D01*
G01X1061066Y-2104490D01*
G01X1063612Y-2104066D01*
G01X1065309Y-2103854D01*
G01X1068702Y-2103641D01*
G01X1072096Y-2103854D01*
G01X1074005Y-2104278D01*
G01X1076127Y-2104914D01*
G01X1077824Y-2105551D01*
G01X1079308Y-2106187D01*
G01X1081005Y-2107035D01*
G01X1082490Y-2107884D01*
G01X1085672Y-2110429D01*
G01X1086733Y-2111490D01*
G01X1088005Y-2113187D01*
G01X1089278Y-2114672D01*
G01X1090127Y-2115520D01*
G01X1090551Y-2115679D01*
G01X1090975Y-2115308D01*
G01X1091824Y-2113611D01*
G01X1092672Y-2112126D01*
G01X1093521Y-2111066D01*
G01X1095642Y-2108944D01*
G01X1097127Y-2107672D01*
G01X1098824Y-2106611D01*
G01X1100521Y-2105763D01*
G01X1102854Y-2104914D01*
G01X1105611Y-2104278D01*
G01X1108157Y-2103854D01*
G01X1111763Y-2103641D01*
G01X1114945Y-2103854D01*
G01X1117066Y-2104278D01*
G01X1119399Y-2104914D01*
G01X1121096Y-2105551D01*
G01X1122581Y-2106187D01*
G01X1124278Y-2107035D01*
G01X1125763Y-2107884D01*
G01X1128945Y-2110429D01*
G01X1130005Y-2111490D01*
G01X1131702Y-2113611D01*
G01X1132763Y-2114672D01*
G01X1133240Y-2113770D01*
G37*
G36*
G01X1200854Y-2178520D02*
G01X1198521Y-2178944D01*
G01X1196612Y-2179157D01*
G01X1195127Y-2179369D01*
G01X1193218Y-2179581D01*
G01X1190884Y-2179369D01*
G01X1186642Y-2178944D01*
G01X1184521Y-2178520D01*
G01X1182187Y-2177884D01*
G01X1180278Y-2177248D01*
G01X1178581Y-2176611D01*
G01X1174763Y-2174702D01*
G01X1173066Y-2173641D01*
G01X1171793Y-2172793D01*
G01X1169672Y-2171096D01*
G01X1167551Y-2168975D01*
G01X1165430Y-2166429D01*
G01X1164581Y-2165157D01*
G01X1163945Y-2163884D01*
G01X1163096Y-2162399D01*
G01X1162248Y-2160702D01*
G01X1161399Y-2158793D01*
G01X1160551Y-2156035D01*
G01X1159915Y-2153066D01*
G01X1159490Y-2150944D01*
G01X1159066Y-2147550D01*
G01X1158899Y-2142035D01*
G01X1171157Y-2142035D01*
G01X1171369Y-2145853D01*
G01X1171793Y-2149672D01*
G01X1172218Y-2151793D01*
G01X1172854Y-2154126D01*
G01X1173490Y-2156035D01*
G01X1174127Y-2157732D01*
G01X1174975Y-2159217D01*
G01X1176248Y-2161126D01*
G01X1177521Y-2162823D01*
G01X1178581Y-2163884D01*
G01X1180278Y-2165157D01*
G01X1182399Y-2166641D01*
G01X1184521Y-2167702D01*
G01X1186854Y-2168550D01*
G01X1186854Y-2168550D01*
G01X1190036Y-2169187D01*
G01X1193642Y-2169399D01*
G01X1195551Y-2169187D01*
G01X1196824Y-2168975D01*
G01X1198521Y-2168763D01*
G01X1200218Y-2168126D01*
G01X1202127Y-2167278D01*
G01X1203824Y-2166217D01*
G01X1205308Y-2165157D01*
G01X1207430Y-2163035D01*
G01X1208702Y-2161550D01*
G01X1209975Y-2159641D01*
G01X1211036Y-2157732D01*
G01X1211884Y-2155611D01*
G01X1212733Y-2153066D01*
G01X1213369Y-2149672D01*
G01X1213793Y-2146278D01*
G01X1214005Y-2140550D01*
G01X1213793Y-2135672D01*
G01X1213369Y-2132278D01*
G01X1212945Y-2130369D01*
G01X1212308Y-2128247D01*
G01X1211672Y-2126550D01*
G01X1211036Y-2125066D01*
G01X1210187Y-2123581D01*
G01X1208915Y-2121672D01*
G01X1207642Y-2119975D01*
G01X1205096Y-2117854D01*
G01X1204036Y-2117005D01*
G01X1201066Y-2115520D01*
G01X1198733Y-2114672D01*
G01X1195551Y-2114035D01*
G01X1191521Y-2113823D01*
G01X1188763Y-2114035D01*
G01X1187066Y-2114460D01*
G01X1185157Y-2115096D01*
G01X1183248Y-2115944D01*
G01X1181763Y-2116793D01*
G01X1180702Y-2117641D01*
G01X1179006Y-2118914D01*
G01X1177309Y-2120823D01*
G01X1176248Y-2122308D01*
G01X1175399Y-2123581D01*
G01X1174551Y-2125066D01*
G01X1173703Y-2126975D01*
G01X1172854Y-2129520D01*
G01X1172218Y-2132278D01*
G01X1171793Y-2134399D01*
G01X1171369Y-2138217D01*
G01X1171157Y-2142035D01*
G01X1158899Y-2142035D01*
G01X1158854Y-2140550D01*
G01X1159066Y-2133550D01*
G01X1159915Y-2128884D01*
G01X1160551Y-2126763D01*
G01X1161399Y-2124217D01*
G01X1162248Y-2122096D01*
G01X1163096Y-2120399D01*
G01X1164157Y-2118702D01*
G01X1165642Y-2116581D01*
G01X1166915Y-2114884D01*
G01X1170096Y-2111702D01*
G01X1171793Y-2110429D01*
G01X1173915Y-2108944D01*
G01X1175612Y-2107884D01*
G01X1177309Y-2107035D01*
G01X1179218Y-2106187D01*
G01X1181127Y-2105551D01*
G01X1182824Y-2105126D01*
G01X1184945Y-2104490D01*
G01X1187490Y-2104066D01*
G01X1189187Y-2103854D01*
G01X1193218Y-2103641D01*
G01X1197248Y-2103854D01*
G01X1200218Y-2104278D01*
G01X1202127Y-2104702D01*
G01X1204248Y-2105338D01*
G01X1205945Y-2105975D01*
G01X1207430Y-2106611D01*
G01X1209127Y-2107460D01*
G01X1211036Y-2108520D01*
G01X1212945Y-2109793D01*
G01X1214430Y-2111066D01*
G01X1216551Y-2112763D01*
G01X1217611Y-2113823D01*
G01X1220157Y-2117005D01*
G01X1220793Y-2118278D01*
G01X1221854Y-2119975D01*
G01X1222702Y-2121884D01*
G01X1223339Y-2123369D01*
G01X1223975Y-2125066D01*
G01X1224611Y-2126975D01*
G01X1225248Y-2129520D01*
G01X1225672Y-2131853D01*
G01X1226096Y-2134399D01*
G01X1226308Y-2137369D01*
G01X1226521Y-2139066D01*
G01X1226733Y-2142460D01*
G01X1226521Y-2145853D01*
G01X1226096Y-2150520D01*
G01X1225672Y-2152641D01*
G01X1225036Y-2155399D01*
G01X1224399Y-2157520D01*
G01X1223127Y-2160914D01*
G01X1222490Y-2162399D01*
G01X1221642Y-2163884D01*
G01X1220581Y-2165581D01*
G01X1219521Y-2167066D01*
G01X1218460Y-2168126D01*
G01X1216763Y-2170247D01*
G01X1213581Y-2172793D01*
G01X1212096Y-2173854D01*
G01X1210399Y-2174914D01*
G01X1207005Y-2176611D01*
G01X1205308Y-2177248D01*
G01X1203399Y-2177884D01*
G01X1200854Y-2178520D01*
G37*
G36*
G01X1270642Y-2178520D02*
G01X1268520Y-2178944D01*
G01X1266399Y-2179157D01*
G01X1265127Y-2179369D01*
G01X1262793Y-2179581D01*
G01X1260036Y-2179369D01*
G01X1256642Y-2178944D01*
G01X1254733Y-2178520D01*
G01X1252611Y-2177884D01*
G01X1250914Y-2177248D01*
G01X1249430Y-2176611D01*
G01X1247733Y-2175763D01*
G01X1246248Y-2174914D01*
G01X1244763Y-2173854D01*
G01X1243278Y-2172581D01*
G01X1239248Y-2168550D01*
G01X1238399Y-2167490D01*
G01X1237551Y-2166005D01*
G01X1236490Y-2164096D01*
G01X1235642Y-2162399D01*
G01X1234793Y-2160490D01*
G01X1233945Y-2157944D01*
G01X1233308Y-2155187D01*
G01X1232884Y-2153278D01*
G01X1232937Y-2152960D01*
G01X1233521Y-2152853D01*
G01X1235005Y-2152641D01*
G01X1243490Y-2151581D01*
G01X1244339Y-2151846D01*
G01X1244763Y-2152641D01*
G01X1245187Y-2154763D01*
G01X1245824Y-2156884D01*
G01X1246672Y-2159005D01*
G01X1247520Y-2160702D01*
G01X1248369Y-2162187D01*
G01X1249430Y-2163460D01*
G01X1250490Y-2164520D01*
G01X1251975Y-2165793D01*
G01X1253460Y-2166853D01*
G01X1254733Y-2167490D01*
G01X1256217Y-2168126D01*
G01X1258551Y-2168763D01*
G01X1260884Y-2169187D01*
G01X1263854Y-2169399D01*
G01X1266823Y-2169187D01*
G01X1268520Y-2168763D01*
G01X1270430Y-2168126D01*
G01X1272339Y-2167278D01*
G01X1273824Y-2166429D01*
G01X1274884Y-2165581D01*
G01X1277005Y-2163460D01*
G01X1278278Y-2161975D01*
G01X1279339Y-2160278D01*
G01X1280187Y-2158581D01*
G01X1281036Y-2156672D01*
G01X1281672Y-2154550D01*
G01X1282096Y-2152641D01*
G01X1282521Y-2150520D01*
G01X1282945Y-2147126D01*
G01X1283157Y-2140338D01*
G01X1282945Y-2134823D01*
G01X1282521Y-2131853D01*
G01X1282096Y-2129944D01*
G01X1281460Y-2127823D01*
G01X1280824Y-2125914D01*
G01X1280187Y-2124217D01*
G01X1279127Y-2122520D01*
G01X1277642Y-2120399D01*
G01X1276157Y-2118914D01*
G01X1275096Y-2118066D01*
G01X1273611Y-2117005D01*
G01X1271914Y-2115944D01*
G01X1270005Y-2115096D01*
G01X1267248Y-2114247D01*
G01X1262369Y-2113823D01*
G01X1258339Y-2114035D01*
G01X1256430Y-2114672D01*
G01X1254520Y-2115520D01*
G01X1252824Y-2116581D01*
G01X1251339Y-2117854D01*
G01X1250278Y-2118914D01*
G01X1249217Y-2120187D01*
G01X1248369Y-2121672D01*
G01X1247520Y-2123369D01*
G01X1246672Y-2125278D01*
G01X1246036Y-2127187D01*
G01X1245611Y-2127982D01*
G01X1244763Y-2128247D01*
G01X1243066Y-2128035D01*
G01X1240521Y-2127611D01*
G01X1237551Y-2127187D01*
G01X1235217Y-2126763D01*
G01X1233945Y-2126550D01*
G01X1234157Y-2125066D01*
G01X1234793Y-2122732D01*
G01X1236066Y-2119338D01*
G01X1236914Y-2117429D01*
G01X1237763Y-2115944D01*
G01X1238611Y-2114884D01*
G01X1239884Y-2113187D01*
G01X1242430Y-2110641D01*
G01X1243914Y-2109369D01*
G01X1245824Y-2108096D01*
G01X1247733Y-2107035D01*
G01X1249642Y-2106187D01*
G01X1251763Y-2105338D01*
G01X1254520Y-2104702D01*
G01X1256642Y-2104278D01*
G01X1259611Y-2103854D01*
G01X1263217Y-2103641D01*
G01X1266823Y-2103854D01*
G01X1269793Y-2104278D01*
G01X1271702Y-2104702D01*
G01X1273824Y-2105338D01*
G01X1275521Y-2105975D01*
G01X1278490Y-2107247D01*
G01X1280187Y-2108096D01*
G01X1282096Y-2109369D01*
G01X1284218Y-2110854D01*
G01X1286763Y-2113399D01*
G01X1287612Y-2114460D01*
G01X1288248Y-2115520D01*
G01X1289096Y-2116581D01*
G01X1289945Y-2117854D01*
G01X1291642Y-2121247D01*
G01X1292490Y-2123157D01*
G01X1293339Y-2125702D01*
G01X1293975Y-2128247D01*
G01X1294399Y-2130157D01*
G01X1294824Y-2131853D01*
G01X1295248Y-2134823D01*
G01X1295460Y-2137793D01*
G01X1295672Y-2139490D01*
G01X1295884Y-2143096D01*
G01X1295672Y-2146702D01*
G01X1295248Y-2150944D01*
G01X1294824Y-2153278D01*
G01X1294187Y-2155823D01*
G01X1292915Y-2159641D01*
G01X1292278Y-2161338D01*
G01X1291642Y-2162823D01*
G01X1290793Y-2164308D01*
G01X1289733Y-2166005D01*
G01X1288672Y-2167490D01*
G01X1286975Y-2169611D01*
G01X1285915Y-2170672D01*
G01X1282733Y-2173217D01*
G01X1281248Y-2174278D01*
G01X1279551Y-2175338D01*
G01X1277854Y-2176187D01*
G01X1275945Y-2177035D01*
G01X1274036Y-2177672D01*
G01X1270642Y-2178520D01*
G37*
G36*
G01X1658187Y-2178732D02*
G01X1656702Y-2178944D01*
G01X1654793Y-2179157D01*
G01X1653308Y-2179369D01*
G01X1650763Y-2179581D01*
G01X1647793Y-2179369D01*
G01X1643551Y-2178944D01*
G01X1639733Y-2178096D01*
G01X1637823Y-2177460D01*
G01X1635702Y-2176611D01*
G01X1633793Y-2175763D01*
G01X1632308Y-2174914D01*
G01X1630824Y-2173854D01*
G01X1629339Y-2172581D01*
G01X1627217Y-2170884D01*
G01X1626157Y-2169823D01*
G01X1623611Y-2166641D01*
G01X1622975Y-2165369D01*
G01X1621914Y-2163672D01*
G01X1620854Y-2161550D01*
G01X1620005Y-2159217D01*
G01X1619157Y-2157096D01*
G01X1619104Y-2156407D01*
G01X1619793Y-2156035D01*
G01X1621702Y-2155823D01*
G01X1623187Y-2155611D01*
G01X1626581Y-2155187D01*
G01X1630399Y-2154763D01*
G01X1630983Y-2154763D01*
G01X1631460Y-2155187D01*
G01X1633369Y-2159005D01*
G01X1634430Y-2160914D01*
G01X1635278Y-2162187D01*
G01X1636127Y-2163247D01*
G01X1637187Y-2164308D01*
G01X1638248Y-2165157D01*
G01X1639733Y-2166217D01*
G01X1641430Y-2167278D01*
G01X1642914Y-2167914D01*
G01X1644399Y-2168338D01*
G01X1646096Y-2168763D01*
G01X1648217Y-2169187D01*
G01X1651611Y-2169399D01*
G01X1654581Y-2169187D01*
G01X1656490Y-2168763D01*
G01X1658611Y-2168126D01*
G01X1660520Y-2167278D01*
G01X1662005Y-2166429D01*
G01X1663066Y-2165581D01*
G01X1664763Y-2164308D01*
G01X1666460Y-2162399D01*
G01X1668581Y-2159429D01*
G01X1669642Y-2157308D01*
G01X1670490Y-2155399D01*
G01X1671126Y-2153278D01*
G01X1671551Y-2151369D01*
G01X1671975Y-2149672D01*
G01X1672399Y-2146702D01*
G01X1672611Y-2144793D01*
G01X1618733Y-2144793D01*
G01X1618521Y-2143732D01*
G01X1618308Y-2140126D01*
G01X1618521Y-2136944D01*
G01X1618945Y-2132702D01*
G01X1631672Y-2132702D01*
G01X1631672Y-2134187D01*
G01X1651611Y-2134611D01*
G01X1671551Y-2134399D01*
G01X1671763Y-2132914D01*
G01X1671551Y-2131005D01*
G01X1671126Y-2129096D01*
G01X1670490Y-2126975D01*
G01X1669642Y-2125066D01*
G01X1668793Y-2123369D01*
G01X1667945Y-2122096D01*
G01X1666248Y-2119975D01*
G01X1665187Y-2118914D01*
G01X1663490Y-2117641D01*
G01X1661369Y-2116369D01*
G01X1659672Y-2115520D01*
G01X1657551Y-2114672D01*
G01X1655005Y-2114035D01*
G01X1650763Y-2113823D01*
G01X1646945Y-2114035D01*
G01X1645248Y-2114460D01*
G01X1643551Y-2115096D01*
G01X1641005Y-2116369D01*
G01X1639733Y-2117217D01*
G01X1637611Y-2118914D01*
G01X1636551Y-2120187D01*
G01X1635702Y-2121460D01*
G01X1634642Y-2122944D01*
G01X1633581Y-2125066D01*
G01X1632733Y-2127399D01*
G01X1632096Y-2130157D01*
G01X1631672Y-2132702D01*
G01X1631672Y-2132702D01*
G01X1618945Y-2132702D01*
G01X1619793Y-2128460D01*
G01X1620430Y-2126338D01*
G01X1621278Y-2124005D01*
G01X1621914Y-2122308D01*
G01X1622551Y-2120823D01*
G01X1623399Y-2119338D01*
G01X1624460Y-2117641D01*
G01X1625520Y-2116157D01*
G01X1627217Y-2114035D01*
G01X1629339Y-2111914D01*
G01X1631884Y-2109793D01*
G01X1633157Y-2108944D01*
G01X1634430Y-2108308D01*
G01X1635914Y-2107460D01*
G01X1637611Y-2106611D01*
G01X1639520Y-2105763D01*
G01X1642278Y-2104914D01*
G01X1645248Y-2104278D01*
G01X1648217Y-2103854D01*
G01X1652460Y-2103641D01*
G01X1655854Y-2103854D01*
G01X1659248Y-2104278D01*
G01X1661369Y-2104914D01*
G01X1664126Y-2105763D01*
G01X1666036Y-2106611D01*
G01X1667733Y-2107460D01*
G01X1669217Y-2108308D01*
G01X1670490Y-2109157D01*
G01X1671763Y-2110217D01*
G01X1673884Y-2111914D01*
G01X1676005Y-2114035D01*
G01X1677278Y-2115732D01*
G01X1678763Y-2117854D01*
G01X1679823Y-2119550D01*
G01X1681520Y-2122944D01*
G01X1682157Y-2124429D01*
G01X1682793Y-2126126D01*
G01X1683430Y-2128247D01*
G01X1683854Y-2130157D01*
G01X1684278Y-2132278D01*
G01X1684702Y-2134823D01*
G01X1684914Y-2137156D01*
G01X1685127Y-2139066D01*
G01X1685339Y-2142884D01*
G01X1685127Y-2146702D01*
G01X1684702Y-2150944D01*
G01X1683854Y-2155187D01*
G01X1683217Y-2157096D01*
G01X1682369Y-2159429D01*
G01X1681520Y-2161550D01*
G01X1680672Y-2163247D01*
G01X1679611Y-2164944D01*
G01X1678126Y-2167066D01*
G01X1676429Y-2169187D01*
G01X1674945Y-2170672D01*
G01X1672823Y-2172369D01*
G01X1671126Y-2173641D01*
G01X1669005Y-2174914D01*
G01X1665611Y-2176611D01*
G01X1663278Y-2177460D01*
G01X1660520Y-2178308D01*
G01X1658187Y-2178732D01*
G37*
G36*
G01X1593278Y-2177884D02*
G01X1590521Y-2178520D01*
G01X1588399Y-2178944D01*
G01X1586702Y-2179369D01*
G01X1583308Y-2179581D01*
G01X1580339Y-2179369D01*
G01X1576096Y-2178944D01*
G01X1573975Y-2178520D01*
G01X1571642Y-2177884D01*
G01X1569733Y-2177248D01*
G01X1568036Y-2176611D01*
G01X1564642Y-2174914D01*
G01X1562945Y-2173854D01*
G01X1559127Y-2171308D01*
G01X1557642Y-2170035D01*
G01X1557165Y-2169611D01*
G01X1556581Y-2169611D01*
G01X1555733Y-2170884D01*
G01X1555096Y-2173429D01*
G01X1554248Y-2176187D01*
G01X1553664Y-2177195D01*
G01X1552763Y-2177672D01*
G01X1546187Y-2177884D01*
G01X1540672Y-2177884D01*
G01X1541096Y-2176823D01*
G01X1541945Y-2175126D01*
G01X1542581Y-2173429D01*
G01X1543005Y-2171732D01*
G01X1543642Y-2169611D01*
G01X1544066Y-2166005D01*
G01X1544278Y-2163247D01*
G01X1544479Y-2144793D01*
G01X1556793Y-2144793D01*
G01X1557005Y-2148399D01*
G01X1557430Y-2153914D01*
G01X1557854Y-2155611D01*
G01X1558490Y-2157520D01*
G01X1559339Y-2159217D01*
G01X1560611Y-2161126D01*
G01X1561884Y-2162823D01*
G01X1562945Y-2163884D01*
G01X1564642Y-2165157D01*
G01X1566551Y-2166429D01*
G01X1568248Y-2167278D01*
G01X1570157Y-2168126D01*
G01X1572702Y-2168975D01*
G01X1575036Y-2169399D01*
G01X1575036Y-2169399D01*
G01X1576521Y-2169611D01*
G01X1580127Y-2169823D01*
G01X1583308Y-2169611D01*
G01X1584581Y-2169399D01*
G01X1586490Y-2168975D01*
G01X1588187Y-2168338D01*
G01X1589460Y-2167702D01*
G01X1590521Y-2166853D01*
G01X1591581Y-2165793D01*
G01X1592642Y-2164308D01*
G01X1593702Y-2162187D01*
G01X1594127Y-2160066D01*
G01X1594339Y-2158581D01*
G01X1594339Y-2156459D01*
G01X1593702Y-2154126D01*
G01X1592642Y-2152217D01*
G01X1591369Y-2150732D01*
G01X1589884Y-2149672D01*
G01X1587975Y-2148611D01*
G01X1585642Y-2147763D01*
G01X1582884Y-2147126D01*
G01X1580763Y-2146702D01*
G01X1570581Y-2145005D01*
G01X1566339Y-2144156D01*
G01X1562945Y-2143308D01*
G01X1560824Y-2142672D01*
G01X1558490Y-2141823D01*
G01X1557218Y-2141611D01*
G01X1556793Y-2144793D01*
G01X1544479Y-2144793D01*
G01X1544702Y-2124217D01*
G01X1545127Y-2119550D01*
G01X1545763Y-2117641D01*
G01X1546611Y-2115308D01*
G01X1547460Y-2113611D01*
G01X1548308Y-2112338D01*
G01X1549581Y-2110641D01*
G01X1551066Y-2109369D01*
G01X1552127Y-2108732D01*
G01X1553611Y-2107884D01*
G01X1557005Y-2106187D01*
G01X1559551Y-2105338D01*
G01X1562521Y-2104702D01*
G01X1564642Y-2104278D01*
G01X1568460Y-2103854D01*
G01X1573339Y-2103641D01*
G01X1578218Y-2103854D01*
G01X1582036Y-2104278D01*
G01X1584157Y-2104702D01*
G01X1586490Y-2105338D01*
G01X1588399Y-2105975D01*
G01X1590096Y-2106611D01*
G01X1591581Y-2107247D01*
G01X1593278Y-2108096D01*
G01X1594975Y-2109157D01*
G01X1596248Y-2110005D01*
G01X1597308Y-2110854D01*
G01X1599430Y-2112975D01*
G01X1600278Y-2114035D01*
G01X1601127Y-2115520D01*
G01X1602187Y-2117429D01*
G01X1603036Y-2119126D01*
G01X1603672Y-2120823D01*
G01X1604308Y-2122732D01*
G01X1604945Y-2124853D01*
G01X1605157Y-2126126D01*
G01X1603672Y-2126126D01*
G01X1601551Y-2126338D01*
G01X1594127Y-2127399D01*
G01X1593437Y-2127134D01*
G01X1593066Y-2126338D01*
G01X1592642Y-2124641D01*
G01X1592005Y-2122944D01*
G01X1591157Y-2121247D01*
G01X1590308Y-2119975D01*
G01X1589036Y-2118278D01*
G01X1587339Y-2116793D01*
G01X1585854Y-2115944D01*
G01X1583945Y-2115096D01*
G01X1581187Y-2114460D01*
G01X1578642Y-2114035D01*
G01X1573763Y-2113823D01*
G01X1569309Y-2114035D01*
G01X1567399Y-2114460D01*
G01X1565278Y-2115096D01*
G01X1563369Y-2115944D01*
G01X1561884Y-2116793D01*
G01X1560824Y-2117641D01*
G01X1559763Y-2118702D01*
G01X1558914Y-2119975D01*
G01X1558066Y-2121672D01*
G01X1557430Y-2124217D01*
G01X1557005Y-2127187D01*
G01X1556793Y-2130157D01*
G01X1557111Y-2131376D01*
G01X1558066Y-2132066D01*
G01X1560824Y-2132914D01*
G01X1563793Y-2133550D01*
G01X1568036Y-2134399D01*
G01X1570581Y-2134823D01*
G01X1576521Y-2135672D01*
G01X1578430Y-2135884D01*
G01X1585854Y-2136944D01*
G01X1587975Y-2137369D01*
G01X1590308Y-2138005D01*
G01X1593702Y-2139278D01*
G01X1595611Y-2140126D01*
G01X1597096Y-2140975D01*
G01X1599642Y-2142672D01*
G01X1600702Y-2143520D01*
G01X1601763Y-2144581D01*
G01X1603036Y-2146278D01*
G01X1604521Y-2148399D01*
G01X1605581Y-2150520D01*
G01X1606430Y-2152853D01*
G01X1607066Y-2155611D01*
G01X1607278Y-2160066D01*
G01X1607066Y-2163672D01*
G01X1606430Y-2165581D01*
G01X1605581Y-2167914D01*
G01X1604733Y-2169399D01*
G01X1603884Y-2170460D01*
G01X1602611Y-2172157D01*
G01X1600702Y-2173854D01*
G01X1597733Y-2175975D01*
G01X1595611Y-2177035D01*
G01X1593278Y-2177884D01*
G37*
G36*
G01X2093460Y-2089217D02*
G01X2039157Y-2089217D01*
G01X2039157Y-2077763D01*
G01X2106611Y-2077763D01*
G01X2106611Y-2177884D01*
G01X2093460Y-2177884D01*
G01X2093460Y-2132490D01*
G01X2046793Y-2132490D01*
G01X2046581Y-2131429D01*
G01X2046369Y-2125490D01*
G01X2046369Y-2120611D01*
G01X2093460Y-2120611D01*
G01X2093460Y-2089217D01*
G37*
G36*
G01X1807096Y-2178520D02*
G01X1804763Y-2178944D01*
G01X1802642Y-2179157D01*
G01X1800945Y-2179369D01*
G01X1798399Y-2179581D01*
G01X1795429Y-2179369D01*
G01X1791611Y-2178944D01*
G01X1789490Y-2178520D01*
G01X1787157Y-2177884D01*
G01X1785248Y-2177248D01*
G01X1783551Y-2176611D01*
G01X1781854Y-2175763D01*
G01X1779945Y-2174702D01*
G01X1778460Y-2173641D01*
G01X1776763Y-2172369D01*
G01X1773157Y-2168763D01*
G01X1772096Y-2167278D01*
G01X1770823Y-2165369D01*
G01X1769551Y-2163247D01*
G01X1768490Y-2160914D01*
G01X1767642Y-2158793D01*
G01X1767005Y-2157096D01*
G01X1767111Y-2156407D01*
G01X1767854Y-2156035D01*
G01X1769763Y-2155823D01*
G01X1771248Y-2155611D01*
G01X1778036Y-2154763D01*
G01X1779096Y-2154763D01*
G01X1779733Y-2155823D01*
G01X1780581Y-2157732D01*
G01X1781642Y-2159853D01*
G01X1782490Y-2161338D01*
G01X1783339Y-2162399D01*
G01X1785460Y-2164520D01*
G01X1786945Y-2165793D01*
G01X1788642Y-2166853D01*
G01X1790339Y-2167702D01*
G01X1792672Y-2168550D01*
G01X1795854Y-2169187D01*
G01X1799672Y-2169399D01*
G01X1802217Y-2169187D01*
G01X1804126Y-2168763D01*
G01X1806248Y-2168126D01*
G01X1808157Y-2167278D01*
G01X1810066Y-2166217D01*
G01X1811551Y-2165157D01*
G01X1814732Y-2161975D01*
G01X1815793Y-2160490D01*
G01X1816854Y-2158581D01*
G01X1817702Y-2156884D01*
G01X1818551Y-2154975D01*
G01X1819187Y-2152641D01*
G01X1820036Y-2148399D01*
G01X1820248Y-2146066D01*
G01X1820248Y-2144793D01*
G01X1766369Y-2144793D01*
G01X1766369Y-2140126D01*
G01X1766581Y-2134823D01*
G01X1766608Y-2134611D01*
G01X1779096Y-2134611D01*
G01X1799248Y-2134611D01*
G01X1819611Y-2134399D01*
G01X1819611Y-2132702D01*
G01X1819187Y-2129944D01*
G01X1818551Y-2127823D01*
G01X1817914Y-2126126D01*
G01X1817278Y-2124641D01*
G01X1816429Y-2122944D01*
G01X1815369Y-2121460D01*
G01X1812823Y-2118914D01*
G01X1811339Y-2117641D01*
G01X1809854Y-2116581D01*
G01X1807732Y-2115520D01*
G01X1805399Y-2114672D01*
G01X1802642Y-2114035D01*
G01X1798187Y-2113823D01*
G01X1794581Y-2114035D01*
G01X1792672Y-2114672D01*
G01X1790339Y-2115520D01*
G01X1788217Y-2116793D01*
G01X1786520Y-2118066D01*
G01X1784399Y-2120187D01*
G01X1783339Y-2121460D01*
G01X1782490Y-2122944D01*
G01X1781642Y-2124641D01*
G01X1780793Y-2126975D01*
G01X1780157Y-2129308D01*
G01X1780157Y-2129308D01*
G01X1779096Y-2134611D01*
G01X1766608Y-2134611D01*
G01X1767005Y-2131429D01*
G01X1767854Y-2127611D01*
G01X1768490Y-2125702D01*
G01X1769339Y-2123369D01*
G01X1770187Y-2121247D01*
G01X1771248Y-2119338D01*
G01X1772520Y-2117429D01*
G01X1774005Y-2115308D01*
G01X1778672Y-2110641D01*
G01X1779733Y-2109793D01*
G01X1780793Y-2109157D01*
G01X1782066Y-2108308D01*
G01X1783551Y-2107460D01*
G01X1785248Y-2106611D01*
G01X1787581Y-2105763D01*
G01X1789490Y-2105126D01*
G01X1791187Y-2104702D01*
G01X1793308Y-2104278D01*
G01X1796278Y-2103854D01*
G01X1800732Y-2103641D01*
G01X1803914Y-2103854D01*
G01X1806884Y-2104278D01*
G01X1809005Y-2104914D01*
G01X1811763Y-2105763D01*
G01X1813884Y-2106611D01*
G01X1815581Y-2107460D01*
G01X1817278Y-2108520D01*
G01X1819187Y-2109793D01*
G01X1820672Y-2111066D01*
G01X1821733Y-2112126D01*
G01X1822793Y-2112975D01*
G01X1825339Y-2115944D01*
G01X1826399Y-2117429D01*
G01X1827460Y-2119126D01*
G01X1829157Y-2122520D01*
G01X1830005Y-2124429D01*
G01X1831278Y-2128247D01*
G01X1831914Y-2131217D01*
G01X1832339Y-2133550D01*
G01X1832763Y-2136520D01*
G01X1832975Y-2142884D01*
G01X1832763Y-2149247D01*
G01X1832339Y-2152217D01*
G01X1831490Y-2156035D01*
G01X1830854Y-2157944D01*
G01X1830005Y-2160066D01*
G01X1829157Y-2161975D01*
G01X1828308Y-2163672D01*
G01X1827248Y-2165369D01*
G01X1825763Y-2167490D01*
G01X1821096Y-2172157D01*
G01X1820036Y-2173005D01*
G01X1818975Y-2173641D01*
G01X1817702Y-2174490D01*
G01X1816217Y-2175338D01*
G01X1814520Y-2176187D01*
G01X1812399Y-2177035D01*
G01X1810066Y-2177884D01*
G01X1807096Y-2178520D01*
G37*
G36*
G01X1734763Y-2178520D02*
G01X1732218Y-2178944D01*
G01X1730308Y-2179157D01*
G01X1728824Y-2179369D01*
G01X1726066Y-2179581D01*
G01X1722884Y-2179369D01*
G01X1718218Y-2178944D01*
G01X1714399Y-2178096D01*
G01X1712490Y-2177460D01*
G01X1710157Y-2176611D01*
G01X1708460Y-2175763D01*
G01X1706975Y-2174914D01*
G01X1705278Y-2173854D01*
G01X1703793Y-2172793D01*
G01X1701672Y-2170672D01*
G01X1700611Y-2169399D01*
G01X1698914Y-2166853D01*
G01X1698066Y-2165369D01*
G01X1697430Y-2163884D01*
G01X1696793Y-2162187D01*
G01X1696369Y-2160490D01*
G01X1696157Y-2159005D01*
G01X1695945Y-2155823D01*
G01X1696157Y-2152641D01*
G01X1696581Y-2150944D01*
G01X1697218Y-2149035D01*
G01X1698066Y-2147338D01*
G01X1699339Y-2145429D01*
G01X1700611Y-2143944D01*
G01X1702733Y-2142247D01*
G01X1704218Y-2141187D01*
G01X1706127Y-2140126D01*
G01X1708036Y-2139278D01*
G01X1710369Y-2138429D01*
G01X1716733Y-2136308D01*
G01X1719066Y-2135672D01*
G01X1720763Y-2135247D01*
G01X1722884Y-2134611D01*
G01X1728824Y-2132914D01*
G01X1733066Y-2131853D01*
G01X1734975Y-2131217D01*
G01X1737308Y-2130157D01*
G01X1739005Y-2129096D01*
G01X1740066Y-2128035D01*
G01X1740914Y-2126975D01*
G01X1741763Y-2125066D01*
G01X1742187Y-2122308D01*
G01X1741763Y-2120399D01*
G01X1740914Y-2118914D01*
G01X1739854Y-2117641D01*
G01X1738793Y-2116581D01*
G01X1737521Y-2115732D01*
G01X1735824Y-2115096D01*
G01X1733490Y-2114460D01*
G01X1731369Y-2114035D01*
G01X1726490Y-2113823D01*
G01X1721611Y-2114035D01*
G01X1719915Y-2114460D01*
G01X1718218Y-2115096D01*
G01X1716733Y-2115944D01*
G01X1714824Y-2117217D01*
G01X1713339Y-2118914D01*
G01X1712490Y-2120399D01*
G01X1711642Y-2122096D01*
G01X1710793Y-2124217D01*
G01X1710051Y-2125013D01*
G01X1708672Y-2125278D01*
G01X1706339Y-2125066D01*
G01X1700399Y-2124217D01*
G01X1699127Y-2123793D01*
G01X1698702Y-2123475D01*
G01X1698702Y-2122944D01*
G01X1699551Y-2119550D01*
G01X1700187Y-2117854D01*
G01X1701036Y-2115732D01*
G01X1701884Y-2114247D01*
G01X1702733Y-2112975D01*
G01X1703793Y-2111702D01*
G01X1704854Y-2110641D01*
G01X1706127Y-2109581D01*
G01X1707824Y-2108520D01*
G01X1709733Y-2107460D01*
G01X1711430Y-2106611D01*
G01X1713127Y-2105975D01*
G01X1715036Y-2105338D01*
G01X1716733Y-2104914D01*
G01X1718218Y-2104702D01*
G01X1719915Y-2104278D01*
G01X1722036Y-2104066D01*
G01X1723733Y-2103854D01*
G01X1727339Y-2103641D01*
G01X1730945Y-2103854D01*
G01X1734763Y-2104278D01*
G01X1736460Y-2104702D01*
G01X1738793Y-2105338D01*
G01X1741127Y-2106187D01*
G01X1743036Y-2107035D01*
G01X1744521Y-2107884D01*
G01X1745793Y-2108732D01*
G01X1747914Y-2110429D01*
G01X1749187Y-2111914D01*
G01X1750248Y-2113399D01*
G01X1751096Y-2114672D01*
G01X1751945Y-2116157D01*
G01X1752581Y-2117854D01*
G01X1753217Y-2119763D01*
G01X1753642Y-2121460D01*
G01X1753854Y-2122944D01*
G01X1754066Y-2125278D01*
G01X1753854Y-2127611D01*
G01X1753430Y-2129520D01*
G01X1752793Y-2131429D01*
G01X1751945Y-2133126D01*
G01X1750672Y-2135247D01*
G01X1749399Y-2136944D01*
G01X1747914Y-2138217D01*
G01X1746430Y-2139278D01*
G01X1743460Y-2140975D01*
G01X1742187Y-2141611D01*
G01X1740490Y-2142247D01*
G01X1738369Y-2143096D01*
G01X1732854Y-2144793D01*
G01X1730308Y-2145429D01*
G01X1728187Y-2146066D01*
G01X1725854Y-2146702D01*
G01X1723733Y-2147126D01*
G01X1721611Y-2147763D01*
G01X1718642Y-2148611D01*
G01X1715884Y-2149459D01*
G01X1713763Y-2150308D01*
G01X1711854Y-2151369D01*
G01X1710157Y-2153066D01*
G01X1709096Y-2154975D01*
G01X1708672Y-2156672D01*
G01X1708460Y-2157944D01*
G01X1708460Y-2159005D01*
G01X1708884Y-2160914D01*
G01X1709521Y-2162611D01*
G01X1710369Y-2163672D01*
G01X1712490Y-2165793D01*
G01X1713975Y-2166853D01*
G01X1715672Y-2167702D01*
G01X1717581Y-2168338D01*
G01X1719490Y-2168763D01*
G01X1722036Y-2169187D01*
G01X1726278Y-2169399D01*
G01X1729248Y-2169187D01*
G01X1731369Y-2168763D01*
G01X1733702Y-2168126D01*
G01X1735611Y-2167278D01*
G01X1737096Y-2166429D01*
G01X1738157Y-2165581D01*
G01X1740278Y-2163460D01*
G01X1741127Y-2162399D01*
G01X1741763Y-2161126D01*
G01X1742611Y-2159217D01*
G01X1743248Y-2157308D01*
G01X1743672Y-2155611D01*
G01X1744202Y-2154816D01*
G01X1745369Y-2154550D01*
G01X1747490Y-2154763D01*
G01X1750036Y-2155187D01*
G01X1753005Y-2155611D01*
G01X1755127Y-2156035D01*
G01X1755869Y-2156459D01*
G01X1755975Y-2157308D01*
G01X1755339Y-2159641D01*
G01X1754702Y-2161763D01*
G01X1754066Y-2163460D01*
G01X1753217Y-2165369D01*
G01X1752157Y-2167278D01*
G01X1750884Y-2169187D01*
G01X1749611Y-2170672D01*
G01X1747490Y-2172793D01*
G01X1746430Y-2173641D01*
G01X1744945Y-2174702D01*
G01X1741127Y-2176611D01*
G01X1739430Y-2177248D01*
G01X1737521Y-2177884D01*
G01X1734763Y-2178520D01*
G37*
G36*
G01X1874763Y-2078187D02*
G01X1876460Y-2077975D01*
G01X1902763Y-2077763D01*
G01X1928429Y-2077763D01*
G01X1928429Y-2177884D01*
G01X1915278Y-2177884D01*
G01X1915278Y-2133338D01*
G01X1904672Y-2133338D01*
G01X1893430Y-2133550D01*
G01X1891733Y-2133975D01*
G01X1889824Y-2134611D01*
G01X1887914Y-2135460D01*
G01X1885793Y-2136732D01*
G01X1883672Y-2138429D01*
G01X1882187Y-2139914D01*
G01X1880914Y-2141611D01*
G01X1879642Y-2143096D01*
G01X1878793Y-2144156D01*
G01X1875611Y-2148611D01*
G01X1869248Y-2158156D01*
G01X1867975Y-2160278D01*
G01X1866702Y-2162187D01*
G01X1864581Y-2165581D01*
G01X1863308Y-2167490D01*
G01X1862036Y-2169611D01*
G01X1860763Y-2171520D01*
G01X1858642Y-2174914D01*
G01X1857369Y-2176823D01*
G01X1856733Y-2177884D01*
G01X1840187Y-2177884D01*
G01X1842096Y-2174702D01*
G01X1843369Y-2172793D01*
G01X1845490Y-2169399D01*
G01X1846763Y-2167490D01*
G01X1848884Y-2164096D01*
G01X1850157Y-2162187D01*
G01X1852278Y-2158793D01*
G01X1853551Y-2156884D01*
G01X1854824Y-2154763D01*
G01X1859914Y-2147126D01*
G01X1860975Y-2145641D01*
G01X1863521Y-2142460D01*
G01X1868824Y-2137156D01*
G01X1869884Y-2136308D01*
G01X1871369Y-2135247D01*
G01X1873490Y-2133975D01*
G01X1875187Y-2132914D01*
G01X1875452Y-2132490D01*
G01X1874975Y-2132066D01*
G01X1873278Y-2131641D01*
G01X1871793Y-2131429D01*
G01X1869672Y-2130793D01*
G01X1866914Y-2129944D01*
G01X1864369Y-2129096D01*
G01X1862460Y-2128247D01*
G01X1859066Y-2126126D01*
G01X1857369Y-2124853D01*
G01X1854824Y-2122308D01*
G01X1853551Y-2120823D01*
G01X1852278Y-2118914D01*
G01X1851218Y-2117005D01*
G01X1850369Y-2115308D01*
G01X1849733Y-2113611D01*
G01X1848884Y-2110217D01*
G01X1848460Y-2107247D01*
G01X1848394Y-2106187D01*
G01X1861824Y-2106187D01*
G01X1862036Y-2108096D01*
G01X1862460Y-2109793D01*
G01X1863096Y-2111490D01*
G01X1863945Y-2113187D01*
G01X1865005Y-2114672D01*
G01X1865854Y-2115732D01*
G01X1866914Y-2116793D01*
G01X1868187Y-2117641D01*
G01X1869672Y-2118702D01*
G01X1871793Y-2119763D01*
G01X1873914Y-2120399D01*
G01X1875611Y-2120823D01*
G01X1878157Y-2121247D01*
G01X1878157Y-2121247D01*
G01X1881975Y-2121672D01*
G01X1899369Y-2121884D01*
G01X1915066Y-2121672D01*
G01X1915278Y-2105126D01*
G01X1915278Y-2088793D01*
G01X1896611Y-2088793D01*
G01X1877308Y-2089005D01*
G01X1875187Y-2089429D01*
G01X1872854Y-2090066D01*
G01X1871157Y-2090702D01*
G01X1869672Y-2091338D01*
G01X1868399Y-2092187D01*
G01X1867127Y-2093248D01*
G01X1866066Y-2094520D01*
G01X1865005Y-2095581D01*
G01X1864157Y-2096854D01*
G01X1863521Y-2098126D01*
G01X1862884Y-2099611D01*
G01X1862460Y-2101308D01*
G01X1862036Y-2104278D01*
G01X1861824Y-2106187D01*
G01X1848394Y-2106187D01*
G01X1848248Y-2103854D01*
G01X1848460Y-2101732D01*
G01X1848884Y-2098763D01*
G01X1849308Y-2097066D01*
G01X1849945Y-2095369D01*
G01X1851218Y-2092399D01*
G01X1852066Y-2090702D01*
G01X1852915Y-2089217D01*
G01X1853975Y-2087732D01*
G01X1855248Y-2086248D01*
G01X1856308Y-2085187D01*
G01X1857793Y-2083914D01*
G01X1859278Y-2082854D01*
G01X1860763Y-2082005D01*
G01X1864157Y-2080308D01*
G01X1866278Y-2079672D01*
G01X1867975Y-2079248D01*
G01X1870096Y-2078823D01*
G01X1872642Y-2078399D01*
G01X1874763Y-2078187D01*
G37*
G36*
G01X1997157Y-2168126D02*
G01X1995460Y-2172369D01*
G01X1994611Y-2174702D01*
G01X1993763Y-2176823D01*
G01X1993339Y-2177884D01*
G01X1986551Y-2177884D01*
G01X1981407Y-2177672D01*
G01X1979551Y-2177035D01*
G01X1978914Y-2175338D01*
G01X1977218Y-2171096D01*
G01X1975945Y-2167702D01*
G01X1973399Y-2161338D01*
G01X1972551Y-2159005D01*
G01X1970005Y-2152641D01*
G01X1969157Y-2150308D01*
G01X1965763Y-2141823D01*
G01X1964914Y-2139490D01*
G01X1961520Y-2131005D01*
G01X1960672Y-2128672D01*
G01X1957278Y-2120187D01*
G01X1956429Y-2117854D01*
G01X1953884Y-2111490D01*
G01X1953036Y-2109157D01*
G01X1949642Y-2100672D01*
G01X1948793Y-2098338D01*
G01X1946248Y-2091975D01*
G01X1945399Y-2089641D01*
G01X1942005Y-2081157D01*
G01X1941157Y-2078823D01*
G01X1940732Y-2077763D01*
G01X1953884Y-2077763D01*
G01X1954308Y-2079035D01*
G01X1956005Y-2083702D01*
G01X1956854Y-2085823D01*
G01X1960672Y-2096005D01*
G01X1961308Y-2097914D01*
G01X1966399Y-2111490D01*
G01X1967036Y-2113399D01*
G01X1967884Y-2115520D01*
G01X1969581Y-2120187D01*
G01X1970430Y-2122308D01*
G01X1972975Y-2129096D01*
G01X1973611Y-2131005D01*
G01X1979975Y-2147975D01*
G01X1980611Y-2149884D01*
G01X1981460Y-2152005D01*
G01X1985278Y-2163460D01*
G01X1985914Y-2165581D01*
G01X1986179Y-2166164D01*
G01X1986551Y-2166217D01*
G01X1987187Y-2164732D01*
G01X1989096Y-2158369D01*
G01X1991642Y-2150732D01*
G01X1992914Y-2147338D01*
G01X1993551Y-2145429D01*
G01X1994824Y-2142035D01*
G01X1995460Y-2140126D01*
G01X1996733Y-2136732D01*
G01X1998005Y-2132914D01*
G01X1998854Y-2130793D01*
G01X1999702Y-2128247D01*
G01X2001399Y-2123581D01*
G01X2002248Y-2121035D01*
G01X2003096Y-2118914D01*
G01X2004369Y-2115096D01*
G01X2005217Y-2112975D01*
G01X2006066Y-2110429D01*
G01X2007763Y-2105763D01*
G01X2008611Y-2103217D01*
G01X2009460Y-2101096D01*
G01X2010733Y-2097278D01*
G01X2011581Y-2095157D01*
G01X2012430Y-2092611D01*
G01X2013278Y-2090490D01*
G01X2014551Y-2086672D01*
G01X2015399Y-2084551D01*
G01X2016248Y-2082005D01*
G01X2017096Y-2079672D01*
G01X2017945Y-2078187D01*
G01X2025157Y-2077763D01*
G01X2031945Y-2077763D01*
G01X2031733Y-2078823D01*
G01X2031096Y-2080520D01*
G01X2030460Y-2082005D01*
G01X2029823Y-2083702D01*
G01X2028975Y-2085823D01*
G01X2028127Y-2088157D01*
G01X2027278Y-2090278D01*
G01X2026430Y-2092611D01*
G01X2023884Y-2098975D01*
G01X2022611Y-2102369D01*
G01X2020914Y-2106611D01*
G01X2019642Y-2110005D01*
G01X2018793Y-2112126D01*
G01X2017945Y-2114460D01*
G01X2016248Y-2118702D01*
G01X2015399Y-2121035D01*
G01X2013702Y-2125278D01*
G01X2012854Y-2127611D01*
G01X2011157Y-2131853D01*
G01X2010308Y-2134187D01*
G01X2008611Y-2138429D01*
G01X2007763Y-2140763D01*
G01X2006066Y-2145005D01*
G01X2005217Y-2147338D01*
G01X2002672Y-2153702D01*
G01X2001399Y-2157096D01*
G01X2000551Y-2159217D01*
G01X1999702Y-2161550D01*
G01X1998005Y-2165793D01*
G01X1997157Y-2168126D01*
G37*
G36*
G01X1327702Y-2177884D02*
G01X1313278Y-2177884D01*
G01X1313278Y-2163884D01*
G01X1327702Y-2163884D01*
G01X1327702Y-2177884D01*
G37*
G36*
G01X1395581Y-2112550D02*
G01X1396430Y-2112975D01*
G01X1396430Y-2077763D01*
G01X1408733Y-2077763D01*
G01X1408733Y-2177884D01*
G01X1396854Y-2177884D01*
G01X1396642Y-2176823D01*
G01X1396430Y-2153702D01*
G01X1396217Y-2131005D01*
G01X1395793Y-2128672D01*
G01X1395157Y-2126126D01*
G01X1394520Y-2124429D01*
G01X1393672Y-2122732D01*
G01X1392611Y-2121247D01*
G01X1390490Y-2119126D01*
G01X1389005Y-2117854D01*
G01X1387308Y-2116793D01*
G01X1385611Y-2115944D01*
G01X1383278Y-2115096D01*
G01X1380520Y-2114460D01*
G01X1376490Y-2114247D01*
G01X1373308Y-2114460D01*
G01X1371187Y-2115096D01*
G01X1369066Y-2115944D01*
G01X1367793Y-2116793D01*
G01X1365672Y-2118914D01*
G01X1364824Y-2119975D01*
G01X1364187Y-2121247D01*
G01X1363339Y-2123157D01*
G01X1362702Y-2125914D01*
G01X1362278Y-2128035D01*
G01X1362066Y-2153278D01*
G01X1362066Y-2177884D01*
G01X1349763Y-2177884D01*
G01X1349763Y-2152217D01*
G01X1349975Y-2125914D01*
G01X1350399Y-2122096D01*
G01X1350824Y-2120187D01*
G01X1351460Y-2118066D01*
G01X1352096Y-2116369D01*
G01X1352733Y-2114884D01*
G01X1353581Y-2113399D01*
G01X1354642Y-2112126D01*
G01X1355490Y-2111066D01*
G01X1356763Y-2109793D01*
G01X1359733Y-2107672D01*
G01X1361642Y-2106611D01*
G01X1363551Y-2105763D01*
G01X1366096Y-2104914D01*
G01X1369066Y-2104278D01*
G01X1371611Y-2103854D01*
G01X1375430Y-2103641D01*
G01X1378824Y-2103854D01*
G01X1380308Y-2104066D01*
G01X1382005Y-2104490D01*
G01X1384127Y-2105126D01*
G01X1386036Y-2105763D01*
G01X1387733Y-2106611D01*
G01X1389642Y-2107672D01*
G01X1391127Y-2108732D01*
G01X1392823Y-2110005D01*
G01X1394308Y-2111490D01*
G01X1395581Y-2112550D01*
G37*
G36*
G01X1458793Y-2178308D02*
G01X1457308Y-2178520D01*
G01X1455187Y-2178944D01*
G01X1452642Y-2179369D01*
G01X1449672Y-2179581D01*
G01X1447127Y-2179369D01*
G01X1443309Y-2178944D01*
G01X1441399Y-2178520D01*
G01X1439278Y-2177884D01*
G01X1437157Y-2177035D01*
G01X1435248Y-2176187D01*
G01X1433763Y-2175338D01*
G01X1431854Y-2174066D01*
G01X1430157Y-2172793D01*
G01X1426975Y-2169611D01*
G01X1425278Y-2167490D01*
G01X1424430Y-2166217D01*
G01X1423369Y-2164520D01*
G01X1422308Y-2162399D01*
G01X1421460Y-2160278D01*
G01X1420611Y-2157732D01*
G01X1419975Y-2154763D01*
G01X1419763Y-2153066D01*
G01X1420611Y-2152853D01*
G01X1425066Y-2152217D01*
G01X1430157Y-2151581D01*
G01X1431430Y-2152005D01*
G01X1431854Y-2154126D01*
G01X1432490Y-2156672D01*
G01X1433127Y-2158369D01*
G01X1433763Y-2159853D01*
G01X1434612Y-2161338D01*
G01X1435884Y-2163247D01*
G01X1437369Y-2164732D01*
G01X1438430Y-2165581D01*
G01X1439915Y-2166641D01*
G01X1442036Y-2167702D01*
G01X1443733Y-2168338D01*
G01X1445430Y-2168763D01*
G01X1447551Y-2169187D01*
G01X1450733Y-2169399D01*
G01X1453490Y-2169187D01*
G01X1455399Y-2168763D01*
G01X1457308Y-2168126D01*
G01X1459005Y-2167278D01*
G01X1460490Y-2166429D01*
G01X1461551Y-2165581D01*
G01X1463672Y-2163460D01*
G01X1464945Y-2161975D01*
G01X1466218Y-2160066D01*
G01X1467066Y-2158369D01*
G01X1467702Y-2156884D01*
G01X1468339Y-2154975D01*
G01X1468763Y-2153066D01*
G01X1469187Y-2150944D01*
G01X1469611Y-2147975D01*
G01X1469824Y-2140550D01*
G01X1469611Y-2133975D01*
G01X1469187Y-2131005D01*
G01X1468551Y-2128884D01*
G01X1467702Y-2126126D01*
G01X1466854Y-2124217D01*
G01X1466005Y-2122732D01*
G01X1464733Y-2120823D01*
G01X1462187Y-2118278D01*
G01X1460915Y-2117217D01*
G01X1459430Y-2116369D01*
G01X1457733Y-2115520D01*
G01X1456036Y-2114884D01*
G01X1453915Y-2114247D01*
G01X1449036Y-2113823D01*
G01X1445005Y-2114035D01*
G01X1443096Y-2114672D01*
G01X1441187Y-2115520D01*
G01X1439490Y-2116581D01*
G01X1438006Y-2117854D01*
G01X1436945Y-2118914D01*
G01X1436096Y-2119975D01*
G01X1435248Y-2121460D01*
G01X1434399Y-2123157D01*
G01X1433763Y-2124641D01*
G01X1433127Y-2126550D01*
G01X1432702Y-2127558D01*
G01X1431854Y-2128035D01*
G01X1429733Y-2128035D01*
G01X1422096Y-2126763D01*
G01X1420611Y-2126550D01*
G01X1420824Y-2125278D01*
G01X1421460Y-2123157D01*
G01X1422096Y-2121247D01*
G01X1422733Y-2119550D01*
G01X1423581Y-2117854D01*
G01X1424642Y-2115944D01*
G01X1425915Y-2114035D01*
G01X1427187Y-2112550D01*
G01X1429309Y-2110429D01*
G01X1431005Y-2109157D01*
G01X1432915Y-2107884D01*
G01X1434399Y-2107035D01*
G01X1435884Y-2106399D01*
G01X1437581Y-2105763D01*
G01X1439915Y-2104914D01*
G01X1443309Y-2104278D01*
G01X1446278Y-2103854D01*
G01X1450309Y-2103641D01*
G01X1453915Y-2103854D01*
G01X1456460Y-2104278D01*
G01X1459218Y-2104914D01*
G01X1463036Y-2106187D01*
G01X1464945Y-2107035D01*
G01X1466854Y-2108096D01*
G01X1468763Y-2109369D01*
G01X1470884Y-2110854D01*
G01X1473430Y-2113399D01*
G01X1474490Y-2114672D01*
G01X1475339Y-2115944D01*
G01X1476399Y-2117429D01*
G01X1477460Y-2119338D01*
G01X1478308Y-2120823D01*
G01X1479581Y-2124217D01*
G01X1480218Y-2126126D01*
G01X1480642Y-2128035D01*
G01X1481278Y-2130157D01*
G01X1481702Y-2132490D01*
G01X1481914Y-2133975D01*
G01X1482339Y-2137369D01*
G01X1482551Y-2142672D01*
G01X1482339Y-2147975D01*
G01X1481914Y-2151369D01*
G01X1481066Y-2155611D01*
G01X1479581Y-2160066D01*
G01X1478733Y-2161975D01*
G01X1477884Y-2163672D01*
G01X1477036Y-2165157D01*
G01X1474915Y-2168126D01*
G01X1474066Y-2169187D01*
G01X1471945Y-2171308D01*
G01X1469399Y-2173429D01*
G01X1468127Y-2174278D01*
G01X1466854Y-2174914D01*
G01X1465369Y-2175763D01*
G01X1463672Y-2176611D01*
G01X1460278Y-2177884D01*
G01X1458793Y-2178308D01*
G37*
G36*
G01X1514157Y-2114460D02*
G01X1514369Y-2109581D01*
G01X1514369Y-2105338D01*
G01X1525399Y-2105338D01*
G01X1525399Y-2177884D01*
G01X1513520Y-2177884D01*
G01X1513520Y-2158369D01*
G01X1513308Y-2138217D01*
G01X1512884Y-2131853D01*
G01X1512460Y-2129520D01*
G01X1511823Y-2126975D01*
G01X1511187Y-2125066D01*
G01X1510551Y-2123369D01*
G01X1509702Y-2121884D01*
G01X1508854Y-2120611D01*
G01X1507369Y-2119338D01*
G01X1505672Y-2118066D01*
G01X1503975Y-2117217D01*
G01X1501430Y-2116581D01*
G01X1498248Y-2116369D01*
G01X1495914Y-2116581D01*
G01X1494430Y-2117005D01*
G01X1492733Y-2117641D01*
G01X1491248Y-2118278D01*
G01X1490665Y-2118278D01*
G01X1490187Y-2117854D01*
G01X1487005Y-2109369D01*
G01X1486581Y-2107884D01*
G01X1486687Y-2107460D01*
G01X1487430Y-2107035D01*
G01X1489127Y-2106187D01*
G01X1491036Y-2105338D01*
G01X1492945Y-2104702D01*
G01X1494642Y-2104278D01*
G01X1496763Y-2103854D01*
G01X1499308Y-2103641D01*
G01X1501430Y-2103854D01*
G01X1503339Y-2104490D01*
G01X1505672Y-2105551D01*
G01X1507793Y-2107035D01*
G01X1509490Y-2108944D01*
G01X1510551Y-2110429D01*
G01X1511399Y-2111490D01*
G01X1512248Y-2112763D01*
G01X1513308Y-2114247D01*
G01X1513839Y-2114725D01*
G01X1514157Y-2114460D01*
G37*
G36*
G01X1072945Y-1919732D02*
G01X1076763Y-1919308D01*
G01X1098611Y-1919096D01*
G01X1119824Y-1919096D01*
G01X1119824Y-2019217D01*
G01X1098399Y-2019217D01*
G01X1076339Y-2019005D01*
G01X1071248Y-2018581D01*
G01X1068278Y-2018156D01*
G01X1066581Y-2017732D01*
G01X1064248Y-2017096D01*
G01X1061702Y-2016247D01*
G01X1059369Y-2015399D01*
G01X1057672Y-2014550D01*
G01X1055975Y-2013490D01*
G01X1054490Y-2012429D01*
G01X1053430Y-2011581D01*
G01X1051309Y-2009460D01*
G01X1050460Y-2008399D01*
G01X1049824Y-2007338D01*
G01X1048763Y-2005853D01*
G01X1046854Y-2002035D01*
G01X1046006Y-2000126D01*
G01X1045157Y-1997369D01*
G01X1044733Y-1995035D01*
G01X1044521Y-1993550D01*
G01X1044364Y-1990581D01*
G01X1057884Y-1990581D01*
G01X1058096Y-1993975D01*
G01X1058521Y-1995672D01*
G01X1059157Y-1997369D01*
G01X1059793Y-1998641D01*
G01X1060854Y-2000338D01*
G01X1062127Y-2002035D01*
G01X1063399Y-2003096D01*
G01X1064672Y-2003944D01*
G01X1066157Y-2004793D01*
G01X1068066Y-2005641D01*
G01X1070187Y-2006278D01*
G01X1072096Y-2006702D01*
G01X1072096Y-2006702D01*
G01X1075066Y-2007126D01*
G01X1090975Y-2007338D01*
G01X1106460Y-2007126D01*
G01X1106672Y-1989944D01*
G01X1106672Y-1972975D01*
G01X1091399Y-1972975D01*
G01X1075490Y-1973187D01*
G01X1072096Y-1973611D01*
G01X1070187Y-1974035D01*
G01X1068278Y-1974672D01*
G01X1066793Y-1975308D01*
G01X1065096Y-1976157D01*
G01X1063612Y-1977217D01*
G01X1061490Y-1979338D01*
G01X1060642Y-1980399D01*
G01X1060006Y-1981672D01*
G01X1059157Y-1983581D01*
G01X1058309Y-1986338D01*
G01X1057884Y-1990581D01*
G01X1044364Y-1990581D01*
G01X1044309Y-1989520D01*
G01X1044521Y-1985490D01*
G01X1044945Y-1983581D01*
G01X1045581Y-1981460D01*
G01X1046430Y-1979551D01*
G01X1047490Y-1977429D01*
G01X1048975Y-1975308D01*
G01X1050248Y-1973611D01*
G01X1051309Y-1972551D01*
G01X1053430Y-1970854D01*
G01X1054915Y-1969793D01*
G01X1056824Y-1968732D01*
G01X1058309Y-1967884D01*
G01X1059793Y-1967248D01*
G01X1061490Y-1966611D01*
G01X1062339Y-1965763D01*
G01X1062233Y-1965338D01*
G01X1061490Y-1964914D01*
G01X1059369Y-1963641D01*
G01X1057248Y-1961944D01*
G01X1054702Y-1959399D01*
G01X1053642Y-1958126D01*
G01X1052581Y-1956429D01*
G01X1051521Y-1954520D01*
G01X1050672Y-1952611D01*
G01X1050036Y-1950490D01*
G01X1049612Y-1948581D01*
G01X1049293Y-1946672D01*
G01X1062127Y-1946672D01*
G01X1062339Y-1950278D01*
G01X1062975Y-1952187D01*
G01X1064036Y-1954308D01*
G01X1065096Y-1955793D01*
G01X1066581Y-1957066D01*
G01X1068278Y-1958126D01*
G01X1069975Y-1958975D01*
G01X1071672Y-1959611D01*
G01X1073793Y-1960248D01*
G01X1076763Y-1960672D01*
G01X1076763Y-1960672D01*
G01X1078884Y-1960884D01*
G01X1092884Y-1961096D01*
G01X1106460Y-1960884D01*
G01X1106672Y-1945611D01*
G01X1106672Y-1930551D01*
G01X1096490Y-1930551D01*
G01X1085672Y-1930763D01*
G01X1075915Y-1931187D01*
G01X1072945Y-1931611D01*
G01X1071036Y-1932248D01*
G01X1068915Y-1933096D01*
G01X1067005Y-1934369D01*
G01X1065309Y-1936278D01*
G01X1064248Y-1937975D01*
G01X1063399Y-1939672D01*
G01X1062551Y-1942217D01*
G01X1062127Y-1946672D01*
G01X1049293Y-1946672D01*
G01X1049187Y-1946035D01*
G01X1048975Y-1943278D01*
G01X1049187Y-1941793D01*
G01X1049612Y-1939672D01*
G01X1050248Y-1937339D01*
G01X1050884Y-1935642D01*
G01X1051521Y-1934157D01*
G01X1052369Y-1932460D01*
G01X1053218Y-1930975D01*
G01X1054066Y-1929914D01*
G01X1055339Y-1928217D01*
G01X1056824Y-1926732D01*
G01X1057884Y-1925884D01*
G01X1059369Y-1924823D01*
G01X1061278Y-1923551D01*
G01X1063187Y-1922490D01*
G01X1065309Y-1921642D01*
G01X1067854Y-1920793D01*
G01X1070824Y-1920157D01*
G01X1072945Y-1919732D01*
G37*
G36*
G01X1230339Y-2046263D02*
G01X1229702Y-2047005D01*
G01X1227581Y-2047854D01*
G01X1226096Y-2048278D01*
G01X1222490Y-2048490D01*
G01X1218460Y-2048278D01*
G01X1216763Y-2047854D01*
G01X1215066Y-2047217D01*
G01X1213369Y-2046369D01*
G01X1211884Y-2045308D01*
G01X1209763Y-2043611D01*
G01X1208702Y-2042551D01*
G01X1207854Y-2041490D01*
G01X1207218Y-2040429D01*
G01X1206157Y-2038944D01*
G01X1204884Y-2036823D01*
G01X1203824Y-2034702D01*
G01X1202127Y-2030884D01*
G01X1201278Y-2028763D01*
G01X1200430Y-2026853D01*
G01X1199157Y-2023460D01*
G01X1198309Y-2021338D01*
G01X1196612Y-2016672D01*
G01X1195763Y-2014550D01*
G01X1191945Y-2004369D01*
G01X1191309Y-2002460D01*
G01X1170945Y-1948157D01*
G01X1170733Y-1946884D01*
G01X1176672Y-1946672D01*
G01X1182612Y-1946672D01*
G01X1182824Y-1947732D01*
G01X1184096Y-1951551D01*
G01X1185369Y-1954945D01*
G01X1186006Y-1956854D01*
G01X1186854Y-1958975D01*
G01X1191945Y-1972975D01*
G01X1192793Y-1975096D01*
G01X1193430Y-1977005D01*
G01X1194702Y-1980399D01*
G01X1195339Y-1982308D01*
G01X1196187Y-1984429D01*
G01X1197884Y-1989096D01*
G01X1200430Y-1996732D01*
G01X1201066Y-1999066D01*
G01X1201490Y-2000763D01*
G01X1202127Y-2002672D01*
G01X1202763Y-2004369D01*
G01X1203028Y-2004528D01*
G01X1203399Y-2004157D01*
G01X1204036Y-2002247D01*
G01X1205945Y-1995884D01*
G01X1208490Y-1988247D01*
G01X1209763Y-1984854D01*
G01X1210399Y-1982944D01*
G01X1211672Y-1979551D01*
G01X1212308Y-1977641D01*
G01X1213581Y-1974247D01*
G01X1214218Y-1972338D01*
G01X1215490Y-1968944D01*
G01X1216127Y-1967035D01*
G01X1217399Y-1963641D01*
G01X1218672Y-1959823D01*
G01X1219521Y-1957702D01*
G01X1220369Y-1955157D01*
G01X1221218Y-1953035D01*
G01X1222490Y-1949217D01*
G01X1223339Y-1947520D01*
G01X1225248Y-1946884D01*
G01X1230127Y-1946672D01*
G01X1236490Y-1946672D01*
G01X1236278Y-1947732D01*
G01X1235642Y-1949641D01*
G01X1233945Y-1953884D01*
G01X1228854Y-1967460D01*
G01X1228005Y-1969581D01*
G01X1226308Y-1974247D01*
G01X1225460Y-1976369D01*
G01X1224187Y-1979763D01*
G01X1223339Y-1981884D01*
G01X1221642Y-1986550D01*
G01X1220793Y-1988672D01*
G01X1218248Y-1995460D01*
G01X1217399Y-1997581D01*
G01X1215702Y-2002247D01*
G01X1214854Y-2004369D01*
G01X1213581Y-2007763D01*
G01X1212733Y-2009884D01*
G01X1211036Y-2014550D01*
G01X1210187Y-2016672D01*
G01X1209551Y-2019005D01*
G01X1209763Y-2021550D01*
G01X1211460Y-2026217D01*
G01X1213157Y-2030460D01*
G01X1214218Y-2031944D01*
G01X1215278Y-2033217D01*
G01X1216339Y-2034278D01*
G01X1217824Y-2035126D01*
G01X1219945Y-2035975D01*
G01X1221854Y-2036399D01*
G01X1225460Y-2036611D01*
G01X1229066Y-2036399D01*
G01X1230551Y-2035975D01*
G01X1231187Y-2036240D01*
G01X1231399Y-2037460D01*
G01X1231187Y-2039793D01*
G01X1230763Y-2043611D01*
G01X1230551Y-2045308D01*
G01X1230339Y-2046263D01*
G37*
G36*
G01X1285915Y-2018793D02*
G01X1283581Y-2019641D01*
G01X1280399Y-2020278D01*
G01X1278066Y-2020702D01*
G01X1276157Y-2020914D01*
G01X1274036Y-2020702D01*
G01X1270217Y-2020278D01*
G01X1268096Y-2019641D01*
G01X1265551Y-2018793D01*
G01X1263430Y-2017944D01*
G01X1261945Y-2017096D01*
G01X1258763Y-2014975D01*
G01X1257278Y-2013702D01*
G01X1256217Y-2012853D01*
G01X1255157Y-2011793D01*
G01X1253460Y-2009672D01*
G01X1252399Y-2008611D01*
G01X1251551Y-2007338D01*
G01X1250914Y-2006066D01*
G01X1249854Y-2004581D01*
G01X1248793Y-2002460D01*
G01X1247945Y-2000338D01*
G01X1247096Y-1998005D01*
G01X1246460Y-1995460D01*
G01X1246036Y-1993550D01*
G01X1245611Y-1991429D01*
G01X1245187Y-1988460D01*
G01X1244975Y-1984641D01*
G01X1244894Y-1983581D01*
G01X1257278Y-1983581D01*
G01X1257490Y-1988884D01*
G01X1257914Y-1992278D01*
G01X1258339Y-1994187D01*
G01X1258975Y-1996308D01*
G01X1259611Y-1998005D01*
G01X1260248Y-1999490D01*
G01X1261096Y-2000975D01*
G01X1262369Y-2002884D01*
G01X1264066Y-2005005D01*
G01X1265551Y-2006278D01*
G01X1267672Y-2007975D01*
G01X1268945Y-2008611D01*
G01X1270854Y-2009460D01*
G01X1270854Y-2009460D01*
G01X1273611Y-2010308D01*
G01X1277430Y-2010732D01*
G01X1279975Y-2010520D01*
G01X1281248Y-2010308D01*
G01X1283157Y-2009884D01*
G01X1285066Y-2009035D01*
G01X1286551Y-2008187D01*
G01X1287612Y-2007338D01*
G01X1290369Y-2004581D01*
G01X1291218Y-2003520D01*
G01X1292278Y-2002035D01*
G01X1293339Y-2000338D01*
G01X1294187Y-1998429D01*
G01X1295036Y-1995672D01*
G01X1295672Y-1992278D01*
G01X1296096Y-1988884D01*
G01X1296309Y-1981884D01*
G01X1296096Y-1975732D01*
G01X1295672Y-1972763D01*
G01X1295036Y-1970641D01*
G01X1294187Y-1968096D01*
G01X1293339Y-1965975D01*
G01X1292490Y-1964490D01*
G01X1291430Y-1963005D01*
G01X1290157Y-1961520D01*
G01X1288036Y-1959399D01*
G01X1286975Y-1958551D01*
G01X1285490Y-1957490D01*
G01X1283369Y-1956429D01*
G01X1280824Y-1955581D01*
G01X1276369Y-1955157D01*
G01X1272763Y-1955369D01*
G01X1270854Y-1956005D01*
G01X1268520Y-1957066D01*
G01X1266399Y-1958338D01*
G01X1264914Y-1959611D01*
G01X1263854Y-1960672D01*
G01X1262793Y-1961944D01*
G01X1261945Y-1963217D01*
G01X1261096Y-1964702D01*
G01X1260248Y-1966399D01*
G01X1259399Y-1968308D01*
G01X1258763Y-1970641D01*
G01X1257914Y-1974884D01*
G01X1257702Y-1976793D01*
G01X1257490Y-1978278D01*
G01X1257278Y-1983581D01*
G01X1244894Y-1983581D01*
G01X1244763Y-1981884D01*
G01X1244763Y-1980823D01*
G01X1245187Y-1974884D01*
G01X1245611Y-1971914D01*
G01X1246460Y-1968520D01*
G01X1247945Y-1964066D01*
G01X1248793Y-1962157D01*
G01X1249642Y-1960460D01*
G01X1250702Y-1958551D01*
G01X1251975Y-1956641D01*
G01X1253248Y-1955157D01*
G01X1254308Y-1953884D01*
G01X1255793Y-1952399D01*
G01X1257278Y-1951126D01*
G01X1258339Y-1950278D01*
G01X1259823Y-1949429D01*
G01X1261733Y-1948369D01*
G01X1263642Y-1947520D01*
G01X1265763Y-1946672D01*
G01X1268308Y-1946035D01*
G01X1270217Y-1945611D01*
G01X1272763Y-1945187D01*
G01X1276793Y-1944975D01*
G01X1279551Y-1945187D01*
G01X1281460Y-1945611D01*
G01X1283581Y-1946248D01*
G01X1285278Y-1946884D01*
G01X1286763Y-1947520D01*
G01X1288460Y-1948581D01*
G01X1290581Y-1950066D01*
G01X1292066Y-1951338D01*
G01X1292915Y-1952187D01*
G01X1293763Y-1953248D01*
G01X1294824Y-1954096D01*
G01X1295301Y-1949854D01*
G01X1295460Y-1936702D01*
G01X1295460Y-1919096D01*
G01X1307763Y-1919096D01*
G01X1307763Y-2019217D01*
G01X1296309Y-2019217D01*
G01X1296309Y-2014975D01*
G01X1296149Y-2011846D01*
G01X1295672Y-2010944D01*
G01X1294824Y-2011793D01*
G01X1293975Y-2012853D01*
G01X1291854Y-2014975D01*
G01X1290793Y-2015823D01*
G01X1289309Y-2016884D01*
G01X1287612Y-2017944D01*
G01X1285915Y-2018793D01*
G37*
G36*
G01X1412975Y-1956217D02*
G01X1413399Y-1951338D01*
G01X1413399Y-1946672D01*
G01X1424430Y-1946672D01*
G01X1424430Y-2019217D01*
G01X1412127Y-2019217D01*
G01X1412127Y-1997157D01*
G01X1411914Y-1974460D01*
G01X1411490Y-1970641D01*
G01X1411066Y-1968732D01*
G01X1410430Y-1966823D01*
G01X1409157Y-1963854D01*
G01X1408308Y-1962581D01*
G01X1407460Y-1961520D01*
G01X1406611Y-1960672D01*
G01X1403642Y-1958551D01*
G01X1402157Y-1957702D01*
G01X1400036Y-1956854D01*
G01X1397490Y-1956217D01*
G01X1395369Y-1955793D01*
G01X1392399Y-1955581D01*
G01X1389430Y-1955793D01*
G01X1387733Y-1956217D01*
G01X1386036Y-1956854D01*
G01X1384339Y-1957702D01*
G01X1382854Y-1958763D01*
G01X1381793Y-1959823D01*
G01X1380520Y-1961308D01*
G01X1379460Y-1963005D01*
G01X1378824Y-1964914D01*
G01X1378399Y-1966823D01*
G01X1377975Y-1969369D01*
G01X1377763Y-1995247D01*
G01X1377763Y-2019217D01*
G01X1365460Y-2019217D01*
G01X1365460Y-1992702D01*
G01X1365672Y-1965551D01*
G01X1366096Y-1962157D01*
G01X1367581Y-1957702D01*
G01X1368642Y-1955581D01*
G01X1369702Y-1953884D01*
G01X1370763Y-1952611D01*
G01X1371824Y-1951551D01*
G01X1373308Y-1950278D01*
G01X1375217Y-1949005D01*
G01X1377127Y-1947945D01*
G01X1379036Y-1947096D01*
G01X1381157Y-1946460D01*
G01X1383066Y-1946035D01*
G01X1384763Y-1945611D01*
G01X1387308Y-1945187D01*
G01X1391339Y-1944975D01*
G01X1394520Y-1945187D01*
G01X1398763Y-1946035D01*
G01X1400672Y-1946672D01*
G01X1402581Y-1947520D01*
G01X1405551Y-1949217D01*
G01X1406823Y-1950066D01*
G01X1408945Y-1951763D01*
G01X1412127Y-1955581D01*
G01X1412551Y-1956164D01*
G01X1412975Y-1956217D01*
G37*
G36*
G01X1489763Y-2046369D02*
G01X1487005Y-2047217D01*
G01X1483824Y-2047854D01*
G01X1481914Y-2048278D01*
G01X1475975Y-2048490D01*
G01X1469611Y-2048278D01*
G01X1464945Y-2047429D01*
G01X1463036Y-2046793D01*
G01X1460702Y-2045945D01*
G01X1458581Y-2045096D01*
G01X1456672Y-2044035D01*
G01X1454763Y-2042763D01*
G01X1453278Y-2041490D01*
G01X1451157Y-2039793D01*
G01X1448612Y-2036611D01*
G01X1447763Y-2035338D01*
G01X1446915Y-2033854D01*
G01X1446066Y-2032157D01*
G01X1445218Y-2029823D01*
G01X1444581Y-2027066D01*
G01X1444157Y-2024944D01*
G01X1443733Y-2021975D01*
G01X1443309Y-2017732D01*
G01X1443106Y-1983581D01*
G01X1454551Y-1983581D01*
G01X1454763Y-1989308D01*
G01X1455187Y-1992278D01*
G01X1455824Y-1994399D01*
G01X1456672Y-1996944D01*
G01X1457521Y-1998853D01*
G01X1458581Y-2000550D01*
G01X1459642Y-2002035D01*
G01X1461763Y-2004157D01*
G01X1463248Y-2005429D01*
G01X1464945Y-2006490D01*
G01X1466642Y-2007338D01*
G01X1468975Y-2008187D01*
G01X1468975Y-2008187D01*
G01X1472157Y-2008823D01*
G01X1475551Y-2009035D01*
G01X1477248Y-2008823D01*
G01X1478521Y-2008611D01*
G01X1480430Y-2008187D01*
G01X1482127Y-2007550D01*
G01X1483824Y-2006702D01*
G01X1485308Y-2005641D01*
G01X1487005Y-2004369D01*
G01X1488702Y-2002460D01*
G01X1489763Y-2000975D01*
G01X1490611Y-1999490D01*
G01X1491460Y-1997793D01*
G01X1492308Y-1995884D01*
G01X1492945Y-1993550D01*
G01X1493369Y-1991429D01*
G01X1493793Y-1988884D01*
G01X1494005Y-1986338D01*
G01X1494217Y-1984641D01*
G01X1494430Y-1981035D01*
G01X1494217Y-1977429D01*
G01X1493793Y-1973611D01*
G01X1493369Y-1971490D01*
G01X1492733Y-1969157D01*
G01X1492096Y-1967460D01*
G01X1491460Y-1965975D01*
G01X1490611Y-1964490D01*
G01X1489339Y-1962581D01*
G01X1488066Y-1960884D01*
G01X1486581Y-1959611D01*
G01X1483611Y-1957490D01*
G01X1481490Y-1956429D01*
G01X1479369Y-1955793D01*
G01X1477248Y-1955369D01*
G01X1473854Y-1955157D01*
G01X1470884Y-1955369D01*
G01X1469187Y-1955793D01*
G01X1467490Y-1956429D01*
G01X1465793Y-1957278D01*
G01X1464308Y-1958126D01*
G01X1463248Y-1958975D01*
G01X1461127Y-1961096D01*
G01X1459854Y-1962581D01*
G01X1458793Y-1964066D01*
G01X1457945Y-1965551D01*
G01X1457096Y-1967248D01*
G01X1456460Y-1968944D01*
G01X1455824Y-1970854D01*
G01X1455399Y-1972551D01*
G01X1455187Y-1974035D01*
G01X1454763Y-1976581D01*
G01X1454551Y-1983581D01*
G01X1443106Y-1983581D01*
G01X1443096Y-1981884D01*
G01X1443096Y-1946672D01*
G01X1454127Y-1946672D01*
G01X1454127Y-1950914D01*
G01X1454233Y-1954043D01*
G01X1454551Y-1954945D01*
G01X1457521Y-1951975D01*
G01X1458793Y-1950914D01*
G01X1460066Y-1950066D01*
G01X1461551Y-1949005D01*
G01X1463460Y-1947945D01*
G01X1465369Y-1947096D01*
G01X1467066Y-1946460D01*
G01X1469187Y-1945823D01*
G01X1471521Y-1945399D01*
G01X1473005Y-1945187D01*
G01X1476187Y-1944975D01*
G01X1479369Y-1945187D01*
G01X1482339Y-1945611D01*
G01X1484036Y-1946035D01*
G01X1485945Y-1946672D01*
G01X1487642Y-1947308D01*
G01X1489127Y-1947945D01*
G01X1492521Y-1950066D01*
G01X1494217Y-1951338D01*
G01X1497611Y-1954732D01*
G01X1498884Y-1956217D01*
G01X1500157Y-1958126D01*
G01X1501217Y-1960035D01*
G01X1502914Y-1963429D01*
G01X1503763Y-1965338D01*
G01X1504399Y-1967248D01*
G01X1504824Y-1968944D01*
G01X1505460Y-1971066D01*
G01X1506096Y-1974460D01*
G01X1506520Y-1977429D01*
G01X1506733Y-1983581D01*
G01X1506520Y-1989308D01*
G01X1505672Y-1993975D01*
G01X1505036Y-1996096D01*
G01X1504187Y-1998429D01*
G01X1503551Y-2000126D01*
G01X1502914Y-2001611D01*
G01X1502066Y-2003308D01*
G01X1501217Y-2004793D01*
G01X1500157Y-2006278D01*
G01X1498672Y-2008399D01*
G01X1496975Y-2010520D01*
G01X1495490Y-2012005D01*
G01X1493793Y-2013278D01*
G01X1491672Y-2014763D01*
G01X1489551Y-2016035D01*
G01X1487642Y-2016884D01*
G01X1485945Y-2017520D01*
G01X1483399Y-2018156D01*
G01X1481066Y-2018581D01*
G01X1478096Y-2019005D01*
G01X1475339Y-2019217D01*
G01X1472581Y-2019005D01*
G01X1469611Y-2018581D01*
G01X1467702Y-2017944D01*
G01X1465369Y-2017096D01*
G01X1463672Y-2016247D01*
G01X1462187Y-2015399D01*
G01X1460915Y-2014550D01*
G01X1457733Y-2012005D01*
G01X1456460Y-2010732D01*
G01X1455930Y-2010255D01*
G01X1455612Y-2010520D01*
G01X1455399Y-2015399D01*
G01X1455612Y-2020278D01*
G01X1456036Y-2024944D01*
G01X1456672Y-2026853D01*
G01X1457521Y-2029187D01*
G01X1458793Y-2031308D01*
G01X1460278Y-2033005D01*
G01X1461551Y-2034066D01*
G01X1462612Y-2034914D01*
G01X1464096Y-2035975D01*
G01X1466005Y-2036823D01*
G01X1467490Y-2037248D01*
G01X1469187Y-2037672D01*
G01X1471308Y-2038096D01*
G01X1476611Y-2038308D01*
G01X1481490Y-2038096D01*
G01X1483187Y-2037672D01*
G01X1485096Y-2037035D01*
G01X1487005Y-2035975D01*
G01X1488702Y-2034914D01*
G01X1489763Y-2033854D01*
G01X1490611Y-2032581D01*
G01X1491460Y-2030884D01*
G01X1492096Y-2028763D01*
G01X1492733Y-2027278D01*
G01X1494217Y-2026853D01*
G01X1495914Y-2026641D01*
G01X1498884Y-2026217D01*
G01X1501430Y-2025793D01*
G01X1503975Y-2025581D01*
G01X1504452Y-2025846D01*
G01X1504611Y-2026641D01*
G01X1503975Y-2031732D01*
G01X1503339Y-2033641D01*
G01X1502490Y-2035975D01*
G01X1501430Y-2037884D01*
G01X1500369Y-2039369D01*
G01X1498248Y-2041490D01*
G01X1496975Y-2042551D01*
G01X1495278Y-2043611D01*
G01X1493369Y-2044672D01*
G01X1491672Y-2045520D01*
G01X1489763Y-2046369D01*
G37*
G36*
G01X1533036Y-2019217D02*
G01X1521157Y-2019217D01*
G01X1521157Y-1946672D01*
G01X1533036Y-1946672D01*
G01X1533036Y-2019217D01*
G37*
G36*
G01X1586702Y-2019853D02*
G01X1584157Y-2020278D01*
G01X1582036Y-2020490D01*
G01X1580763Y-2020702D01*
G01X1578005Y-2020914D01*
G01X1574824Y-2020702D01*
G01X1570581Y-2020278D01*
G01X1566339Y-2019429D01*
G01X1564642Y-2018793D01*
G01X1562308Y-2017944D01*
G01X1560399Y-2017096D01*
G01X1558702Y-2016035D01*
G01X1556581Y-2014550D01*
G01X1555096Y-2013278D01*
G01X1554036Y-2012429D01*
G01X1552339Y-2010308D01*
G01X1551490Y-2009035D01*
G01X1550854Y-2007763D01*
G01X1550005Y-2006278D01*
G01X1549157Y-2004157D01*
G01X1548520Y-2001611D01*
G01X1548096Y-1998641D01*
G01X1548096Y-1995672D01*
G01X1548520Y-1992914D01*
G01X1549157Y-1990793D01*
G01X1550005Y-1988884D01*
G01X1551066Y-1987399D01*
G01X1552763Y-1985278D01*
G01X1553824Y-1984217D01*
G01X1554884Y-1983369D01*
G01X1555945Y-1982732D01*
G01X1557430Y-1981884D01*
G01X1559127Y-1981035D01*
G01X1560611Y-1980399D01*
G01X1562308Y-1979763D01*
G01X1566127Y-1978490D01*
G01X1572490Y-1976581D01*
G01X1574399Y-1976157D01*
G01X1576521Y-1975520D01*
G01X1579490Y-1974672D01*
G01X1583733Y-1973611D01*
G01X1588187Y-1972126D01*
G01X1590308Y-1971066D01*
G01X1591793Y-1970005D01*
G01X1592854Y-1968732D01*
G01X1593702Y-1967248D01*
G01X1594127Y-1964278D01*
G01X1593968Y-1962263D01*
G01X1593490Y-1960884D01*
G01X1592005Y-1958763D01*
G01X1590308Y-1957490D01*
G01X1589036Y-1956854D01*
G01X1587551Y-1956217D01*
G01X1585854Y-1955793D01*
G01X1583308Y-1955369D01*
G01X1578005Y-1955157D01*
G01X1573975Y-1955369D01*
G01X1572278Y-1955793D01*
G01X1570369Y-1956429D01*
G01X1568460Y-1957490D01*
G01X1566975Y-1958763D01*
G01X1565915Y-1959823D01*
G01X1564854Y-1961096D01*
G01X1564005Y-1962793D01*
G01X1563157Y-1965126D01*
G01X1562733Y-1966611D01*
G01X1561036Y-1966611D01*
G01X1558702Y-1966399D01*
G01X1555308Y-1965975D01*
G01X1552339Y-1965551D01*
G01X1551278Y-1965126D01*
G01X1551066Y-1963429D01*
G01X1551702Y-1961096D01*
G01X1552339Y-1959187D01*
G01X1552975Y-1957490D01*
G01X1553824Y-1956005D01*
G01X1555096Y-1954096D01*
G01X1556581Y-1952399D01*
G01X1557854Y-1951338D01*
G01X1558914Y-1950490D01*
G01X1560187Y-1949641D01*
G01X1561672Y-1948793D01*
G01X1563157Y-1948157D01*
G01X1564854Y-1947520D01*
G01X1566763Y-1946884D01*
G01X1570157Y-1946035D01*
G01X1572278Y-1945611D01*
G01X1574187Y-1945399D01*
G01X1575672Y-1945187D01*
G01X1579490Y-1944975D01*
G01X1583308Y-1945187D01*
G01X1586702Y-1945611D01*
G01X1588612Y-1946035D01*
G01X1590733Y-1946672D01*
G01X1592642Y-1947308D01*
G01X1594339Y-1947945D01*
G01X1595824Y-1948793D01*
G01X1597521Y-1949854D01*
G01X1599005Y-1950914D01*
G01X1601127Y-1953035D01*
G01X1602187Y-1954308D01*
G01X1603248Y-1956005D01*
G01X1604308Y-1958126D01*
G01X1605157Y-1960248D01*
G01X1605793Y-1963005D01*
G01X1606005Y-1967248D01*
G01X1605793Y-1970217D01*
G01X1605157Y-1972126D01*
G01X1604308Y-1974035D01*
G01X1603460Y-1975520D01*
G01X1602187Y-1977429D01*
G01X1600702Y-1978914D01*
G01X1598581Y-1980611D01*
G01X1597308Y-1981460D01*
G01X1595611Y-1982308D01*
G01X1593702Y-1983157D01*
G01X1591581Y-1984005D01*
G01X1586490Y-1985702D01*
G01X1584157Y-1986338D01*
G01X1582460Y-1986763D01*
G01X1580339Y-1987399D01*
G01X1577581Y-1988035D01*
G01X1575460Y-1988672D01*
G01X1570793Y-1989944D01*
G01X1566975Y-1991217D01*
G01X1565066Y-1992066D01*
G01X1563581Y-1993126D01*
G01X1562521Y-1994187D01*
G01X1561460Y-1995672D01*
G01X1560824Y-1997793D01*
G01X1560611Y-2000338D01*
G01X1561036Y-2002460D01*
G01X1561672Y-2003732D01*
G01X1562733Y-2005429D01*
G01X1564218Y-2006914D01*
G01X1565702Y-2007975D01*
G01X1567824Y-2009035D01*
G01X1569733Y-2009672D01*
G01X1571430Y-2010096D01*
G01X1573975Y-2010520D01*
G01X1578218Y-2010732D01*
G01X1581612Y-2010520D01*
G01X1583733Y-2010096D01*
G01X1585854Y-2009460D01*
G01X1587339Y-2008823D01*
G01X1588612Y-2008187D01*
G01X1590096Y-2007126D01*
G01X1591581Y-2005853D01*
G01X1592430Y-2004793D01*
G01X1593278Y-2003520D01*
G01X1594127Y-2002035D01*
G01X1594975Y-2000126D01*
G01X1595611Y-1997581D01*
G01X1596248Y-1996096D01*
G01X1597733Y-1995884D01*
G01X1599430Y-1996096D01*
G01X1602399Y-1996520D01*
G01X1604945Y-1996944D01*
G01X1607490Y-1997581D01*
G01X1607914Y-1998217D01*
G01X1607914Y-1999278D01*
G01X1607490Y-2001187D01*
G01X1606854Y-2003096D01*
G01X1606005Y-2005429D01*
G01X1605157Y-2007126D01*
G01X1604308Y-2008611D01*
G01X1603036Y-2010520D01*
G01X1601339Y-2012641D01*
G01X1599642Y-2014126D01*
G01X1598369Y-2015187D01*
G01X1597308Y-2016035D01*
G01X1594339Y-2017520D01*
G01X1592218Y-2018369D01*
G01X1589672Y-2019217D01*
G01X1586702Y-2019853D01*
G37*
G36*
G01X1658187Y-2020066D02*
G01X1656702Y-2020278D01*
G01X1654793Y-2020490D01*
G01X1653308Y-2020702D01*
G01X1650763Y-2020914D01*
G01X1647793Y-2020702D01*
G01X1643551Y-2020278D01*
G01X1639733Y-2019429D01*
G01X1637823Y-2018793D01*
G01X1635702Y-2017944D01*
G01X1633793Y-2017096D01*
G01X1632308Y-2016247D01*
G01X1630824Y-2015187D01*
G01X1629339Y-2013914D01*
G01X1627217Y-2012217D01*
G01X1626157Y-2011156D01*
G01X1623611Y-2007975D01*
G01X1622975Y-2006702D01*
G01X1621914Y-2005005D01*
G01X1620854Y-2002884D01*
G01X1620005Y-2000550D01*
G01X1619157Y-1998429D01*
G01X1619104Y-1997740D01*
G01X1619793Y-1997369D01*
G01X1621702Y-1997157D01*
G01X1623187Y-1996944D01*
G01X1626581Y-1996520D01*
G01X1630399Y-1996096D01*
G01X1630983Y-1996096D01*
G01X1631460Y-1996520D01*
G01X1633369Y-2000338D01*
G01X1634430Y-2002247D01*
G01X1635278Y-2003520D01*
G01X1636127Y-2004581D01*
G01X1637187Y-2005641D01*
G01X1638248Y-2006490D01*
G01X1639733Y-2007550D01*
G01X1641430Y-2008611D01*
G01X1642914Y-2009247D01*
G01X1644399Y-2009672D01*
G01X1646096Y-2010096D01*
G01X1648217Y-2010520D01*
G01X1651611Y-2010732D01*
G01X1654581Y-2010520D01*
G01X1656490Y-2010096D01*
G01X1658611Y-2009460D01*
G01X1660520Y-2008611D01*
G01X1662005Y-2007763D01*
G01X1663066Y-2006914D01*
G01X1664763Y-2005641D01*
G01X1666460Y-2003732D01*
G01X1668581Y-2000763D01*
G01X1669642Y-1998641D01*
G01X1670490Y-1996732D01*
G01X1671126Y-1994611D01*
G01X1671551Y-1992702D01*
G01X1671975Y-1991005D01*
G01X1672399Y-1988035D01*
G01X1672611Y-1986126D01*
G01X1618733Y-1986126D01*
G01X1618521Y-1985066D01*
G01X1618308Y-1981460D01*
G01X1618521Y-1978278D01*
G01X1618945Y-1974035D01*
G01X1631672Y-1974035D01*
G01X1631672Y-1975520D01*
G01X1651611Y-1975944D01*
G01X1671551Y-1975732D01*
G01X1671763Y-1974247D01*
G01X1671551Y-1972338D01*
G01X1671126Y-1970429D01*
G01X1670490Y-1968308D01*
G01X1669642Y-1966399D01*
G01X1668793Y-1964702D01*
G01X1667945Y-1963429D01*
G01X1666248Y-1961308D01*
G01X1665187Y-1960248D01*
G01X1663490Y-1958975D01*
G01X1661369Y-1957702D01*
G01X1659672Y-1956854D01*
G01X1657551Y-1956005D01*
G01X1655005Y-1955369D01*
G01X1650763Y-1955157D01*
G01X1646945Y-1955369D01*
G01X1645248Y-1955793D01*
G01X1643551Y-1956429D01*
G01X1641005Y-1957702D01*
G01X1639733Y-1958551D01*
G01X1637611Y-1960248D01*
G01X1636551Y-1961520D01*
G01X1635702Y-1962793D01*
G01X1634642Y-1964278D01*
G01X1633581Y-1966399D01*
G01X1632733Y-1968732D01*
G01X1632096Y-1971490D01*
G01X1631672Y-1974035D01*
G01X1631672Y-1974035D01*
G01X1618945Y-1974035D01*
G01X1619793Y-1969793D01*
G01X1620430Y-1967672D01*
G01X1621278Y-1965338D01*
G01X1621914Y-1963641D01*
G01X1622551Y-1962157D01*
G01X1623399Y-1960672D01*
G01X1624460Y-1958975D01*
G01X1625520Y-1957490D01*
G01X1627217Y-1955369D01*
G01X1629339Y-1953248D01*
G01X1631884Y-1951126D01*
G01X1633157Y-1950278D01*
G01X1634430Y-1949641D01*
G01X1635914Y-1948793D01*
G01X1637611Y-1947945D01*
G01X1639520Y-1947096D01*
G01X1642278Y-1946248D01*
G01X1645248Y-1945611D01*
G01X1648217Y-1945187D01*
G01X1652460Y-1944975D01*
G01X1655854Y-1945187D01*
G01X1659248Y-1945611D01*
G01X1661369Y-1946248D01*
G01X1664126Y-1947096D01*
G01X1666036Y-1947945D01*
G01X1667733Y-1948793D01*
G01X1669217Y-1949641D01*
G01X1670490Y-1950490D01*
G01X1671763Y-1951551D01*
G01X1673884Y-1953248D01*
G01X1676005Y-1955369D01*
G01X1677278Y-1957066D01*
G01X1678763Y-1959187D01*
G01X1679823Y-1960884D01*
G01X1681520Y-1964278D01*
G01X1682157Y-1965763D01*
G01X1682793Y-1967460D01*
G01X1683430Y-1969581D01*
G01X1683854Y-1971490D01*
G01X1684278Y-1973611D01*
G01X1684702Y-1976157D01*
G01X1684914Y-1978490D01*
G01X1685127Y-1980399D01*
G01X1685339Y-1984217D01*
G01X1685127Y-1988035D01*
G01X1684702Y-1992278D01*
G01X1683854Y-1996520D01*
G01X1683217Y-1998429D01*
G01X1682369Y-2000763D01*
G01X1681520Y-2002884D01*
G01X1680672Y-2004581D01*
G01X1679611Y-2006278D01*
G01X1678126Y-2008399D01*
G01X1676429Y-2010520D01*
G01X1674945Y-2012005D01*
G01X1672823Y-2013702D01*
G01X1671126Y-2014975D01*
G01X1669005Y-2016247D01*
G01X1665611Y-2017944D01*
G01X1663278Y-2018793D01*
G01X1660520Y-2019641D01*
G01X1658187Y-2020066D01*
G37*
G36*
G01X1733490Y-1919732D02*
G01X1737733Y-1919308D01*
G01X1759581Y-1919096D01*
G01X1780793Y-1919096D01*
G01X1780793Y-2019217D01*
G01X1760430Y-2019217D01*
G01X1739430Y-2019005D01*
G01X1734763Y-2018581D01*
G01X1731793Y-2018156D01*
G01X1729672Y-2017732D01*
G01X1727339Y-2017096D01*
G01X1725218Y-2016460D01*
G01X1723308Y-2015823D01*
G01X1720339Y-2014550D01*
G01X1717369Y-2012853D01*
G01X1716096Y-2012005D01*
G01X1714399Y-2010732D01*
G01X1710157Y-2006490D01*
G01X1708884Y-2005005D01*
G01X1706763Y-2002035D01*
G01X1705702Y-2000338D01*
G01X1704005Y-1997369D01*
G01X1702096Y-1992914D01*
G01X1701460Y-1991217D01*
G01X1700824Y-1989096D01*
G01X1700399Y-1987187D01*
G01X1699763Y-1985066D01*
G01X1699127Y-1981672D01*
G01X1698702Y-1979126D01*
G01X1698278Y-1975308D01*
G01X1698096Y-1968944D01*
G01X1711642Y-1968944D01*
G01X1711854Y-1976581D01*
G01X1712278Y-1980399D01*
G01X1712702Y-1982732D01*
G01X1713339Y-1985278D01*
G01X1713975Y-1987399D01*
G01X1714612Y-1989308D01*
G01X1715884Y-1992278D01*
G01X1716733Y-1993975D01*
G01X1717793Y-1995884D01*
G01X1718854Y-1997369D01*
G01X1720127Y-1999066D01*
G01X1721611Y-2000550D01*
G01X1722672Y-2001399D01*
G01X1724157Y-2002460D01*
G01X1725854Y-2003520D01*
G01X1727551Y-2004369D01*
G01X1729884Y-2005217D01*
G01X1732642Y-2006066D01*
G01X1734975Y-2006490D01*
G01X1736460Y-2006702D01*
G01X1736460Y-2006702D01*
G01X1740278Y-2007126D01*
G01X1754066Y-2007338D01*
G01X1767430Y-2007126D01*
G01X1767642Y-1968732D01*
G01X1767642Y-1930551D01*
G01X1757036Y-1930551D01*
G01X1745793Y-1930763D01*
G01X1736460Y-1931187D01*
G01X1733066Y-1931611D01*
G01X1730945Y-1932248D01*
G01X1728399Y-1933096D01*
G01X1726702Y-1933945D01*
G01X1725005Y-1935005D01*
G01X1723521Y-1936278D01*
G01X1721399Y-1937975D01*
G01X1720127Y-1939672D01*
G01X1718854Y-1941157D01*
G01X1717793Y-1942642D01*
G01X1715672Y-1946035D01*
G01X1714824Y-1947945D01*
G01X1714187Y-1949641D01*
G01X1713551Y-1951763D01*
G01X1713127Y-1953672D01*
G01X1712278Y-1957914D01*
G01X1711854Y-1961308D01*
G01X1711642Y-1968944D01*
G01X1698096Y-1968944D01*
G01X1698066Y-1967884D01*
G01X1698278Y-1960460D01*
G01X1698702Y-1957066D01*
G01X1699127Y-1954096D01*
G01X1700187Y-1949854D01*
G01X1701036Y-1947096D01*
G01X1701884Y-1944551D01*
G01X1703581Y-1940732D01*
G01X1704430Y-1939035D01*
G01X1705278Y-1937763D01*
G01X1706127Y-1936278D01*
G01X1706975Y-1935005D01*
G01X1708672Y-1932884D01*
G01X1709945Y-1931187D01*
G01X1711430Y-1929702D01*
G01X1713127Y-1928429D01*
G01X1714612Y-1927157D01*
G01X1715672Y-1926308D01*
G01X1717157Y-1925248D01*
G01X1719066Y-1924187D01*
G01X1722460Y-1922490D01*
G01X1724793Y-1921642D01*
G01X1727551Y-1920793D01*
G01X1730945Y-1920157D01*
G01X1733490Y-1919732D01*
G37*
G36*
G01X1866702Y-1919732D02*
G01X1870096Y-1919308D01*
G01X1892793Y-1919096D01*
G01X1913581Y-1919096D01*
G01X1913581Y-2019217D01*
G01X1892157Y-2019217D01*
G01X1870096Y-2019005D01*
G01X1865005Y-2018581D01*
G01X1862036Y-2018156D01*
G01X1860339Y-2017732D01*
G01X1858005Y-2017096D01*
G01X1855884Y-2016460D01*
G01X1854187Y-2015823D01*
G01X1852278Y-2014975D01*
G01X1850369Y-2013914D01*
G01X1848460Y-2012641D01*
G01X1846975Y-2011369D01*
G01X1844854Y-2009247D01*
G01X1843793Y-2007763D01*
G01X1842521Y-2005853D01*
G01X1841460Y-2003944D01*
G01X1840611Y-2002247D01*
G01X1839763Y-2000126D01*
G01X1838914Y-1997581D01*
G01X1838490Y-1995460D01*
G01X1838278Y-1993975D01*
G01X1838157Y-1991429D01*
G01X1851642Y-1991429D01*
G01X1851854Y-1994399D01*
G01X1852490Y-1996308D01*
G01X1853339Y-1998429D01*
G01X1854399Y-2000126D01*
G01X1855460Y-2001611D01*
G01X1856521Y-2002672D01*
G01X1858005Y-2003732D01*
G01X1859914Y-2004793D01*
G01X1861824Y-2005641D01*
G01X1863945Y-2006278D01*
G01X1865854Y-2006702D01*
G01X1865854Y-2006702D01*
G01X1868399Y-2007126D01*
G01X1885157Y-2007338D01*
G01X1900217Y-2007126D01*
G01X1900430Y-1989944D01*
G01X1900430Y-1972975D01*
G01X1885157Y-1972975D01*
G01X1869248Y-1973187D01*
G01X1865854Y-1973611D01*
G01X1863945Y-1974035D01*
G01X1861824Y-1974672D01*
G01X1859914Y-1975520D01*
G01X1858430Y-1976369D01*
G01X1857369Y-1977217D01*
G01X1855248Y-1979338D01*
G01X1854399Y-1980399D01*
G01X1853763Y-1981672D01*
G01X1852915Y-1983581D01*
G01X1852278Y-1985490D01*
G01X1851854Y-1987611D01*
G01X1851642Y-1991429D01*
G01X1838157Y-1991429D01*
G01X1838066Y-1989520D01*
G01X1838278Y-1985066D01*
G01X1838914Y-1982944D01*
G01X1839763Y-1980399D01*
G01X1840611Y-1978490D01*
G01X1841672Y-1976793D01*
G01X1842945Y-1974884D01*
G01X1844218Y-1973399D01*
G01X1845278Y-1972338D01*
G01X1847824Y-1970217D01*
G01X1849096Y-1969369D01*
G01X1850581Y-1968732D01*
G01X1852066Y-1967884D01*
G01X1853975Y-1967035D01*
G01X1855672Y-1966187D01*
G01X1856043Y-1965763D01*
G01X1855884Y-1965338D01*
G01X1854399Y-1964490D01*
G01X1852915Y-1963429D01*
G01X1850793Y-1961732D01*
G01X1848672Y-1959611D01*
G01X1846975Y-1957490D01*
G01X1846127Y-1956217D01*
G01X1845278Y-1954520D01*
G01X1844430Y-1952611D01*
G01X1843793Y-1950702D01*
G01X1843369Y-1949005D01*
G01X1843086Y-1947308D01*
G01X1855884Y-1947308D01*
G01X1856096Y-1950702D01*
G01X1856733Y-1952399D01*
G01X1857581Y-1954096D01*
G01X1858430Y-1955369D01*
G01X1859490Y-1956429D01*
G01X1860975Y-1957490D01*
G01X1862884Y-1958551D01*
G01X1864581Y-1959399D01*
G01X1866702Y-1960035D01*
G01X1868824Y-1960460D01*
G01X1868824Y-1960460D01*
G01X1872642Y-1960884D01*
G01X1886642Y-1961096D01*
G01X1900217Y-1960884D01*
G01X1900430Y-1945611D01*
G01X1900430Y-1930551D01*
G01X1890248Y-1930551D01*
G01X1879430Y-1930763D01*
G01X1869672Y-1931187D01*
G01X1866702Y-1931611D01*
G01X1864793Y-1932248D01*
G01X1862672Y-1933096D01*
G01X1860763Y-1934369D01*
G01X1859066Y-1936278D01*
G01X1857793Y-1938187D01*
G01X1856945Y-1940096D01*
G01X1856096Y-1943490D01*
G01X1855884Y-1947308D01*
G01X1843086Y-1947308D01*
G01X1842945Y-1946460D01*
G01X1842733Y-1943278D01*
G01X1842945Y-1941369D01*
G01X1843369Y-1939248D01*
G01X1844005Y-1937126D01*
G01X1844642Y-1935429D01*
G01X1845278Y-1933945D01*
G01X1846975Y-1930975D01*
G01X1847824Y-1929914D01*
G01X1849096Y-1928217D01*
G01X1850581Y-1926732D01*
G01X1852702Y-1925036D01*
G01X1854187Y-1923975D01*
G01X1856096Y-1922914D01*
G01X1858005Y-1922066D01*
G01X1860127Y-1921217D01*
G01X1862672Y-1920581D01*
G01X1864581Y-1920157D01*
G01X1866702Y-1919732D01*
G37*
G36*
G01X1981672Y-2019853D02*
G01X1979127Y-2020278D01*
G01X1977005Y-2020490D01*
G01X1975733Y-2020702D01*
G01X1971278Y-2020914D01*
G01X1966399Y-2020702D01*
G01X1963005Y-2020278D01*
G01X1958763Y-2019429D01*
G01X1954308Y-2017944D01*
G01X1952399Y-2017096D01*
G01X1949005Y-2015399D01*
G01X1947308Y-2014338D01*
G01X1945823Y-2013278D01*
G01X1944763Y-2012429D01*
G01X1943066Y-2011156D01*
G01X1940520Y-2008611D01*
G01X1937975Y-2005641D01*
G01X1937126Y-2004581D01*
G01X1936278Y-2003096D01*
G01X1935005Y-2001187D01*
G01X1932248Y-1995672D01*
G01X1931399Y-1993338D01*
G01X1930551Y-1991217D01*
G01X1929914Y-1989096D01*
G01X1929702Y-1987611D01*
G01X1930975Y-1987187D01*
G01X1932884Y-1986763D01*
G01X1935005Y-1986126D01*
G01X1937763Y-1985490D01*
G01X1939672Y-1985066D01*
G01X1941369Y-1984429D01*
G01X1942429Y-1984005D01*
G01X1942642Y-1985278D01*
G01X1943278Y-1987399D01*
G01X1944551Y-1991217D01*
G01X1945399Y-1993126D01*
G01X1946248Y-1994823D01*
G01X1947096Y-1996308D01*
G01X1948369Y-1998217D01*
G01X1949642Y-1999914D01*
G01X1951763Y-2002035D01*
G01X1953248Y-2003308D01*
G01X1956217Y-2005429D01*
G01X1958339Y-2006490D01*
G01X1960248Y-2007338D01*
G01X1962581Y-2008187D01*
G01X1965551Y-2008823D01*
G01X1967672Y-2009247D01*
G01X1972551Y-2009460D01*
G01X1977430Y-2009247D01*
G01X1979551Y-2008823D01*
G01X1981884Y-2008187D01*
G01X1986127Y-2006490D01*
G01X1989096Y-2004793D01*
G01X1991005Y-2003520D01*
G01X1992702Y-2002247D01*
G01X1994824Y-2000126D01*
G01X1995884Y-1998853D01*
G01X1996733Y-1997581D01*
G01X1997793Y-1996096D01*
G01X2000551Y-1990581D01*
G01X2001187Y-1988460D01*
G01X2001824Y-1986550D01*
G01X2002460Y-1984217D01*
G01X2003308Y-1979975D01*
G01X2003733Y-1976581D01*
G01X2003945Y-1973187D01*
G01X2004157Y-1971066D01*
G01X2004369Y-1967672D01*
G01X2004157Y-1964278D01*
G01X2003733Y-1959611D01*
G01X2003308Y-1956641D01*
G01X2002460Y-1952823D01*
G01X2001824Y-1950914D01*
G01X2001187Y-1948793D01*
G01X1999278Y-1944338D01*
G01X1998217Y-1942642D01*
G01X1996945Y-1940520D01*
G01X1995672Y-1939035D01*
G01X1992490Y-1935854D01*
G01X1991218Y-1934793D01*
G01X1988672Y-1933096D01*
G01X1987187Y-1932248D01*
G01X1985278Y-1931399D01*
G01X1983157Y-1930551D01*
G01X1981036Y-1929914D01*
G01X1979127Y-1929490D01*
G01X1977005Y-1929066D01*
G01X1974036Y-1928854D01*
G01X1971914Y-1928642D01*
G01X1969369Y-1928642D01*
G01X1966399Y-1928854D01*
G01X1964702Y-1929066D01*
G01X1962793Y-1929490D01*
G01X1960672Y-1930126D01*
G01X1958551Y-1930975D01*
G01X1956854Y-1931823D01*
G01X1953672Y-1933945D01*
G01X1951126Y-1936490D01*
G01X1950066Y-1937763D01*
G01X1949217Y-1939035D01*
G01X1948157Y-1940520D01*
G01X1946248Y-1944338D01*
G01X1945399Y-1946248D01*
G01X1944551Y-1948369D01*
G01X1944020Y-1949005D01*
G01X1943278Y-1949217D01*
G01X1941793Y-1949005D01*
G01X1937551Y-1947945D01*
G01X1934793Y-1947308D01*
G01X1932884Y-1946884D01*
G01X1931823Y-1946460D01*
G01X1931611Y-1944975D01*
G01X1932248Y-1942854D01*
G01X1933096Y-1940732D01*
G01X1933945Y-1938823D01*
G01X1935642Y-1935854D01*
G01X1936702Y-1934157D01*
G01X1938187Y-1932035D01*
G01X1939460Y-1930551D01*
G01X1940308Y-1929490D01*
G01X1942429Y-1927369D01*
G01X1945611Y-1924823D01*
G01X1947096Y-1923975D01*
G01X1949005Y-1922702D01*
G01X1952823Y-1920793D01*
G01X1954520Y-1920157D01*
G01X1956429Y-1919520D01*
G01X1958551Y-1918884D01*
G01X1960460Y-1918460D01*
G01X1962581Y-1918036D01*
G01X1965975Y-1917611D01*
G01X1972127Y-1917399D01*
G01X1977005Y-1917611D01*
G01X1982096Y-1918460D01*
G01X1983793Y-1918884D01*
G01X1989521Y-1920793D01*
G01X1991430Y-1921642D01*
G01X1994824Y-1923339D01*
G01X1996733Y-1924399D01*
G01X1998642Y-1925672D01*
G01X2000127Y-1926732D01*
G01X2001187Y-1927581D01*
G01X2005430Y-1931823D01*
G01X2007975Y-1934793D01*
G01X2008824Y-1935854D01*
G01X2009460Y-1937126D01*
G01X2010520Y-1938823D01*
G01X2013278Y-1944338D01*
G01X2014127Y-1946460D01*
G01X2014975Y-1949005D01*
G01X2015824Y-1951975D01*
G01X2016460Y-1954945D01*
G01X2016884Y-1957066D01*
G01X2017308Y-1960035D01*
G01X2017733Y-1964702D01*
G01X2017945Y-1968520D01*
G01X2017733Y-1972338D01*
G01X2017308Y-1977854D01*
G01X2016884Y-1980823D01*
G01X2016036Y-1985066D01*
G01X2015399Y-1987187D01*
G01X2014551Y-1989944D01*
G01X2013702Y-1992490D01*
G01X2012854Y-1994611D01*
G01X2011157Y-1998429D01*
G01X2009460Y-2001399D01*
G01X2008399Y-2003096D01*
G01X2007339Y-2004581D01*
G01X2006066Y-2006278D01*
G01X2004793Y-2007763D01*
G01X2003945Y-2008611D01*
G01X2002884Y-2009460D01*
G01X2000763Y-2011581D01*
G01X1999066Y-2012853D01*
G01X1996945Y-2014338D01*
G01X1994824Y-2015611D01*
G01X1992490Y-2016672D01*
G01X1988248Y-2018369D01*
G01X1985702Y-2019005D01*
G01X1983793Y-2019429D01*
G01X1981672Y-2019853D01*
G37*
G36*
G01X2059520Y-1919520D02*
G01X2061005Y-1919308D01*
G01X2084551Y-1919096D01*
G01X2107460Y-1919096D01*
G01X2107460Y-2019217D01*
G01X2094308Y-2019217D01*
G01X2094308Y-1978490D01*
G01X2079248Y-1978490D01*
G01X2063551Y-1978278D01*
G01X2058460Y-1977854D01*
G01X2053369Y-1977005D01*
G01X2051248Y-1976369D01*
G01X2048702Y-1975520D01*
G01X2046581Y-1974672D01*
G01X2044884Y-1973823D01*
G01X2043187Y-1972763D01*
G01X2041066Y-1971278D01*
G01X2038520Y-1968732D01*
G01X2037672Y-1967672D01*
G01X2037036Y-1966611D01*
G01X2035975Y-1965126D01*
G01X2034914Y-1963429D01*
G01X2034066Y-1961732D01*
G01X2033217Y-1959611D01*
G01X2032369Y-1957278D01*
G01X2031733Y-1954096D01*
G01X2031308Y-1951551D01*
G01X2031181Y-1949005D01*
G01X2044672Y-1949005D01*
G01X2044884Y-1952399D01*
G01X2045308Y-1954308D01*
G01X2045945Y-1956217D01*
G01X2046793Y-1957914D01*
G01X2047854Y-1959399D01*
G01X2049551Y-1961520D01*
G01X2051036Y-1962581D01*
G01X2052732Y-1963641D01*
G01X2054642Y-1964490D01*
G01X2057187Y-1965338D01*
G01X2060157Y-1965975D01*
G01X2060157Y-1965975D01*
G01X2063551Y-1966399D01*
G01X2079672Y-1966611D01*
G01X2094096Y-1966399D01*
G01X2094308Y-1948369D01*
G01X2094308Y-1930551D01*
G01X2081369Y-1930551D01*
G01X2067793Y-1930763D01*
G01X2058460Y-1931187D01*
G01X2056551Y-1931611D01*
G01X2054429Y-1932248D01*
G01X2052732Y-1933096D01*
G01X2050823Y-1934369D01*
G01X2048278Y-1936914D01*
G01X2047429Y-1938187D01*
G01X2046157Y-1940732D01*
G01X2045520Y-1942429D01*
G01X2045096Y-1944126D01*
G01X2044884Y-1945611D01*
G01X2044672Y-1949005D01*
G01X2031181Y-1949005D01*
G01X2031096Y-1947308D01*
G01X2031308Y-1943066D01*
G01X2032157Y-1939248D01*
G01X2032793Y-1937339D01*
G01X2033642Y-1935217D01*
G01X2034490Y-1933520D01*
G01X2035339Y-1932035D01*
G01X2036187Y-1930763D01*
G01X2037460Y-1929066D01*
G01X2040005Y-1926520D01*
G01X2041490Y-1925248D01*
G01X2043399Y-1923975D01*
G01X2045308Y-1922914D01*
G01X2047429Y-1922066D01*
G01X2049763Y-1921217D01*
G01X2052308Y-1920581D01*
G01X2054217Y-1920157D01*
G01X2056763Y-1919732D01*
G01X2059520Y-1919520D01*
G37*
G54D10*
G01X324768Y-576530D02*
G01X449482Y-576530D01*
G01X324768Y-576530D02*
G01X324768Y-629870D01*
G01X330610Y-647650D01*
G01X336706Y-653746D01*
G01X348390Y-659588D01*
G01X360328Y-659588D01*
G01X372266Y-653746D01*
G01X378108Y-647650D01*
G01X384204Y-629870D01*
G01X384204Y-576530D01*
G01X384204Y-617932D02*
G01X449482Y-659588D01*
G01X324768Y-698196D02*
G01X449482Y-781254D01*
G01X324768Y-781254D02*
G01X449482Y-698196D01*
G01X854220Y-649045D02*
G01X842282Y-643203D01*
G01X830344Y-631265D01*
G01X824502Y-619327D01*
G01X824502Y-595705D01*
G01X830344Y-583767D01*
G01X842282Y-571829D01*
G01X854220Y-565987D01*
G01X872000Y-560145D01*
G01X901718Y-560145D01*
G01X919498Y-565987D01*
G01X931436Y-571829D01*
G01X943120Y-583767D01*
G01X949216Y-595705D01*
G01X949216Y-619327D01*
G01X943120Y-631265D01*
G01X931436Y-643203D01*
G01X919498Y-649045D01*
G01X901718Y-649045D01*
G01X901718Y-619327D02*
G01X901718Y-649045D01*
G01X824502Y-687653D02*
G01X949216Y-687653D01*
G01X824502Y-687653D02*
G01X949216Y-770711D01*
G01X824502Y-770711D02*
G01X949216Y-770711D01*
G01X824502Y-809319D02*
G01X949216Y-809319D01*
G01X824502Y-809319D02*
G01X824502Y-850721D01*
G01X830344Y-868501D01*
G01X842282Y-880439D01*
G01X854220Y-886281D01*
G01X872000Y-892377D01*
G01X901718Y-892377D01*
G01X919498Y-886281D01*
G01X931436Y-880439D01*
G01X943120Y-868501D01*
G01X949216Y-850721D01*
G01X949216Y-809319D01*
G01X2313450Y-2966520D02*
G01X2313450Y-3046022D01*
G01X2308116Y-3062024D01*
G01X2297702Y-3072692D01*
G01X2281700Y-3078026D01*
G01X2271032Y-3078026D01*
G01X2255030Y-3072692D01*
G01X2244362Y-3062024D01*
G01X2239282Y-3046022D01*
G01X2239282Y-2966520D01*
G01X2145302Y-3019606D02*
G01X2150636Y-3008938D01*
G01X2166638Y-3003604D01*
G01X2182640Y-3003604D01*
G01X2198388Y-3008938D01*
G01X2203722Y-3019606D01*
G01X2198388Y-3030274D01*
G01X2187720Y-3035608D01*
G01X2161304Y-3040942D01*
G01X2150636Y-3046022D01*
G01X2145302Y-3056690D01*
G01X2145302Y-3062024D01*
G01X2150636Y-3072692D01*
G01X2166638Y-3078026D01*
G01X2182640Y-3078026D01*
G01X2198388Y-3072692D01*
G01X2203722Y-3062024D01*
G01X2109742Y-3035608D02*
G01X2045988Y-3035608D01*
G01X2045988Y-3024940D01*
G01X2051322Y-3014272D01*
G01X2056656Y-3008938D01*
G01X2067324Y-3003604D01*
G01X2083326Y-3003604D01*
G01X2093740Y-3008938D01*
G01X2104408Y-3019606D01*
G01X2109742Y-3035608D01*
G01X2109742Y-3046022D01*
G01X2104408Y-3062024D01*
G01X2093740Y-3072692D01*
G01X2083326Y-3078026D01*
G01X2067324Y-3078026D01*
G01X2056656Y-3072692D01*
G01X2045988Y-3062024D01*
G01X1827802Y-3003604D02*
G01X1827802Y-3078026D01*
G01X1827802Y-3019606D02*
G01X1838470Y-3008938D01*
G01X1848884Y-3003604D01*
G01X1864886Y-3003604D01*
G01X1875554Y-3008938D01*
G01X1886222Y-3019606D01*
G01X1891556Y-3035608D01*
G01X1891556Y-3046022D01*
G01X1886222Y-3062024D01*
G01X1875554Y-3072692D01*
G01X1864886Y-3078026D01*
G01X1848884Y-3078026D01*
G01X1838470Y-3072692D01*
G01X1827802Y-3062024D01*
G01X1673370Y-2966520D02*
G01X1673370Y-3078026D01*
G01X1673370Y-2966520D02*
G01X1625364Y-2966520D01*
G01X1609616Y-2971854D01*
G01X1604282Y-2977188D01*
G01X1598948Y-2987602D01*
G01X1598948Y-3003604D01*
G01X1604282Y-3014272D01*
G01X1609616Y-3019606D01*
G01X1625364Y-3024940D01*
G01X1673370Y-3024940D01*
G01X1483886Y-2992936D02*
G01X1488966Y-2982268D01*
G01X1499634Y-2971854D01*
G01X1510302Y-2966520D01*
G01X1531638Y-2966520D01*
G01X1542306Y-2971854D01*
G01X1552720Y-2982268D01*
G01X1558054Y-2992936D01*
G01X1563388Y-3008938D01*
G01X1563388Y-3035608D01*
G01X1558054Y-3051356D01*
G01X1552720Y-3062024D01*
G01X1542306Y-3072692D01*
G01X1531638Y-3078026D01*
G01X1510302Y-3078026D01*
G01X1499634Y-3072692D01*
G01X1488966Y-3062024D01*
G01X1483886Y-3051356D01*
G01X1448326Y-2966520D02*
G01X1448326Y-3078026D01*
G01X1448326Y-2966520D02*
G01X1400574Y-2966520D01*
G01X1384572Y-2971854D01*
G01X1379238Y-2977188D01*
G01X1373904Y-2987602D01*
G01X1373904Y-2998270D01*
G01X1379238Y-3008938D01*
G01X1384572Y-3014272D01*
G01X1400574Y-3019606D01*
G01X1448326Y-3019606D02*
G01X1400574Y-3019606D01*
G01X1384572Y-3024940D01*
G01X1379238Y-3030274D01*
G01X1373904Y-3040942D01*
G01X1373904Y-3056690D01*
G01X1379238Y-3067358D01*
G01X1384572Y-3072692D01*
G01X1400574Y-3078026D01*
G01X1448326Y-3078026D01*
G01X2297702Y-3146352D02*
G01X2297702Y-3236776D01*
G01X2292368Y-3252778D01*
G01X2281700Y-3258112D01*
G01X2271032Y-3258112D01*
G01X2313450Y-3183690D02*
G01X2276366Y-3183690D01*
G01X2235472Y-3146352D02*
G01X2235472Y-3258112D01*
G01X2235472Y-3204772D02*
G01X2219470Y-3189024D01*
G01X2209056Y-3183690D01*
G01X2193054Y-3183690D01*
G01X2182386Y-3189024D01*
G01X2177052Y-3204772D01*
G01X2177052Y-3258112D01*
G01X2141492Y-3146352D02*
G01X2136158Y-3151686D01*
G01X2130824Y-3146352D01*
G01X2136158Y-3141018D01*
G01X2141492Y-3146352D01*
G01X2136158Y-3183690D02*
G01X2136158Y-3258112D01*
G01X2031510Y-3199438D02*
G01X2042178Y-3189024D01*
G01X2052846Y-3183690D01*
G01X2068848Y-3183690D01*
G01X2079262Y-3189024D01*
G01X2089930Y-3199438D01*
G01X2095264Y-3215440D01*
G01X2095264Y-3226108D01*
G01X2089930Y-3242110D01*
G01X2079262Y-3252778D01*
G01X2068848Y-3258112D01*
G01X2052846Y-3258112D01*
G01X2042178Y-3252778D01*
G01X2031510Y-3242110D01*
G01X1995950Y-3146352D02*
G01X1995950Y-3258112D01*
G01X1942864Y-3183690D02*
G01X1995950Y-3236776D01*
G01X1974868Y-3215440D02*
G01X1937530Y-3258112D01*
G01X1901970Y-3183690D02*
G01X1901970Y-3258112D01*
G01X1901970Y-3204772D02*
G01X1885968Y-3189024D01*
G01X1875554Y-3183690D01*
G01X1859552Y-3183690D01*
G01X1848884Y-3189024D01*
G01X1843550Y-3204772D01*
G01X1843550Y-3258112D01*
G01X1807990Y-3215440D02*
G01X1744236Y-3215440D01*
G01X1744236Y-3204772D01*
G01X1749570Y-3194358D01*
G01X1754904Y-3189024D01*
G01X1765572Y-3183690D01*
G01X1781574Y-3183690D01*
G01X1791988Y-3189024D01*
G01X1802656Y-3199438D01*
G01X1807990Y-3215440D01*
G01X1807990Y-3226108D01*
G01X1802656Y-3242110D01*
G01X1791988Y-3252778D01*
G01X1781574Y-3258112D01*
G01X1765572Y-3258112D01*
G01X1754904Y-3252778D01*
G01X1744236Y-3242110D01*
G01X1650256Y-3199438D02*
G01X1655590Y-3189024D01*
G01X1671592Y-3183690D01*
G01X1687594Y-3183690D01*
G01X1703342Y-3189024D01*
G01X1708676Y-3199438D01*
G01X1703342Y-3210106D01*
G01X1692674Y-3215440D01*
G01X1666258Y-3220774D01*
G01X1655590Y-3226108D01*
G01X1650256Y-3236776D01*
G01X1650256Y-3242110D01*
G01X1655590Y-3252778D01*
G01X1671592Y-3258112D01*
G01X1687594Y-3258112D01*
G01X1703342Y-3252778D01*
G01X1708676Y-3242110D01*
G01X1556276Y-3199438D02*
G01X1561610Y-3189024D01*
G01X1577612Y-3183690D01*
G01X1593614Y-3183690D01*
G01X1609362Y-3189024D01*
G01X1614696Y-3199438D01*
G01X1609362Y-3210106D01*
G01X1598694Y-3215440D01*
G01X1572278Y-3220774D01*
G01X1561610Y-3226108D01*
G01X1556276Y-3236776D01*
G01X1556276Y-3242110D01*
G01X1561610Y-3252778D01*
G01X1577612Y-3258112D01*
G01X1593614Y-3258112D01*
G01X1609362Y-3252778D01*
G01X1614696Y-3242110D01*
G01X1375174Y-3183690D02*
G01X1385842Y-3189024D01*
G01X1396510Y-3199438D01*
G01X1401844Y-3215440D01*
G01X1401844Y-3226108D01*
G01X1396510Y-3242110D01*
G01X1385842Y-3252778D01*
G01X1375174Y-3258112D01*
G01X1359172Y-3258112D01*
G01X1348758Y-3252778D01*
G01X1338090Y-3242110D01*
G01X1332756Y-3226108D01*
G01X1332756Y-3215440D01*
G01X1338090Y-3199438D01*
G01X1348758Y-3189024D01*
G01X1359172Y-3183690D01*
G01X1375174Y-3183690D01*
G01X1254778Y-3146352D02*
G01X1265446Y-3146352D01*
G01X1276114Y-3151686D01*
G01X1281194Y-3167688D01*
G01X1281194Y-3258112D01*
G01X1297196Y-3183690D02*
G01X1260112Y-3183690D01*
G01X1095012Y-3173022D02*
G01X1095012Y-3167688D01*
G01X1089678Y-3157020D01*
G01X1084344Y-3151686D01*
G01X1073676Y-3146352D01*
G01X1052340Y-3146352D01*
G01X1041926Y-3151686D01*
G01X1036592Y-3157020D01*
G01X1031258Y-3167688D01*
G01X1031258Y-3178356D01*
G01X1036592Y-3189024D01*
G01X1047260Y-3204772D01*
G01X1100346Y-3258112D01*
G01X1025924Y-3258112D01*
G01X990364Y-3183690D02*
G01X990364Y-3258112D01*
G01X990364Y-3204772D02*
G01X974362Y-3189024D01*
G01X963948Y-3183690D01*
G01X947946Y-3183690D01*
G01X937278Y-3189024D01*
G01X931944Y-3204772D01*
G01X931944Y-3258112D01*
G01X931944Y-3204772D02*
G01X915942Y-3189024D01*
G01X905528Y-3183690D01*
G01X889526Y-3183690D01*
G01X878858Y-3189024D01*
G01X873524Y-3204772D01*
G01X873524Y-3258112D01*
G01X837964Y-3183690D02*
G01X837964Y-3258112D01*
G01X837964Y-3204772D02*
G01X821962Y-3189024D01*
G01X811548Y-3183690D01*
G01X795546Y-3183690D01*
G01X784878Y-3189024D01*
G01X779544Y-3204772D01*
G01X779544Y-3258112D01*
G01X779544Y-3204772D02*
G01X763542Y-3189024D01*
G01X753128Y-3183690D01*
G01X737126Y-3183690D01*
G01X726458Y-3189024D01*
G01X721124Y-3204772D01*
G01X721124Y-3258112D01*
G54D11*
G01X256752Y-204907D02*
G01X256752Y-199065D01*
G01X251164Y-187889D01*
G01X245576Y-182301D01*
G01X234146Y-176713D01*
G01X211794Y-176713D01*
G01X200618Y-182301D01*
G01X195030Y-187889D01*
G01X189442Y-199065D01*
G01X189442Y-210495D01*
G01X195030Y-221671D01*
G01X206206Y-238435D01*
G01X262340Y-294569D01*
G01X183854Y-294569D01*
G01X102828Y-176713D02*
G01X119846Y-182301D01*
G01X131022Y-199065D01*
G01X136610Y-227259D01*
G01X136610Y-244023D01*
G01X131022Y-272217D01*
G01X119846Y-288981D01*
G01X102828Y-294569D01*
G01X91652Y-294569D01*
G01X74888Y-288981D01*
G01X63712Y-272217D01*
G01X57870Y-244023D01*
G01X57870Y-227259D01*
G01X63712Y-199065D01*
G01X74888Y-182301D01*
G01X91652Y-176713D01*
G01X102828Y-176713D01*
G01X2906252Y-225907D02*
G01X2906252Y-220065D01*
G01X2900664Y-208889D01*
G01X2895076Y-203301D01*
G01X2883646Y-197713D01*
G01X2861294Y-197713D01*
G01X2850118Y-203301D01*
G01X2844530Y-208889D01*
G01X2838942Y-220065D01*
G01X2838942Y-231495D01*
G01X2844530Y-242671D01*
G01X2855706Y-259435D01*
G01X2911840Y-315569D01*
G01X2833354Y-315569D01*
G04 Text End*

G04 PolygonModel Start*
G54D12*
G01X1525000Y-492099D02*
G01X3050000Y-492099D01*
G01X3050000Y-492099D02*
G01X3050000Y-42799D01*
G01X1525000Y-492099D02*
G01X0Y-492099D01*
G01X1000Y-492099D02*
G01X1000Y-42817D01*

M02*

