G04 Layer: TopSilkscreenLayer*
G04 EasyEDA Pro v3.2.149.88089769, 2026-07-20 20:13:49*
G04 Gerber Generator version 0.3*
G04 Scale: 100 percent, Rotated: No, Reflected: No*
G04 Dimensions in millimeters*
G04 Leading zeros omitted, absolute positions, 4 integers and 5 decimals*
G04 Generated by one-click*
G04 Object Configs: Pad,Via,Track,Text,Image,Dimension,BoardOutline,BoardCutout,CopperFilled,SolidRegion,FPCStiffener,Line,PlaneZone,ComponentProperty,ComponentSilkscreen,TearDrop*
G04 Layer Configs: 1,2,3,4,5,6,7,8,9,10,11,13,14,56*
G04 Copper Areas: 0*
%FSLAX45Y45*%
%MOMM*%
%ADD10C,0.1*%
%ADD11C,0.203*%
%ADD12C,0.254*%
%ADD13C,0.7412*%
G75*


G04 Text Start*
G36*
G01X780137Y-2125561D02*
G01X764136Y-2125561D01*
G01X764136Y-2111500D01*
G01X780137Y-2111500D01*
G01X780137Y-2125561D01*
G37*
G36*
G01X880500Y-2055258D02*
G01X880258Y-2059379D01*
G01X879773Y-2062288D01*
G01X879288Y-2064712D01*
G01X879045Y-2066409D01*
G01X878561Y-2068349D01*
G01X877833Y-2070531D01*
G01X877106Y-2072470D01*
G01X875167Y-2076349D01*
G01X873955Y-2078288D01*
G01X872742Y-2079985D01*
G01X872015Y-2081197D01*
G01X871046Y-2082409D01*
G01X868621Y-2084834D01*
G01X866197Y-2086773D01*
G01X864500Y-2087985D01*
G01X862561Y-2089197D01*
G01X860864Y-2090167D01*
G01X857470Y-2091621D01*
G01X855288Y-2092349D01*
G01X852864Y-2093076D01*
G01X849955Y-2093803D01*
G01X847288Y-2094288D01*
G01X841955Y-2094773D01*
G01X838561Y-2095015D01*
G01X835167Y-2094773D01*
G01X832743Y-2094531D01*
G01X829833Y-2094288D01*
G01X826924Y-2093803D01*
G01X822076Y-2092834D01*
G01X819409Y-2092106D01*
G01X816985Y-2091137D01*
G01X814803Y-2090167D01*
G01X812864Y-2089197D01*
G01X810682Y-2087985D01*
G01X808985Y-2087015D01*
G01X807773Y-2086046D01*
G01X804864Y-2083621D01*
G01X802440Y-2081197D01*
G01X800985Y-2079258D01*
G01X799288Y-2076834D01*
G01X798076Y-2074894D01*
G01X797106Y-2072955D01*
G01X796137Y-2070531D01*
G01X795167Y-2067621D01*
G01X794440Y-2065197D01*
G01X793955Y-2061318D01*
G01X793712Y-2057440D01*
G01X793797Y-2055743D01*
G01X805349Y-2055743D01*
G01X805591Y-2060349D01*
G01X806076Y-2062531D01*
G01X806803Y-2064712D01*
G01X808743Y-2068591D01*
G01X811652Y-2072470D01*
G01X814076Y-2074409D01*
G01X815531Y-2075621D01*
G01X817227Y-2076591D01*
G01X818924Y-2077318D01*
G01X820864Y-2078046D01*
G01X823288Y-2078773D01*
G01X825470Y-2079258D01*
G01X827409Y-2079500D01*
G01X827409Y-2079500D01*
G01X828864Y-2079258D01*
G01X829106Y-2056228D01*
G01X829106Y-2033440D01*
G01X826924Y-2033682D01*
G01X824015Y-2034167D01*
G01X821834Y-2034652D01*
G01X819409Y-2035379D01*
G01X817227Y-2036349D01*
G01X815046Y-2037561D01*
G01X812864Y-2039015D01*
G01X810682Y-2040955D01*
G01X809227Y-2042894D01*
G01X808015Y-2044834D01*
G01X806803Y-2047015D01*
G01X806076Y-2049197D01*
G01X805591Y-2051137D01*
G01X805349Y-2055743D01*
G01X793797Y-2055743D01*
G01X793955Y-2052591D01*
G01X794440Y-2049197D01*
G01X795167Y-2045803D01*
G01X796137Y-2042652D01*
G01X797106Y-2040470D01*
G01X799773Y-2035137D01*
G01X800743Y-2033925D01*
G01X803167Y-2031015D01*
G01X806076Y-2028106D01*
G01X808015Y-2026652D01*
G01X809712Y-2025440D01*
G01X811652Y-2024228D01*
G01X813349Y-2023258D01*
G01X815046Y-2022531D01*
G01X816985Y-2021803D01*
G01X821349Y-2020349D01*
G01X824258Y-2019622D01*
G01X826924Y-2019137D01*
G01X831288Y-2018652D01*
G01X835167Y-2018409D01*
G01X839530Y-2018652D01*
G01X840743Y-2018894D01*
G01X840743Y-2080470D01*
G01X845833Y-2079743D01*
G01X848258Y-2079258D01*
G01X850439Y-2078773D01*
G01X852864Y-2078046D01*
G01X855046Y-2077076D01*
G01X858439Y-2075379D01*
G01X859652Y-2074409D01*
G01X861106Y-2073197D01*
G01X863046Y-2071500D01*
G01X864500Y-2069561D01*
G01X865470Y-2068349D01*
G01X866439Y-2066652D01*
G01X867409Y-2064470D01*
G01X868136Y-2062046D01*
G01X868621Y-2059864D01*
G01X868864Y-2056470D01*
G01X868621Y-2052591D01*
G01X868136Y-2050167D01*
G01X867652Y-2048228D01*
G01X866924Y-2046046D01*
G01X865227Y-2042652D01*
G01X864258Y-2041197D01*
G01X861833Y-2038773D01*
G01X860621Y-2037803D01*
G01X859167Y-2036834D01*
G01X857227Y-2035622D01*
G01X854803Y-2034409D01*
G01X852621Y-2033440D01*
G01X852136Y-2032894D01*
G01X852136Y-2032228D01*
G01X852621Y-2027864D01*
G01X853106Y-2023985D01*
G01X853349Y-2022288D01*
G01X853591Y-2020106D01*
G01X853833Y-2018894D01*
G01X859894Y-2021319D01*
G01X862318Y-2022531D01*
G01X864258Y-2023743D01*
G01X865712Y-2024470D01*
G01X869349Y-2027379D01*
G01X871773Y-2029803D01*
G01X872742Y-2031015D01*
G01X875167Y-2034409D01*
G01X876136Y-2036106D01*
G01X877106Y-2038288D01*
G01X878076Y-2040712D01*
G01X878803Y-2042894D01*
G01X879773Y-2047258D01*
G01X880258Y-2051621D01*
G01X880500Y-2055258D01*
G37*
G36*
G01X880500Y-2312955D02*
G01X880258Y-2315864D01*
G01X880015Y-2317318D01*
G01X879773Y-2320228D01*
G01X879288Y-2322652D01*
G01X879045Y-2324349D01*
G01X878561Y-2326288D01*
G01X877833Y-2328470D01*
G01X877106Y-2330409D01*
G01X875167Y-2334288D01*
G01X873955Y-2336227D01*
G01X872742Y-2337924D01*
G01X869833Y-2341561D01*
G01X866924Y-2343985D01*
G01X865227Y-2345440D01*
G01X862803Y-2346894D01*
G01X860864Y-2348106D01*
G01X858682Y-2349076D01*
G01X856015Y-2350046D01*
G01X854076Y-2350773D01*
G01X850197Y-2351743D01*
G01X846803Y-2352227D01*
G01X840500Y-2352712D01*
G01X838561Y-2352955D01*
G01X836621Y-2352712D01*
G01X833955Y-2352470D01*
G01X830318Y-2352227D01*
G01X826924Y-2351743D01*
G01X824500Y-2351258D01*
G01X822318Y-2350773D01*
G01X819894Y-2350046D01*
G01X817712Y-2349318D01*
G01X815773Y-2348591D01*
G01X811894Y-2346652D01*
G01X809955Y-2345440D01*
G01X808258Y-2344227D01*
G01X804621Y-2341318D01*
G01X802924Y-2339621D01*
G01X800985Y-2337197D01*
G01X799288Y-2334773D01*
G01X798076Y-2332834D01*
G01X797106Y-2330894D01*
G01X796137Y-2328470D01*
G01X795167Y-2325561D01*
G01X794440Y-2323137D01*
G01X793955Y-2319258D01*
G01X793712Y-2315379D01*
G01X793797Y-2313682D01*
G01X805349Y-2313682D01*
G01X805591Y-2318288D01*
G01X806076Y-2320228D01*
G01X806803Y-2322652D01*
G01X807773Y-2324591D01*
G01X808500Y-2326288D01*
G01X809470Y-2327743D01*
G01X810924Y-2329440D01*
G01X812379Y-2330894D01*
G01X813591Y-2331864D01*
G01X815288Y-2333318D01*
G01X817227Y-2334531D01*
G01X818924Y-2335258D01*
G01X820864Y-2335985D01*
G01X823288Y-2336712D01*
G01X825470Y-2337197D01*
G01X827409Y-2337440D01*
G01X827409Y-2337440D01*
G01X828864Y-2337197D01*
G01X829106Y-2314409D01*
G01X828621Y-2291622D01*
G01X826440Y-2291622D01*
G01X824015Y-2292106D01*
G01X821834Y-2292591D01*
G01X819167Y-2293319D01*
G01X816985Y-2294288D01*
G01X814803Y-2295500D01*
G01X813106Y-2296712D01*
G01X811894Y-2297682D01*
G01X810682Y-2298894D01*
G01X809227Y-2300834D01*
G01X807773Y-2303015D01*
G01X806803Y-2304955D01*
G01X806076Y-2307137D01*
G01X805591Y-2309076D01*
G01X805349Y-2313682D01*
G01X793797Y-2313682D01*
G01X793955Y-2310531D01*
G01X794440Y-2307137D01*
G01X795167Y-2303743D01*
G01X796137Y-2300591D01*
G01X797106Y-2298409D01*
G01X799288Y-2294046D01*
G01X800985Y-2291622D01*
G01X802440Y-2289682D01*
G01X806076Y-2286046D01*
G01X808015Y-2284591D01*
G01X810440Y-2282894D01*
G01X812379Y-2281682D01*
G01X814318Y-2280712D01*
G01X816743Y-2279743D01*
G01X819409Y-2278773D01*
G01X821591Y-2278046D01*
G01X826440Y-2277076D01*
G01X830803Y-2276591D01*
G01X836137Y-2276349D01*
G01X840743Y-2276349D01*
G01X840743Y-2338409D01*
G01X842197Y-2338167D01*
G01X845833Y-2337682D01*
G01X849712Y-2336955D01*
G01X852621Y-2335985D01*
G01X855046Y-2335015D01*
G01X858439Y-2333318D01*
G01X859652Y-2332349D01*
G01X861106Y-2331137D01*
G01X862318Y-2329924D01*
G01X863288Y-2328712D01*
G01X864500Y-2327500D01*
G01X865470Y-2326046D01*
G01X866439Y-2324349D01*
G01X867409Y-2322409D01*
G01X868136Y-2319985D01*
G01X868621Y-2317803D01*
G01X868864Y-2314894D01*
G01X868621Y-2310531D01*
G01X867894Y-2306652D01*
G01X866924Y-2303743D01*
G01X865955Y-2302046D01*
G01X865227Y-2300591D01*
G01X864258Y-2299137D01*
G01X861833Y-2296712D01*
G01X860621Y-2295743D01*
G01X857712Y-2293803D01*
G01X856015Y-2292834D01*
G01X853591Y-2291864D01*
G01X852136Y-2290894D01*
G01X852136Y-2289682D01*
G01X853106Y-2281925D01*
G01X853349Y-2279258D01*
G01X853530Y-2277803D01*
G01X854076Y-2277319D01*
G01X856258Y-2277803D01*
G01X858682Y-2278773D01*
G01X860864Y-2279743D01*
G01X862803Y-2280712D01*
G01X864742Y-2281925D01*
G01X866439Y-2283137D01*
G01X867894Y-2284106D01*
G01X869349Y-2285319D01*
G01X871773Y-2287743D01*
G01X872742Y-2288955D01*
G01X875167Y-2292349D01*
G01X876136Y-2294046D01*
G01X877106Y-2295985D01*
G01X877833Y-2297925D01*
G01X878561Y-2300106D01*
G01X879288Y-2302773D01*
G01X879773Y-2305197D01*
G01X880258Y-2309561D01*
G01X880500Y-2312955D01*
G37*
G36*
G01X878561Y-2186652D02*
G01X777227Y-2186652D01*
G01X777227Y-2224470D01*
G01X764136Y-2224470D01*
G01X764136Y-2133803D01*
G01X777227Y-2133803D01*
G01X777227Y-2171622D01*
G01X878561Y-2171622D01*
G01X878561Y-2186652D01*
G37*
G36*
G01X878561Y-2125561D02*
G01X795652Y-2125561D01*
G01X795652Y-2111500D01*
G01X878561Y-2111500D01*
G01X878561Y-2125561D01*
G37*
G36*
G01X878561Y-2383985D02*
G01X764136Y-2383985D01*
G01X764136Y-2369924D01*
G01X878561Y-2369924D01*
G01X878561Y-2383985D01*
G37*
G36*
G01X880500Y-2436591D02*
G01X880258Y-2438531D01*
G01X880015Y-2439985D01*
G01X879773Y-2441925D01*
G01X879288Y-2444106D01*
G01X878561Y-2446531D01*
G01X877591Y-2448712D01*
G01X875894Y-2452106D01*
G01X873955Y-2454531D01*
G01X872500Y-2456227D01*
G01X870561Y-2457682D01*
G01X869591Y-2458894D01*
G01X870561Y-2459440D01*
G01X873955Y-2459621D01*
G01X878561Y-2459621D01*
G01X878561Y-2472712D01*
G01X764136Y-2472712D01*
G01X764136Y-2458652D01*
G01X783530Y-2458652D01*
G01X803652Y-2458409D01*
G01X804076Y-2458167D01*
G01X803894Y-2457924D01*
G01X800500Y-2454531D01*
G01X799046Y-2452591D01*
G01X797591Y-2450409D01*
G01X796621Y-2448712D01*
G01X795894Y-2447015D01*
G01X795167Y-2445076D01*
G01X794440Y-2442652D01*
G01X793955Y-2440470D01*
G01X793712Y-2437318D01*
G01X793725Y-2437076D01*
G01X805349Y-2437076D01*
G01X805834Y-2442167D01*
G01X806803Y-2444834D01*
G01X808500Y-2448228D01*
G01X811409Y-2451864D01*
G01X815046Y-2454773D01*
G01X816743Y-2455743D01*
G01X818682Y-2456712D01*
G01X820864Y-2457682D01*
G01X823046Y-2458409D01*
G01X827894Y-2459379D01*
G01X830803Y-2459621D01*
G01X834682Y-2459864D01*
G01X837106Y-2459864D01*
G01X845349Y-2459379D01*
G01X848743Y-2458894D01*
G01X851167Y-2458409D01*
G01X853833Y-2457682D01*
G01X856015Y-2456712D01*
G01X858439Y-2455500D01*
G01X860864Y-2453803D01*
G01X862803Y-2452349D01*
G01X864015Y-2451137D01*
G01X865470Y-2449197D01*
G01X866924Y-2446773D01*
G01X867894Y-2444591D01*
G01X868379Y-2442409D01*
G01X868379Y-2442409D01*
G01X868621Y-2440955D01*
G01X868864Y-2438773D01*
G01X868621Y-2435621D01*
G01X868136Y-2433197D01*
G01X867409Y-2430531D01*
G01X866197Y-2428106D01*
G01X864742Y-2425925D01*
G01X863288Y-2424228D01*
G01X860379Y-2421318D01*
G01X858197Y-2419864D01*
G01X856015Y-2418652D01*
G01X853833Y-2417682D01*
G01X851894Y-2416955D01*
G01X849227Y-2416228D01*
G01X846803Y-2415743D01*
G01X841955Y-2415258D01*
G01X838318Y-2415015D01*
G01X833227Y-2415258D01*
G01X828864Y-2415743D01*
G01X825955Y-2416228D01*
G01X823530Y-2416712D01*
G01X820864Y-2417440D01*
G01X818440Y-2418409D01*
G01X816500Y-2419379D01*
G01X814803Y-2420349D01*
G01X813106Y-2421561D01*
G01X811894Y-2422531D01*
G01X810924Y-2423500D01*
G01X809955Y-2424712D01*
G01X808500Y-2426409D01*
G01X807288Y-2428349D01*
G01X806318Y-2430531D01*
G01X805591Y-2432712D01*
G01X805349Y-2437076D01*
G01X793725Y-2437076D01*
G01X793955Y-2432712D01*
G01X794440Y-2429803D01*
G01X794924Y-2427379D01*
G01X795652Y-2424955D01*
G01X797106Y-2421076D01*
G01X799046Y-2417682D01*
G01X800015Y-2416228D01*
G01X801955Y-2413803D01*
G01X805591Y-2410167D01*
G01X807288Y-2408955D01*
G01X809227Y-2407743D01*
G01X810682Y-2406773D01*
G01X812137Y-2406046D01*
G01X813834Y-2405318D01*
G01X816015Y-2404349D01*
G01X821106Y-2402652D01*
G01X825470Y-2401682D01*
G01X828864Y-2401197D01*
G01X834924Y-2400955D01*
G01X841955Y-2401197D01*
G01X845833Y-2401682D01*
G01X848743Y-2402167D01*
G01X851167Y-2402652D01*
G01X853833Y-2403379D01*
G01X856015Y-2404106D01*
G01X857955Y-2404834D01*
G01X861833Y-2406773D01*
G01X863530Y-2407743D01*
G01X865712Y-2409197D01*
G01X867652Y-2410652D01*
G01X872500Y-2415500D01*
G01X873955Y-2417197D01*
G01X875167Y-2418894D01*
G01X877106Y-2422288D01*
G01X877833Y-2423985D01*
G01X878561Y-2425925D01*
G01X879288Y-2428106D01*
G01X879773Y-2430288D01*
G01X880258Y-2434167D01*
G01X880500Y-2436591D01*
G37*
G36*
G01X880500Y-2626409D02*
G01X880258Y-2631500D01*
G01X880015Y-2632955D01*
G01X879773Y-2635379D01*
G01X879288Y-2638288D01*
G01X878803Y-2640712D01*
G01X878318Y-2642894D01*
G01X877591Y-2645803D01*
G01X876621Y-2648470D01*
G01X875652Y-2650894D01*
G01X874682Y-2652833D01*
G01X873712Y-2654530D01*
G01X872500Y-2656470D01*
G01X871530Y-2658167D01*
G01X870561Y-2659379D01*
G01X869349Y-2660591D01*
G01X867409Y-2663015D01*
G01X862318Y-2667379D01*
G01X860136Y-2668833D01*
G01X856258Y-2671258D01*
G01X854076Y-2672470D01*
G01X851652Y-2673439D01*
G01X849470Y-2674409D01*
G01X847288Y-2675136D01*
G01X845349Y-2675864D01*
G01X843167Y-2676591D01*
G01X840015Y-2677318D01*
G01X837591Y-2678045D01*
G01X831773Y-2679015D01*
G01X826440Y-2679500D01*
G01X820864Y-2679742D01*
G01X815288Y-2679500D01*
G01X813106Y-2679258D01*
G01X810440Y-2679015D01*
G01X807531Y-2678530D01*
G01X805106Y-2678045D01*
G01X802924Y-2677561D01*
G01X799773Y-2676833D01*
G01X796621Y-2675864D01*
G01X794197Y-2674894D01*
G01X789834Y-2672955D01*
G01X787894Y-2671985D01*
G01X786197Y-2671015D01*
G01X784258Y-2669803D01*
G01X782561Y-2668591D01*
G01X781106Y-2667621D01*
G01X779652Y-2666409D01*
G01X773833Y-2660591D01*
G01X772379Y-2658652D01*
G01X770682Y-2656227D01*
G01X769470Y-2654288D01*
G01X767046Y-2649439D01*
G01X766076Y-2647258D01*
G01X763894Y-2640712D01*
G01X763409Y-2638773D01*
G01X762439Y-2632955D01*
G01X762197Y-2626894D01*
G01X762439Y-2620349D01*
G01X762924Y-2616955D01*
G01X763409Y-2614046D01*
G01X763894Y-2611864D01*
G01X764621Y-2609440D01*
G01X765349Y-2607258D01*
G01X766076Y-2605318D01*
G01X768258Y-2600955D01*
G01X769712Y-2598773D01*
G01X770682Y-2597076D01*
G01X773591Y-2593440D01*
G01X774803Y-2592227D01*
G01X777227Y-2590288D01*
G01X778440Y-2589076D01*
G01X780379Y-2587621D01*
G01X784015Y-2585197D01*
G01X785712Y-2584227D01*
G01X787894Y-2583258D01*
G01X789834Y-2582531D01*
G01X791531Y-2581803D01*
G01X793712Y-2581076D01*
G01X795167Y-2580834D01*
G01X796379Y-2584470D01*
G01X796864Y-2586894D01*
G01X797591Y-2590288D01*
G01X798318Y-2592712D01*
G01X798561Y-2594409D01*
G01X798318Y-2595258D01*
G01X797591Y-2595864D01*
G01X795167Y-2596834D01*
G01X792985Y-2597803D01*
G01X788621Y-2599985D01*
G01X786924Y-2601197D01*
G01X785470Y-2602167D01*
G01X784015Y-2603379D01*
G01X781106Y-2606288D01*
G01X778682Y-2609924D01*
G01X777712Y-2611864D01*
G01X776743Y-2614288D01*
G01X776015Y-2616712D01*
G01X775530Y-2618894D01*
G01X775288Y-2620833D01*
G01X775046Y-2624227D01*
G01X775046Y-2627136D01*
G01X775530Y-2632955D01*
G01X776500Y-2637803D01*
G01X777227Y-2639985D01*
G01X778197Y-2642652D01*
G01X779409Y-2645076D01*
G01X780621Y-2647015D01*
G01X781591Y-2648712D01*
G01X782803Y-2650167D01*
G01X787652Y-2655015D01*
G01X790076Y-2656712D01*
G01X792015Y-2657924D01*
G01X793955Y-2658894D01*
G01X796137Y-2659864D01*
G01X802682Y-2662045D01*
G01X804621Y-2662530D01*
G01X809955Y-2663500D01*
G01X814318Y-2663985D01*
G01X819652Y-2664227D01*
G01X824985Y-2663985D01*
G01X830318Y-2663500D01*
G01X832015Y-2663258D01*
G01X834197Y-2663015D01*
G01X836137Y-2662530D01*
G01X838561Y-2662045D01*
G01X841712Y-2661318D01*
G01X844621Y-2660349D01*
G01X846803Y-2659379D01*
G01X848500Y-2658652D01*
G01X850682Y-2657682D01*
G01X855046Y-2654773D01*
G01X856743Y-2653318D01*
G01X859167Y-2650894D01*
G01X860136Y-2649682D01*
G01X862561Y-2646288D01*
G01X863530Y-2644591D01*
G01X864500Y-2642409D01*
G01X865955Y-2638530D01*
G01X866682Y-2635864D01*
G01X867167Y-2633439D01*
G01X867409Y-2627864D01*
G01X867167Y-2622288D01*
G01X866682Y-2619864D01*
G01X865955Y-2616470D01*
G01X864985Y-2613803D01*
G01X864015Y-2611621D01*
G01X862803Y-2609197D01*
G01X860379Y-2605803D01*
G01X858924Y-2604106D01*
G01X856500Y-2601682D01*
G01X855288Y-2600712D01*
G01X852379Y-2598773D01*
G01X850682Y-2597803D01*
G01X848743Y-2596834D01*
G01X847046Y-2596106D01*
G01X845106Y-2595379D01*
G01X842924Y-2594652D01*
G01X840015Y-2593924D01*
G01X838318Y-2593440D01*
G01X838803Y-2592227D01*
G01X839530Y-2590288D01*
G01X840015Y-2588106D01*
G01X840743Y-2584955D01*
G01X841470Y-2582531D01*
G01X841955Y-2580349D01*
G01X842318Y-2579258D01*
G01X842924Y-2578894D01*
G01X844621Y-2579379D01*
G01X848985Y-2580834D01*
G01X850924Y-2581561D01*
G01X852621Y-2582288D01*
G01X856500Y-2584227D01*
G01X858197Y-2585197D01*
G01X860136Y-2586409D01*
G01X861833Y-2587379D01*
G01X863046Y-2588349D01*
G01X866439Y-2591258D01*
G01X868864Y-2593682D01*
G01X871773Y-2597318D01*
G01X872742Y-2598773D01*
G01X873955Y-2600712D01*
G01X875167Y-2602894D01*
G01X876136Y-2604833D01*
G01X877106Y-2607015D01*
G01X878803Y-2612106D01*
G01X879773Y-2616955D01*
G01X880258Y-2620833D01*
G01X880500Y-2626409D01*
G37*
G36*
G01X880500Y-2538652D02*
G01X880258Y-2541318D01*
G01X880015Y-2542773D01*
G01X879773Y-2544712D01*
G01X879288Y-2547379D01*
G01X878561Y-2550288D01*
G01X877833Y-2552227D01*
G01X877106Y-2553924D01*
G01X876136Y-2555621D01*
G01X875167Y-2557076D01*
G01X874197Y-2558288D01*
G01X870561Y-2561924D01*
G01X869349Y-2562894D01*
G01X867652Y-2563864D01*
G01X865470Y-2564834D01*
G01X863288Y-2565561D01*
G01X861349Y-2566046D01*
G01X857955Y-2566288D01*
G01X854076Y-2566046D01*
G01X851652Y-2565561D01*
G01X848985Y-2564834D01*
G01X846561Y-2563864D01*
G01X844379Y-2562652D01*
G01X841955Y-2560955D01*
G01X840015Y-2559500D01*
G01X838076Y-2557076D01*
G01X836864Y-2555379D01*
G01X835652Y-2553197D01*
G01X834682Y-2551258D01*
G01X833955Y-2549318D01*
G01X832985Y-2546652D01*
G01X832258Y-2544227D01*
G01X831773Y-2541803D01*
G01X830803Y-2535015D01*
G01X830318Y-2531136D01*
G01X829349Y-2524349D01*
G01X828864Y-2521439D01*
G01X828379Y-2518773D01*
G01X827652Y-2515136D01*
G01X826924Y-2512712D01*
G01X826440Y-2510288D01*
G01X826197Y-2508591D01*
G01X836864Y-2508591D01*
G01X837349Y-2510046D01*
G01X838318Y-2513197D01*
G01X839288Y-2516591D01*
G01X840015Y-2519500D01*
G01X840500Y-2521924D01*
G01X840985Y-2523864D01*
G01X841470Y-2527258D01*
G01X842924Y-2535985D01*
G01X843652Y-2539864D01*
G01X844621Y-2543015D01*
G01X845591Y-2545197D01*
G01X846318Y-2546652D01*
G01X847773Y-2548349D01*
G01X849955Y-2549803D01*
G01X851894Y-2550773D01*
G01X855773Y-2551258D01*
G01X860136Y-2550773D01*
G01X862318Y-2549803D01*
G01X864015Y-2548833D01*
G01X865470Y-2547621D01*
G01X866439Y-2546409D01*
G01X867409Y-2544712D01*
G01X868379Y-2542530D01*
G01X868864Y-2540349D01*
G01X868864Y-2540349D01*
G01X869106Y-2538894D01*
G01X869349Y-2535985D01*
G01X869106Y-2531136D01*
G01X868621Y-2528227D01*
G01X868136Y-2526045D01*
G01X867409Y-2523621D01*
G01X866439Y-2521439D01*
G01X865227Y-2519258D01*
G01X864258Y-2517561D01*
G01X863288Y-2516349D01*
G01X860379Y-2513439D01*
G01X858197Y-2511985D01*
G01X856015Y-2510773D01*
G01X853591Y-2509803D01*
G01X851652Y-2509318D01*
G01X847773Y-2508833D01*
G01X841955Y-2508591D01*
G01X836864Y-2508591D01*
G01X826197Y-2508591D01*
G01X823046Y-2508591D01*
G01X818682Y-2508833D01*
G01X814803Y-2509803D01*
G01X812864Y-2510530D01*
G01X810924Y-2511985D01*
G01X808985Y-2513924D01*
G01X807773Y-2516106D01*
G01X806803Y-2518288D01*
G01X806076Y-2520712D01*
G01X805591Y-2522894D01*
G01X805349Y-2528227D01*
G01X805591Y-2533561D01*
G01X805834Y-2535500D01*
G01X806318Y-2537682D01*
G01X807046Y-2539864D01*
G01X808015Y-2542046D01*
G01X809227Y-2543743D01*
G01X810197Y-2544955D01*
G01X811167Y-2545924D01*
G01X812621Y-2546894D01*
G01X814318Y-2547864D01*
G01X816258Y-2548833D01*
G01X819167Y-2549803D01*
G01X820440Y-2550409D01*
G01X820864Y-2551258D01*
G01X819652Y-2559743D01*
G01X819409Y-2562167D01*
G01X819409Y-2563864D01*
G01X817712Y-2563379D01*
G01X815288Y-2562652D01*
G01X813591Y-2562167D01*
G01X811894Y-2561440D01*
G01X808015Y-2559500D01*
G01X806076Y-2558288D01*
G01X804379Y-2557076D01*
G01X803167Y-2556106D01*
G01X800743Y-2553197D01*
G01X799531Y-2551500D01*
G01X797106Y-2546652D01*
G01X796137Y-2543985D01*
G01X795409Y-2541803D01*
G01X794440Y-2537439D01*
G01X793955Y-2533076D01*
G01X793712Y-2527742D01*
G01X793955Y-2521439D01*
G01X794440Y-2517561D01*
G01X794924Y-2514652D01*
G01X795409Y-2512470D01*
G01X796137Y-2510046D01*
G01X796864Y-2508106D01*
G01X797591Y-2506409D01*
G01X798561Y-2504712D01*
G01X799531Y-2503258D01*
G01X800743Y-2501561D01*
G01X802197Y-2499864D01*
G01X804137Y-2498409D01*
G01X806561Y-2496955D01*
G01X809227Y-2495985D01*
G01X811409Y-2495258D01*
G01X815288Y-2494773D01*
G01X858439Y-2494288D01*
G01X866682Y-2493803D01*
G01X869106Y-2493318D01*
G01X872500Y-2492591D01*
G01X874924Y-2491621D01*
G01X877106Y-2490652D01*
G01X878561Y-2490167D01*
G01X878561Y-2504712D01*
G01X877349Y-2505197D01*
G01X874682Y-2506167D01*
G01X872500Y-2506894D01*
G01X870318Y-2507136D01*
G01X868864Y-2507136D01*
G01X869106Y-2508349D01*
G01X870076Y-2510046D01*
G01X871530Y-2511742D01*
G01X872985Y-2513924D01*
G01X874197Y-2515864D01*
G01X875167Y-2517561D01*
G01X877106Y-2521439D01*
G01X877833Y-2523379D01*
G01X878561Y-2525561D01*
G01X879288Y-2528227D01*
G01X879773Y-2530652D01*
G01X880258Y-2535500D01*
G01X880500Y-2538652D01*
G37*
G36*
G01X1574424Y-3298833D02*
G01X1569303Y-3298439D01*
G01X1566742Y-3297651D01*
G01X1564773Y-3296864D01*
G01X1563000Y-3296076D01*
G01X1561424Y-3295288D01*
G01X1559849Y-3294303D01*
G01X1557091Y-3292333D01*
G01X1555712Y-3291152D01*
G01X1554727Y-3290167D01*
G01X1553546Y-3288788D01*
G01X1552167Y-3286818D01*
G01X1550985Y-3285045D01*
G01X1550197Y-3283667D01*
G01X1549409Y-3282091D01*
G01X1548621Y-3280121D01*
G01X1547833Y-3277955D01*
G01X1547242Y-3276182D01*
G01X1546455Y-3272636D01*
G01X1546061Y-3269879D01*
G01X1545864Y-3264758D01*
G01X1545923Y-3262985D01*
G01X1557288Y-3262985D01*
G01X1557682Y-3267318D01*
G01X1557879Y-3270273D01*
G01X1558273Y-3272636D01*
G01X1559061Y-3275788D01*
G01X1559651Y-3277561D01*
G01X1560439Y-3279333D01*
G01X1561424Y-3281106D01*
G01X1562212Y-3282485D01*
G01X1563000Y-3283470D01*
G01X1565364Y-3285833D01*
G01X1566939Y-3287015D01*
G01X1568121Y-3287803D01*
G01X1569500Y-3288394D01*
G01X1571076Y-3288985D01*
G01X1573439Y-3289379D01*
G01X1573439Y-3289379D01*
G01X1575212Y-3289576D01*
G01X1576000Y-3289576D01*
G01X1577773Y-3289379D01*
G01X1580136Y-3288985D01*
G01X1582303Y-3288197D01*
G01X1583879Y-3287409D01*
G01X1585455Y-3286424D01*
G01X1586833Y-3285243D01*
G01X1589197Y-3282879D01*
G01X1590379Y-3281106D01*
G01X1591167Y-3279727D01*
G01X1591758Y-3278348D01*
G01X1592348Y-3276773D01*
G01X1592939Y-3274606D01*
G01X1593333Y-3272636D01*
G01X1593727Y-3268303D01*
G01X1593924Y-3265545D01*
G01X1593727Y-3262788D01*
G01X1593333Y-3258060D01*
G01X1592939Y-3255697D01*
G01X1592348Y-3252545D01*
G01X1591560Y-3250182D01*
G01X1590773Y-3248212D01*
G01X1589788Y-3246439D01*
G01X1588803Y-3244864D01*
G01X1587818Y-3243682D01*
G01X1585848Y-3241712D01*
G01X1584470Y-3240727D01*
G01X1582894Y-3239743D01*
G01X1581121Y-3238955D01*
G01X1579545Y-3238364D01*
G01X1576394Y-3237970D01*
G01X1575212Y-3237970D01*
G01X1573045Y-3238167D01*
G01X1570682Y-3238561D01*
G01X1569106Y-3239151D01*
G01X1567727Y-3239743D01*
G01X1566546Y-3240333D01*
G01X1563591Y-3242697D01*
G01X1562015Y-3244667D01*
G01X1561227Y-3245848D01*
G01X1560439Y-3247227D01*
G01X1559651Y-3249000D01*
G01X1558864Y-3251364D01*
G01X1558273Y-3253333D01*
G01X1557879Y-3256091D01*
G01X1557485Y-3260818D01*
G01X1557288Y-3262985D01*
G01X1545923Y-3262985D01*
G01X1546061Y-3258848D01*
G01X1546455Y-3256091D01*
G01X1547242Y-3252151D01*
G01X1547833Y-3249591D01*
G01X1548621Y-3247227D01*
G01X1549409Y-3245454D01*
G01X1550000Y-3244076D01*
G01X1550788Y-3242303D01*
G01X1551970Y-3240530D01*
G01X1552954Y-3238955D01*
G01X1553939Y-3237773D01*
G01X1555318Y-3236394D01*
G01X1556500Y-3235015D01*
G01X1557485Y-3234227D01*
G01X1559061Y-3233046D01*
G01X1561030Y-3231864D01*
G01X1562606Y-3231076D01*
G01X1563985Y-3230485D01*
G01X1565560Y-3229894D01*
G01X1567530Y-3229303D01*
G01X1569303Y-3228909D01*
G01X1572849Y-3228712D01*
G01X1577576Y-3228909D01*
G01X1580530Y-3229500D01*
G01X1582894Y-3230288D01*
G01X1584667Y-3231076D01*
G01X1586045Y-3231864D01*
G01X1587227Y-3232652D01*
G01X1588212Y-3233242D01*
G01X1589197Y-3234030D01*
G01X1591167Y-3236000D01*
G01X1592152Y-3236788D01*
G01X1592595Y-3232848D01*
G01X1592742Y-3220636D01*
G01X1592742Y-3204288D01*
G01X1604167Y-3204288D01*
G01X1604167Y-3297258D01*
G01X1593530Y-3297258D01*
G01X1593530Y-3293515D01*
G01X1593383Y-3290758D01*
G01X1592939Y-3289970D01*
G01X1592152Y-3290758D01*
G01X1591364Y-3291742D01*
G01X1589000Y-3294106D01*
G01X1587030Y-3295485D01*
G01X1585455Y-3296470D01*
G01X1583879Y-3297258D01*
G01X1582303Y-3297849D01*
G01X1578758Y-3298636D01*
G01X1574424Y-3298833D01*
G37*
G36*
G01X1930348Y-3298833D02*
G01X1923258Y-3298636D01*
G01X1921879Y-3298243D01*
G01X1917939Y-3297455D01*
G01X1916167Y-3297061D01*
G01X1914197Y-3296470D01*
G01X1912621Y-3295879D01*
G01X1911242Y-3295288D01*
G01X1908091Y-3293712D01*
G01X1906515Y-3292727D01*
G01X1905136Y-3291742D01*
G01X1903955Y-3290955D01*
G01X1902773Y-3289970D01*
G01X1898439Y-3285636D01*
G01X1897258Y-3284061D01*
G01X1896273Y-3282682D01*
G01X1895288Y-3281106D01*
G01X1893712Y-3278348D01*
G01X1892136Y-3274803D01*
G01X1891349Y-3272833D01*
G01X1890561Y-3270470D01*
G01X1889773Y-3267909D01*
G01X1889182Y-3265939D01*
G01X1888394Y-3262394D01*
G01X1888000Y-3259636D01*
G01X1887606Y-3255697D01*
G01X1887409Y-3250576D01*
G01X1887606Y-3245454D01*
G01X1887803Y-3243879D01*
G01X1888000Y-3241909D01*
G01X1888394Y-3239545D01*
G01X1888788Y-3237576D01*
G01X1889182Y-3235803D01*
G01X1889773Y-3233440D01*
G01X1890955Y-3229894D01*
G01X1891742Y-3227727D01*
G01X1894106Y-3223000D01*
G01X1895091Y-3221424D01*
G01X1896273Y-3219652D01*
G01X1897652Y-3217879D01*
G01X1898833Y-3216303D01*
G01X1901788Y-3213349D01*
G01X1904742Y-3210985D01*
G01X1906121Y-3210000D01*
G01X1907697Y-3209015D01*
G01X1912424Y-3206652D01*
G01X1914197Y-3205864D01*
G01X1915970Y-3205273D01*
G01X1918136Y-3204682D01*
G01X1919909Y-3204091D01*
G01X1924242Y-3203303D01*
G01X1929364Y-3202909D01*
G01X1930939Y-3202712D01*
G01X1932515Y-3202909D01*
G01X1937242Y-3203303D01*
G01X1938621Y-3203500D01*
G01X1940788Y-3203894D01*
G01X1942758Y-3204485D01*
G01X1944333Y-3204879D01*
G01X1946106Y-3205470D01*
G01X1948076Y-3206258D01*
G01X1949849Y-3207045D01*
G01X1951227Y-3207833D01*
G01X1952803Y-3208818D01*
G01X1954182Y-3209606D01*
G01X1955167Y-3210394D01*
G01X1957924Y-3212758D01*
G01X1959894Y-3214727D01*
G01X1961470Y-3216697D01*
G01X1962455Y-3218076D01*
G01X1964424Y-3221227D01*
G01X1965409Y-3223000D01*
G01X1966197Y-3224970D01*
G01X1966985Y-3226743D01*
G01X1967576Y-3228712D01*
G01X1967477Y-3229648D01*
G01X1966788Y-3230091D01*
G01X1964424Y-3230682D01*
G01X1962455Y-3231273D01*
G01X1957136Y-3232455D01*
G01X1956152Y-3232356D01*
G01X1955560Y-3231667D01*
G01X1953985Y-3228121D01*
G01X1952409Y-3224970D01*
G01X1951621Y-3223591D01*
G01X1949257Y-3220636D01*
G01X1947288Y-3218667D01*
G01X1945909Y-3217485D01*
G01X1944333Y-3216500D01*
G01X1942758Y-3215712D01*
G01X1940985Y-3214924D01*
G01X1939212Y-3214333D01*
G01X1937636Y-3213939D01*
G01X1934879Y-3213545D01*
G01X1931333Y-3213349D01*
G01X1927788Y-3213545D01*
G01X1926409Y-3213742D01*
G01X1924636Y-3213939D01*
G01X1922667Y-3214333D01*
G01X1921091Y-3214727D01*
G01X1919318Y-3215318D01*
G01X1917151Y-3216106D01*
G01X1913606Y-3218076D01*
G01X1912227Y-3219061D01*
G01X1910258Y-3220636D01*
G01X1908288Y-3222606D01*
G01X1907106Y-3224182D01*
G01X1905727Y-3226151D01*
G01X1904742Y-3227727D01*
G01X1903561Y-3230485D01*
G01X1902773Y-3232455D01*
G01X1901985Y-3235212D01*
G01X1901394Y-3237182D01*
G01X1900606Y-3241515D01*
G01X1900212Y-3244667D01*
G01X1900015Y-3249788D01*
G01X1900212Y-3254909D01*
G01X1900606Y-3258454D01*
G01X1900803Y-3259833D01*
G01X1901000Y-3261606D01*
G01X1901394Y-3263182D01*
G01X1901788Y-3265151D01*
G01X1902379Y-3267712D01*
G01X1903167Y-3270076D01*
G01X1903955Y-3271848D01*
G01X1905727Y-3275394D01*
G01X1906909Y-3277167D01*
G01X1907697Y-3278545D01*
G01X1908485Y-3279530D01*
G01X1910454Y-3281500D01*
G01X1911439Y-3282288D01*
G01X1912424Y-3282879D01*
G01X1913409Y-3283667D01*
G01X1914788Y-3284652D01*
G01X1916364Y-3285439D01*
G01X1918136Y-3286227D01*
G01X1920106Y-3287015D01*
G01X1922076Y-3287606D01*
G01X1923848Y-3288000D01*
G01X1927000Y-3288394D01*
G01X1929758Y-3288591D01*
G01X1932515Y-3288394D01*
G01X1936651Y-3287803D01*
G01X1938227Y-3287409D01*
G01X1940000Y-3286818D01*
G01X1941576Y-3286227D01*
G01X1943152Y-3285439D01*
G01X1944924Y-3284455D01*
G01X1946500Y-3283470D01*
G01X1947682Y-3282485D01*
G01X1948667Y-3281697D01*
G01X1949455Y-3280909D01*
G01X1950242Y-3279924D01*
G01X1951227Y-3278939D01*
G01X1952015Y-3277955D01*
G01X1952803Y-3276773D01*
G01X1953788Y-3275197D01*
G01X1954576Y-3273621D01*
G01X1955167Y-3272242D01*
G01X1955758Y-3270667D01*
G01X1956939Y-3267121D01*
G01X1957333Y-3265545D01*
G01X1957826Y-3265201D01*
G01X1958909Y-3265349D01*
G01X1960879Y-3265939D01*
G01X1962651Y-3266333D01*
G01X1965212Y-3266924D01*
G01X1967970Y-3267712D01*
G01X1969348Y-3268303D01*
G01X1968954Y-3269682D01*
G01X1968364Y-3271455D01*
G01X1967970Y-3272833D01*
G01X1967379Y-3274409D01*
G01X1966591Y-3276182D01*
G01X1964227Y-3280909D01*
G01X1963242Y-3282485D01*
G01X1961273Y-3285243D01*
G01X1960091Y-3286621D01*
G01X1956152Y-3290561D01*
G01X1955167Y-3291348D01*
G01X1953788Y-3292333D01*
G01X1952015Y-3293515D01*
G01X1950242Y-3294500D01*
G01X1948667Y-3295288D01*
G01X1945909Y-3296470D01*
G01X1944136Y-3297061D01*
G01X1942167Y-3297651D01*
G01X1939606Y-3298243D01*
G01X1937242Y-3298636D01*
G01X1930348Y-3298833D01*
G37*
G36*
G01X1628985Y-3324833D02*
G01X1626424Y-3324636D01*
G01X1625242Y-3324242D01*
G01X1623470Y-3323849D01*
G01X1621894Y-3323257D01*
G01X1621303Y-3321091D01*
G01X1620909Y-3317546D01*
G01X1620909Y-3314394D01*
G01X1621205Y-3313409D01*
G01X1621697Y-3313212D01*
G01X1625833Y-3313803D01*
G01X1628394Y-3313606D01*
G01X1630757Y-3313212D01*
G01X1632136Y-3312818D01*
G01X1633318Y-3312227D01*
G01X1634697Y-3311243D01*
G01X1635879Y-3310061D01*
G01X1636667Y-3309076D01*
G01X1637454Y-3307894D01*
G01X1638636Y-3305136D01*
G01X1640409Y-3300409D01*
G01X1641000Y-3298439D01*
G01X1640803Y-3296470D01*
G01X1640015Y-3294500D01*
G01X1638439Y-3290167D01*
G01X1637652Y-3288197D01*
G01X1635288Y-3281894D01*
G01X1634500Y-3279924D01*
G01X1632924Y-3275591D01*
G01X1632136Y-3273621D01*
G01X1630955Y-3270470D01*
G01X1630167Y-3268500D01*
G01X1628591Y-3264167D01*
G01X1627803Y-3262197D01*
G01X1625439Y-3255894D01*
G01X1624652Y-3253924D01*
G01X1623076Y-3249591D01*
G01X1622288Y-3247621D01*
G01X1618151Y-3236591D01*
G01X1617561Y-3235212D01*
G01X1616379Y-3232061D01*
G01X1615985Y-3230682D01*
G01X1617265Y-3230091D01*
G01X1621106Y-3229894D01*
G01X1627212Y-3230091D01*
G01X1628000Y-3230485D01*
G01X1628394Y-3231273D01*
G01X1628985Y-3233046D01*
G01X1629773Y-3235015D01*
G01X1630561Y-3237379D01*
G01X1631349Y-3239349D01*
G01X1632530Y-3242894D01*
G01X1633712Y-3246046D01*
G01X1634303Y-3247818D01*
G01X1635485Y-3250970D01*
G01X1636076Y-3252743D01*
G01X1637258Y-3255894D01*
G01X1637848Y-3257667D01*
G01X1639030Y-3260818D01*
G01X1639621Y-3262591D01*
G01X1640409Y-3264561D01*
G01X1641985Y-3269288D01*
G01X1642773Y-3271258D01*
G01X1644545Y-3276576D01*
G01X1645136Y-3278742D01*
G01X1645727Y-3280515D01*
G01X1646121Y-3282288D01*
G01X1646712Y-3283667D01*
G01X1647106Y-3283568D01*
G01X1647500Y-3282879D01*
G01X1648091Y-3281303D01*
G01X1648485Y-3279727D01*
G01X1649076Y-3277561D01*
G01X1652227Y-3268106D01*
G01X1653015Y-3266136D01*
G01X1653606Y-3264364D01*
G01X1654788Y-3261212D01*
G01X1655379Y-3259439D01*
G01X1656167Y-3257470D01*
G01X1660894Y-3244470D01*
G01X1661682Y-3242500D01*
G01X1662273Y-3240727D01*
G01X1663454Y-3237576D01*
G01X1664045Y-3235803D01*
G01X1665227Y-3232652D01*
G01X1665818Y-3230879D01*
G01X1666015Y-3229894D01*
G01X1671530Y-3229894D01*
G01X1675667Y-3230042D01*
G01X1677045Y-3230485D01*
G01X1676651Y-3231667D01*
G01X1668970Y-3252151D01*
G01X1668379Y-3253924D01*
G01X1650652Y-3301197D01*
G01X1649076Y-3305136D01*
G01X1648485Y-3306712D01*
G01X1646712Y-3310849D01*
G01X1645136Y-3314000D01*
G01X1644349Y-3315379D01*
G01X1643561Y-3316561D01*
G01X1642576Y-3317939D01*
G01X1641394Y-3319318D01*
G01X1639424Y-3321288D01*
G01X1638439Y-3322076D01*
G01X1637060Y-3322864D01*
G01X1635288Y-3323651D01*
G01X1633318Y-3324242D01*
G01X1631545Y-3324636D01*
G01X1628985Y-3324833D01*
G37*
G36*
G01X1764106Y-3298833D02*
G01X1757015Y-3298636D01*
G01X1755636Y-3298243D01*
G01X1753470Y-3297849D01*
G01X1750712Y-3297258D01*
G01X1748939Y-3296667D01*
G01X1747561Y-3296273D01*
G01X1745985Y-3295682D01*
G01X1744212Y-3294894D01*
G01X1742636Y-3294106D01*
G01X1741258Y-3293318D01*
G01X1739485Y-3292136D01*
G01X1737909Y-3290955D01*
G01X1735939Y-3289379D01*
G01X1732591Y-3286030D01*
G01X1731409Y-3284455D01*
G01X1730424Y-3283076D01*
G01X1729242Y-3281303D01*
G01X1728257Y-3279727D01*
G01X1726682Y-3276576D01*
G01X1725894Y-3274803D01*
G01X1724318Y-3270470D01*
G01X1723530Y-3267909D01*
G01X1722939Y-3265939D01*
G01X1722151Y-3262000D01*
G01X1721758Y-3259242D01*
G01X1721364Y-3254515D01*
G01X1721167Y-3250576D01*
G01X1721364Y-3246636D01*
G01X1721560Y-3244864D01*
G01X1721758Y-3242303D01*
G01X1722545Y-3237576D01*
G01X1723136Y-3234818D01*
G01X1723924Y-3232258D01*
G01X1724712Y-3229894D01*
G01X1725500Y-3227924D01*
G01X1726288Y-3226151D01*
G01X1727273Y-3224182D01*
G01X1728257Y-3222606D01*
G01X1729045Y-3221227D01*
G01X1729833Y-3220046D01*
G01X1730424Y-3219061D01*
G01X1731212Y-3218076D01*
G01X1733182Y-3215712D01*
G01X1735545Y-3213349D01*
G01X1737515Y-3211773D01*
G01X1739485Y-3210394D01*
G01X1740864Y-3209409D01*
G01X1742242Y-3208621D01*
G01X1745394Y-3207045D01*
G01X1747167Y-3206258D01*
G01X1749333Y-3205470D01*
G01X1751894Y-3204682D01*
G01X1753667Y-3204091D01*
G01X1758000Y-3203303D01*
G01X1763515Y-3202909D01*
G01X1765091Y-3202712D01*
G01X1766667Y-3202909D01*
G01X1768439Y-3203106D01*
G01X1771000Y-3203303D01*
G01X1773363Y-3203697D01*
G01X1774939Y-3204091D01*
G01X1776712Y-3204485D01*
G01X1778879Y-3205076D01*
G01X1782818Y-3206652D01*
G01X1784788Y-3207636D01*
G01X1786364Y-3208621D01*
G01X1787545Y-3209409D01*
G01X1790697Y-3211773D01*
G01X1794045Y-3215121D01*
G01X1795227Y-3216697D01*
G01X1796015Y-3217682D01*
G01X1797591Y-3220046D01*
G01X1798379Y-3221424D01*
G01X1799167Y-3223000D01*
G01X1799954Y-3224773D01*
G01X1800742Y-3226743D01*
G01X1801333Y-3228712D01*
G01X1801333Y-3229648D01*
G01X1800939Y-3230091D01*
G01X1799758Y-3230485D01*
G01X1797788Y-3230879D01*
G01X1795030Y-3231470D01*
G01X1793061Y-3232061D01*
G01X1791091Y-3232455D01*
G01X1790008Y-3232455D01*
G01X1789515Y-3232061D01*
G01X1788924Y-3230682D01*
G01X1788136Y-3228712D01*
G01X1787348Y-3226939D01*
G01X1785773Y-3224182D01*
G01X1784985Y-3223000D01*
G01X1784197Y-3222015D01*
G01X1783606Y-3221030D01*
G01X1782818Y-3220242D01*
G01X1781833Y-3219455D01*
G01X1780454Y-3218076D01*
G01X1778682Y-3216894D01*
G01X1776909Y-3215909D01*
G01X1775136Y-3215121D01*
G01X1773561Y-3214530D01*
G01X1771197Y-3213939D01*
G01X1769030Y-3213545D01*
G01X1765288Y-3213349D01*
G01X1761545Y-3213545D01*
G01X1758394Y-3213939D01*
G01X1756424Y-3214333D01*
G01X1754061Y-3214924D01*
G01X1751894Y-3215712D01*
G01X1749727Y-3216697D01*
G01X1747757Y-3217879D01*
G01X1746379Y-3218864D01*
G01X1743424Y-3221227D01*
G01X1741454Y-3223591D01*
G01X1740273Y-3224970D01*
G01X1739091Y-3226939D01*
G01X1738106Y-3228712D01*
G01X1737318Y-3230485D01*
G01X1736530Y-3232652D01*
G01X1735939Y-3234424D01*
G01X1735151Y-3237576D01*
G01X1734364Y-3241909D01*
G01X1733970Y-3245848D01*
G01X1733773Y-3249591D01*
G01X1733970Y-3253333D01*
G01X1734364Y-3258060D01*
G01X1734758Y-3261212D01*
G01X1735151Y-3263182D01*
G01X1735742Y-3265939D01*
G01X1736530Y-3268500D01*
G01X1737318Y-3270864D01*
G01X1738106Y-3272636D01*
G01X1738894Y-3274212D01*
G01X1739879Y-3275985D01*
G01X1741061Y-3277758D01*
G01X1742242Y-3279136D01*
G01X1744212Y-3281500D01*
G01X1745197Y-3282288D01*
G01X1747955Y-3284258D01*
G01X1749333Y-3285045D01*
G01X1750909Y-3285833D01*
G01X1754061Y-3287015D01*
G01X1755833Y-3287606D01*
G01X1757606Y-3288000D01*
G01X1761151Y-3288394D01*
G01X1763515Y-3288591D01*
G01X1766273Y-3288394D01*
G01X1769030Y-3288000D01*
G01X1771985Y-3287409D01*
G01X1774348Y-3286621D01*
G01X1776121Y-3285833D01*
G01X1777697Y-3285045D01*
G01X1779470Y-3284061D01*
G01X1781242Y-3282682D01*
G01X1782818Y-3281500D01*
G01X1783803Y-3280515D01*
G01X1785379Y-3278545D01*
G01X1786364Y-3277167D01*
G01X1787348Y-3275591D01*
G01X1788136Y-3274212D01*
G01X1788924Y-3272439D01*
G01X1789712Y-3270470D01*
G01X1790303Y-3268697D01*
G01X1790894Y-3266333D01*
G01X1791288Y-3265349D01*
G01X1791682Y-3265151D01*
G01X1793258Y-3265545D01*
G01X1795818Y-3266136D01*
G01X1797788Y-3266727D01*
G01X1799561Y-3267121D01*
G01X1802121Y-3267712D01*
G01X1803500Y-3268106D01*
G01X1803106Y-3268894D01*
G01X1802515Y-3270273D01*
G01X1802121Y-3271848D01*
G01X1801530Y-3273621D01*
G01X1800742Y-3275394D01*
G01X1799954Y-3277364D01*
G01X1798970Y-3279333D01*
G01X1797000Y-3282485D01*
G01X1795621Y-3284455D01*
G01X1794439Y-3286030D01*
G01X1793454Y-3287015D01*
G01X1792667Y-3288000D01*
G01X1791682Y-3288985D01*
G01X1790500Y-3289970D01*
G01X1789515Y-3290955D01*
G01X1788136Y-3291940D01*
G01X1786364Y-3293121D01*
G01X1784788Y-3294106D01*
G01X1780848Y-3296076D01*
G01X1778682Y-3296864D01*
G01X1776909Y-3297455D01*
G01X1773757Y-3298243D01*
G01X1771000Y-3298636D01*
G01X1764106Y-3298833D01*
G37*
G36*
G01X1844273Y-3298833D02*
G01X1839348Y-3298636D01*
G01X1837576Y-3298243D01*
G01X1834818Y-3297651D01*
G01X1832455Y-3296864D01*
G01X1830485Y-3296076D01*
G01X1828909Y-3295288D01*
G01X1827530Y-3294500D01*
G01X1826348Y-3293712D01*
G01X1825364Y-3293121D01*
G01X1824379Y-3292333D01*
G01X1821621Y-3289970D01*
G01X1820833Y-3288985D01*
G01X1819651Y-3287606D01*
G01X1818273Y-3285636D01*
G01X1817288Y-3284061D01*
G01X1816500Y-3282485D01*
G01X1815712Y-3280515D01*
G01X1814924Y-3278348D01*
G01X1814333Y-3276576D01*
G01X1813546Y-3272636D01*
G01X1813152Y-3269485D01*
G01X1812954Y-3264561D01*
G01X1813018Y-3262985D01*
G01X1824773Y-3262985D01*
G01X1824970Y-3269485D01*
G01X1825364Y-3271848D01*
G01X1825758Y-3273818D01*
G01X1826152Y-3275394D01*
G01X1826742Y-3277167D01*
G01X1827530Y-3278939D01*
G01X1828515Y-3280712D01*
G01X1829500Y-3282288D01*
G01X1830485Y-3283470D01*
G01X1832849Y-3285833D01*
G01X1834621Y-3287015D01*
G01X1836000Y-3287803D01*
G01X1837773Y-3288591D01*
G01X1839545Y-3289182D01*
G01X1841909Y-3289379D01*
G01X1841909Y-3289379D01*
G01X1843879Y-3289576D01*
G01X1844667Y-3289576D01*
G01X1848212Y-3289182D01*
G01X1849985Y-3288788D01*
G01X1851758Y-3288197D01*
G01X1853333Y-3287409D01*
G01X1854712Y-3286621D01*
G01X1856091Y-3285636D01*
G01X1857470Y-3284455D01*
G01X1858455Y-3283470D01*
G01X1859636Y-3282091D01*
G01X1860818Y-3280318D01*
G01X1861803Y-3278545D01*
G01X1862591Y-3276379D01*
G01X1863182Y-3274606D01*
G01X1863970Y-3270667D01*
G01X1864167Y-3264955D01*
G01X1863970Y-3258060D01*
G01X1863576Y-3255697D01*
G01X1863182Y-3253727D01*
G01X1862591Y-3251561D01*
G01X1861015Y-3248015D01*
G01X1860227Y-3246636D01*
G01X1859439Y-3245454D01*
G01X1857864Y-3243485D01*
G01X1856879Y-3242500D01*
G01X1855894Y-3241712D01*
G01X1854515Y-3240727D01*
G01X1852939Y-3239743D01*
G01X1851364Y-3239151D01*
G01X1849591Y-3238561D01*
G01X1847424Y-3238167D01*
G01X1845455Y-3237970D01*
G01X1844273Y-3237970D01*
G01X1840727Y-3238364D01*
G01X1838954Y-3238758D01*
G01X1837182Y-3239349D01*
G01X1835606Y-3240136D01*
G01X1833833Y-3241121D01*
G01X1832455Y-3242106D01*
G01X1829500Y-3245061D01*
G01X1828712Y-3246046D01*
G01X1827924Y-3247424D01*
G01X1827136Y-3249000D01*
G01X1826545Y-3250576D01*
G01X1825954Y-3252349D01*
G01X1825364Y-3254712D01*
G01X1824970Y-3256879D01*
G01X1824773Y-3262985D01*
G01X1813018Y-3262985D01*
G01X1813152Y-3259636D01*
G01X1813348Y-3258258D01*
G01X1813546Y-3256091D01*
G01X1813939Y-3254121D01*
G01X1814136Y-3252743D01*
G01X1814530Y-3251167D01*
G01X1815121Y-3249197D01*
G01X1815712Y-3247424D01*
G01X1817288Y-3243879D01*
G01X1818076Y-3242500D01*
G01X1818864Y-3241318D01*
G01X1819455Y-3240333D01*
G01X1820242Y-3239349D01*
G01X1824576Y-3235015D01*
G01X1826545Y-3233636D01*
G01X1828121Y-3232652D01*
G01X1831273Y-3231076D01*
G01X1832849Y-3230485D01*
G01X1834621Y-3229894D01*
G01X1836788Y-3229303D01*
G01X1838758Y-3228909D01*
G01X1843288Y-3228712D01*
G01X1848606Y-3228909D01*
G01X1850970Y-3229303D01*
G01X1852939Y-3229697D01*
G01X1855106Y-3230288D01*
G01X1857273Y-3231076D01*
G01X1860424Y-3232652D01*
G01X1862197Y-3233636D01*
G01X1863576Y-3234621D01*
G01X1865545Y-3236197D01*
G01X1868500Y-3239151D01*
G01X1869682Y-3240727D01*
G01X1870864Y-3242500D01*
G01X1871848Y-3244076D01*
G01X1872636Y-3245652D01*
G01X1873227Y-3247030D01*
G01X1873818Y-3248606D01*
G01X1874409Y-3250379D01*
G01X1875000Y-3252545D01*
G01X1875394Y-3254515D01*
G01X1875788Y-3257667D01*
G01X1875985Y-3262788D01*
G01X1875788Y-3267909D01*
G01X1875591Y-3269288D01*
G01X1875394Y-3271455D01*
G01X1875000Y-3273818D01*
G01X1874606Y-3275788D01*
G01X1874015Y-3278152D01*
G01X1873227Y-3280318D01*
G01X1872439Y-3282091D01*
G01X1871652Y-3283667D01*
G01X1870864Y-3285045D01*
G01X1869682Y-3286818D01*
G01X1868500Y-3288394D01*
G01X1865151Y-3291742D01*
G01X1863576Y-3292924D01*
G01X1862197Y-3293909D01*
G01X1860424Y-3294894D01*
G01X1857273Y-3296470D01*
G01X1855106Y-3297258D01*
G01X1853333Y-3297849D01*
G01X1849394Y-3298636D01*
G01X1844273Y-3298833D01*
G37*
G36*
G01X2010515Y-3298833D02*
G01X2005000Y-3298636D01*
G01X2002636Y-3298045D01*
G01X2000667Y-3297455D01*
G01X1999091Y-3297061D01*
G01X1997515Y-3296470D01*
G01X1993970Y-3294697D01*
G01X1992197Y-3293515D01*
G01X1990818Y-3292530D01*
G01X1988848Y-3290955D01*
G01X1987470Y-3289576D01*
G01X1985894Y-3287606D01*
G01X1984515Y-3285636D01*
G01X1983530Y-3284061D01*
G01X1982742Y-3282485D01*
G01X1981954Y-3280712D01*
G01X1980773Y-3277167D01*
G01X1980182Y-3275000D01*
G01X1979788Y-3273030D01*
G01X1979394Y-3269879D01*
G01X1979197Y-3264955D01*
G01X1979292Y-3262000D01*
G01X1990818Y-3262000D01*
G01X1990818Y-3264364D01*
G01X1991015Y-3266727D01*
G01X1991212Y-3269879D01*
G01X1991606Y-3272242D01*
G01X1992000Y-3273818D01*
G01X1992394Y-3275591D01*
G01X1992985Y-3277364D01*
G01X1994561Y-3280515D01*
G01X1995545Y-3282091D01*
G01X1996727Y-3283470D01*
G01X1999091Y-3285833D01*
G01X2000864Y-3287015D01*
G01X2002242Y-3287803D01*
G01X2004015Y-3288591D01*
G01X2005788Y-3289182D01*
G01X2008151Y-3289379D01*
G01X2008151Y-3289379D01*
G01X2010121Y-3289576D01*
G01X2010909Y-3289576D01*
G01X2012288Y-3289379D01*
G01X2014454Y-3289182D01*
G01X2016818Y-3288591D01*
G01X2018788Y-3287803D01*
G01X2020561Y-3286818D01*
G01X2021939Y-3286030D01*
G01X2022924Y-3285243D01*
G01X2024894Y-3283273D01*
G01X2025682Y-3282288D01*
G01X2027258Y-3279924D01*
G01X2028045Y-3278348D01*
G01X2028833Y-3276379D01*
G01X2029424Y-3274409D01*
G01X2029818Y-3272636D01*
G01X2030212Y-3269879D01*
G01X2030409Y-3264758D01*
G01X2030212Y-3258848D01*
G01X2029818Y-3256091D01*
G01X2029424Y-3254121D01*
G01X2029030Y-3252545D01*
G01X2028439Y-3250773D01*
G01X2027652Y-3249000D01*
G01X2026667Y-3247030D01*
G01X2024697Y-3244273D01*
G01X2023515Y-3242894D01*
G01X2022530Y-3242106D01*
G01X2021151Y-3241121D01*
G01X2019182Y-3239939D01*
G01X2017015Y-3238955D01*
G01X2015242Y-3238364D01*
G01X2011697Y-3237970D01*
G01X2010515Y-3237970D01*
G01X2006970Y-3238364D01*
G01X2005197Y-3238758D01*
G01X2003424Y-3239349D01*
G01X2001848Y-3240136D01*
G01X2000076Y-3241121D01*
G01X1998697Y-3242106D01*
G01X1995742Y-3245061D01*
G01X1994955Y-3246046D01*
G01X1994167Y-3247424D01*
G01X1993379Y-3249000D01*
G01X1992591Y-3250773D01*
G01X1992000Y-3252545D01*
G01X1991212Y-3256485D01*
G01X1991015Y-3258652D01*
G01X1990818Y-3262000D01*
G01X1979292Y-3262000D01*
G01X1979394Y-3258848D01*
G01X1979788Y-3255697D01*
G01X1980182Y-3253727D01*
G01X1980576Y-3251955D01*
G01X1981167Y-3249591D01*
G01X1981954Y-3247424D01*
G01X1982742Y-3245454D01*
G01X1983530Y-3243879D01*
G01X1984318Y-3242500D01*
G01X1985303Y-3240924D01*
G01X1986682Y-3239151D01*
G01X1987864Y-3237576D01*
G01X1988848Y-3236591D01*
G01X1990818Y-3235015D01*
G01X1992197Y-3234030D01*
G01X1993773Y-3233046D01*
G01X1994955Y-3232258D01*
G01X1996136Y-3231667D01*
G01X1997515Y-3231076D01*
G01X1999091Y-3230485D01*
G01X2000864Y-3229894D01*
G01X2003030Y-3229303D01*
G01X2005000Y-3228909D01*
G01X2009924Y-3228712D01*
G01X2014848Y-3228909D01*
G01X2016227Y-3229106D01*
G01X2018394Y-3229500D01*
G01X2020363Y-3230091D01*
G01X2021939Y-3230485D01*
G01X2023515Y-3231076D01*
G01X2026667Y-3232652D01*
G01X2028242Y-3233636D01*
G01X2029621Y-3234621D01*
G01X2030803Y-3235409D01*
G01X2031985Y-3236394D01*
G01X2034348Y-3238758D01*
G01X2035530Y-3240333D01*
G01X2036318Y-3241318D01*
G01X2037106Y-3242500D01*
G01X2037894Y-3243879D01*
G01X2038682Y-3245454D01*
G01X2039470Y-3247227D01*
G01X2040651Y-3250773D01*
G01X2041242Y-3252939D01*
G01X2041636Y-3254909D01*
G01X2042030Y-3258060D01*
G01X2042227Y-3262591D01*
G01X2042030Y-3267121D01*
G01X2041833Y-3268697D01*
G01X2041636Y-3271061D01*
G01X2041242Y-3273424D01*
G01X2040848Y-3275394D01*
G01X2040060Y-3278545D01*
G01X2039470Y-3280318D01*
G01X2038682Y-3282091D01*
G01X2037894Y-3283667D01*
G01X2036909Y-3285243D01*
G01X2034939Y-3288000D01*
G01X2033757Y-3289379D01*
G01X2031788Y-3291348D01*
G01X2030212Y-3292530D01*
G01X2028242Y-3293909D01*
G01X2026667Y-3294894D01*
G01X2023515Y-3296470D01*
G01X2021742Y-3297061D01*
G01X2019773Y-3297651D01*
G01X2017606Y-3298243D01*
G01X2015636Y-3298636D01*
G01X2010515Y-3298833D01*
G37*
G36*
G01X709136Y-3297258D02*
G01X709136Y-3204288D01*
G01X771773Y-3204288D01*
G01X771773Y-3215318D01*
G01X721349Y-3215318D01*
G01X721349Y-3244076D01*
G01X742227Y-3244076D01*
G01X764091Y-3244273D01*
G01X765076Y-3244470D01*
G01X765076Y-3255106D01*
G01X721349Y-3255106D01*
G01X721349Y-3297258D01*
G01X709136Y-3297258D01*
G37*
G36*
G01X808803Y-3298833D02*
G01X804273Y-3298636D01*
G01X802303Y-3298045D01*
G01X799742Y-3297258D01*
G01X797576Y-3296470D01*
G01X796000Y-3295682D01*
G01X794424Y-3294697D01*
G01X793045Y-3293712D01*
G01X792061Y-3292924D01*
G01X790682Y-3291546D01*
G01X789500Y-3289773D01*
G01X788712Y-3288394D01*
G01X788121Y-3287015D01*
G01X787530Y-3285439D01*
G01X786939Y-3283470D01*
G01X786546Y-3281697D01*
G01X786152Y-3276970D01*
G01X785954Y-3253136D01*
G01X785954Y-3229894D01*
G01X790682Y-3229894D01*
G01X796394Y-3230091D01*
G01X797379Y-3230288D01*
G01X797379Y-3251757D01*
G01X797576Y-3273818D01*
G01X797773Y-3276182D01*
G01X798167Y-3279333D01*
G01X798954Y-3281697D01*
G01X799742Y-3283273D01*
G01X800530Y-3284455D01*
G01X801318Y-3285439D01*
G01X802106Y-3286227D01*
G01X803485Y-3287212D01*
G01X805455Y-3288197D01*
G01X807030Y-3288788D01*
G01X810379Y-3288985D01*
G01X814515Y-3288788D01*
G01X817076Y-3288197D01*
G01X819242Y-3287409D01*
G01X820818Y-3286621D01*
G01X822197Y-3285833D01*
G01X823379Y-3284849D01*
G01X825742Y-3282485D01*
G01X826924Y-3280515D01*
G01X827712Y-3278742D01*
G01X828303Y-3276970D01*
G01X828697Y-3275394D01*
G01X829091Y-3271848D01*
G01X829288Y-3250576D01*
G01X829288Y-3229894D01*
G01X834015Y-3229894D01*
G01X839727Y-3230091D01*
G01X840712Y-3230288D01*
G01X840712Y-3297258D01*
G01X830470Y-3297258D01*
G01X830470Y-3293318D01*
G01X830273Y-3288788D01*
G01X829928Y-3288542D01*
G01X829288Y-3288985D01*
G01X828106Y-3290364D01*
G01X825152Y-3293318D01*
G01X824167Y-3294106D01*
G01X821803Y-3295682D01*
G01X820424Y-3296470D01*
G01X818455Y-3297258D01*
G01X816879Y-3297849D01*
G01X813333Y-3298636D01*
G01X808803Y-3298833D01*
G37*
G36*
G01X853318Y-3324833D02*
G01X850758Y-3324636D01*
G01X849576Y-3324439D01*
G01X848000Y-3324242D01*
G01X845833Y-3323849D01*
G01X844258Y-3323651D01*
G01X844454Y-3322470D01*
G01X846030Y-3315379D01*
G01X846621Y-3314197D01*
G01X847606Y-3314394D01*
G01X850758Y-3314788D01*
G01X851743Y-3314788D01*
G01X853121Y-3314591D01*
G01X855091Y-3314000D01*
G01X856864Y-3312424D01*
G01X857848Y-3310061D01*
G01X858242Y-3308091D01*
G01X858439Y-3269682D01*
G01X858636Y-3230879D01*
G01X858833Y-3229894D01*
G01X869864Y-3229894D01*
G01X869864Y-3267909D01*
G01X869667Y-3306515D01*
G01X869470Y-3307894D01*
G01X869273Y-3309667D01*
G01X868485Y-3313606D01*
G01X867894Y-3315576D01*
G01X867106Y-3317348D01*
G01X866121Y-3318924D01*
G01X865136Y-3320303D01*
G01X864151Y-3321288D01*
G01X863167Y-3322076D01*
G01X861788Y-3322864D01*
G01X860015Y-3323651D01*
G01X858046Y-3324242D01*
G01X856273Y-3324636D01*
G01X853318Y-3324833D01*
G37*
G36*
G01X858439Y-3217682D02*
G01X858439Y-3211970D01*
G01X858636Y-3205273D01*
G01X858833Y-3204288D01*
G01X869864Y-3204288D01*
G01X869864Y-3217682D01*
G01X858439Y-3217682D01*
G37*
G36*
G01X887591Y-3217682D02*
G01X887591Y-3204288D01*
G01X899015Y-3204288D01*
G01X899015Y-3210000D01*
G01X898818Y-3216697D01*
G01X898621Y-3217682D01*
G01X887591Y-3217682D01*
G37*
G36*
G01X887591Y-3297258D02*
G01X887591Y-3264561D01*
G01X887788Y-3230879D01*
G01X887985Y-3229894D01*
G01X899015Y-3229894D01*
G01X899015Y-3297258D01*
G01X887591Y-3297258D01*
G37*
G36*
G01X917530Y-3297258D02*
G01X917530Y-3251757D01*
G01X917727Y-3205273D01*
G01X917924Y-3204288D01*
G01X923243Y-3204288D01*
G01X929546Y-3204485D01*
G01X930432Y-3204879D01*
G01X931121Y-3205667D01*
G01X954758Y-3241121D01*
G01X956727Y-3243879D01*
G01X978000Y-3275788D01*
G01X978985Y-3276970D01*
G01X979280Y-3268008D01*
G01X979379Y-3240727D01*
G01X979379Y-3204288D01*
G01X990803Y-3204288D01*
G01X990803Y-3297258D01*
G01X984697Y-3297258D01*
G01X978197Y-3296864D01*
G01X977212Y-3295682D01*
G01X976030Y-3293909D01*
G01X973273Y-3289970D01*
G01X930727Y-3226151D01*
G01X929742Y-3224970D01*
G01X929447Y-3233882D01*
G01X929348Y-3261015D01*
G01X929348Y-3297258D01*
G01X917530Y-3297258D01*
G37*
G36*
G01X1038470Y-3298833D02*
G01X1032955Y-3298636D01*
G01X1031576Y-3298243D01*
G01X1030197Y-3298045D01*
G01X1028621Y-3297651D01*
G01X1025076Y-3296470D01*
G01X1023303Y-3295682D01*
G01X1021727Y-3294894D01*
G01X1020151Y-3293909D01*
G01X1018773Y-3292924D01*
G01X1017788Y-3292333D01*
G01X1016803Y-3291546D01*
G01X1014439Y-3289182D01*
G01X1012864Y-3287212D01*
G01X1011682Y-3285439D01*
G01X1010106Y-3282682D01*
G01X1009318Y-3280909D01*
G01X1008530Y-3278742D01*
G01X1007939Y-3276970D01*
G01X1007151Y-3273424D01*
G01X1006757Y-3270667D01*
G01X1006561Y-3265742D01*
G01X1006757Y-3259636D01*
G01X1007151Y-3256485D01*
G01X1007283Y-3255697D01*
G01X1018970Y-3255697D01*
G01X1018970Y-3257273D01*
G01X1037879Y-3257470D01*
G01X1051864Y-3257322D01*
G01X1056394Y-3256879D01*
G01X1056000Y-3254121D01*
G01X1055606Y-3252151D01*
G01X1055015Y-3249985D01*
G01X1054424Y-3248409D01*
G01X1053833Y-3247030D01*
G01X1053242Y-3245848D01*
G01X1050879Y-3242894D01*
G01X1047924Y-3240530D01*
G01X1046546Y-3239743D01*
G01X1044576Y-3238955D01*
G01X1043000Y-3238364D01*
G01X1038864Y-3237773D01*
G01X1037485Y-3237970D01*
G01X1033939Y-3238364D01*
G01X1032364Y-3238758D01*
G01X1030394Y-3239349D01*
G01X1028424Y-3240333D01*
G01X1026455Y-3241712D01*
G01X1024879Y-3242894D01*
G01X1023303Y-3244864D01*
G01X1022318Y-3246046D01*
G01X1021333Y-3247621D01*
G01X1020545Y-3249394D01*
G01X1019955Y-3251167D01*
G01X1019364Y-3253136D01*
G01X1018970Y-3255697D01*
G01X1018970Y-3255697D01*
G01X1007283Y-3255697D01*
G01X1007545Y-3254121D01*
G01X1007939Y-3252545D01*
G01X1008333Y-3250773D01*
G01X1008924Y-3249000D01*
G01X1010106Y-3245848D01*
G01X1010894Y-3244273D01*
G01X1011879Y-3242500D01*
G01X1012667Y-3241121D01*
G01X1013454Y-3240136D01*
G01X1015818Y-3237379D01*
G01X1016803Y-3236394D01*
G01X1018773Y-3234818D01*
G01X1019955Y-3233833D01*
G01X1021530Y-3232848D01*
G01X1023303Y-3231864D01*
G01X1024879Y-3231076D01*
G01X1026455Y-3230485D01*
G01X1028227Y-3229894D01*
G01X1030394Y-3229303D01*
G01X1032364Y-3228909D01*
G01X1036500Y-3228712D01*
G01X1041818Y-3228909D01*
G01X1044182Y-3229303D01*
G01X1046152Y-3229697D01*
G01X1048318Y-3230288D01*
G01X1050288Y-3231076D01*
G01X1052455Y-3232061D01*
G01X1054424Y-3233242D01*
G01X1055803Y-3234227D01*
G01X1058758Y-3236591D01*
G01X1060136Y-3237970D01*
G01X1061712Y-3239939D01*
G01X1063091Y-3241909D01*
G01X1064076Y-3243485D01*
G01X1064864Y-3245061D01*
G01X1065651Y-3246833D01*
G01X1066833Y-3250379D01*
G01X1067424Y-3252545D01*
G01X1067818Y-3254515D01*
G01X1068212Y-3257273D01*
G01X1068409Y-3262197D01*
G01X1068409Y-3266530D01*
G01X1043394Y-3266530D01*
G01X1024632Y-3266727D01*
G01X1018379Y-3267318D01*
G01X1018576Y-3269879D01*
G01X1018970Y-3272242D01*
G01X1019364Y-3274015D01*
G01X1019955Y-3275985D01*
G01X1020545Y-3277561D01*
G01X1021333Y-3279333D01*
G01X1022318Y-3280909D01*
G01X1023106Y-3282091D01*
G01X1024682Y-3284061D01*
G01X1025667Y-3285045D01*
G01X1026651Y-3285833D01*
G01X1027833Y-3286621D01*
G01X1029606Y-3287606D01*
G01X1031773Y-3288591D01*
G01X1033546Y-3289182D01*
G01X1035121Y-3289379D01*
G01X1037091Y-3289576D01*
G01X1038667Y-3289576D01*
G01X1040636Y-3289379D01*
G01X1043394Y-3288985D01*
G01X1045758Y-3288197D01*
G01X1047530Y-3287409D01*
G01X1049106Y-3286424D01*
G01X1050485Y-3285439D01*
G01X1051864Y-3284061D01*
G01X1053045Y-3282485D01*
G01X1053833Y-3281500D01*
G01X1054621Y-3280121D01*
G01X1055409Y-3278545D01*
G01X1056000Y-3276970D01*
G01X1056394Y-3276231D01*
G01X1057182Y-3275985D01*
G01X1065061Y-3276970D01*
G01X1066833Y-3277167D01*
G01X1067670Y-3277314D01*
G01X1067818Y-3277758D01*
G01X1066833Y-3280712D01*
G01X1066045Y-3282485D01*
G01X1064470Y-3285636D01*
G01X1063682Y-3286818D01*
G01X1062894Y-3287803D01*
G01X1062106Y-3288985D01*
G01X1061121Y-3290167D01*
G01X1060136Y-3291152D01*
G01X1058167Y-3292727D01*
G01X1056788Y-3293909D01*
G01X1054818Y-3295091D01*
G01X1053045Y-3296076D01*
G01X1051076Y-3296864D01*
G01X1048515Y-3297651D01*
G01X1046546Y-3298243D01*
G01X1043788Y-3298636D01*
G01X1038470Y-3298833D01*
G37*
G36*
G01X1100121Y-3298439D02*
G01X1097758Y-3298243D01*
G01X1095788Y-3297849D01*
G01X1093424Y-3297258D01*
G01X1091061Y-3296273D01*
G01X1089682Y-3295288D01*
G01X1088697Y-3294697D01*
G01X1087515Y-3293515D01*
G01X1086333Y-3291546D01*
G01X1085545Y-3289379D01*
G01X1085152Y-3287606D01*
G01X1084758Y-3283273D01*
G01X1084561Y-3260818D01*
G01X1084561Y-3238955D01*
G01X1076288Y-3238955D01*
G01X1076288Y-3235409D01*
G01X1076485Y-3230879D01*
G01X1076682Y-3229894D01*
G01X1084561Y-3229894D01*
G01X1084561Y-3221818D01*
G01X1084758Y-3215614D01*
G01X1085348Y-3213152D01*
G01X1087121Y-3211970D01*
G01X1090273Y-3210000D01*
G01X1092242Y-3208818D01*
G01X1093818Y-3207833D01*
G01X1095197Y-3207045D01*
G01X1095985Y-3206652D01*
G01X1095985Y-3229894D01*
G01X1107409Y-3229894D01*
G01X1107409Y-3238955D01*
G01X1095985Y-3238955D01*
G01X1095985Y-3260621D01*
G01X1096379Y-3283667D01*
G01X1097167Y-3285439D01*
G01X1097955Y-3286424D01*
G01X1099333Y-3287212D01*
G01X1100909Y-3287606D01*
G01X1102485Y-3287803D01*
G01X1104061Y-3287606D01*
G01X1106030Y-3287409D01*
G01X1107114Y-3287655D01*
G01X1107606Y-3288394D01*
G01X1108000Y-3289970D01*
G01X1108788Y-3294697D01*
G01X1108985Y-3296273D01*
G01X1108739Y-3297061D01*
G01X1108000Y-3297455D01*
G01X1106424Y-3297849D01*
G01X1102091Y-3298243D01*
G01X1100121Y-3298439D01*
G37*
G36*
G01X1157439Y-3297258D02*
G01X1157439Y-3238955D01*
G01X1147591Y-3238955D01*
G01X1147591Y-3229894D01*
G01X1157439Y-3229894D01*
G01X1157439Y-3225167D01*
G01X1157636Y-3219848D01*
G01X1158030Y-3216303D01*
G01X1158424Y-3214530D01*
G01X1159015Y-3212364D01*
G01X1160394Y-3209606D01*
G01X1161182Y-3208621D01*
G01X1162167Y-3207636D01*
G01X1164136Y-3206061D01*
G01X1165515Y-3205076D01*
G01X1167288Y-3204288D01*
G01X1169061Y-3203697D01*
G01X1170636Y-3203303D01*
G01X1172015Y-3203106D01*
G01X1174576Y-3202909D01*
G01X1176939Y-3202909D01*
G01X1181667Y-3203303D01*
G01X1185803Y-3203894D01*
G01X1186345Y-3204239D01*
G01X1186394Y-3205273D01*
G01X1185212Y-3212364D01*
G01X1184424Y-3213545D01*
G01X1183242Y-3213545D01*
G01X1180091Y-3213349D01*
G01X1175758Y-3213545D01*
G01X1173197Y-3214136D01*
G01X1171818Y-3214727D01*
G01X1170833Y-3215515D01*
G01X1170045Y-3216697D01*
G01X1169455Y-3218076D01*
G01X1169061Y-3219455D01*
G01X1168864Y-3224970D01*
G01X1168864Y-3229894D01*
G01X1181864Y-3229894D01*
G01X1181864Y-3238955D01*
G01X1168864Y-3238955D01*
G01X1168864Y-3297258D01*
G01X1157439Y-3297258D01*
G37*
G36*
G01X1217909Y-3298833D02*
G01X1211803Y-3298439D01*
G01X1209636Y-3297849D01*
G01X1208061Y-3297455D01*
G01X1206288Y-3296864D01*
G01X1204712Y-3296273D01*
G01X1203333Y-3295682D01*
G01X1201954Y-3294894D01*
G01X1200379Y-3293909D01*
G01X1198606Y-3292727D01*
G01X1197227Y-3291546D01*
G01X1194273Y-3288591D01*
G01X1193091Y-3287212D01*
G01X1191909Y-3285439D01*
G01X1190924Y-3283667D01*
G01X1190136Y-3282091D01*
G01X1189348Y-3280318D01*
G01X1187970Y-3276182D01*
G01X1187182Y-3272242D01*
G01X1186788Y-3268303D01*
G01X1186591Y-3264561D01*
G01X1186695Y-3262591D01*
G01X1198409Y-3262591D01*
G01X1198606Y-3268303D01*
G01X1199000Y-3271455D01*
G01X1199591Y-3274212D01*
G01X1200379Y-3276773D01*
G01X1201167Y-3278742D01*
G01X1201954Y-3280318D01*
G01X1203530Y-3282682D01*
G01X1204515Y-3283864D01*
G01X1205500Y-3284849D01*
G01X1206879Y-3286030D01*
G01X1208257Y-3287015D01*
G01X1209636Y-3287803D01*
G01X1211606Y-3288591D01*
G01X1213182Y-3289182D01*
G01X1215545Y-3289379D01*
G01X1215545Y-3289379D01*
G01X1217515Y-3289576D01*
G01X1218303Y-3289576D01*
G01X1221848Y-3289182D01*
G01X1223621Y-3288788D01*
G01X1225394Y-3288197D01*
G01X1226970Y-3287409D01*
G01X1228743Y-3286424D01*
G01X1230121Y-3285439D01*
G01X1233076Y-3282485D01*
G01X1233864Y-3281500D01*
G01X1234652Y-3280121D01*
G01X1235439Y-3278545D01*
G01X1236030Y-3277167D01*
G01X1236621Y-3275591D01*
G01X1237212Y-3273227D01*
G01X1237606Y-3271061D01*
G01X1238000Y-3266727D01*
G01X1238197Y-3264167D01*
G01X1238000Y-3261606D01*
G01X1237606Y-3257273D01*
G01X1237212Y-3255303D01*
G01X1236621Y-3252545D01*
G01X1235833Y-3250379D01*
G01X1235046Y-3248606D01*
G01X1234061Y-3246833D01*
G01X1232879Y-3245061D01*
G01X1231697Y-3243682D01*
G01X1230712Y-3242697D01*
G01X1229333Y-3241515D01*
G01X1227955Y-3240530D01*
G01X1226576Y-3239743D01*
G01X1224606Y-3238955D01*
G01X1223030Y-3238364D01*
G01X1219091Y-3237970D01*
G01X1218106Y-3237970D01*
G01X1216924Y-3238167D01*
G01X1214364Y-3238364D01*
G01X1211803Y-3238955D01*
G01X1210030Y-3239743D01*
G01X1208257Y-3240727D01*
G01X1206879Y-3241515D01*
G01X1205894Y-3242303D01*
G01X1203924Y-3244273D01*
G01X1203136Y-3245258D01*
G01X1202348Y-3246439D01*
G01X1201364Y-3248212D01*
G01X1200379Y-3250379D01*
G01X1199591Y-3252939D01*
G01X1199000Y-3254909D01*
G01X1198606Y-3258060D01*
G01X1198409Y-3262591D01*
G01X1186695Y-3262591D01*
G01X1186788Y-3260818D01*
G01X1186985Y-3259046D01*
G01X1187182Y-3256879D01*
G01X1187576Y-3254515D01*
G01X1187970Y-3252545D01*
G01X1188364Y-3250970D01*
G01X1188954Y-3248803D01*
G01X1189742Y-3246833D01*
G01X1190530Y-3245061D01*
G01X1191515Y-3243091D01*
G01X1192500Y-3241515D01*
G01X1193288Y-3240333D01*
G01X1194863Y-3238364D01*
G01X1197818Y-3235409D01*
G01X1198803Y-3234621D01*
G01X1199985Y-3233833D01*
G01X1201560Y-3232848D01*
G01X1203333Y-3231864D01*
G01X1204909Y-3231076D01*
G01X1206485Y-3230485D01*
G01X1208257Y-3229894D01*
G01X1210621Y-3229303D01*
G01X1212788Y-3228909D01*
G01X1217318Y-3228712D01*
G01X1222636Y-3228909D01*
G01X1225000Y-3229303D01*
G01X1228151Y-3230091D01*
G01X1229924Y-3230682D01*
G01X1231894Y-3231470D01*
G01X1234061Y-3232455D01*
G01X1235833Y-3233636D01*
G01X1237409Y-3234621D01*
G01X1238591Y-3235606D01*
G01X1242924Y-3239939D01*
G01X1244303Y-3241909D01*
G01X1245288Y-3243485D01*
G01X1246076Y-3245061D01*
G01X1246864Y-3246833D01*
G01X1247652Y-3248803D01*
G01X1248242Y-3250576D01*
G01X1249030Y-3253727D01*
G01X1249424Y-3256879D01*
G01X1249621Y-3262985D01*
G01X1249424Y-3269091D01*
G01X1249030Y-3272242D01*
G01X1248636Y-3274409D01*
G01X1248046Y-3277167D01*
G01X1247258Y-3279530D01*
G01X1246470Y-3281697D01*
G01X1245485Y-3283667D01*
G01X1244303Y-3285439D01*
G01X1243318Y-3287015D01*
G01X1242333Y-3288197D01*
G01X1241545Y-3289182D01*
G01X1240757Y-3289970D01*
G01X1239773Y-3290758D01*
G01X1238394Y-3292136D01*
G01X1236424Y-3293515D01*
G01X1234652Y-3294697D01*
G01X1232682Y-3295682D01*
G01X1230909Y-3296470D01*
G01X1229333Y-3297061D01*
G01X1227561Y-3297651D01*
G01X1225197Y-3298243D01*
G01X1223030Y-3298636D01*
G01X1217909Y-3298833D01*
G37*
G36*
G01X1263015Y-3297258D02*
G01X1263015Y-3264561D01*
G01X1263212Y-3230879D01*
G01X1263409Y-3229894D01*
G01X1273258Y-3229894D01*
G01X1273258Y-3234621D01*
G01X1273652Y-3239545D01*
G01X1274045Y-3239447D01*
G01X1274439Y-3238758D01*
G01X1275424Y-3236985D01*
G01X1276409Y-3235606D01*
G01X1277197Y-3234621D01*
G01X1277985Y-3233440D01*
G01X1278970Y-3232258D01*
G01X1279955Y-3231470D01*
G01X1281333Y-3230485D01*
G01X1283303Y-3229500D01*
G01X1284879Y-3228909D01*
G01X1287439Y-3228712D01*
G01X1290788Y-3228909D01*
G01X1293348Y-3229500D01*
G01X1295712Y-3230288D01*
G01X1297485Y-3231076D01*
G01X1298667Y-3231667D01*
G01X1299257Y-3232258D01*
G01X1299061Y-3233440D01*
G01X1298470Y-3235015D01*
G01X1297682Y-3236985D01*
G01X1296106Y-3241318D01*
G01X1295515Y-3242500D01*
G01X1294727Y-3242106D01*
G01X1293348Y-3241515D01*
G01X1291773Y-3240924D01*
G01X1290000Y-3240530D01*
G01X1288424Y-3240333D01*
G01X1287045Y-3240333D01*
G01X1284879Y-3240727D01*
G01X1282909Y-3241318D01*
G01X1281530Y-3241909D01*
G01X1280348Y-3242697D01*
G01X1278379Y-3244667D01*
G01X1277394Y-3246046D01*
G01X1276606Y-3247818D01*
G01X1276015Y-3249591D01*
G01X1275424Y-3251757D01*
G01X1275030Y-3253727D01*
G01X1274636Y-3256879D01*
G01X1274439Y-3277364D01*
G01X1274439Y-3297258D01*
G01X1263015Y-3297258D01*
G37*
G36*
G01X1365439Y-3297258D02*
G01X1365439Y-3215318D01*
G01X1334712Y-3215318D01*
G01X1334712Y-3204288D01*
G01X1408379Y-3204288D01*
G01X1408379Y-3215318D01*
G01X1377652Y-3215318D01*
G01X1377652Y-3297258D01*
G01X1365439Y-3297258D01*
G37*
G36*
G01X1424136Y-3298833D02*
G01X1418818Y-3298636D01*
G01X1417636Y-3298243D01*
G01X1415864Y-3297849D01*
G01X1413894Y-3297258D01*
G01X1412121Y-3296470D01*
G01X1410151Y-3295485D01*
G01X1408773Y-3294500D01*
G01X1407591Y-3293712D01*
G01X1406015Y-3292333D01*
G01X1404833Y-3290758D01*
G01X1403848Y-3289379D01*
G01X1403061Y-3287803D01*
G01X1402470Y-3286424D01*
G01X1401879Y-3284652D01*
G01X1401485Y-3282091D01*
G01X1401485Y-3278939D01*
G01X1401513Y-3278742D01*
G01X1413500Y-3278742D01*
G01X1413697Y-3280515D01*
G01X1414091Y-3282288D01*
G01X1414682Y-3284061D01*
G01X1415667Y-3285636D01*
G01X1416849Y-3287015D01*
G01X1418227Y-3288000D01*
G01X1420197Y-3288985D01*
G01X1421970Y-3289576D01*
G01X1421970Y-3289576D01*
G01X1425909Y-3289970D01*
G01X1428273Y-3289970D01*
G01X1431424Y-3289576D01*
G01X1433394Y-3289182D01*
G01X1434970Y-3288788D01*
G01X1436546Y-3288197D01*
G01X1439697Y-3286621D01*
G01X1441076Y-3285833D01*
G01X1442257Y-3284849D01*
G01X1444227Y-3282879D01*
G01X1445212Y-3281500D01*
G01X1446197Y-3279924D01*
G01X1446985Y-3278348D01*
G01X1447576Y-3276182D01*
G01X1447970Y-3274212D01*
G01X1448167Y-3269288D01*
G01X1447970Y-3264364D01*
G01X1447526Y-3264019D01*
G01X1446591Y-3264167D01*
G01X1444030Y-3264955D01*
G01X1441273Y-3265742D01*
G01X1438909Y-3266333D01*
G01X1436939Y-3266727D01*
G01X1425121Y-3268697D01*
G01X1422364Y-3269288D01*
G01X1420000Y-3270076D01*
G01X1418424Y-3270864D01*
G01X1417045Y-3271652D01*
G01X1416061Y-3272636D01*
G01X1415273Y-3273621D01*
G01X1414288Y-3275197D01*
G01X1413697Y-3276970D01*
G01X1413500Y-3278742D01*
G01X1401513Y-3278742D01*
G01X1401879Y-3276182D01*
G01X1402470Y-3274015D01*
G01X1403258Y-3271848D01*
G01X1404636Y-3269091D01*
G01X1406212Y-3267121D01*
G01X1407000Y-3266333D01*
G01X1407985Y-3265545D01*
G01X1408970Y-3264561D01*
G01X1410151Y-3263773D01*
G01X1412909Y-3262197D01*
G01X1414682Y-3261409D01*
G01X1418818Y-3260030D01*
G01X1423152Y-3259242D01*
G01X1430045Y-3258258D01*
G01X1431818Y-3258060D01*
G01X1434576Y-3257667D01*
G01X1439303Y-3256879D01*
G01X1442455Y-3256288D01*
G01X1444424Y-3255697D01*
G01X1446394Y-3255303D01*
G01X1447477Y-3254958D01*
G01X1447970Y-3254318D01*
G01X1448364Y-3252939D01*
G01X1448364Y-3251955D01*
G01X1448167Y-3250182D01*
G01X1447970Y-3248212D01*
G01X1447773Y-3246833D01*
G01X1447379Y-3245454D01*
G01X1446788Y-3244076D01*
G01X1446000Y-3242894D01*
G01X1445015Y-3241909D01*
G01X1443636Y-3240727D01*
G01X1441864Y-3239743D01*
G01X1439697Y-3238955D01*
G01X1437727Y-3238364D01*
G01X1433000Y-3237970D01*
G01X1431818Y-3237970D01*
G01X1430045Y-3238167D01*
G01X1427091Y-3238364D01*
G01X1424136Y-3238955D01*
G01X1421970Y-3239743D01*
G01X1420591Y-3240530D01*
G01X1419606Y-3241318D01*
G01X1418424Y-3242303D01*
G01X1417242Y-3243879D01*
G01X1416258Y-3245454D01*
G01X1415667Y-3246833D01*
G01X1415076Y-3248409D01*
G01X1414682Y-3249985D01*
G01X1414436Y-3250527D01*
G01X1413697Y-3250576D01*
G01X1410939Y-3250182D01*
G01X1407788Y-3249788D01*
G01X1405030Y-3249394D01*
G01X1403996Y-3249099D01*
G01X1403651Y-3248606D01*
G01X1404045Y-3247227D01*
G01X1405227Y-3243682D01*
G01X1406015Y-3241909D01*
G01X1407394Y-3239151D01*
G01X1408182Y-3238167D01*
G01X1409364Y-3236788D01*
G01X1410545Y-3235606D01*
G01X1411530Y-3234818D01*
G01X1412712Y-3233833D01*
G01X1413894Y-3233046D01*
G01X1415273Y-3232258D01*
G01X1417045Y-3231470D01*
G01X1420591Y-3230288D01*
G01X1422561Y-3229697D01*
G01X1424333Y-3229303D01*
G01X1427091Y-3228909D01*
G01X1432803Y-3228712D01*
G01X1439303Y-3228909D01*
G01X1442061Y-3229303D01*
G01X1444030Y-3229697D01*
G01X1445606Y-3230091D01*
G01X1447576Y-3230682D01*
G01X1449545Y-3231470D01*
G01X1451515Y-3232455D01*
G01X1452894Y-3233440D01*
G01X1454076Y-3234227D01*
G01X1455257Y-3235212D01*
G01X1456439Y-3236788D01*
G01X1457621Y-3238758D01*
G01X1458409Y-3240530D01*
G01X1459000Y-3242500D01*
G01X1459394Y-3244273D01*
G01X1459788Y-3251757D01*
G01X1460182Y-3285636D01*
G01X1460576Y-3289182D01*
G01X1460970Y-3290955D01*
G01X1461560Y-3293318D01*
G01X1462348Y-3295091D01*
G01X1462939Y-3296470D01*
G01X1463136Y-3297258D01*
G01X1457424Y-3297258D01*
G01X1453042Y-3297110D01*
G01X1451318Y-3296667D01*
G01X1450530Y-3295288D01*
G01X1449939Y-3293318D01*
G01X1449545Y-3291546D01*
G01X1449348Y-3290167D01*
G01X1449201Y-3289625D01*
G01X1448758Y-3289576D01*
G01X1447773Y-3290167D01*
G01X1445803Y-3291742D01*
G01X1444424Y-3292727D01*
G01X1442455Y-3293909D01*
G01X1440879Y-3294894D01*
G01X1439303Y-3295682D01*
G01X1437530Y-3296470D01*
G01X1433985Y-3297651D01*
G01X1431621Y-3298243D01*
G01X1429455Y-3298636D01*
G01X1424136Y-3298833D01*
G37*
G36*
G01X1477712Y-3297258D02*
G01X1477712Y-3229894D01*
G01X1481848Y-3229894D01*
G01X1486970Y-3230091D01*
G01X1487955Y-3230288D01*
G01X1487955Y-3234030D01*
G01X1488151Y-3238364D01*
G01X1488398Y-3238659D01*
G01X1488743Y-3238364D01*
G01X1490712Y-3236394D01*
G01X1491894Y-3235015D01*
G01X1493667Y-3233440D01*
G01X1495439Y-3232258D01*
G01X1497212Y-3231273D01*
G01X1499182Y-3230288D01*
G01X1500757Y-3229697D01*
G01X1504303Y-3228909D01*
G01X1508636Y-3228712D01*
G01X1512970Y-3228909D01*
G01X1514939Y-3229303D01*
G01X1517697Y-3229894D01*
G01X1519864Y-3230682D01*
G01X1521636Y-3231470D01*
G01X1523409Y-3232455D01*
G01X1524788Y-3233242D01*
G01X1525773Y-3234030D01*
G01X1527742Y-3236000D01*
G01X1529712Y-3239151D01*
G01X1530303Y-3240530D01*
G01X1530894Y-3242106D01*
G01X1531485Y-3244076D01*
G01X1531879Y-3245848D01*
G01X1532273Y-3253333D01*
G01X1532470Y-3275591D01*
G01X1532470Y-3297258D01*
G01X1521045Y-3297258D01*
G01X1521045Y-3275985D01*
G01X1520848Y-3254121D01*
G01X1520652Y-3252545D01*
G01X1520454Y-3250182D01*
G01X1520060Y-3248212D01*
G01X1519667Y-3246636D01*
G01X1518879Y-3244667D01*
G01X1517894Y-3243288D01*
G01X1517106Y-3242303D01*
G01X1516121Y-3241318D01*
G01X1514742Y-3240333D01*
G01X1512773Y-3239349D01*
G01X1511000Y-3238758D01*
G01X1507258Y-3238561D01*
G01X1503515Y-3238758D01*
G01X1501545Y-3239151D01*
G01X1499576Y-3239743D01*
G01X1498000Y-3240530D01*
G01X1496227Y-3241515D01*
G01X1494848Y-3242500D01*
G01X1493667Y-3243485D01*
G01X1492682Y-3244667D01*
G01X1491697Y-3246046D01*
G01X1490712Y-3248015D01*
G01X1490121Y-3249788D01*
G01X1489333Y-3253727D01*
G01X1489136Y-3275788D01*
G01X1489136Y-3297258D01*
G01X1477712Y-3297258D01*
G37*
G36*
G01X2311288Y-3443803D02*
G01X2311288Y-3411106D01*
G01X2311485Y-3377424D01*
G01X2311682Y-3376439D01*
G01X2321530Y-3376439D01*
G01X2321530Y-3380576D01*
G01X2321727Y-3385303D01*
G01X2321974Y-3385648D01*
G01X2322318Y-3385500D01*
G01X2323303Y-3384121D01*
G01X2324485Y-3382349D01*
G01X2325864Y-3380576D01*
G01X2327045Y-3379000D01*
G01X2328424Y-3377818D01*
G01X2329803Y-3376833D01*
G01X2331379Y-3376046D01*
G01X2333152Y-3375454D01*
G01X2335515Y-3375258D01*
G01X2339061Y-3375454D01*
G01X2341621Y-3376046D01*
G01X2343394Y-3376636D01*
G01X2345364Y-3377424D01*
G01X2346939Y-3378409D01*
G01X2347333Y-3378951D01*
G01X2347333Y-3379788D01*
G01X2346742Y-3381561D01*
G01X2345954Y-3383530D01*
G01X2344379Y-3387864D01*
G01X2343788Y-3389046D01*
G01X2343000Y-3388652D01*
G01X2341621Y-3388060D01*
G01X2340045Y-3387470D01*
G01X2338273Y-3387076D01*
G01X2336697Y-3386879D01*
G01X2335515Y-3386879D01*
G01X2334136Y-3387076D01*
G01X2332167Y-3387470D01*
G01X2330197Y-3388258D01*
G01X2329015Y-3389046D01*
G01X2328030Y-3389833D01*
G01X2326651Y-3391212D01*
G01X2325470Y-3392985D01*
G01X2324682Y-3394758D01*
G01X2324091Y-3396333D01*
G01X2323303Y-3400273D01*
G01X2322909Y-3403424D01*
G01X2322712Y-3423909D01*
G01X2322712Y-3443803D01*
G01X2311288Y-3443803D01*
G37*
G36*
G01X741242Y-3590348D02*
G01X734742Y-3590152D01*
G01X733561Y-3587197D01*
G01X732773Y-3585030D01*
G01X731197Y-3581091D01*
G01X730409Y-3578924D01*
G01X728833Y-3574985D01*
G01X728046Y-3572818D01*
G01X726470Y-3568879D01*
G01X725682Y-3566712D01*
G01X724894Y-3564742D01*
G01X723712Y-3561591D01*
G01X721349Y-3555682D01*
G01X720561Y-3553515D01*
G01X718985Y-3549576D01*
G01X718197Y-3547409D01*
G01X716621Y-3543470D01*
G01X715833Y-3541303D01*
G01X714258Y-3537364D01*
G01X713470Y-3535197D01*
G01X712682Y-3533227D01*
G01X711500Y-3530076D01*
G01X709136Y-3524167D01*
G01X708349Y-3522000D01*
G01X706773Y-3518060D01*
G01X705985Y-3515894D01*
G01X705197Y-3513924D01*
G01X704015Y-3510773D01*
G01X701652Y-3504864D01*
G01X700864Y-3502697D01*
G01X700076Y-3500727D01*
G01X699288Y-3498561D01*
G01X698894Y-3497379D01*
G01X705000Y-3497379D01*
G01X711697Y-3497576D01*
G01X712682Y-3498955D01*
G01X714258Y-3503288D01*
G01X715046Y-3505652D01*
G01X715833Y-3507621D01*
G01X717015Y-3511167D01*
G01X717803Y-3513136D01*
G01X718591Y-3515500D01*
G01X721743Y-3524167D01*
G01X722530Y-3526530D01*
G01X723318Y-3528500D01*
G01X724500Y-3532045D01*
G01X725288Y-3534015D01*
G01X726076Y-3536379D01*
G01X727652Y-3540712D01*
G01X728439Y-3543076D01*
G01X729227Y-3545045D01*
G01X730409Y-3548591D01*
G01X731197Y-3550561D01*
G01X731985Y-3552924D01*
G01X733561Y-3557258D01*
G01X734349Y-3559621D01*
G01X735136Y-3561591D01*
G01X736318Y-3565136D01*
G01X737500Y-3568288D01*
G01X739273Y-3573606D01*
G01X739864Y-3575773D01*
G01X740652Y-3578333D01*
G01X741046Y-3579318D01*
G01X741439Y-3579515D01*
G01X742030Y-3578727D01*
G01X742424Y-3577152D01*
G01X743015Y-3575379D01*
G01X743606Y-3573409D01*
G01X744197Y-3571636D01*
G01X744788Y-3570061D01*
G01X745970Y-3566515D01*
G01X748333Y-3560212D01*
G01X748924Y-3558439D01*
G01X751288Y-3552136D01*
G01X752076Y-3550167D01*
G01X753652Y-3545833D01*
G01X754439Y-3543864D01*
G01X755030Y-3542091D01*
G01X759758Y-3529485D01*
G01X760348Y-3527712D01*
G01X762712Y-3521409D01*
G01X763500Y-3519439D01*
G01X765076Y-3515106D01*
G01X765864Y-3513136D01*
G01X766455Y-3511364D01*
G01X770591Y-3500333D01*
G01X771182Y-3498561D01*
G01X771379Y-3497379D01*
G01X777485Y-3497379D01*
G01X783591Y-3497773D01*
G01X783197Y-3499151D01*
G01X780833Y-3505061D01*
G01X780045Y-3507227D01*
G01X776894Y-3515106D01*
G01X776106Y-3517273D01*
G01X773742Y-3523182D01*
G01X772955Y-3525349D01*
G01X769803Y-3533227D01*
G01X769015Y-3535394D01*
G01X766652Y-3541303D01*
G01X765864Y-3543470D01*
G01X762712Y-3551348D01*
G01X761924Y-3553515D01*
G01X758773Y-3561394D01*
G01X757985Y-3563561D01*
G01X754833Y-3571439D01*
G01X754045Y-3573606D01*
G01X751682Y-3579515D01*
G01X750894Y-3581682D01*
G01X748530Y-3587591D01*
G01X747939Y-3589364D01*
G01X747742Y-3590348D01*
G01X741242Y-3590348D01*
G37*
G36*
G01X822197Y-3590348D02*
G01X822197Y-3518258D01*
G01X821409Y-3518652D01*
G01X820030Y-3519439D01*
G01X816879Y-3521803D01*
G01X815500Y-3522788D01*
G01X813727Y-3523970D01*
G01X809788Y-3526333D01*
G01X808212Y-3527318D01*
G01X803485Y-3529682D01*
G01X801712Y-3530470D01*
G01X800136Y-3531061D01*
G01X799348Y-3531258D01*
G01X799348Y-3525939D01*
G01X799496Y-3521852D01*
G01X799939Y-3520227D01*
G01X801121Y-3519439D01*
G01X804667Y-3517667D01*
G01X806636Y-3516485D01*
G01X810182Y-3514121D01*
G01X811560Y-3513136D01*
G01X812545Y-3512545D01*
G01X813530Y-3511757D01*
G01X814515Y-3510773D01*
G01X816485Y-3509197D01*
G01X821409Y-3504273D01*
G01X823773Y-3501121D01*
G01X824758Y-3499743D01*
G01X825742Y-3497970D01*
G01X826136Y-3496985D01*
G01X833227Y-3496985D01*
G01X833227Y-3590348D01*
G01X822197Y-3590348D01*
G37*
G36*
G01X1030394Y-3591924D02*
G01X1024682Y-3591727D01*
G01X1022515Y-3591136D01*
G01X1020151Y-3590348D01*
G01X1018182Y-3589561D01*
G01X1015424Y-3587985D01*
G01X1014045Y-3587000D01*
G01X1012864Y-3586015D01*
G01X1011879Y-3585030D01*
G01X1011091Y-3584045D01*
G01X1010106Y-3582864D01*
G01X1009121Y-3581288D01*
G01X1008136Y-3579515D01*
G01X1007349Y-3577348D01*
G01X1006757Y-3575576D01*
G01X1005970Y-3571636D01*
G01X1005773Y-3567500D01*
G01X1005970Y-3564841D01*
G01X1006561Y-3563954D01*
G01X1007939Y-3563758D01*
G01X1011091Y-3563364D01*
G01X1013848Y-3562970D01*
G01X1015621Y-3562773D01*
G01X1016803Y-3562773D01*
G01X1016803Y-3563954D01*
G01X1017000Y-3566121D01*
G01X1017394Y-3568879D01*
G01X1017985Y-3571833D01*
G01X1018773Y-3574000D01*
G01X1019758Y-3575970D01*
G01X1020939Y-3577546D01*
G01X1022515Y-3578924D01*
G01X1024485Y-3580106D01*
G01X1026061Y-3580697D01*
G01X1030197Y-3581288D01*
G01X1032955Y-3580894D01*
G01X1035121Y-3580500D01*
G01X1037091Y-3579712D01*
G01X1038667Y-3578924D01*
G01X1040045Y-3577939D01*
G01X1041030Y-3576954D01*
G01X1042212Y-3575576D01*
G01X1043197Y-3573606D01*
G01X1043788Y-3572030D01*
G01X1044182Y-3568879D01*
G01X1044379Y-3532833D01*
G01X1044379Y-3497379D01*
G01X1056591Y-3497379D01*
G01X1056591Y-3531455D01*
G01X1056394Y-3567303D01*
G01X1056000Y-3570455D01*
G01X1055606Y-3572424D01*
G01X1055409Y-3573803D01*
G01X1055015Y-3575379D01*
G01X1054424Y-3577152D01*
G01X1053833Y-3578727D01*
G01X1053045Y-3580303D01*
G01X1051864Y-3582273D01*
G01X1050682Y-3583849D01*
G01X1047727Y-3586803D01*
G01X1046348Y-3587788D01*
G01X1044773Y-3588773D01*
G01X1043197Y-3589561D01*
G01X1040045Y-3590742D01*
G01X1037879Y-3591333D01*
G01X1035909Y-3591727D01*
G01X1030394Y-3591924D01*
G37*
G36*
G01X1097955Y-3591924D02*
G01X1093424Y-3591727D01*
G01X1091455Y-3591136D01*
G01X1088894Y-3590348D01*
G01X1086727Y-3589561D01*
G01X1085152Y-3588773D01*
G01X1083576Y-3587788D01*
G01X1082197Y-3586803D01*
G01X1081212Y-3586015D01*
G01X1079833Y-3584636D01*
G01X1078651Y-3582864D01*
G01X1077864Y-3581485D01*
G01X1077273Y-3580106D01*
G01X1076682Y-3578530D01*
G01X1076091Y-3576560D01*
G01X1075697Y-3574788D01*
G01X1075303Y-3570455D01*
G01X1075106Y-3546424D01*
G01X1075106Y-3522985D01*
G01X1079833Y-3522985D01*
G01X1085545Y-3523182D01*
G01X1086530Y-3523379D01*
G01X1086530Y-3545045D01*
G01X1086727Y-3567303D01*
G01X1087121Y-3571242D01*
G01X1087515Y-3573015D01*
G01X1088106Y-3574985D01*
G01X1088894Y-3576364D01*
G01X1089682Y-3577546D01*
G01X1090470Y-3578530D01*
G01X1091258Y-3579318D01*
G01X1092636Y-3580303D01*
G01X1094606Y-3581288D01*
G01X1096182Y-3581879D01*
G01X1099530Y-3582076D01*
G01X1103667Y-3581879D01*
G01X1106227Y-3581288D01*
G01X1108394Y-3580500D01*
G01X1109970Y-3579712D01*
G01X1111349Y-3578924D01*
G01X1112530Y-3577939D01*
G01X1114894Y-3575576D01*
G01X1116076Y-3573606D01*
G01X1116864Y-3571833D01*
G01X1117454Y-3570061D01*
G01X1117848Y-3568485D01*
G01X1118242Y-3564939D01*
G01X1118439Y-3543667D01*
G01X1118439Y-3522985D01*
G01X1123167Y-3522985D01*
G01X1128879Y-3523182D01*
G01X1129864Y-3523379D01*
G01X1129864Y-3590348D01*
G01X1119621Y-3590348D01*
G01X1119621Y-3586409D01*
G01X1119424Y-3581879D01*
G01X1119080Y-3581633D01*
G01X1118439Y-3582076D01*
G01X1117258Y-3583455D01*
G01X1114303Y-3586409D01*
G01X1113318Y-3587197D01*
G01X1110955Y-3588773D01*
G01X1109576Y-3589561D01*
G01X1107606Y-3590348D01*
G01X1106030Y-3590939D01*
G01X1102485Y-3591727D01*
G01X1097955Y-3591924D01*
G37*
G36*
G01X869076Y-3590348D02*
G01X869076Y-3577348D01*
G01X882076Y-3577348D01*
G01X882076Y-3590348D01*
G01X869076Y-3590348D01*
G37*
G36*
G01X905121Y-3590201D02*
G01X897439Y-3589758D01*
G01X897636Y-3587788D01*
G01X898030Y-3585818D01*
G01X898424Y-3584045D01*
G01X899015Y-3582273D01*
G01X900197Y-3579515D01*
G01X900985Y-3578136D01*
G01X901970Y-3576364D01*
G01X903152Y-3574591D01*
G01X903939Y-3573212D01*
G01X904727Y-3572227D01*
G01X907091Y-3569470D01*
G01X908470Y-3568091D01*
G01X909651Y-3566515D01*
G01X911621Y-3564546D01*
G01X913591Y-3562970D01*
G01X915561Y-3561000D01*
G01X918318Y-3558636D01*
G01X923045Y-3554697D01*
G01X925015Y-3553121D01*
G01X926394Y-3551742D01*
G01X927970Y-3550561D01*
G01X928954Y-3549576D01*
G01X931318Y-3547606D01*
G01X939591Y-3539333D01*
G01X941167Y-3537364D01*
G01X942545Y-3535394D01*
G01X943530Y-3534015D01*
G01X944318Y-3532636D01*
G01X945106Y-3531061D01*
G01X945894Y-3529288D01*
G01X946485Y-3527515D01*
G01X946879Y-3525151D01*
G01X946879Y-3521606D01*
G01X946485Y-3519242D01*
G01X946091Y-3517667D01*
G01X945500Y-3516091D01*
G01X944909Y-3514712D01*
G01X944121Y-3513530D01*
G01X941758Y-3510773D01*
G01X940773Y-3509985D01*
G01X939591Y-3509197D01*
G01X938212Y-3508409D01*
G01X936439Y-3507621D01*
G01X934667Y-3507030D01*
G01X931121Y-3506636D01*
G01X929742Y-3506439D01*
G01X928364Y-3506636D01*
G01X925212Y-3507030D01*
G01X923439Y-3507424D01*
G01X921667Y-3508015D01*
G01X920091Y-3508803D01*
G01X918318Y-3509788D01*
G01X916939Y-3510773D01*
G01X915561Y-3512151D01*
G01X914379Y-3513727D01*
G01X913591Y-3514909D01*
G01X912803Y-3516485D01*
G01X912212Y-3518060D01*
G01X911818Y-3519636D01*
G01X911424Y-3522394D01*
G01X911030Y-3524561D01*
G01X909455Y-3524955D01*
G01X903546Y-3524364D01*
G01X901379Y-3524167D01*
G01X899803Y-3523773D01*
G01X900000Y-3521606D01*
G01X900591Y-3518454D01*
G01X901379Y-3515697D01*
G01X902167Y-3513530D01*
G01X902955Y-3511757D01*
G01X903939Y-3509788D01*
G01X905909Y-3507030D01*
G01X907091Y-3505652D01*
G01X909061Y-3503682D01*
G01X910636Y-3502500D01*
G01X912409Y-3501318D01*
G01X913788Y-3500530D01*
G01X915364Y-3499743D01*
G01X917530Y-3498955D01*
G01X919303Y-3498364D01*
G01X922849Y-3497576D01*
G01X924818Y-3497379D01*
G01X927970Y-3497182D01*
G01X930333Y-3497182D01*
G01X935061Y-3497576D01*
G01X937030Y-3497970D01*
G01X939788Y-3498561D01*
G01X942152Y-3499349D01*
G01X944121Y-3500136D01*
G01X945697Y-3500924D01*
G01X947273Y-3501909D01*
G01X948651Y-3502894D01*
G01X951606Y-3505258D01*
G01X953182Y-3507227D01*
G01X954364Y-3508606D01*
G01X955348Y-3509985D01*
G01X956136Y-3511364D01*
G01X956924Y-3513333D01*
G01X957712Y-3515697D01*
G01X958303Y-3517667D01*
G01X958697Y-3522000D01*
G01X958697Y-3522985D01*
G01X958500Y-3524758D01*
G01X958303Y-3526727D01*
G01X957909Y-3528697D01*
G01X957318Y-3531258D01*
G01X956530Y-3533227D01*
G01X955742Y-3535000D01*
G01X954758Y-3536970D01*
G01X953576Y-3538939D01*
G01X952591Y-3540318D01*
G01X952000Y-3541303D01*
G01X951212Y-3542288D01*
G01X949242Y-3544651D01*
G01X947864Y-3546030D01*
G01X946682Y-3547606D01*
G01X944712Y-3549576D01*
G01X942348Y-3551546D01*
G01X939000Y-3554894D01*
G01X937424Y-3556076D01*
G01X936439Y-3557061D01*
G01X928167Y-3564152D01*
G01X925803Y-3566121D01*
G01X924818Y-3567106D01*
G01X922849Y-3568682D01*
G01X921864Y-3569667D01*
G01X919500Y-3571636D01*
G01X918515Y-3572621D01*
G01X916546Y-3574985D01*
G01X915561Y-3575970D01*
G01X914576Y-3577348D01*
G01X913788Y-3578924D01*
G01X913591Y-3579712D01*
G01X958894Y-3579712D01*
G01X958894Y-3590348D01*
G01X928167Y-3590348D01*
G01X905121Y-3590201D01*
G37*
G36*
G01X1147591Y-3590348D02*
G01X1147591Y-3497379D01*
G01X1159015Y-3497379D01*
G01X1159015Y-3590348D01*
G01X1147591Y-3590348D01*
G37*
G36*
G01X1183439Y-3617924D02*
G01X1180879Y-3617727D01*
G01X1179697Y-3617333D01*
G01X1177924Y-3616939D01*
G01X1176348Y-3616349D01*
G01X1175758Y-3614182D01*
G01X1175364Y-3610636D01*
G01X1175364Y-3607485D01*
G01X1175659Y-3606500D01*
G01X1176152Y-3606303D01*
G01X1180288Y-3606894D01*
G01X1182849Y-3606697D01*
G01X1185212Y-3606303D01*
G01X1186591Y-3605909D01*
G01X1187773Y-3605318D01*
G01X1189152Y-3604333D01*
G01X1190333Y-3603152D01*
G01X1191121Y-3602167D01*
G01X1191909Y-3600985D01*
G01X1193091Y-3598227D01*
G01X1194863Y-3593500D01*
G01X1195455Y-3591530D01*
G01X1195257Y-3589561D01*
G01X1194470Y-3587591D01*
G01X1192894Y-3583257D01*
G01X1192106Y-3581288D01*
G01X1189742Y-3574985D01*
G01X1188954Y-3573015D01*
G01X1187379Y-3568682D01*
G01X1186591Y-3566712D01*
G01X1185409Y-3563561D01*
G01X1184621Y-3561591D01*
G01X1183045Y-3557258D01*
G01X1182257Y-3555288D01*
G01X1179894Y-3548985D01*
G01X1179106Y-3547015D01*
G01X1177530Y-3542682D01*
G01X1176742Y-3540712D01*
G01X1172606Y-3529682D01*
G01X1172015Y-3528303D01*
G01X1170833Y-3525151D01*
G01X1170439Y-3523773D01*
G01X1171867Y-3523182D01*
G01X1176152Y-3522985D01*
G01X1182257Y-3523379D01*
G01X1183045Y-3524955D01*
G01X1186197Y-3533621D01*
G01X1186985Y-3535985D01*
G01X1187773Y-3537955D01*
G01X1188954Y-3541500D01*
G01X1189742Y-3543470D01*
G01X1190530Y-3545833D01*
G01X1191318Y-3547803D01*
G01X1192500Y-3551348D01*
G01X1193288Y-3553318D01*
G01X1194076Y-3555682D01*
G01X1194863Y-3557651D01*
G01X1196045Y-3561197D01*
G01X1197227Y-3564348D01*
G01X1199000Y-3569667D01*
G01X1199591Y-3571833D01*
G01X1200182Y-3573606D01*
G01X1200576Y-3575182D01*
G01X1201167Y-3576560D01*
G01X1201560Y-3576610D01*
G01X1201954Y-3575970D01*
G01X1202545Y-3574394D01*
G01X1202939Y-3572818D01*
G01X1203530Y-3570651D01*
G01X1206682Y-3561197D01*
G01X1207470Y-3559227D01*
G01X1208061Y-3557455D01*
G01X1209242Y-3554303D01*
G01X1209833Y-3552530D01*
G01X1210621Y-3550561D01*
G01X1215348Y-3537561D01*
G01X1216136Y-3535591D01*
G01X1216727Y-3533818D01*
G01X1217909Y-3530667D01*
G01X1218500Y-3528894D01*
G01X1219682Y-3525742D01*
G01X1220273Y-3523970D01*
G01X1220470Y-3522985D01*
G01X1225985Y-3522985D01*
G01X1230121Y-3523133D01*
G01X1231500Y-3523576D01*
G01X1231106Y-3524758D01*
G01X1225788Y-3538939D01*
G01X1225197Y-3540712D01*
G01X1205106Y-3594288D01*
G01X1203530Y-3598227D01*
G01X1202939Y-3599803D01*
G01X1201167Y-3603939D01*
G01X1199591Y-3607091D01*
G01X1198803Y-3608470D01*
G01X1198015Y-3609652D01*
G01X1197030Y-3611030D01*
G01X1195849Y-3612409D01*
G01X1193879Y-3614379D01*
G01X1192894Y-3615167D01*
G01X1191515Y-3615955D01*
G01X1189742Y-3616743D01*
G01X1187773Y-3617333D01*
G01X1186000Y-3617727D01*
G01X1183439Y-3617924D01*
G37*
G36*
G01X1306348Y-3590348D02*
G01X1306348Y-3554697D01*
G01X1306152Y-3518454D01*
G01X1305905Y-3518110D01*
G01X1305561Y-3518258D01*
G01X1304182Y-3519439D01*
G01X1302606Y-3520621D01*
G01X1301621Y-3521409D01*
G01X1300243Y-3522394D01*
G01X1298470Y-3523576D01*
G01X1296894Y-3524561D01*
G01X1295712Y-3525349D01*
G01X1294333Y-3526136D01*
G01X1290788Y-3528106D01*
G01X1287636Y-3529682D01*
G01X1285864Y-3530470D01*
G01X1284288Y-3531061D01*
G01X1283500Y-3531258D01*
G01X1283500Y-3525939D01*
G01X1283648Y-3521852D01*
G01X1284091Y-3520227D01*
G01X1285273Y-3519439D01*
G01X1288424Y-3517864D01*
G01X1289803Y-3517076D01*
G01X1291379Y-3516091D01*
G01X1294924Y-3513727D01*
G01X1296697Y-3512349D01*
G01X1298667Y-3510773D01*
G01X1300243Y-3509591D01*
G01X1305167Y-3504667D01*
G01X1307530Y-3501712D01*
G01X1309106Y-3499349D01*
G01X1309894Y-3497970D01*
G01X1310288Y-3496985D01*
G01X1317379Y-3496985D01*
G01X1317379Y-3590348D01*
G01X1306348Y-3590348D01*
G37*
G36*
G01X1362189Y-3590152D02*
G01X1360712Y-3589561D01*
G01X1360909Y-3587000D01*
G01X1361303Y-3583455D01*
G01X1361697Y-3580303D01*
G01X1362091Y-3577939D01*
G01X1363273Y-3572030D01*
G01X1363667Y-3570455D01*
G01X1364061Y-3568485D01*
G01X1364652Y-3565727D01*
G01X1366227Y-3560212D01*
G01X1367015Y-3557651D01*
G01X1367803Y-3555288D01*
G01X1370167Y-3548788D01*
G01X1370955Y-3546818D01*
G01X1372530Y-3543273D01*
G01X1373318Y-3541303D01*
G01X1376470Y-3535000D01*
G01X1378046Y-3532242D01*
G01X1378833Y-3530667D01*
G01X1380409Y-3527909D01*
G01X1383364Y-3523182D01*
G01X1385727Y-3519636D01*
G01X1387106Y-3517667D01*
G01X1388091Y-3516091D01*
G01X1392818Y-3510182D01*
G01X1387303Y-3509739D01*
G01X1370364Y-3509591D01*
G01X1347712Y-3509591D01*
G01X1347712Y-3498561D01*
G01X1376864Y-3498561D01*
G01X1407000Y-3498758D01*
G01X1407985Y-3498955D01*
G01X1407985Y-3502697D01*
G01X1407788Y-3507030D01*
G01X1407197Y-3508212D01*
G01X1406212Y-3509197D01*
G01X1404636Y-3511167D01*
G01X1403651Y-3512151D01*
G01X1398924Y-3518454D01*
G01X1397939Y-3519833D01*
G01X1396757Y-3521606D01*
G01X1394788Y-3524758D01*
G01X1392424Y-3528697D01*
G01X1391439Y-3530273D01*
G01X1389864Y-3533030D01*
G01X1388288Y-3536182D01*
G01X1386712Y-3538939D01*
G01X1385924Y-3540515D01*
G01X1385136Y-3542485D01*
G01X1384349Y-3544061D01*
G01X1383167Y-3546818D01*
G01X1382379Y-3548591D01*
G01X1380803Y-3552530D01*
G01X1379227Y-3556864D01*
G01X1377652Y-3561591D01*
G01X1376864Y-3564152D01*
G01X1376076Y-3566909D01*
G01X1375485Y-3568879D01*
G01X1374697Y-3572424D01*
G01X1373909Y-3576364D01*
G01X1373121Y-3581879D01*
G01X1372727Y-3585424D01*
G01X1372530Y-3588182D01*
G01X1372530Y-3590348D01*
G01X1366621Y-3590348D01*
G01X1362189Y-3590152D01*
G37*
G36*
G01X1427780Y-3608519D02*
G01X1427091Y-3607879D01*
G01X1425909Y-3606106D01*
G01X1425121Y-3604727D01*
G01X1425121Y-3603939D01*
G01X1425909Y-3603349D01*
G01X1427091Y-3602758D01*
G01X1428470Y-3601576D01*
G01X1429651Y-3599803D01*
G01X1430439Y-3598424D01*
G01X1431030Y-3596848D01*
G01X1431424Y-3595273D01*
G01X1431621Y-3592515D01*
G01X1431621Y-3590348D01*
G01X1425318Y-3590348D01*
G01X1425318Y-3577742D01*
G01X1438318Y-3577742D01*
G01X1438318Y-3584636D01*
G01X1438121Y-3592909D01*
G01X1437727Y-3595667D01*
G01X1437136Y-3598227D01*
G01X1436348Y-3600394D01*
G01X1434970Y-3603152D01*
G01X1434182Y-3604136D01*
G01X1432212Y-3606106D01*
G01X1430636Y-3607288D01*
G01X1428667Y-3608470D01*
G01X1427780Y-3608519D01*
G37*
G36*
G01X1497606Y-3590152D02*
G01X1489924Y-3589561D01*
G01X1490121Y-3588182D01*
G01X1490515Y-3586015D01*
G01X1491106Y-3583651D01*
G01X1491894Y-3581682D01*
G01X1492682Y-3579909D01*
G01X1494454Y-3576364D01*
G01X1497409Y-3572227D01*
G01X1499773Y-3569273D01*
G01X1507652Y-3561394D01*
G01X1510409Y-3559030D01*
G01X1515136Y-3555091D01*
G01X1520652Y-3550364D01*
G01X1523015Y-3548394D01*
G01X1531879Y-3539530D01*
G01X1533454Y-3537561D01*
G01X1534636Y-3536182D01*
G01X1535818Y-3534212D01*
G01X1536803Y-3532636D01*
G01X1537591Y-3531061D01*
G01X1538379Y-3529288D01*
G01X1538970Y-3527515D01*
G01X1539364Y-3525939D01*
G01X1539561Y-3523970D01*
G01X1539364Y-3520818D01*
G01X1538773Y-3517864D01*
G01X1537985Y-3515894D01*
G01X1537000Y-3514121D01*
G01X1536015Y-3512742D01*
G01X1535227Y-3511757D01*
G01X1534242Y-3510773D01*
G01X1533258Y-3509985D01*
G01X1532076Y-3509197D01*
G01X1530697Y-3508409D01*
G01X1528924Y-3507621D01*
G01X1527151Y-3507030D01*
G01X1524000Y-3506636D01*
G01X1522621Y-3506439D01*
G01X1521242Y-3506636D01*
G01X1517697Y-3507030D01*
G01X1515924Y-3507424D01*
G01X1514151Y-3508015D01*
G01X1512576Y-3508803D01*
G01X1510606Y-3509985D01*
G01X1509030Y-3511167D01*
G01X1507454Y-3513136D01*
G01X1506470Y-3514318D01*
G01X1505682Y-3515697D01*
G01X1504894Y-3517667D01*
G01X1504303Y-3519636D01*
G01X1504106Y-3521212D01*
G01X1503909Y-3523182D01*
G01X1503515Y-3524561D01*
G01X1501939Y-3524955D01*
G01X1499970Y-3524758D01*
G01X1496424Y-3524364D01*
G01X1494061Y-3524167D01*
G01X1492731Y-3523970D01*
G01X1492288Y-3523379D01*
G01X1492485Y-3522000D01*
G01X1492879Y-3520030D01*
G01X1493470Y-3517273D01*
G01X1494258Y-3514712D01*
G01X1495046Y-3512742D01*
G01X1495833Y-3511167D01*
G01X1496818Y-3509394D01*
G01X1497803Y-3508015D01*
G01X1498591Y-3506833D01*
G01X1499576Y-3505652D01*
G01X1500561Y-3504667D01*
G01X1502530Y-3503091D01*
G01X1503712Y-3502106D01*
G01X1504894Y-3501318D01*
G01X1506273Y-3500530D01*
G01X1508045Y-3499743D01*
G01X1510015Y-3498955D01*
G01X1511788Y-3498364D01*
G01X1515333Y-3497576D01*
G01X1517303Y-3497379D01*
G01X1520454Y-3497182D01*
G01X1522818Y-3497182D01*
G01X1524788Y-3497379D01*
G01X1527545Y-3497576D01*
G01X1529515Y-3497970D01*
G01X1530894Y-3498167D01*
G01X1532470Y-3498561D01*
G01X1534242Y-3499151D01*
G01X1535818Y-3499743D01*
G01X1540151Y-3501909D01*
G01X1543106Y-3504273D01*
G01X1545076Y-3506242D01*
G01X1546651Y-3508212D01*
G01X1548621Y-3511364D01*
G01X1549409Y-3513136D01*
G01X1550788Y-3517273D01*
G01X1551182Y-3520424D01*
G01X1551379Y-3521803D01*
G01X1551182Y-3523970D01*
G01X1550788Y-3527121D01*
G01X1550197Y-3530076D01*
G01X1549409Y-3532439D01*
G01X1548621Y-3534212D01*
G01X1546849Y-3537758D01*
G01X1545667Y-3539530D01*
G01X1544879Y-3540909D01*
G01X1544091Y-3541894D01*
G01X1539364Y-3547409D01*
G01X1535424Y-3551348D01*
G01X1533454Y-3552924D01*
G01X1531091Y-3555288D01*
G01X1529515Y-3556470D01*
G01X1528530Y-3557455D01*
G01X1520258Y-3564546D01*
G01X1518288Y-3566121D01*
G01X1516909Y-3567500D01*
G01X1515333Y-3568682D01*
G01X1512970Y-3571045D01*
G01X1511394Y-3572227D01*
G01X1509424Y-3574591D01*
G01X1508439Y-3575576D01*
G01X1507258Y-3577152D01*
G01X1506273Y-3578924D01*
G01X1506076Y-3579712D01*
G01X1551379Y-3579712D01*
G01X1551379Y-3590348D01*
G01X1520652Y-3590348D01*
G01X1497606Y-3590152D01*
G37*
G36*
G01X1593924Y-3591924D02*
G01X1588606Y-3591727D01*
G01X1587424Y-3591333D01*
G01X1585848Y-3590939D01*
G01X1583879Y-3590348D01*
G01X1581909Y-3589561D01*
G01X1580333Y-3588773D01*
G01X1578758Y-3587788D01*
G01X1577379Y-3586803D01*
G01X1576394Y-3586015D01*
G01X1573045Y-3582667D01*
G01X1571667Y-3580697D01*
G01X1570682Y-3579318D01*
G01X1569894Y-3577939D01*
G01X1569106Y-3576364D01*
G01X1568515Y-3574985D01*
G01X1567924Y-3573409D01*
G01X1566152Y-3568091D01*
G01X1565758Y-3566515D01*
G01X1564970Y-3562576D01*
G01X1564576Y-3559818D01*
G01X1564182Y-3556273D01*
G01X1563788Y-3548788D01*
G01X1563591Y-3544849D01*
G01X1563621Y-3544258D01*
G01X1575409Y-3544258D01*
G01X1575606Y-3552333D01*
G01X1576000Y-3557849D01*
G01X1576591Y-3562576D01*
G01X1576985Y-3564939D01*
G01X1577576Y-3567303D01*
G01X1578167Y-3569470D01*
G01X1578954Y-3571636D01*
G01X1579742Y-3573409D01*
G01X1580530Y-3574788D01*
G01X1581318Y-3575970D01*
G01X1582894Y-3577939D01*
G01X1583879Y-3578924D01*
G01X1585455Y-3580106D01*
G01X1587424Y-3581288D01*
G01X1589197Y-3582076D01*
G01X1591167Y-3582470D01*
G01X1591167Y-3582470D01*
G01X1592939Y-3582667D01*
G01X1594909Y-3582667D01*
G01X1597273Y-3582273D01*
G01X1599439Y-3581682D01*
G01X1601606Y-3580697D01*
G01X1602985Y-3579712D01*
G01X1603970Y-3578924D01*
G01X1605939Y-3576954D01*
G01X1607121Y-3575576D01*
G01X1608303Y-3573606D01*
G01X1609288Y-3571636D01*
G01X1610076Y-3569470D01*
G01X1610667Y-3567697D01*
G01X1611454Y-3563758D01*
G01X1611848Y-3561000D01*
G01X1612242Y-3556667D01*
G01X1612636Y-3546030D01*
G01X1612636Y-3544849D01*
G01X1612242Y-3533818D01*
G01X1612045Y-3532045D01*
G01X1611848Y-3529879D01*
G01X1611454Y-3527121D01*
G01X1611061Y-3524758D01*
G01X1610667Y-3522788D01*
G01X1610076Y-3520621D01*
G01X1609485Y-3518848D01*
G01X1608894Y-3517273D01*
G01X1608106Y-3515697D01*
G01X1607318Y-3514318D01*
G01X1606530Y-3513136D01*
G01X1605545Y-3511955D01*
G01X1603576Y-3509985D01*
G01X1602591Y-3509197D01*
G01X1601212Y-3508409D01*
G01X1599636Y-3507621D01*
G01X1597864Y-3507030D01*
G01X1596091Y-3506636D01*
G01X1594712Y-3506439D01*
G01X1592545Y-3506636D01*
G01X1590182Y-3507030D01*
G01X1588212Y-3507621D01*
G01X1586439Y-3508409D01*
G01X1584076Y-3509985D01*
G01X1582894Y-3510970D01*
G01X1582106Y-3511955D01*
G01X1581121Y-3513333D01*
G01X1580136Y-3514909D01*
G01X1579348Y-3516485D01*
G01X1578560Y-3518652D01*
G01X1577773Y-3521212D01*
G01X1577182Y-3523182D01*
G01X1576394Y-3527515D01*
G01X1576000Y-3531061D01*
G01X1575606Y-3536182D01*
G01X1575409Y-3544258D01*
G01X1563621Y-3544258D01*
G01X1563788Y-3540909D01*
G01X1564182Y-3534212D01*
G01X1564379Y-3532833D01*
G01X1564576Y-3530667D01*
G01X1564970Y-3527909D01*
G01X1565758Y-3523970D01*
G01X1566348Y-3521212D01*
G01X1567136Y-3518652D01*
G01X1567924Y-3516485D01*
G01X1568712Y-3514515D01*
G01X1570288Y-3511364D01*
G01X1571273Y-3509591D01*
G01X1572257Y-3508212D01*
G01X1573045Y-3507227D01*
G01X1573833Y-3506046D01*
G01X1574818Y-3504864D01*
G01X1575803Y-3503879D01*
G01X1577773Y-3502303D01*
G01X1578954Y-3501318D01*
G01X1580530Y-3500333D01*
G01X1582500Y-3499349D01*
G01X1584470Y-3498561D01*
G01X1586439Y-3497970D01*
G01X1588212Y-3497576D01*
G01X1589788Y-3497379D01*
G01X1592152Y-3497182D01*
G01X1594121Y-3497182D01*
G01X1595697Y-3497379D01*
G01X1598455Y-3497576D01*
G01X1601606Y-3498167D01*
G01X1603970Y-3498955D01*
G01X1605939Y-3499743D01*
G01X1607515Y-3500530D01*
G01X1609091Y-3501515D01*
G01X1610470Y-3502500D01*
G01X1611454Y-3503288D01*
G01X1614803Y-3506636D01*
G01X1615591Y-3507621D01*
G01X1616379Y-3508803D01*
G01X1617364Y-3510379D01*
G01X1618349Y-3512151D01*
G01X1619136Y-3513727D01*
G01X1619727Y-3515106D01*
G01X1620318Y-3516682D01*
G01X1622091Y-3522000D01*
G01X1622485Y-3523576D01*
G01X1623273Y-3527515D01*
G01X1623667Y-3530667D01*
G01X1624061Y-3535394D01*
G01X1624258Y-3544061D01*
G01X1624061Y-3552727D01*
G01X1623864Y-3554303D01*
G01X1623667Y-3557061D01*
G01X1623273Y-3560212D01*
G01X1622879Y-3562576D01*
G01X1622091Y-3566515D01*
G01X1621303Y-3569667D01*
G01X1620712Y-3571439D01*
G01X1619924Y-3573409D01*
G01X1619136Y-3575182D01*
G01X1617561Y-3578333D01*
G01X1616576Y-3579909D01*
G01X1615197Y-3581879D01*
G01X1614015Y-3583455D01*
G01X1611061Y-3586409D01*
G01X1610076Y-3587197D01*
G01X1607712Y-3588773D01*
G01X1606333Y-3589561D01*
G01X1604364Y-3590348D01*
G01X1602788Y-3590939D01*
G01X1599242Y-3591727D01*
G01X1593924Y-3591924D01*
G37*
G36*
G01X1642182Y-3590201D02*
G01X1634500Y-3589758D01*
G01X1635091Y-3586212D01*
G01X1635682Y-3583651D01*
G01X1636273Y-3582076D01*
G01X1636864Y-3580697D01*
G01X1638439Y-3577546D01*
G01X1639424Y-3575970D01*
G01X1640606Y-3574197D01*
G01X1641591Y-3572818D01*
G01X1643955Y-3569667D01*
G01X1651833Y-3561788D01*
G01X1657348Y-3557061D01*
G01X1662076Y-3553121D01*
G01X1664833Y-3550758D01*
G01X1665818Y-3549773D01*
G01X1667788Y-3548197D01*
G01X1670742Y-3545243D01*
G01X1671924Y-3544258D01*
G01X1673500Y-3542879D01*
G01X1674682Y-3541303D01*
G01X1677045Y-3538939D01*
G01X1678621Y-3536970D01*
G01X1680000Y-3535000D01*
G01X1681182Y-3533030D01*
G01X1682167Y-3531061D01*
G01X1682954Y-3529288D01*
G01X1683546Y-3527515D01*
G01X1683939Y-3525939D01*
G01X1684136Y-3523970D01*
G01X1683939Y-3520818D01*
G01X1683348Y-3517864D01*
G01X1682561Y-3515894D01*
G01X1681576Y-3514121D01*
G01X1680591Y-3512742D01*
G01X1679803Y-3511757D01*
G01X1678818Y-3510773D01*
G01X1677833Y-3509985D01*
G01X1676651Y-3509197D01*
G01X1675273Y-3508409D01*
G01X1673500Y-3507621D01*
G01X1671727Y-3507030D01*
G01X1668576Y-3506636D01*
G01X1667197Y-3506439D01*
G01X1665818Y-3506636D01*
G01X1662273Y-3507030D01*
G01X1660500Y-3507424D01*
G01X1658727Y-3508015D01*
G01X1657151Y-3508803D01*
G01X1655773Y-3509591D01*
G01X1654591Y-3510379D01*
G01X1653015Y-3511757D01*
G01X1651439Y-3513727D01*
G01X1650258Y-3515697D01*
G01X1649470Y-3517864D01*
G01X1648879Y-3519636D01*
G01X1648682Y-3521212D01*
G01X1648485Y-3523182D01*
G01X1648091Y-3524561D01*
G01X1646515Y-3524955D01*
G01X1644545Y-3524758D01*
G01X1641000Y-3524364D01*
G01X1638636Y-3524167D01*
G01X1637307Y-3523970D01*
G01X1636864Y-3523379D01*
G01X1637060Y-3522000D01*
G01X1637454Y-3520030D01*
G01X1638045Y-3517273D01*
G01X1638833Y-3514712D01*
G01X1639621Y-3512939D01*
G01X1641394Y-3509394D01*
G01X1642379Y-3508015D01*
G01X1642970Y-3507030D01*
G01X1643757Y-3506046D01*
G01X1645727Y-3504076D01*
G01X1646712Y-3503288D01*
G01X1649470Y-3501318D01*
G01X1650848Y-3500530D01*
G01X1652621Y-3499743D01*
G01X1654591Y-3498955D01*
G01X1656364Y-3498364D01*
G01X1659909Y-3497576D01*
G01X1661879Y-3497379D01*
G01X1665030Y-3497182D01*
G01X1667394Y-3497182D01*
G01X1669364Y-3497379D01*
G01X1672121Y-3497576D01*
G01X1674091Y-3497970D01*
G01X1675470Y-3498167D01*
G01X1677045Y-3498561D01*
G01X1678818Y-3499151D01*
G01X1680394Y-3499743D01*
G01X1683939Y-3501515D01*
G01X1685318Y-3502500D01*
G01X1686500Y-3503288D01*
G01X1687682Y-3504273D01*
G01X1690045Y-3506636D01*
G01X1691227Y-3508212D01*
G01X1692212Y-3509591D01*
G01X1693197Y-3511364D01*
G01X1693985Y-3513136D01*
G01X1694773Y-3515303D01*
G01X1695364Y-3517273D01*
G01X1695758Y-3520030D01*
G01X1695954Y-3522197D01*
G01X1695758Y-3524364D01*
G01X1695560Y-3526136D01*
G01X1695167Y-3528697D01*
G01X1694576Y-3530667D01*
G01X1693985Y-3532439D01*
G01X1693197Y-3534212D01*
G01X1691424Y-3537758D01*
G01X1690242Y-3539530D01*
G01X1689455Y-3540909D01*
G01X1687091Y-3543864D01*
G01X1686106Y-3544849D01*
G01X1684530Y-3546818D01*
G01X1679606Y-3551742D01*
G01X1677636Y-3553318D01*
G01X1675273Y-3555682D01*
G01X1673697Y-3556864D01*
G01X1672712Y-3557849D01*
G01X1669954Y-3560212D01*
G01X1667591Y-3562182D01*
G01X1659318Y-3569273D01*
G01X1657348Y-3571242D01*
G01X1656167Y-3572227D01*
G01X1654788Y-3573606D01*
G01X1652424Y-3576364D01*
G01X1651439Y-3577742D01*
G01X1650848Y-3578924D01*
G01X1650652Y-3579712D01*
G01X1695954Y-3579712D01*
G01X1695954Y-3590348D01*
G01X1665227Y-3590348D01*
G01X1642182Y-3590201D01*
G37*
G36*
G01X1739879Y-3591924D02*
G01X1734561Y-3591727D01*
G01X1732394Y-3591136D01*
G01X1730424Y-3590545D01*
G01X1728651Y-3589954D01*
G01X1726879Y-3589167D01*
G01X1725303Y-3588379D01*
G01X1723530Y-3587394D01*
G01X1721954Y-3586409D01*
G01X1720773Y-3585424D01*
G01X1719394Y-3584242D01*
G01X1717818Y-3582667D01*
G01X1715455Y-3579909D01*
G01X1714470Y-3578530D01*
G01X1713682Y-3577152D01*
G01X1712106Y-3574000D01*
G01X1711318Y-3571833D01*
G01X1709939Y-3567697D01*
G01X1709152Y-3564152D01*
G01X1708476Y-3559424D01*
G01X1720773Y-3559424D01*
G01X1720970Y-3561394D01*
G01X1721364Y-3564939D01*
G01X1721758Y-3566909D01*
G01X1722348Y-3569076D01*
G01X1722939Y-3570651D01*
G01X1723727Y-3572424D01*
G01X1724712Y-3574000D01*
G01X1725500Y-3575379D01*
G01X1726485Y-3576560D01*
G01X1728848Y-3578924D01*
G01X1730621Y-3580106D01*
G01X1732000Y-3580894D01*
G01X1733379Y-3581485D01*
G01X1734955Y-3582076D01*
G01X1736924Y-3582470D01*
G01X1736924Y-3582470D01*
G01X1738894Y-3582667D01*
G01X1740273Y-3582667D01*
G01X1743424Y-3582273D01*
G01X1745000Y-3581879D01*
G01X1746576Y-3581288D01*
G01X1747955Y-3580500D01*
G01X1749727Y-3579318D01*
G01X1751303Y-3578136D01*
G01X1752682Y-3576758D01*
G01X1753864Y-3575182D01*
G01X1754652Y-3574000D01*
G01X1755439Y-3572424D01*
G01X1756227Y-3570651D01*
G01X1756818Y-3568682D01*
G01X1757212Y-3566909D01*
G01X1757409Y-3561985D01*
G01X1757212Y-3557061D01*
G01X1757015Y-3555485D01*
G01X1756621Y-3553712D01*
G01X1756030Y-3551940D01*
G01X1755439Y-3550364D01*
G01X1754652Y-3548985D01*
G01X1753864Y-3547803D01*
G01X1752879Y-3546424D01*
G01X1751697Y-3545045D01*
G01X1749727Y-3543470D01*
G01X1748151Y-3542485D01*
G01X1746379Y-3541500D01*
G01X1744606Y-3540909D01*
G01X1743030Y-3540515D01*
G01X1740076Y-3540318D01*
G01X1736727Y-3540515D01*
G01X1735151Y-3540909D01*
G01X1733379Y-3541303D01*
G01X1731409Y-3542091D01*
G01X1729833Y-3542879D01*
G01X1728651Y-3543667D01*
G01X1727273Y-3544849D01*
G01X1725500Y-3546424D01*
G01X1724318Y-3548000D01*
G01X1723530Y-3549182D01*
G01X1722742Y-3550758D01*
G01X1721954Y-3552924D01*
G01X1721364Y-3554697D01*
G01X1720970Y-3557455D01*
G01X1720773Y-3559424D01*
G01X1708476Y-3559424D01*
G01X1708364Y-3558636D01*
G01X1707970Y-3553909D01*
G01X1707773Y-3547606D01*
G01X1707970Y-3541303D01*
G01X1708364Y-3536182D01*
G01X1708758Y-3533030D01*
G01X1709152Y-3530273D01*
G01X1709939Y-3526333D01*
G01X1710136Y-3524955D01*
G01X1710530Y-3523379D01*
G01X1711121Y-3521606D01*
G01X1711712Y-3519439D01*
G01X1712500Y-3517470D01*
G01X1713091Y-3515894D01*
G01X1713682Y-3514712D01*
G01X1714470Y-3513333D01*
G01X1715257Y-3511757D01*
G01X1716242Y-3510182D01*
G01X1718212Y-3507424D01*
G01X1719394Y-3506046D01*
G01X1721364Y-3504076D01*
G01X1722939Y-3502894D01*
G01X1724909Y-3501515D01*
G01X1726485Y-3500530D01*
G01X1728061Y-3499743D01*
G01X1730030Y-3498955D01*
G01X1731606Y-3498364D01*
G01X1735151Y-3497576D01*
G01X1736727Y-3497379D01*
G01X1739485Y-3497182D01*
G01X1741848Y-3497182D01*
G01X1743227Y-3497379D01*
G01X1745788Y-3497576D01*
G01X1748939Y-3498167D01*
G01X1751500Y-3498955D01*
G01X1753273Y-3499743D01*
G01X1754848Y-3500530D01*
G01X1756621Y-3501515D01*
G01X1758394Y-3502894D01*
G01X1759970Y-3504076D01*
G01X1760955Y-3505061D01*
G01X1763318Y-3508015D01*
G01X1764106Y-3509394D01*
G01X1764894Y-3510970D01*
G01X1765682Y-3512742D01*
G01X1766470Y-3515106D01*
G01X1767060Y-3517273D01*
G01X1767454Y-3519242D01*
G01X1767405Y-3519981D01*
G01X1766864Y-3520227D01*
G01X1765485Y-3520424D01*
G01X1760364Y-3520818D01*
G01X1758394Y-3521015D01*
G01X1756424Y-3520621D01*
G01X1755636Y-3519242D01*
G01X1755046Y-3517273D01*
G01X1754258Y-3515303D01*
G01X1753273Y-3513333D01*
G01X1752288Y-3511955D01*
G01X1751500Y-3510970D01*
G01X1749530Y-3509394D01*
G01X1748151Y-3508409D01*
G01X1746576Y-3507621D01*
G01X1744606Y-3507030D01*
G01X1742636Y-3506636D01*
G01X1740470Y-3506439D01*
G01X1738303Y-3506636D01*
G01X1736333Y-3507030D01*
G01X1734364Y-3507621D01*
G01X1732788Y-3508409D01*
G01X1731015Y-3509394D01*
G01X1729636Y-3510379D01*
G01X1726682Y-3513333D01*
G01X1725697Y-3514712D01*
G01X1724515Y-3516485D01*
G01X1723530Y-3518060D01*
G01X1722348Y-3520818D01*
G01X1721758Y-3522394D01*
G01X1721167Y-3524167D01*
G01X1720576Y-3526333D01*
G01X1720182Y-3528303D01*
G01X1719788Y-3531061D01*
G01X1719394Y-3535000D01*
G01X1719197Y-3538152D01*
G01X1719394Y-3541303D01*
G01X1719640Y-3541648D01*
G01X1719985Y-3541500D01*
G01X1720773Y-3540712D01*
G01X1721364Y-3539727D01*
G01X1722151Y-3538742D01*
G01X1724121Y-3536773D01*
G01X1726091Y-3535197D01*
G01X1729242Y-3533227D01*
G01X1731015Y-3532439D01*
G01X1732985Y-3531652D01*
G01X1734758Y-3531061D01*
G01X1736333Y-3530667D01*
G01X1737909Y-3530470D01*
G01X1740273Y-3530273D01*
G01X1742242Y-3530273D01*
G01X1743818Y-3530470D01*
G01X1745788Y-3530667D01*
G01X1747757Y-3531061D01*
G01X1749333Y-3531455D01*
G01X1750712Y-3531848D01*
G01X1752091Y-3532439D01*
G01X1755636Y-3534212D01*
G01X1757606Y-3535591D01*
G01X1759182Y-3536773D01*
G01X1762136Y-3539727D01*
G01X1762924Y-3540712D01*
G01X1764894Y-3543470D01*
G01X1765682Y-3544849D01*
G01X1766470Y-3546424D01*
G01X1767060Y-3548000D01*
G01X1767652Y-3549773D01*
G01X1768242Y-3551742D01*
G01X1768636Y-3553515D01*
G01X1769030Y-3556273D01*
G01X1769227Y-3559030D01*
G01X1769030Y-3562576D01*
G01X1768636Y-3565727D01*
G01X1768242Y-3568091D01*
G01X1767848Y-3569864D01*
G01X1767258Y-3571833D01*
G01X1766667Y-3573409D01*
G01X1766076Y-3574788D01*
G01X1764500Y-3577939D01*
G01X1763515Y-3579515D01*
G01X1762530Y-3580894D01*
G01X1761742Y-3582076D01*
G01X1760757Y-3583257D01*
G01X1758394Y-3585621D01*
G01X1756818Y-3586803D01*
G01X1755439Y-3587788D01*
G01X1753667Y-3588773D01*
G01X1752091Y-3589561D01*
G01X1750712Y-3590152D01*
G01X1749136Y-3590742D01*
G01X1746970Y-3591333D01*
G01X1745000Y-3591727D01*
G01X1739879Y-3591924D01*
G37*
G36*
G01X2077288Y-3445379D02*
G01X2071970Y-3445182D01*
G01X2070788Y-3444788D01*
G01X2069015Y-3444394D01*
G01X2067045Y-3443803D01*
G01X2065273Y-3443015D01*
G01X2063303Y-3442030D01*
G01X2061924Y-3441045D01*
G01X2060742Y-3440257D01*
G01X2059561Y-3439273D01*
G01X2057985Y-3437303D01*
G01X2057000Y-3435924D01*
G01X2056015Y-3433954D01*
G01X2055227Y-3431394D01*
G01X2054636Y-3428243D01*
G01X2054636Y-3425879D01*
G01X2054710Y-3425288D01*
G01X2066651Y-3425288D01*
G01X2066849Y-3427061D01*
G01X2067242Y-3428833D01*
G01X2067833Y-3430606D01*
G01X2068818Y-3432182D01*
G01X2070000Y-3433561D01*
G01X2071379Y-3434546D01*
G01X2073348Y-3435530D01*
G01X2075121Y-3436121D01*
G01X2077288Y-3436318D01*
G01X2077288Y-3436318D01*
G01X2079257Y-3436515D01*
G01X2081424Y-3436515D01*
G01X2084576Y-3436121D01*
G01X2086545Y-3435727D01*
G01X2088121Y-3435333D01*
G01X2089697Y-3434742D01*
G01X2091076Y-3434152D01*
G01X2092651Y-3433364D01*
G01X2094424Y-3432182D01*
G01X2095803Y-3431000D01*
G01X2097773Y-3429030D01*
G01X2098560Y-3428045D01*
G01X2099348Y-3426667D01*
G01X2100136Y-3424894D01*
G01X2100727Y-3422924D01*
G01X2101121Y-3421152D01*
G01X2101318Y-3415636D01*
G01X2100924Y-3410515D01*
G01X2099742Y-3410712D01*
G01X2097970Y-3411303D01*
G01X2095803Y-3411894D01*
G01X2094030Y-3412485D01*
G01X2090091Y-3413273D01*
G01X2087924Y-3413667D01*
G01X2085364Y-3414061D01*
G01X2078273Y-3415243D01*
G01X2075515Y-3415833D01*
G01X2073152Y-3416621D01*
G01X2070394Y-3418000D01*
G01X2069409Y-3418788D01*
G01X2068424Y-3420167D01*
G01X2067439Y-3421940D01*
G01X2066849Y-3423515D01*
G01X2066651Y-3425288D01*
G01X2054710Y-3425288D01*
G01X2054833Y-3424303D01*
G01X2055227Y-3421940D01*
G01X2056015Y-3419379D01*
G01X2056803Y-3417606D01*
G01X2057591Y-3416227D01*
G01X2058379Y-3415045D01*
G01X2059167Y-3414061D01*
G01X2062121Y-3411106D01*
G01X2063303Y-3410318D01*
G01X2066061Y-3408742D01*
G01X2067833Y-3407955D01*
G01X2071970Y-3406576D01*
G01X2076303Y-3405788D01*
G01X2083197Y-3404803D01*
G01X2084970Y-3404606D01*
G01X2087727Y-3404212D01*
G01X2092455Y-3403424D01*
G01X2095606Y-3402833D01*
G01X2097576Y-3402242D01*
G01X2099348Y-3401848D01*
G01X2100382Y-3401504D01*
G01X2101121Y-3400864D01*
G01X2101515Y-3399830D01*
G01X2101515Y-3398303D01*
G01X2101121Y-3394758D01*
G01X2100530Y-3392000D01*
G01X2099742Y-3390424D01*
G01X2098954Y-3389242D01*
G01X2097773Y-3388060D01*
G01X2096591Y-3387076D01*
G01X2095409Y-3386485D01*
G01X2094030Y-3385894D01*
G01X2092455Y-3385303D01*
G01X2090879Y-3384909D01*
G01X2086152Y-3384515D01*
G01X2084970Y-3384515D01*
G01X2083197Y-3384712D01*
G01X2080242Y-3384909D01*
G01X2077288Y-3385500D01*
G01X2075121Y-3386288D01*
G01X2073742Y-3387076D01*
G01X2072364Y-3388258D01*
G01X2070788Y-3389833D01*
G01X2069803Y-3391409D01*
G01X2069015Y-3392985D01*
G01X2067833Y-3396530D01*
G01X2067390Y-3397072D01*
G01X2066849Y-3397121D01*
G01X2062712Y-3396530D01*
G01X2060939Y-3396333D01*
G01X2058182Y-3395939D01*
G01X2056409Y-3395742D01*
G01X2056803Y-3394955D01*
G01X2057394Y-3393576D01*
G01X2057788Y-3392000D01*
G01X2058379Y-3390227D01*
G01X2059167Y-3388454D01*
G01X2060545Y-3385697D01*
G01X2061333Y-3384712D01*
G01X2062515Y-3383333D01*
G01X2063697Y-3382151D01*
G01X2064682Y-3381364D01*
G01X2065864Y-3380379D01*
G01X2067045Y-3379591D01*
G01X2068424Y-3378803D01*
G01X2070197Y-3378015D01*
G01X2073742Y-3376833D01*
G01X2075712Y-3376242D01*
G01X2077485Y-3375848D01*
G01X2080242Y-3375454D01*
G01X2085758Y-3375258D01*
G01X2092455Y-3375454D01*
G01X2095212Y-3375848D01*
G01X2097182Y-3376242D01*
G01X2099545Y-3376833D01*
G01X2101712Y-3377621D01*
G01X2103485Y-3378409D01*
G01X2105257Y-3379394D01*
G01X2107030Y-3380576D01*
G01X2108409Y-3381757D01*
G01X2109591Y-3383333D01*
G01X2110773Y-3385303D01*
G01X2111560Y-3387076D01*
G01X2112151Y-3388848D01*
G01X2112545Y-3390424D01*
G01X2112939Y-3396333D01*
G01X2113333Y-3431788D01*
G01X2113727Y-3435727D01*
G01X2114712Y-3439667D01*
G01X2115500Y-3441636D01*
G01X2116091Y-3443015D01*
G01X2116288Y-3443803D01*
G01X2104470Y-3443803D01*
G01X2104076Y-3442818D01*
G01X2103485Y-3441243D01*
G01X2102697Y-3438091D01*
G01X2102500Y-3436712D01*
G01X2102401Y-3436170D01*
G01X2102106Y-3436121D01*
G01X2101121Y-3436515D01*
G01X2100136Y-3437303D01*
G01X2098758Y-3438485D01*
G01X2096985Y-3439667D01*
G01X2095409Y-3440651D01*
G01X2094030Y-3441439D01*
G01X2090879Y-3443015D01*
G01X2089106Y-3443606D01*
G01X2087136Y-3444197D01*
G01X2084773Y-3444788D01*
G01X2082606Y-3445182D01*
G01X2077288Y-3445379D01*
G37*
G36*
G01X2130864Y-3469803D02*
G01X2130864Y-3409727D01*
G01X2141106Y-3409727D01*
G01X2141303Y-3415636D01*
G01X2141697Y-3418394D01*
G01X2142091Y-3420364D01*
G01X2142485Y-3422136D01*
G01X2143076Y-3424106D01*
G01X2143864Y-3425879D01*
G01X2145242Y-3428636D01*
G01X2146818Y-3430606D01*
G01X2147606Y-3431394D01*
G01X2148591Y-3432182D01*
G01X2149576Y-3433167D01*
G01X2151151Y-3434152D01*
G01X2153121Y-3435136D01*
G01X2154697Y-3435727D01*
G01X2156667Y-3435924D01*
G01X2156667Y-3435924D01*
G01X2158242Y-3436121D01*
G01X2159030Y-3436121D01*
G01X2160803Y-3435924D01*
G01X2163363Y-3435530D01*
G01X2165727Y-3434742D01*
G01X2167500Y-3433758D01*
G01X2169273Y-3432576D01*
G01X2170651Y-3431394D01*
G01X2171636Y-3430409D01*
G01X2173212Y-3428439D01*
G01X2174197Y-3427061D01*
G01X2174985Y-3425485D01*
G01X2175576Y-3423909D01*
G01X2176167Y-3422136D01*
G01X2176757Y-3419773D01*
G01X2177151Y-3417606D01*
G01X2177545Y-3412091D01*
G01X2177742Y-3410515D01*
G01X2177545Y-3408939D01*
G01X2177348Y-3406576D01*
G01X2177151Y-3403424D01*
G01X2176757Y-3401061D01*
G01X2176364Y-3399485D01*
G01X2175970Y-3397712D01*
G01X2175379Y-3395939D01*
G01X2173606Y-3392394D01*
G01X2172621Y-3391015D01*
G01X2170258Y-3388258D01*
G01X2168879Y-3387076D01*
G01X2167106Y-3385894D01*
G01X2165530Y-3385106D01*
G01X2163757Y-3384515D01*
G01X2162182Y-3384121D01*
G01X2160212Y-3383924D01*
G01X2157848Y-3384121D01*
G01X2155879Y-3384515D01*
G01X2153909Y-3385106D01*
G01X2151939Y-3386091D01*
G01X2149182Y-3388060D01*
G01X2147803Y-3389242D01*
G01X2145439Y-3392197D01*
G01X2144652Y-3393576D01*
G01X2143864Y-3395151D01*
G01X2143273Y-3396530D01*
G01X2142682Y-3398106D01*
G01X2142091Y-3400076D01*
G01X2141697Y-3401848D01*
G01X2141303Y-3404606D01*
G01X2141106Y-3409727D01*
G01X2130864Y-3409727D01*
G01X2130864Y-3376439D01*
G01X2135000Y-3376439D01*
G01X2140121Y-3376636D01*
G01X2141106Y-3376833D01*
G01X2141106Y-3380773D01*
G01X2141254Y-3383678D01*
G01X2141697Y-3384515D01*
G01X2142485Y-3383727D01*
G01X2143273Y-3382742D01*
G01X2145636Y-3380379D01*
G01X2147212Y-3379197D01*
G01X2148591Y-3378212D01*
G01X2150363Y-3377227D01*
G01X2152136Y-3376439D01*
G01X2154106Y-3375848D01*
G01X2155879Y-3375454D01*
G01X2160212Y-3375258D01*
G01X2164545Y-3375454D01*
G01X2166515Y-3375848D01*
G01X2169076Y-3376439D01*
G01X2171045Y-3377227D01*
G01X2172818Y-3378015D01*
G01X2174788Y-3379000D01*
G01X2176757Y-3380379D01*
G01X2178333Y-3381561D01*
G01X2181288Y-3384515D01*
G01X2182076Y-3385500D01*
G01X2183061Y-3386879D01*
G01X2184045Y-3388454D01*
G01X2185621Y-3391606D01*
G01X2187394Y-3396333D01*
G01X2187788Y-3397909D01*
G01X2188576Y-3401455D01*
G01X2188970Y-3404606D01*
G01X2189167Y-3408939D01*
G01X2188970Y-3414061D01*
G01X2188576Y-3416818D01*
G01X2188182Y-3419182D01*
G01X2187788Y-3420758D01*
G01X2187394Y-3422530D01*
G01X2186803Y-3424697D01*
G01X2185227Y-3428636D01*
G01X2184242Y-3430606D01*
G01X2183258Y-3432182D01*
G01X2182470Y-3433364D01*
G01X2180500Y-3436121D01*
G01X2178530Y-3438091D01*
G01X2177151Y-3439273D01*
G01X2175773Y-3440257D01*
G01X2174591Y-3441045D01*
G01X2171045Y-3443015D01*
G01X2167894Y-3444197D01*
G01X2165924Y-3444788D01*
G01X2164151Y-3445182D01*
G01X2160409Y-3445379D01*
G01X2156667Y-3445182D01*
G01X2154697Y-3444788D01*
G01X2152530Y-3444197D01*
G01X2150955Y-3443606D01*
G01X2149576Y-3443015D01*
G01X2148000Y-3442030D01*
G01X2146227Y-3440849D01*
G01X2144848Y-3439864D01*
G01X2143864Y-3438879D01*
G01X2142879Y-3438091D01*
G01X2142436Y-3441932D01*
G01X2142288Y-3453849D01*
G01X2142288Y-3469803D01*
G01X2130864Y-3469803D01*
G37*
G36*
G01X2220682Y-3444985D02*
G01X2218515Y-3444788D01*
G01X2216545Y-3444394D01*
G01X2213394Y-3443606D01*
G01X2211424Y-3442818D01*
G01X2210045Y-3441833D01*
G01X2209061Y-3441045D01*
G01X2207682Y-3439667D01*
G01X2206697Y-3437894D01*
G01X2206106Y-3436318D01*
G01X2205712Y-3434742D01*
G01X2205515Y-3433364D01*
G01X2205318Y-3409136D01*
G01X2205318Y-3385500D01*
G01X2196651Y-3385500D01*
G01X2196651Y-3381955D01*
G01X2196849Y-3377424D01*
G01X2197045Y-3376439D01*
G01X2205318Y-3376439D01*
G01X2205318Y-3359894D01*
G01X2206303Y-3359303D01*
G01X2209455Y-3357333D01*
G01X2216348Y-3353197D01*
G01X2216348Y-3376439D01*
G01X2227773Y-3376439D01*
G01X2227773Y-3385500D01*
G01X2216348Y-3385500D01*
G01X2216348Y-3406182D01*
G01X2216545Y-3427455D01*
G01X2216742Y-3429030D01*
G01X2217136Y-3431000D01*
G01X2218318Y-3432773D01*
G01X2219894Y-3433758D01*
G01X2221273Y-3434152D01*
G01X2223045Y-3434348D01*
G01X2226591Y-3433954D01*
G01X2227526Y-3434102D01*
G01X2227970Y-3434546D01*
G01X2228364Y-3435727D01*
G01X2229151Y-3440455D01*
G01X2229348Y-3442424D01*
G01X2229102Y-3443508D01*
G01X2228364Y-3444000D01*
G01X2226788Y-3444394D01*
G01X2222455Y-3444788D01*
G01X2220682Y-3444985D01*
G37*
G36*
G01X2267364Y-3445379D02*
G01X2261652Y-3445182D01*
G01X2260273Y-3444788D01*
G01X2258500Y-3444394D01*
G01X2256136Y-3443803D01*
G01X2253970Y-3443015D01*
G01X2252197Y-3442227D01*
G01X2250621Y-3441439D01*
G01X2247470Y-3439470D01*
G01X2246288Y-3438485D01*
G01X2242348Y-3434546D01*
G01X2241364Y-3433167D01*
G01X2240379Y-3431591D01*
G01X2239591Y-3430212D01*
G01X2238803Y-3428636D01*
G01X2238015Y-3426864D01*
G01X2236833Y-3423318D01*
G01X2236242Y-3420955D01*
G01X2235848Y-3418788D01*
G01X2235455Y-3414455D01*
G01X2235257Y-3411500D01*
G01X2235455Y-3408545D01*
G01X2235651Y-3406970D01*
G01X2235848Y-3404212D01*
G01X2236144Y-3402439D01*
G01X2247864Y-3402439D01*
G01X2248061Y-3403818D01*
G01X2266576Y-3404015D01*
G01X2285091Y-3403621D01*
G01X2285091Y-3401848D01*
G01X2284303Y-3397909D01*
G01X2283712Y-3395939D01*
G01X2283121Y-3394561D01*
G01X2282333Y-3392985D01*
G01X2281151Y-3391212D01*
G01X2279970Y-3389833D01*
G01X2278985Y-3388848D01*
G01X2277606Y-3387667D01*
G01X2276030Y-3386682D01*
G01X2274454Y-3385894D01*
G01X2272288Y-3385106D01*
G01X2269333Y-3384515D01*
G01X2266182Y-3384515D01*
G01X2263030Y-3384909D01*
G01X2260470Y-3385500D01*
G01X2258697Y-3386288D01*
G01X2257121Y-3387076D01*
G01X2255742Y-3387864D01*
G01X2254561Y-3388848D01*
G01X2252197Y-3391212D01*
G01X2250227Y-3394167D01*
G01X2249636Y-3395349D01*
G01X2249045Y-3396924D01*
G01X2248454Y-3398894D01*
G01X2248061Y-3400667D01*
G01X2247864Y-3402439D01*
G01X2247864Y-3402439D01*
G01X2236144Y-3402439D01*
G01X2236242Y-3401848D01*
G01X2236439Y-3400470D01*
G01X2236833Y-3398894D01*
G01X2238015Y-3394955D01*
G01X2238803Y-3392985D01*
G01X2239591Y-3391212D01*
G01X2240379Y-3389833D01*
G01X2242348Y-3386682D01*
G01X2243333Y-3385500D01*
G01X2247273Y-3381561D01*
G01X2248257Y-3380773D01*
G01X2250621Y-3379197D01*
G01X2252000Y-3378409D01*
G01X2253576Y-3377621D01*
G01X2255151Y-3377030D01*
G01X2256924Y-3376439D01*
G01X2259288Y-3375848D01*
G01X2261454Y-3375454D01*
G01X2266182Y-3375258D01*
G01X2270909Y-3375454D01*
G01X2273273Y-3375848D01*
G01X2275833Y-3376439D01*
G01X2277606Y-3377030D01*
G01X2279182Y-3377621D01*
G01X2282727Y-3379394D01*
G01X2284106Y-3380379D01*
G01X2285091Y-3380970D01*
G01X2286076Y-3381757D01*
G01X2290015Y-3385697D01*
G01X2291197Y-3387273D01*
G01X2292379Y-3389046D01*
G01X2293167Y-3390424D01*
G01X2293955Y-3392000D01*
G01X2294742Y-3393970D01*
G01X2295530Y-3396136D01*
G01X2296121Y-3397909D01*
G01X2296909Y-3401848D01*
G01X2297303Y-3405788D01*
G01X2297500Y-3409727D01*
G01X2297500Y-3413076D01*
G01X2272485Y-3413076D01*
G01X2247273Y-3413470D01*
G01X2247273Y-3414849D01*
G01X2247667Y-3417606D01*
G01X2248257Y-3420758D01*
G01X2249045Y-3423121D01*
G01X2249833Y-3425091D01*
G01X2250818Y-3426864D01*
G01X2252000Y-3428636D01*
G01X2253182Y-3430015D01*
G01X2255151Y-3431985D01*
G01X2256727Y-3433167D01*
G01X2258697Y-3434348D01*
G01X2260667Y-3435136D01*
G01X2262242Y-3435727D01*
G01X2263818Y-3435924D01*
G01X2265788Y-3436121D01*
G01X2267364Y-3436121D01*
G01X2268742Y-3435924D01*
G01X2270909Y-3435727D01*
G01X2272879Y-3435333D01*
G01X2274652Y-3434742D01*
G01X2276818Y-3433758D01*
G01X2278197Y-3432773D01*
G01X2280167Y-3431197D01*
G01X2280955Y-3430409D01*
G01X2282530Y-3428439D01*
G01X2283318Y-3427061D01*
G01X2284106Y-3425485D01*
G01X2284894Y-3423712D01*
G01X2285436Y-3422826D01*
G01X2286273Y-3422530D01*
G01X2295727Y-3423712D01*
G01X2296712Y-3424106D01*
G01X2296318Y-3425682D01*
G01X2295530Y-3427849D01*
G01X2293955Y-3431000D01*
G01X2292970Y-3432773D01*
G01X2291985Y-3434348D01*
G01X2291000Y-3435530D01*
G01X2287060Y-3439470D01*
G01X2285682Y-3440455D01*
G01X2284106Y-3441439D01*
G01X2282727Y-3442227D01*
G01X2281151Y-3443015D01*
G01X2278985Y-3443803D01*
G01X2277212Y-3444394D01*
G01X2272879Y-3445182D01*
G01X2267364Y-3445379D01*
G37*
G36*
G01X708349Y-3443803D02*
G01X708349Y-3397318D01*
G01X720561Y-3397318D01*
G01X720758Y-3432970D01*
G01X731788Y-3433167D01*
G01X743212Y-3432970D01*
G01X745379Y-3432773D01*
G01X748333Y-3432576D01*
G01X751091Y-3432182D01*
G01X753848Y-3431591D01*
G01X756212Y-3430803D01*
G01X758182Y-3430015D01*
G01X759955Y-3429030D01*
G01X761530Y-3428045D01*
G01X762712Y-3427061D01*
G01X765076Y-3424697D01*
G01X766455Y-3422727D01*
G01X767636Y-3420758D01*
G01X768621Y-3419182D01*
G01X770394Y-3414455D01*
G01X770985Y-3412288D01*
G01X771576Y-3409727D01*
G01X771970Y-3407758D01*
G01X772364Y-3403424D01*
G01X772561Y-3397515D01*
G01X772364Y-3391606D01*
G01X771970Y-3387667D01*
G01X771773Y-3386288D01*
G01X771379Y-3384121D01*
G01X770788Y-3382151D01*
G01X770394Y-3380379D01*
G01X769803Y-3378606D01*
G01X768621Y-3375848D01*
G01X767636Y-3374273D01*
G01X765273Y-3370727D01*
G01X764091Y-3369349D01*
G01X763106Y-3368364D01*
G01X761136Y-3366788D01*
G01X759955Y-3365803D01*
G01X758576Y-3365015D01*
G01X757000Y-3364227D01*
G01X755227Y-3363440D01*
G01X752864Y-3362848D01*
G01X750697Y-3362454D01*
G01X746364Y-3362061D01*
G01X733167Y-3361864D01*
G01X720561Y-3361864D01*
G01X720561Y-3397318D01*
G01X720561Y-3397318D01*
G01X708349Y-3397318D01*
G01X708349Y-3350833D01*
G01X725485Y-3350833D01*
G01X743212Y-3351030D01*
G01X746167Y-3351227D01*
G01X750303Y-3351424D01*
G01X753454Y-3351818D01*
G01X755424Y-3352212D01*
G01X757197Y-3352606D01*
G01X759561Y-3353197D01*
G01X761727Y-3353985D01*
G01X763697Y-3354773D01*
G01X765667Y-3355758D01*
G01X767242Y-3356743D01*
G01X768424Y-3357530D01*
G01X769409Y-3358318D01*
G01X770591Y-3359106D01*
G01X771773Y-3360091D01*
G01X774136Y-3362454D01*
G01X775712Y-3364424D01*
G01X776894Y-3366000D01*
G01X777879Y-3367576D01*
G01X779061Y-3369545D01*
G01X780045Y-3371318D01*
G01X781621Y-3374864D01*
G01X782212Y-3376636D01*
G01X782803Y-3378803D01*
G01X783394Y-3380576D01*
G01X784182Y-3384121D01*
G01X784576Y-3386879D01*
G01X784970Y-3390030D01*
G01X785167Y-3396333D01*
G01X784970Y-3402636D01*
G01X784773Y-3404409D01*
G01X784576Y-3406576D01*
G01X784182Y-3408939D01*
G01X783788Y-3410909D01*
G01X783394Y-3412682D01*
G01X782803Y-3415243D01*
G01X782015Y-3417606D01*
G01X781227Y-3419773D01*
G01X780439Y-3421742D01*
G01X779651Y-3423515D01*
G01X778667Y-3425485D01*
G01X777485Y-3427455D01*
G01X776500Y-3428833D01*
G01X775909Y-3429818D01*
G01X775121Y-3430803D01*
G01X773152Y-3433167D01*
G01X771182Y-3435136D01*
G01X769212Y-3436712D01*
G01X767833Y-3437697D01*
G01X766258Y-3438682D01*
G01X764879Y-3439470D01*
G01X763303Y-3440257D01*
G01X761136Y-3441045D01*
G01X757000Y-3442424D01*
G01X752667Y-3443212D01*
G01X749909Y-3443606D01*
G01X728833Y-3443803D01*
G01X708349Y-3443803D01*
G37*
G36*
G01X800530Y-3443803D02*
G01X800530Y-3411106D01*
G01X800727Y-3377424D01*
G01X800924Y-3376439D01*
G01X810773Y-3376439D01*
G01X810773Y-3381364D01*
G01X810871Y-3385008D01*
G01X811167Y-3386091D01*
G01X812152Y-3384909D01*
G01X813333Y-3383136D01*
G01X814121Y-3381757D01*
G01X816485Y-3378803D01*
G01X817470Y-3378015D01*
G01X818849Y-3377030D01*
G01X820818Y-3376046D01*
G01X822394Y-3375454D01*
G01X825348Y-3375258D01*
G01X828303Y-3375454D01*
G01X830076Y-3375848D01*
G01X832242Y-3376439D01*
G01X834212Y-3377227D01*
G01X836182Y-3378212D01*
G01X836822Y-3378852D01*
G01X836773Y-3379591D01*
G01X835985Y-3381561D01*
G01X833621Y-3388060D01*
G01X833030Y-3389046D01*
G01X830667Y-3387864D01*
G01X829091Y-3387273D01*
G01X826333Y-3386879D01*
G01X824758Y-3386879D01*
G01X822394Y-3387273D01*
G01X820424Y-3387864D01*
G01X818849Y-3388652D01*
G01X817470Y-3389636D01*
G01X816485Y-3390621D01*
G01X815500Y-3391803D01*
G01X814712Y-3393182D01*
G01X813924Y-3394955D01*
G01X813333Y-3396727D01*
G01X812545Y-3400667D01*
G01X812152Y-3404212D01*
G01X811954Y-3424303D01*
G01X811954Y-3443803D01*
G01X800530Y-3443803D01*
G37*
G36*
G01X862773Y-3445379D02*
G01X857454Y-3445182D01*
G01X853515Y-3444000D01*
G01X851743Y-3443409D01*
G01X849576Y-3442424D01*
G01X847803Y-3441243D01*
G01X846424Y-3440257D01*
G01X844454Y-3438288D01*
G01X843470Y-3437106D01*
G01X842682Y-3435924D01*
G01X841894Y-3434546D01*
G01X841106Y-3432379D01*
G01X840515Y-3430606D01*
G01X840318Y-3427258D01*
G01X840411Y-3425682D01*
G01X852530Y-3425682D01*
G01X852924Y-3429227D01*
G01X853712Y-3431000D01*
G01X854697Y-3432379D01*
G01X855682Y-3433364D01*
G01X857061Y-3434546D01*
G01X859030Y-3435530D01*
G01X860606Y-3436121D01*
G01X862773Y-3436318D01*
G01X862773Y-3436318D01*
G01X865333Y-3436515D01*
G01X866909Y-3436515D01*
G01X870454Y-3436121D01*
G01X872424Y-3435727D01*
G01X874591Y-3435136D01*
G01X876364Y-3434348D01*
G01X879121Y-3432970D01*
G01X880106Y-3432182D01*
G01X881091Y-3431197D01*
G01X882273Y-3430212D01*
G01X883652Y-3428636D01*
G01X884833Y-3426864D01*
G01X885621Y-3425288D01*
G01X886212Y-3423515D01*
G01X886606Y-3421940D01*
G01X887000Y-3418788D01*
G01X887197Y-3414455D01*
G01X887049Y-3411598D01*
G01X886606Y-3410515D01*
G01X885227Y-3410712D01*
G01X883061Y-3411500D01*
G01X881091Y-3412091D01*
G01X877545Y-3412879D01*
G01X873606Y-3413667D01*
G01X871242Y-3414061D01*
G01X868485Y-3414455D01*
G01X866121Y-3414849D01*
G01X864151Y-3415243D01*
G01X862773Y-3415439D01*
G01X861197Y-3415833D01*
G01X859424Y-3416424D01*
G01X857848Y-3417015D01*
G01X856667Y-3417606D01*
G01X855682Y-3418394D01*
G01X854697Y-3419379D01*
G01X853712Y-3420561D01*
G01X852924Y-3422136D01*
G01X852530Y-3425682D01*
G01X840411Y-3425682D01*
G01X840515Y-3423909D01*
G01X840909Y-3421940D01*
G01X841500Y-3419773D01*
G01X842288Y-3418000D01*
G01X843273Y-3416227D01*
G01X844061Y-3414849D01*
G01X844848Y-3413864D01*
G01X847212Y-3411500D01*
G01X848985Y-3410318D01*
G01X851743Y-3408742D01*
G01X853515Y-3407955D01*
G01X855682Y-3407167D01*
G01X857454Y-3406576D01*
G01X861788Y-3405788D01*
G01X865924Y-3405197D01*
G01X867697Y-3405000D01*
G01X873212Y-3404212D01*
G01X877939Y-3403424D01*
G01X879909Y-3403030D01*
G01X881485Y-3402636D01*
G01X882864Y-3402439D01*
G01X884439Y-3402045D01*
G01X886212Y-3401455D01*
G01X887197Y-3401258D01*
G01X887197Y-3399485D01*
G01X887000Y-3395939D01*
G01X886409Y-3392788D01*
G01X885621Y-3390818D01*
G01X884833Y-3389439D01*
G01X883848Y-3388258D01*
G01X882864Y-3387470D01*
G01X881485Y-3386682D01*
G01X879712Y-3385894D01*
G01X877939Y-3385303D01*
G01X876364Y-3384909D01*
G01X871636Y-3384515D01*
G01X870652Y-3384515D01*
G01X868682Y-3384712D01*
G01X865727Y-3384909D01*
G01X863757Y-3385303D01*
G01X862182Y-3385697D01*
G01X860803Y-3386288D01*
G01X859621Y-3386879D01*
G01X858439Y-3387667D01*
G01X857454Y-3388652D01*
G01X856273Y-3390030D01*
G01X855288Y-3391606D01*
G01X854500Y-3393182D01*
G01X853909Y-3394758D01*
G01X853515Y-3396333D01*
G01X853318Y-3397318D01*
G01X851939Y-3397121D01*
G01X849576Y-3396727D01*
G01X846818Y-3396333D01*
G01X843667Y-3395939D01*
G01X842288Y-3395742D01*
G01X842485Y-3394758D01*
G01X843667Y-3391212D01*
G01X844258Y-3389636D01*
G01X845046Y-3388060D01*
G01X846030Y-3386288D01*
G01X847015Y-3384712D01*
G01X848000Y-3383530D01*
G01X849970Y-3381561D01*
G01X850955Y-3380773D01*
G01X853318Y-3379197D01*
G01X854500Y-3378606D01*
G01X855879Y-3378015D01*
G01X857454Y-3377424D01*
G01X859227Y-3376833D01*
G01X861197Y-3376242D01*
G01X862970Y-3375848D01*
G01X866121Y-3375454D01*
G01X871439Y-3375258D01*
G01X877939Y-3375454D01*
G01X880697Y-3375848D01*
G01X882667Y-3376242D01*
G01X885818Y-3377030D01*
G01X887394Y-3377621D01*
G01X891727Y-3379788D01*
G01X892712Y-3380576D01*
G01X894682Y-3382545D01*
G01X895667Y-3383924D01*
G01X896651Y-3385697D01*
G01X897439Y-3387864D01*
G01X898030Y-3389636D01*
G01X898424Y-3393182D01*
G01X898818Y-3429030D01*
G01X899212Y-3434546D01*
G01X899606Y-3436515D01*
G01X900197Y-3439273D01*
G01X900985Y-3441243D01*
G01X901576Y-3442818D01*
G01X901773Y-3443803D01*
G01X896849Y-3443803D01*
G01X890939Y-3443606D01*
G01X890151Y-3443261D01*
G01X889758Y-3442621D01*
G01X889167Y-3441045D01*
G01X888576Y-3439076D01*
G01X888182Y-3436909D01*
G01X887935Y-3436220D01*
G01X887591Y-3436121D01*
G01X886606Y-3436712D01*
G01X883454Y-3439076D01*
G01X882470Y-3439864D01*
G01X879712Y-3441439D01*
G01X878530Y-3442030D01*
G01X877151Y-3442621D01*
G01X875379Y-3443409D01*
G01X872818Y-3444197D01*
G01X870848Y-3444788D01*
G01X868091Y-3445182D01*
G01X862773Y-3445379D01*
G37*
G36*
G01X940379Y-3471379D02*
G01X936242Y-3471182D01*
G01X934667Y-3470788D01*
G01X932303Y-3470394D01*
G01X929742Y-3469803D01*
G01X927970Y-3469212D01*
G01X926394Y-3468621D01*
G01X924818Y-3467833D01*
G01X923045Y-3466848D01*
G01X921273Y-3465667D01*
G01X919894Y-3464485D01*
G01X917924Y-3462515D01*
G01X917136Y-3461530D01*
G01X916348Y-3460152D01*
G01X915561Y-3458379D01*
G01X914970Y-3456409D01*
G01X914576Y-3454636D01*
G01X914379Y-3452470D01*
G01X914576Y-3450303D01*
G01X914871Y-3449909D01*
G01X915364Y-3449909D01*
G01X920879Y-3450697D01*
G01X923243Y-3451091D01*
G01X925212Y-3451682D01*
G01X925803Y-3453257D01*
G01X926591Y-3455424D01*
G01X927379Y-3456803D01*
G01X928167Y-3457788D01*
G01X929152Y-3458773D01*
G01X930333Y-3459561D01*
G01X931515Y-3460152D01*
G01X932894Y-3460742D01*
G01X934864Y-3461333D01*
G01X936636Y-3461727D01*
G01X940182Y-3461924D01*
G01X944121Y-3461727D01*
G01X946485Y-3461333D01*
G01X949045Y-3460742D01*
G01X950818Y-3459954D01*
G01X952197Y-3459364D01*
G01X953379Y-3458576D01*
G01X954364Y-3457788D01*
G01X955152Y-3457000D01*
G01X955939Y-3456015D01*
G01X956924Y-3454833D01*
G01X957712Y-3453455D01*
G01X958303Y-3452076D01*
G01X958894Y-3450500D01*
G01X959288Y-3448727D01*
G01X959485Y-3447152D01*
G01X959682Y-3441243D01*
G01X959288Y-3435727D01*
G01X958697Y-3436121D01*
G01X957909Y-3437106D01*
G01X956924Y-3437894D01*
G01X955545Y-3439076D01*
G01X953576Y-3440455D01*
G01X952000Y-3441439D01*
G01X950621Y-3442030D01*
G01X949045Y-3442621D01*
G01X947273Y-3443212D01*
G01X945697Y-3443606D01*
G01X941364Y-3443803D01*
G01X937030Y-3443606D01*
G01X935651Y-3443409D01*
G01X933485Y-3443015D01*
G01X930924Y-3442227D01*
G01X929152Y-3441439D01*
G01X927576Y-3440651D01*
G01X925803Y-3439667D01*
G01X924030Y-3438485D01*
G01X922651Y-3437303D01*
G01X920682Y-3435333D01*
G01X918318Y-3432182D01*
G01X916348Y-3429030D01*
G01X915561Y-3427455D01*
G01X914773Y-3425485D01*
G01X913985Y-3423318D01*
G01X913394Y-3421546D01*
G01X912606Y-3418000D01*
G01X912212Y-3414849D01*
G01X912015Y-3411106D01*
G01X912110Y-3408742D01*
G01X923833Y-3408742D01*
G01X924030Y-3414849D01*
G01X924621Y-3418985D01*
G01X925015Y-3420561D01*
G01X925606Y-3422333D01*
G01X926197Y-3423909D01*
G01X926985Y-3425485D01*
G01X927773Y-3426864D01*
G01X928364Y-3427849D01*
G01X929152Y-3428833D01*
G01X931121Y-3430803D01*
G01X932500Y-3431788D01*
G01X934076Y-3432773D01*
G01X935849Y-3433561D01*
G01X937424Y-3434152D01*
G01X939788Y-3434348D01*
G01X939788Y-3434348D01*
G01X941758Y-3434546D01*
G01X942348Y-3434546D01*
G01X943727Y-3434348D01*
G01X945697Y-3434152D01*
G01X947273Y-3433758D01*
G01X949045Y-3433167D01*
G01X951015Y-3432182D01*
G01X952788Y-3431000D01*
G01X954167Y-3429818D01*
G01X955152Y-3428833D01*
G01X956333Y-3427455D01*
G01X957318Y-3426076D01*
G01X958106Y-3424697D01*
G01X958894Y-3422727D01*
G01X959485Y-3421152D01*
G01X960273Y-3417212D01*
G01X960667Y-3413273D01*
G01X960864Y-3410318D01*
G01X960667Y-3407364D01*
G01X960273Y-3403424D01*
G01X960076Y-3402045D01*
G01X959682Y-3399879D01*
G01X958894Y-3397318D01*
G01X958106Y-3395545D01*
G01X957318Y-3393970D01*
G01X956530Y-3392591D01*
G01X955939Y-3391606D01*
G01X955152Y-3390621D01*
G01X952788Y-3388258D01*
G01X951015Y-3387076D01*
G01X949636Y-3386288D01*
G01X948257Y-3385697D01*
G01X946682Y-3385106D01*
G01X944712Y-3384712D01*
G01X942939Y-3384515D01*
G01X941758Y-3384515D01*
G01X940379Y-3384712D01*
G01X938606Y-3384909D01*
G01X937030Y-3385303D01*
G01X935651Y-3385697D01*
G01X933288Y-3386879D01*
G01X932106Y-3387667D01*
G01X929348Y-3390030D01*
G01X928167Y-3391606D01*
G01X926985Y-3393379D01*
G01X926197Y-3394758D01*
G01X925606Y-3396333D01*
G01X925015Y-3398106D01*
G01X924424Y-3400470D01*
G01X924030Y-3402636D01*
G01X923833Y-3408742D01*
G01X912110Y-3408742D01*
G01X912212Y-3406182D01*
G01X912606Y-3403424D01*
G01X913000Y-3401061D01*
G01X913591Y-3398303D01*
G01X914379Y-3395742D01*
G01X915167Y-3393379D01*
G01X915954Y-3391606D01*
G01X917727Y-3388060D01*
G01X919697Y-3385303D01*
G01X920879Y-3383924D01*
G01X923439Y-3381364D01*
G01X925409Y-3379788D01*
G01X926788Y-3378803D01*
G01X928758Y-3377818D01*
G01X930530Y-3377030D01*
G01X932106Y-3376439D01*
G01X934076Y-3375848D01*
G01X935849Y-3375454D01*
G01X940182Y-3375258D01*
G01X944515Y-3375454D01*
G01X946682Y-3375848D01*
G01X949045Y-3376439D01*
G01X950621Y-3377030D01*
G01X952394Y-3377818D01*
G01X953970Y-3378803D01*
G01X955348Y-3379591D01*
G01X956530Y-3380576D01*
G01X957909Y-3381757D01*
G01X960273Y-3384121D01*
G01X960716Y-3383284D01*
G01X960864Y-3380379D01*
G01X960864Y-3376439D01*
G01X965197Y-3376439D01*
G01X970515Y-3376636D01*
G01X971500Y-3376833D01*
G01X971500Y-3407167D01*
G01X971303Y-3438091D01*
G01X970909Y-3444394D01*
G01X970712Y-3445970D01*
G01X970515Y-3447939D01*
G01X969727Y-3451879D01*
G01X969136Y-3454242D01*
G01X968349Y-3456212D01*
G01X967561Y-3457788D01*
G01X966576Y-3459561D01*
G01X965197Y-3461333D01*
G01X964015Y-3462909D01*
G01X961652Y-3464879D01*
G01X960273Y-3466061D01*
G01X958697Y-3467045D01*
G01X955545Y-3468621D01*
G01X953970Y-3469212D01*
G01X952197Y-3469803D01*
G01X950030Y-3470394D01*
G01X948061Y-3470788D01*
G01X944121Y-3471182D01*
G01X940379Y-3471379D01*
G37*
G36*
G01X1015818Y-3445379D02*
G01X1010303Y-3445182D01*
G01X1007939Y-3444591D01*
G01X1005970Y-3444000D01*
G01X1004394Y-3443606D01*
G01X1002818Y-3443015D01*
G01X999273Y-3441243D01*
G01X997500Y-3440061D01*
G01X995727Y-3438682D01*
G01X994151Y-3437500D01*
G01X992773Y-3436121D01*
G01X991197Y-3434152D01*
G01X989818Y-3432182D01*
G01X988833Y-3430606D01*
G01X988046Y-3429030D01*
G01X987258Y-3427258D01*
G01X986076Y-3423712D01*
G01X985485Y-3421546D01*
G01X985091Y-3419576D01*
G01X984697Y-3416424D01*
G01X984500Y-3411106D01*
G01X984566Y-3409333D01*
G01X996121Y-3409333D01*
G01X996121Y-3410318D01*
G01X996318Y-3413076D01*
G01X996515Y-3416424D01*
G01X996909Y-3418788D01*
G01X997500Y-3421546D01*
G01X998288Y-3423712D01*
G01X999076Y-3425485D01*
G01X999864Y-3427061D01*
G01X1000848Y-3428636D01*
G01X1002030Y-3430015D01*
G01X1004394Y-3432379D01*
G01X1006167Y-3433561D01*
G01X1007545Y-3434348D01*
G01X1009318Y-3435136D01*
G01X1011091Y-3435727D01*
G01X1013454Y-3435924D01*
G01X1013454Y-3435924D01*
G01X1015424Y-3436121D01*
G01X1016212Y-3436121D01*
G01X1017591Y-3435924D01*
G01X1019758Y-3435727D01*
G01X1022121Y-3435136D01*
G01X1024091Y-3434348D01*
G01X1025864Y-3433364D01*
G01X1027242Y-3432576D01*
G01X1028227Y-3431788D01*
G01X1030197Y-3429818D01*
G01X1031379Y-3428243D01*
G01X1032561Y-3426470D01*
G01X1033348Y-3424894D01*
G01X1034136Y-3422924D01*
G01X1034727Y-3421152D01*
G01X1035515Y-3416818D01*
G01X1035712Y-3410909D01*
G01X1035515Y-3405000D01*
G01X1035121Y-3402636D01*
G01X1034530Y-3399485D01*
G01X1033742Y-3397318D01*
G01X1032955Y-3395545D01*
G01X1031970Y-3393576D01*
G01X1030000Y-3390818D01*
G01X1028818Y-3389439D01*
G01X1026849Y-3387864D01*
G01X1025667Y-3387076D01*
G01X1024288Y-3386288D01*
G01X1022318Y-3385500D01*
G01X1020545Y-3384909D01*
G01X1017000Y-3384515D01*
G01X1015227Y-3384515D01*
G01X1012273Y-3384909D01*
G01X1009712Y-3385500D01*
G01X1007939Y-3386288D01*
G01X1005970Y-3387273D01*
G01X1004591Y-3388258D01*
G01X1003606Y-3389046D01*
G01X1001636Y-3391015D01*
G01X1000454Y-3392394D01*
G01X999470Y-3393970D01*
G01X998682Y-3395545D01*
G01X997894Y-3397515D01*
G01X997303Y-3399091D01*
G01X996515Y-3403030D01*
G01X996121Y-3409333D01*
G01X984566Y-3409333D01*
G01X984697Y-3405788D01*
G01X984894Y-3404212D01*
G01X985091Y-3402242D01*
G01X985485Y-3400667D01*
G01X985879Y-3398697D01*
G01X986470Y-3396136D01*
G01X987258Y-3393970D01*
G01X988046Y-3392000D01*
G01X989030Y-3390030D01*
G01X990015Y-3388454D01*
G01X990803Y-3387273D01*
G01X991591Y-3386288D01*
G01X992379Y-3385106D01*
G01X993757Y-3383727D01*
G01X995136Y-3382545D01*
G01X996121Y-3381561D01*
G01X997500Y-3380576D01*
G01X999076Y-3379591D01*
G01X1000258Y-3378803D01*
G01X1001439Y-3378212D01*
G01X1002818Y-3377621D01*
G01X1004394Y-3377030D01*
G01X1006167Y-3376439D01*
G01X1008333Y-3375848D01*
G01X1010303Y-3375454D01*
G01X1015227Y-3375258D01*
G01X1020151Y-3375454D01*
G01X1022515Y-3375848D01*
G01X1025470Y-3376439D01*
G01X1027833Y-3377227D01*
G01X1029606Y-3378015D01*
G01X1031182Y-3378803D01*
G01X1032561Y-3379591D01*
G01X1033742Y-3380182D01*
G01X1034924Y-3380970D01*
G01X1037682Y-3383333D01*
G01X1040045Y-3385697D01*
G01X1041227Y-3387273D01*
G01X1042015Y-3388258D01*
G01X1042803Y-3389636D01*
G01X1044773Y-3393576D01*
G01X1045561Y-3395742D01*
G01X1046152Y-3397515D01*
G01X1046939Y-3401061D01*
G01X1047333Y-3404606D01*
G01X1047530Y-3409333D01*
G01X1047333Y-3414061D01*
G01X1046939Y-3417606D01*
G01X1046742Y-3419182D01*
G01X1046348Y-3421546D01*
G01X1045758Y-3423515D01*
G01X1045364Y-3425091D01*
G01X1044773Y-3426864D01*
G01X1043985Y-3428636D01*
G01X1043197Y-3430212D01*
G01X1042212Y-3431788D01*
G01X1040833Y-3433758D01*
G01X1039651Y-3435333D01*
G01X1036697Y-3438288D01*
G01X1035318Y-3439273D01*
G01X1033546Y-3440455D01*
G01X1031970Y-3441439D01*
G01X1028818Y-3443015D01*
G01X1027045Y-3443606D01*
G01X1025076Y-3444197D01*
G01X1022909Y-3444788D01*
G01X1020939Y-3445182D01*
G01X1015818Y-3445379D01*
G37*
G36*
G01X1060924Y-3443803D02*
G01X1060924Y-3376439D01*
G01X1065061Y-3376439D01*
G01X1070182Y-3376636D01*
G01X1071167Y-3376833D01*
G01X1071167Y-3381167D01*
G01X1071314Y-3384367D01*
G01X1071758Y-3385303D01*
G01X1072939Y-3384121D01*
G01X1074121Y-3382742D01*
G01X1076091Y-3380773D01*
G01X1077667Y-3379591D01*
G01X1079439Y-3378409D01*
G01X1080818Y-3377621D01*
G01X1082197Y-3377030D01*
G01X1083773Y-3376439D01*
G01X1085742Y-3375848D01*
G01X1087515Y-3375454D01*
G01X1091848Y-3375258D01*
G01X1096576Y-3375454D01*
G01X1098545Y-3375848D01*
G01X1101697Y-3376636D01*
G01X1103273Y-3377227D01*
G01X1106818Y-3379000D01*
G01X1108197Y-3379985D01*
G01X1109182Y-3380773D01*
G01X1110757Y-3382349D01*
G01X1111939Y-3383727D01*
G01X1112924Y-3385303D01*
G01X1113712Y-3387076D01*
G01X1115091Y-3391212D01*
G01X1115485Y-3394758D01*
G01X1115682Y-3419576D01*
G01X1115682Y-3443803D01*
G01X1104258Y-3443803D01*
G01X1104258Y-3421348D01*
G01X1104061Y-3398303D01*
G01X1103864Y-3396727D01*
G01X1103470Y-3394364D01*
G01X1102682Y-3392000D01*
G01X1101894Y-3390621D01*
G01X1100909Y-3389242D01*
G01X1099333Y-3387667D01*
G01X1097758Y-3386682D01*
G01X1095985Y-3385894D01*
G01X1094212Y-3385303D01*
G01X1091061Y-3385106D01*
G01X1086727Y-3385303D01*
G01X1084167Y-3385894D01*
G01X1080621Y-3387470D01*
G01X1078848Y-3388652D01*
G01X1077273Y-3389833D01*
G01X1076288Y-3390818D01*
G01X1075303Y-3392197D01*
G01X1074515Y-3393773D01*
G01X1073924Y-3395349D01*
G01X1073333Y-3397121D01*
G01X1072939Y-3398697D01*
G01X1072545Y-3401848D01*
G01X1072348Y-3423121D01*
G01X1072348Y-3443803D01*
G01X1060924Y-3443803D01*
G37*
G36*
G01X1195651Y-3445773D02*
G01X1194273Y-3445576D01*
G01X1192697Y-3445379D01*
G01X1190727Y-3445182D01*
G01X1188560Y-3444788D01*
G01X1186197Y-3444197D01*
G01X1184424Y-3443606D01*
G01X1182849Y-3443015D01*
G01X1181273Y-3442227D01*
G01X1179500Y-3441243D01*
G01X1178121Y-3440455D01*
G01X1175167Y-3438091D01*
G01X1174182Y-3437106D01*
G01X1172606Y-3435136D01*
G01X1171424Y-3433758D01*
G01X1170439Y-3432379D01*
G01X1169651Y-3431000D01*
G01X1168864Y-3429424D01*
G01X1168076Y-3427651D01*
G01X1167288Y-3425091D01*
G01X1166697Y-3423121D01*
G01X1166500Y-3421152D01*
G01X1166894Y-3419576D01*
G01X1167879Y-3419182D01*
G01X1170636Y-3418788D01*
G01X1173788Y-3418394D01*
G01X1175954Y-3418197D01*
G01X1177235Y-3418394D01*
G01X1177924Y-3418985D01*
G01X1178515Y-3421152D01*
G01X1179106Y-3423121D01*
G01X1179697Y-3424697D01*
G01X1180485Y-3426667D01*
G01X1181667Y-3428636D01*
G01X1182651Y-3430015D01*
G01X1183439Y-3431000D01*
G01X1184818Y-3432379D01*
G01X1186394Y-3433561D01*
G01X1187576Y-3434348D01*
G01X1189348Y-3435136D01*
G01X1191121Y-3435727D01*
G01X1195257Y-3436318D01*
G01X1196636Y-3436121D01*
G01X1198409Y-3435924D01*
G01X1200773Y-3435530D01*
G01X1202545Y-3434939D01*
G01X1204121Y-3434348D01*
G01X1206879Y-3432970D01*
G01X1207864Y-3432182D01*
G01X1210424Y-3429621D01*
G01X1211606Y-3428243D01*
G01X1212591Y-3426864D01*
G01X1213379Y-3425485D01*
G01X1214167Y-3423318D01*
G01X1214758Y-3421546D01*
G01X1214955Y-3418000D01*
G01X1214758Y-3413667D01*
G01X1214167Y-3411106D01*
G01X1213379Y-3408939D01*
G01X1212591Y-3407364D01*
G01X1211803Y-3405985D01*
G01X1210818Y-3404803D01*
G01X1208455Y-3402439D01*
G01X1206682Y-3401258D01*
G01X1205303Y-3400470D01*
G01X1203727Y-3399879D01*
G01X1201954Y-3399288D01*
G01X1199985Y-3398894D01*
G01X1197818Y-3398697D01*
G01X1196242Y-3398697D01*
G01X1192697Y-3399091D01*
G01X1190727Y-3399485D01*
G01X1189152Y-3399288D01*
G01X1189152Y-3398303D01*
G01X1189939Y-3392000D01*
G01X1190136Y-3390621D01*
G01X1190284Y-3390080D01*
G01X1190727Y-3390030D01*
G01X1191909Y-3390030D01*
G01X1193288Y-3389833D01*
G01X1195849Y-3389636D01*
G01X1198803Y-3389046D01*
G01X1201167Y-3388258D01*
G01X1202742Y-3387470D01*
G01X1205500Y-3385894D01*
G01X1207470Y-3384318D01*
G01X1208651Y-3382939D01*
G01X1209833Y-3380970D01*
G01X1210424Y-3379394D01*
G01X1210818Y-3377030D01*
G01X1210818Y-3374273D01*
G01X1210424Y-3371515D01*
G01X1209833Y-3368955D01*
G01X1209045Y-3367379D01*
G01X1208257Y-3366197D01*
G01X1207273Y-3364818D01*
G01X1206091Y-3363636D01*
G01X1205106Y-3362848D01*
G01X1203727Y-3361864D01*
G01X1202152Y-3361076D01*
G01X1200182Y-3360485D01*
G01X1198212Y-3360091D01*
G01X1196439Y-3359894D01*
G01X1193879Y-3360091D01*
G01X1191515Y-3360485D01*
G01X1189348Y-3361076D01*
G01X1187182Y-3362061D01*
G01X1185803Y-3363046D01*
G01X1184818Y-3363833D01*
G01X1182849Y-3365803D01*
G01X1181864Y-3367182D01*
G01X1181076Y-3368758D01*
G01X1180288Y-3370530D01*
G01X1179500Y-3373091D01*
G01X1178909Y-3375454D01*
G01X1178712Y-3376439D01*
G01X1176939Y-3376242D01*
G01X1174576Y-3375848D01*
G01X1170243Y-3375061D01*
G01X1168667Y-3374864D01*
G01X1167682Y-3374667D01*
G01X1167879Y-3373485D01*
G01X1168667Y-3370333D01*
G01X1169258Y-3368561D01*
G01X1170045Y-3366591D01*
G01X1170833Y-3364818D01*
G01X1171621Y-3363440D01*
G01X1172409Y-3362258D01*
G01X1173000Y-3361273D01*
G01X1173788Y-3360288D01*
G01X1174773Y-3359106D01*
G01X1175954Y-3357924D01*
G01X1177136Y-3356939D01*
G01X1179106Y-3355364D01*
G01X1180485Y-3354379D01*
G01X1182455Y-3353394D01*
G01X1184227Y-3352606D01*
G01X1185803Y-3352015D01*
G01X1187773Y-3351424D01*
G01X1189546Y-3351030D01*
G01X1191121Y-3350833D01*
G01X1193485Y-3350636D01*
G01X1195455Y-3350636D01*
G01X1197030Y-3350833D01*
G01X1199788Y-3351030D01*
G01X1202939Y-3351621D01*
G01X1205500Y-3352409D01*
G01X1207470Y-3353197D01*
G01X1209242Y-3353985D01*
G01X1210621Y-3354773D01*
G01X1211803Y-3355364D01*
G01X1212985Y-3356151D01*
G01X1214955Y-3357727D01*
G01X1216924Y-3359697D01*
G01X1218106Y-3361273D01*
G01X1219288Y-3363046D01*
G01X1220076Y-3364424D01*
G01X1220667Y-3365803D01*
G01X1221258Y-3367379D01*
G01X1221848Y-3369151D01*
G01X1222242Y-3370727D01*
G01X1222439Y-3374076D01*
G01X1222242Y-3377818D01*
G01X1221455Y-3380970D01*
G01X1220864Y-3382545D01*
G01X1220076Y-3384121D01*
G01X1218894Y-3386091D01*
G01X1217712Y-3387667D01*
G01X1215742Y-3389636D01*
G01X1214364Y-3390818D01*
G01X1212591Y-3392000D01*
G01X1211015Y-3392788D01*
G01X1210474Y-3393083D01*
G01X1210424Y-3393576D01*
G01X1210867Y-3394068D01*
G01X1211803Y-3394364D01*
G01X1213576Y-3394955D01*
G01X1216727Y-3396530D01*
G01X1217909Y-3397318D01*
G01X1219879Y-3398894D01*
G01X1221848Y-3400864D01*
G01X1223030Y-3402242D01*
G01X1224015Y-3403818D01*
G01X1224803Y-3405394D01*
G01X1225591Y-3407167D01*
G01X1226182Y-3408939D01*
G01X1226576Y-3410515D01*
G01X1226970Y-3413273D01*
G01X1227167Y-3416227D01*
G01X1226970Y-3419182D01*
G01X1226576Y-3421940D01*
G01X1226182Y-3423712D01*
G01X1225591Y-3425682D01*
G01X1224803Y-3427651D01*
G01X1223818Y-3429818D01*
G01X1222833Y-3431394D01*
G01X1222045Y-3432576D01*
G01X1221258Y-3433561D01*
G01X1220076Y-3434939D01*
G01X1218894Y-3436515D01*
G01X1216924Y-3438091D01*
G01X1215939Y-3439076D01*
G01X1214561Y-3440061D01*
G01X1212985Y-3441045D01*
G01X1211803Y-3441833D01*
G01X1210621Y-3442424D01*
G01X1209242Y-3443015D01*
G01X1207667Y-3443606D01*
G01X1205894Y-3444197D01*
G01X1203727Y-3444788D01*
G01X1201758Y-3445182D01*
G01X1197424Y-3445576D01*
G01X1195651Y-3445773D01*
G37*
G36*
G01X1244697Y-3443655D02*
G01X1237015Y-3443212D01*
G01X1237606Y-3439667D01*
G01X1238197Y-3437106D01*
G01X1238985Y-3435136D01*
G01X1239773Y-3433364D01*
G01X1240561Y-3431788D01*
G01X1241545Y-3430015D01*
G01X1243909Y-3426470D01*
G01X1245288Y-3424697D01*
G01X1246470Y-3423121D01*
G01X1254349Y-3415243D01*
G01X1259864Y-3410515D01*
G01X1261833Y-3408939D01*
G01X1262818Y-3407955D01*
G01X1263803Y-3407167D01*
G01X1265182Y-3405985D01*
G01X1266757Y-3404803D01*
G01X1267742Y-3403818D01*
G01X1269712Y-3402242D01*
G01X1273652Y-3398303D01*
G01X1274636Y-3397515D01*
G01X1276015Y-3396333D01*
G01X1277197Y-3394758D01*
G01X1279561Y-3392394D01*
G01X1281136Y-3390424D01*
G01X1282515Y-3388454D01*
G01X1283697Y-3386485D01*
G01X1284682Y-3384515D01*
G01X1285470Y-3382742D01*
G01X1286061Y-3380970D01*
G01X1286455Y-3379394D01*
G01X1286651Y-3377424D01*
G01X1286455Y-3374273D01*
G01X1285864Y-3371318D01*
G01X1285076Y-3369349D01*
G01X1284091Y-3367576D01*
G01X1283106Y-3366197D01*
G01X1282318Y-3365212D01*
G01X1281333Y-3364227D01*
G01X1280348Y-3363440D01*
G01X1279167Y-3362652D01*
G01X1277788Y-3361864D01*
G01X1276015Y-3361076D01*
G01X1274242Y-3360485D01*
G01X1271091Y-3360091D01*
G01X1269712Y-3359894D01*
G01X1268333Y-3360091D01*
G01X1264788Y-3360485D01*
G01X1263015Y-3360879D01*
G01X1261242Y-3361470D01*
G01X1259667Y-3362258D01*
G01X1258288Y-3363046D01*
G01X1257106Y-3363833D01*
G01X1255530Y-3365212D01*
G01X1253955Y-3367182D01*
G01X1252773Y-3369151D01*
G01X1251985Y-3371318D01*
G01X1251394Y-3373091D01*
G01X1251197Y-3374667D01*
G01X1251000Y-3376636D01*
G01X1250606Y-3378015D01*
G01X1249030Y-3378409D01*
G01X1247060Y-3378212D01*
G01X1243515Y-3377818D01*
G01X1241151Y-3377621D01*
G01X1239822Y-3377424D01*
G01X1239379Y-3376833D01*
G01X1239576Y-3375454D01*
G01X1239970Y-3373485D01*
G01X1240561Y-3370727D01*
G01X1241349Y-3368167D01*
G01X1242136Y-3366394D01*
G01X1243909Y-3362848D01*
G01X1244894Y-3361470D01*
G01X1245682Y-3360288D01*
G01X1246667Y-3359106D01*
G01X1247652Y-3358121D01*
G01X1249621Y-3356545D01*
G01X1250803Y-3355561D01*
G01X1251985Y-3354773D01*
G01X1253364Y-3353985D01*
G01X1255136Y-3353197D01*
G01X1257106Y-3352409D01*
G01X1258879Y-3351818D01*
G01X1262424Y-3351030D01*
G01X1264394Y-3350833D01*
G01X1267545Y-3350636D01*
G01X1269909Y-3350636D01*
G01X1271879Y-3350833D01*
G01X1274636Y-3351030D01*
G01X1276606Y-3351424D01*
G01X1277985Y-3351621D01*
G01X1279561Y-3352015D01*
G01X1281333Y-3352606D01*
G01X1282909Y-3353197D01*
G01X1286455Y-3354970D01*
G01X1289212Y-3356939D01*
G01X1290591Y-3358121D01*
G01X1292561Y-3360091D01*
G01X1293348Y-3361076D01*
G01X1294924Y-3363440D01*
G01X1295712Y-3364818D01*
G01X1296500Y-3366591D01*
G01X1297288Y-3368758D01*
G01X1297879Y-3370727D01*
G01X1298273Y-3373485D01*
G01X1298470Y-3375061D01*
G01X1298273Y-3377818D01*
G01X1297879Y-3380576D01*
G01X1297485Y-3382545D01*
G01X1297091Y-3384121D01*
G01X1296500Y-3385894D01*
G01X1295712Y-3387667D01*
G01X1293939Y-3391212D01*
G01X1292758Y-3392985D01*
G01X1291970Y-3394364D01*
G01X1289606Y-3397318D01*
G01X1288621Y-3398303D01*
G01X1287045Y-3400273D01*
G01X1282121Y-3405197D01*
G01X1280151Y-3406773D01*
G01X1277788Y-3409136D01*
G01X1276212Y-3410318D01*
G01X1275227Y-3411303D01*
G01X1272470Y-3413667D01*
G01X1270106Y-3415636D01*
G01X1264591Y-3420364D01*
G01X1262227Y-3422333D01*
G01X1260258Y-3424303D01*
G01X1258879Y-3425485D01*
G01X1257303Y-3427061D01*
G01X1254939Y-3429818D01*
G01X1253955Y-3431197D01*
G01X1253364Y-3432379D01*
G01X1253167Y-3433167D01*
G01X1298470Y-3433167D01*
G01X1298470Y-3443803D01*
G01X1267742Y-3443803D01*
G01X1244697Y-3443655D01*
G37*
G36*
G01X1305561Y-3445773D02*
G01X1305758Y-3444591D01*
G01X1306939Y-3440651D01*
G01X1307530Y-3438288D01*
G01X1308121Y-3436515D01*
G01X1308515Y-3434742D01*
G01X1309697Y-3430803D01*
G01X1310288Y-3428439D01*
G01X1310879Y-3426667D01*
G01X1311273Y-3424894D01*
G01X1312455Y-3420955D01*
G01X1313045Y-3418591D01*
G01X1313636Y-3416818D01*
G01X1314030Y-3415045D01*
G01X1315212Y-3411106D01*
G01X1315803Y-3408742D01*
G01X1316394Y-3406970D01*
G01X1316788Y-3405394D01*
G01X1317379Y-3403227D01*
G01X1317970Y-3401455D01*
G01X1318954Y-3397515D01*
G01X1321318Y-3389242D01*
G01X1321909Y-3387273D01*
G01X1322303Y-3385697D01*
G01X1322894Y-3383530D01*
G01X1323485Y-3381757D01*
G01X1324470Y-3377818D01*
G01X1326833Y-3369545D01*
G01X1327424Y-3367576D01*
G01X1327818Y-3366000D01*
G01X1328409Y-3363833D01*
G01X1329000Y-3362061D01*
G01X1329394Y-3360288D01*
G01X1330576Y-3356349D01*
G01X1331167Y-3353985D01*
G01X1331758Y-3352212D01*
G01X1332152Y-3350439D01*
G01X1332348Y-3349258D01*
G01X1336288Y-3349258D01*
G01X1340818Y-3349455D01*
G01X1341163Y-3349898D01*
G01X1341015Y-3350833D01*
G01X1340424Y-3352606D01*
G01X1340030Y-3354379D01*
G01X1338848Y-3358318D01*
G01X1338257Y-3360682D01*
G01X1337667Y-3362454D01*
G01X1337273Y-3364227D01*
G01X1336091Y-3368167D01*
G01X1335500Y-3370530D01*
G01X1334909Y-3372303D01*
G01X1334515Y-3374076D01*
G01X1333333Y-3378015D01*
G01X1332742Y-3380379D01*
G01X1332152Y-3382151D01*
G01X1331758Y-3383924D01*
G01X1330576Y-3387864D01*
G01X1329985Y-3390227D01*
G01X1329394Y-3392000D01*
G01X1328409Y-3395939D01*
G01X1326045Y-3404212D01*
G01X1325455Y-3406182D01*
G01X1325061Y-3407758D01*
G01X1324470Y-3409924D01*
G01X1323879Y-3411697D01*
G01X1322894Y-3415636D01*
G01X1320530Y-3423909D01*
G01X1319939Y-3425879D01*
G01X1319545Y-3427455D01*
G01X1318954Y-3429621D01*
G01X1318364Y-3431394D01*
G01X1317379Y-3435333D01*
G01X1315803Y-3440849D01*
G01X1315212Y-3442818D01*
G01X1314818Y-3444591D01*
G01X1314621Y-3445773D01*
G01X1305561Y-3445773D01*
G37*
G36*
G01X1378439Y-3445379D02*
G01X1373121Y-3445182D01*
G01X1371939Y-3444788D01*
G01X1370167Y-3444394D01*
G01X1368197Y-3443803D01*
G01X1366227Y-3443015D01*
G01X1364061Y-3442030D01*
G01X1362485Y-3441045D01*
G01X1361303Y-3440455D01*
G01X1360318Y-3439667D01*
G01X1357561Y-3437303D01*
G01X1355591Y-3435333D01*
G01X1354803Y-3434348D01*
G01X1353818Y-3432970D01*
G01X1352636Y-3431000D01*
G01X1351652Y-3429424D01*
G01X1350470Y-3426667D01*
G01X1349879Y-3425091D01*
G01X1348697Y-3421546D01*
G01X1348303Y-3419970D01*
G01X1347515Y-3416030D01*
G01X1347121Y-3413273D01*
G01X1347085Y-3412879D01*
G01X1359530Y-3412879D01*
G01X1359727Y-3416818D01*
G01X1360121Y-3419182D01*
G01X1360909Y-3422333D01*
G01X1361500Y-3423909D01*
G01X1363273Y-3427455D01*
G01X1364258Y-3428833D01*
G01X1365046Y-3430015D01*
G01X1366424Y-3431591D01*
G01X1368000Y-3432773D01*
G01X1368985Y-3433561D01*
G01X1370364Y-3434348D01*
G01X1372333Y-3435136D01*
G01X1373909Y-3435727D01*
G01X1375682Y-3435924D01*
G01X1375682Y-3435924D01*
G01X1377652Y-3436121D01*
G01X1379030Y-3436121D01*
G01X1380606Y-3435924D01*
G01X1382773Y-3435530D01*
G01X1384939Y-3434742D01*
G01X1387697Y-3433364D01*
G01X1388682Y-3432576D01*
G01X1391636Y-3429621D01*
G01X1392621Y-3428439D01*
G01X1393409Y-3427258D01*
G01X1394197Y-3425682D01*
G01X1394985Y-3423712D01*
G01X1395576Y-3421348D01*
G01X1395970Y-3419182D01*
G01X1396167Y-3415439D01*
G01X1395970Y-3411303D01*
G01X1395576Y-3408939D01*
G01X1394985Y-3406379D01*
G01X1394197Y-3404212D01*
G01X1393212Y-3402242D01*
G01X1392227Y-3400864D01*
G01X1391045Y-3399485D01*
G01X1388682Y-3397121D01*
G01X1387303Y-3396136D01*
G01X1385333Y-3395151D01*
G01X1383167Y-3394364D01*
G01X1381394Y-3393970D01*
G01X1379030Y-3393773D01*
G01X1375485Y-3393970D01*
G01X1372530Y-3394561D01*
G01X1370364Y-3395349D01*
G01X1368591Y-3396333D01*
G01X1367212Y-3397121D01*
G01X1366227Y-3397909D01*
G01X1363864Y-3400273D01*
G01X1362682Y-3401848D01*
G01X1361894Y-3403030D01*
G01X1361303Y-3404409D01*
G01X1360712Y-3405985D01*
G01X1360121Y-3407955D01*
G01X1359727Y-3409727D01*
G01X1359530Y-3412879D01*
G01X1347085Y-3412879D01*
G01X1346727Y-3408939D01*
G01X1346530Y-3400864D01*
G01X1346727Y-3392788D01*
G01X1346924Y-3391015D01*
G01X1347121Y-3388454D01*
G01X1347515Y-3385303D01*
G01X1347909Y-3382939D01*
G01X1348697Y-3379000D01*
G01X1349091Y-3377227D01*
G01X1350273Y-3373288D01*
G01X1350864Y-3371515D01*
G01X1352045Y-3368758D01*
G01X1353621Y-3365606D01*
G01X1354606Y-3364030D01*
G01X1355591Y-3362652D01*
G01X1356379Y-3361470D01*
G01X1357364Y-3360288D01*
G01X1360318Y-3357333D01*
G01X1361697Y-3356151D01*
G01X1363470Y-3354970D01*
G01X1365242Y-3353985D01*
G01X1366818Y-3353197D01*
G01X1368197Y-3352606D01*
G01X1369773Y-3352015D01*
G01X1371939Y-3351424D01*
G01X1373909Y-3351030D01*
G01X1375682Y-3350833D01*
G01X1378242Y-3350636D01*
G01X1380212Y-3350636D01*
G01X1381985Y-3350833D01*
G01X1384545Y-3351030D01*
G01X1386515Y-3351424D01*
G01X1388091Y-3351818D01*
G01X1390060Y-3352409D01*
G01X1392030Y-3353197D01*
G01X1393606Y-3353985D01*
G01X1395182Y-3354970D01*
G01X1396561Y-3355955D01*
G01X1397545Y-3356743D01*
G01X1400500Y-3359697D01*
G01X1401682Y-3361273D01*
G01X1402864Y-3363242D01*
G01X1403651Y-3364818D01*
G01X1404439Y-3366591D01*
G01X1405227Y-3369151D01*
G01X1405818Y-3371121D01*
G01X1406015Y-3372500D01*
G01X1405867Y-3373140D01*
G01X1405424Y-3373485D01*
G01X1404242Y-3373879D01*
G01X1399121Y-3374273D01*
G01X1396757Y-3374470D01*
G01X1394788Y-3374076D01*
G01X1394197Y-3372303D01*
G01X1393409Y-3370136D01*
G01X1392621Y-3368364D01*
G01X1391833Y-3366788D01*
G01X1391045Y-3365606D01*
G01X1390060Y-3364424D01*
G01X1388485Y-3363046D01*
G01X1386712Y-3361864D01*
G01X1385136Y-3361076D01*
G01X1383167Y-3360485D01*
G01X1381394Y-3360091D01*
G01X1379424Y-3359894D01*
G01X1377060Y-3360091D01*
G01X1375091Y-3360485D01*
G01X1372924Y-3361076D01*
G01X1371349Y-3361864D01*
G01X1369970Y-3362652D01*
G01X1368591Y-3363636D01*
G01X1367606Y-3364424D01*
G01X1366621Y-3365409D01*
G01X1365636Y-3366591D01*
G01X1364454Y-3367970D01*
G01X1363273Y-3369743D01*
G01X1362288Y-3371515D01*
G01X1361500Y-3373091D01*
G01X1360712Y-3374864D01*
G01X1359333Y-3379000D01*
G01X1358545Y-3383333D01*
G01X1358151Y-3386879D01*
G01X1357955Y-3391212D01*
G01X1358102Y-3393970D01*
G01X1358545Y-3394758D01*
G01X1359727Y-3393576D01*
G01X1360909Y-3392197D01*
G01X1363273Y-3389833D01*
G01X1364848Y-3388652D01*
G01X1366227Y-3387667D01*
G01X1368000Y-3386682D01*
G01X1369576Y-3385894D01*
G01X1371151Y-3385303D01*
G01X1372924Y-3384712D01*
G01X1375288Y-3384121D01*
G01X1378636Y-3383727D01*
G01X1381000Y-3383727D01*
G01X1382970Y-3383924D01*
G01X1385727Y-3384318D01*
G01X1387697Y-3384909D01*
G01X1389273Y-3385303D01*
G01X1390848Y-3385894D01*
G01X1392424Y-3386682D01*
G01X1394197Y-3387667D01*
G01X1395576Y-3388454D01*
G01X1398530Y-3390818D01*
G01X1399515Y-3391803D01*
G01X1401091Y-3393773D01*
G01X1402273Y-3395151D01*
G01X1403454Y-3396924D01*
G01X1404439Y-3398697D01*
G01X1405227Y-3400273D01*
G01X1405818Y-3401848D01*
G01X1406409Y-3403621D01*
G01X1407000Y-3405788D01*
G01X1407394Y-3407758D01*
G01X1407788Y-3412485D01*
G01X1407788Y-3413667D01*
G01X1407394Y-3418394D01*
G01X1407197Y-3419773D01*
G01X1406803Y-3421940D01*
G01X1406212Y-3423909D01*
G01X1405818Y-3425485D01*
G01X1405227Y-3427061D01*
G01X1404636Y-3428439D01*
G01X1403848Y-3430212D01*
G01X1402667Y-3432182D01*
G01X1401485Y-3433954D01*
G01X1400106Y-3435727D01*
G01X1398924Y-3437303D01*
G01X1396561Y-3439273D01*
G01X1395182Y-3440455D01*
G01X1393803Y-3441439D01*
G01X1392424Y-3442227D01*
G01X1390848Y-3443015D01*
G01X1389273Y-3443606D01*
G01X1387500Y-3444197D01*
G01X1385530Y-3444788D01*
G01X1383757Y-3445182D01*
G01X1378439Y-3445379D01*
G37*
G36*
G01X1456045Y-3443803D02*
G01X1456045Y-3421742D01*
G01X1415470Y-3421742D01*
G01X1415470Y-3417015D01*
G01X1415667Y-3411697D01*
G01X1416061Y-3410909D01*
G01X1427091Y-3410909D01*
G01X1441667Y-3411106D01*
G01X1456045Y-3411106D01*
G01X1456045Y-3391015D01*
G01X1455848Y-3370333D01*
G01X1455602Y-3369989D01*
G01X1455257Y-3370136D01*
G01X1454076Y-3371515D01*
G01X1452697Y-3373485D01*
G01X1451515Y-3375258D01*
G01X1449545Y-3378015D01*
G01X1448364Y-3379788D01*
G01X1442849Y-3387667D01*
G01X1441667Y-3389439D01*
G01X1439697Y-3392197D01*
G01X1438515Y-3393970D01*
G01X1436546Y-3396727D01*
G01X1435364Y-3398500D01*
G01X1433394Y-3401258D01*
G01X1432212Y-3403030D01*
G01X1429455Y-3406970D01*
G01X1428273Y-3408742D01*
G01X1427288Y-3410121D01*
G01X1427288Y-3410121D01*
G01X1427091Y-3410909D01*
G01X1416061Y-3410909D01*
G01X1416455Y-3410121D01*
G01X1419212Y-3406182D01*
G01X1421182Y-3403424D01*
G01X1423939Y-3399485D01*
G01X1425909Y-3396727D01*
G01X1431424Y-3388848D01*
G01X1433394Y-3386091D01*
G01X1436152Y-3382151D01*
G01X1438121Y-3379394D01*
G01X1443636Y-3371515D01*
G01X1445606Y-3368758D01*
G01X1451121Y-3360879D01*
G01X1453091Y-3358121D01*
G01X1455848Y-3354182D01*
G01X1456833Y-3352803D01*
G01X1457621Y-3351621D01*
G01X1459049Y-3351030D01*
G01X1462545Y-3350833D01*
G01X1467076Y-3350833D01*
G01X1467076Y-3411106D01*
G01X1479682Y-3411106D01*
G01X1479682Y-3421742D01*
G01X1467076Y-3421742D01*
G01X1467076Y-3443803D01*
G01X1456045Y-3443803D01*
G37*
G36*
G01X1571667Y-3445379D02*
G01X1564379Y-3445182D01*
G01X1563000Y-3444788D01*
G01X1561030Y-3444394D01*
G01X1558273Y-3443803D01*
G01X1555712Y-3443015D01*
G01X1553546Y-3442227D01*
G01X1548424Y-3439667D01*
G01X1547045Y-3438682D01*
G01X1546061Y-3438091D01*
G01X1543106Y-3435727D01*
G01X1542121Y-3434742D01*
G01X1540545Y-3432773D01*
G01X1539561Y-3431788D01*
G01X1538773Y-3430803D01*
G01X1537788Y-3429424D01*
G01X1536606Y-3427651D01*
G01X1535621Y-3425879D01*
G01X1534045Y-3422727D01*
G01X1533258Y-3420955D01*
G01X1532667Y-3419182D01*
G01X1531485Y-3416030D01*
G01X1530894Y-3413667D01*
G01X1530303Y-3411697D01*
G01X1529515Y-3407364D01*
G01X1529121Y-3404606D01*
G01X1528924Y-3397515D01*
G01X1529121Y-3390424D01*
G01X1529515Y-3387273D01*
G01X1529909Y-3385106D01*
G01X1530500Y-3382151D01*
G01X1531091Y-3380182D01*
G01X1531485Y-3378606D01*
G01X1533258Y-3373879D01*
G01X1535030Y-3370333D01*
G01X1537000Y-3367182D01*
G01X1538970Y-3364424D01*
G01X1540151Y-3363046D01*
G01X1544091Y-3359106D01*
G01X1547242Y-3356743D01*
G01X1550394Y-3354773D01*
G01X1555712Y-3352409D01*
G01X1558076Y-3351621D01*
G01X1560636Y-3350833D01*
G01X1563394Y-3350242D01*
G01X1565364Y-3349848D01*
G01X1570879Y-3349455D01*
G01X1572455Y-3349258D01*
G01X1574030Y-3349455D01*
G01X1576197Y-3349652D01*
G01X1578758Y-3349848D01*
G01X1582697Y-3350636D01*
G01X1585848Y-3351424D01*
G01X1587621Y-3352015D01*
G01X1589394Y-3352803D01*
G01X1592545Y-3354379D01*
G01X1594515Y-3355561D01*
G01X1596485Y-3356939D01*
G01X1599242Y-3359303D01*
G01X1600424Y-3360485D01*
G01X1601212Y-3361470D01*
G01X1602197Y-3362454D01*
G01X1602985Y-3363440D01*
G01X1603970Y-3364818D01*
G01X1604955Y-3366394D01*
G01X1606530Y-3369151D01*
G01X1607712Y-3371909D01*
G01X1608303Y-3373485D01*
G01X1608894Y-3375258D01*
G01X1609042Y-3375947D01*
G01X1608697Y-3376439D01*
G01X1606924Y-3377030D01*
G01X1604364Y-3377621D01*
G01X1600424Y-3378606D01*
G01X1598455Y-3379000D01*
G01X1597371Y-3378951D01*
G01X1596879Y-3378409D01*
G01X1595697Y-3375258D01*
G01X1595106Y-3374076D01*
G01X1594318Y-3372697D01*
G01X1593333Y-3370727D01*
G01X1591364Y-3367970D01*
G01X1590182Y-3366591D01*
G01X1589197Y-3365606D01*
G01X1587818Y-3364424D01*
G01X1586439Y-3363440D01*
G01X1585061Y-3362652D01*
G01X1583288Y-3361864D01*
G01X1581121Y-3361076D01*
G01X1579152Y-3360485D01*
G01X1576394Y-3360091D01*
G01X1572651Y-3359894D01*
G01X1568909Y-3360091D01*
G01X1566152Y-3360485D01*
G01X1564182Y-3360879D01*
G01X1561621Y-3361470D01*
G01X1559651Y-3362258D01*
G01X1557879Y-3363046D01*
G01X1555909Y-3364030D01*
G01X1554530Y-3365015D01*
G01X1553546Y-3365606D01*
G01X1552561Y-3366394D01*
G01X1548621Y-3370333D01*
G01X1547636Y-3371909D01*
G01X1546455Y-3373682D01*
G01X1545470Y-3375652D01*
G01X1544682Y-3377621D01*
G01X1544091Y-3379197D01*
G01X1543500Y-3381167D01*
G01X1542909Y-3382939D01*
G01X1542121Y-3386879D01*
G01X1541727Y-3390030D01*
G01X1541530Y-3396530D01*
G01X1541727Y-3403030D01*
G01X1541924Y-3404606D01*
G01X1542121Y-3406576D01*
G01X1543303Y-3412485D01*
G01X1543894Y-3414651D01*
G01X1544682Y-3417015D01*
G01X1545470Y-3418788D01*
G01X1547242Y-3422333D01*
G01X1548227Y-3423712D01*
G01X1549015Y-3424894D01*
G01X1550000Y-3426076D01*
G01X1552364Y-3428439D01*
G01X1553939Y-3429621D01*
G01X1555318Y-3430606D01*
G01X1557091Y-3431591D01*
G01X1558667Y-3432379D01*
G01X1560439Y-3433167D01*
G01X1563000Y-3433954D01*
G01X1564970Y-3434546D01*
G01X1568515Y-3434939D01*
G01X1571273Y-3435136D01*
G01X1574030Y-3434939D01*
G01X1576788Y-3434546D01*
G01X1578758Y-3434152D01*
G01X1580924Y-3433561D01*
G01X1582894Y-3432773D01*
G01X1584667Y-3431985D01*
G01X1586045Y-3431197D01*
G01X1587227Y-3430409D01*
G01X1588606Y-3429424D01*
G01X1589985Y-3428243D01*
G01X1592348Y-3425879D01*
G01X1593530Y-3424303D01*
G01X1595500Y-3421152D01*
G01X1596682Y-3418394D01*
G01X1597273Y-3416818D01*
G01X1597864Y-3415045D01*
G01X1598455Y-3412879D01*
G01X1598701Y-3411894D01*
G01X1599045Y-3411697D01*
G01X1600621Y-3412091D01*
G01X1603182Y-3412682D01*
G01X1605151Y-3413273D01*
G01X1606924Y-3413667D01*
G01X1609485Y-3414258D01*
G01X1610864Y-3414651D01*
G01X1608894Y-3420561D01*
G01X1607318Y-3424106D01*
G01X1606530Y-3425682D01*
G01X1605742Y-3427061D01*
G01X1604758Y-3428833D01*
G01X1603773Y-3430212D01*
G01X1602985Y-3431197D01*
G01X1602000Y-3432576D01*
G01X1600818Y-3433954D01*
G01X1598455Y-3436318D01*
G01X1596485Y-3437894D01*
G01X1594909Y-3439076D01*
G01X1593727Y-3439864D01*
G01X1590970Y-3441439D01*
G01X1589394Y-3442227D01*
G01X1587227Y-3443015D01*
G01X1583091Y-3444394D01*
G01X1578758Y-3445182D01*
G01X1571667Y-3445379D01*
G37*
G36*
G01X1643561Y-3445379D02*
G01X1638242Y-3445182D01*
G01X1637060Y-3444788D01*
G01X1635288Y-3444394D01*
G01X1633318Y-3443803D01*
G01X1631545Y-3443015D01*
G01X1629576Y-3442030D01*
G01X1626818Y-3440061D01*
G01X1625636Y-3438879D01*
G01X1624848Y-3437894D01*
G01X1623667Y-3436515D01*
G01X1622682Y-3434939D01*
G01X1622091Y-3433364D01*
G01X1621500Y-3431591D01*
G01X1621106Y-3430015D01*
G01X1620712Y-3427258D01*
G01X1620909Y-3425879D01*
G01X1620983Y-3425288D01*
G01X1632924Y-3425288D01*
G01X1633121Y-3427061D01*
G01X1633515Y-3428833D01*
G01X1634106Y-3430606D01*
G01X1635091Y-3432182D01*
G01X1636273Y-3433561D01*
G01X1637652Y-3434546D01*
G01X1639621Y-3435530D01*
G01X1641394Y-3436121D01*
G01X1643561Y-3436318D01*
G01X1643561Y-3436318D01*
G01X1645530Y-3436515D01*
G01X1647697Y-3436515D01*
G01X1650848Y-3436121D01*
G01X1652818Y-3435727D01*
G01X1654394Y-3435333D01*
G01X1655970Y-3434742D01*
G01X1657348Y-3434152D01*
G01X1658924Y-3433364D01*
G01X1660697Y-3432182D01*
G01X1662076Y-3431000D01*
G01X1664045Y-3429030D01*
G01X1664833Y-3428045D01*
G01X1665621Y-3426667D01*
G01X1666409Y-3424894D01*
G01X1667000Y-3422727D01*
G01X1667394Y-3420758D01*
G01X1667591Y-3415439D01*
G01X1667197Y-3410515D01*
G01X1666015Y-3410712D01*
G01X1664242Y-3411303D01*
G01X1662076Y-3411894D01*
G01X1660303Y-3412485D01*
G01X1656364Y-3413273D01*
G01X1654197Y-3413667D01*
G01X1651636Y-3414061D01*
G01X1644545Y-3415243D01*
G01X1641788Y-3415833D01*
G01X1639424Y-3416621D01*
G01X1636667Y-3418000D01*
G01X1635682Y-3418788D01*
G01X1634697Y-3420167D01*
G01X1633712Y-3421940D01*
G01X1633121Y-3423515D01*
G01X1632924Y-3425288D01*
G01X1620983Y-3425288D01*
G01X1621106Y-3424303D01*
G01X1621500Y-3421940D01*
G01X1622288Y-3419379D01*
G01X1623076Y-3417606D01*
G01X1623864Y-3416227D01*
G01X1624652Y-3415045D01*
G01X1625439Y-3414061D01*
G01X1628394Y-3411106D01*
G01X1629576Y-3410318D01*
G01X1632333Y-3408742D01*
G01X1634106Y-3407955D01*
G01X1638242Y-3406576D01*
G01X1642576Y-3405788D01*
G01X1649470Y-3404803D01*
G01X1651242Y-3404606D01*
G01X1654000Y-3404212D01*
G01X1658727Y-3403424D01*
G01X1661879Y-3402833D01*
G01X1663848Y-3402242D01*
G01X1665818Y-3401848D01*
G01X1666951Y-3401405D01*
G01X1667591Y-3400470D01*
G01X1667788Y-3398697D01*
G01X1667591Y-3397318D01*
G01X1667394Y-3394758D01*
G01X1666803Y-3392000D01*
G01X1666015Y-3390424D01*
G01X1665227Y-3389242D01*
G01X1664045Y-3388060D01*
G01X1662864Y-3387076D01*
G01X1661682Y-3386485D01*
G01X1660303Y-3385894D01*
G01X1658727Y-3385303D01*
G01X1657151Y-3384909D01*
G01X1652424Y-3384515D01*
G01X1651242Y-3384515D01*
G01X1646515Y-3384909D01*
G01X1644545Y-3385303D01*
G01X1642379Y-3385894D01*
G01X1640803Y-3386485D01*
G01X1639621Y-3387273D01*
G01X1637454Y-3389439D01*
G01X1636273Y-3391015D01*
G01X1635485Y-3392591D01*
G01X1634894Y-3393970D01*
G01X1634303Y-3395939D01*
G01X1634106Y-3397318D01*
G01X1633121Y-3397121D01*
G01X1630364Y-3396727D01*
G01X1627212Y-3396333D01*
G01X1624454Y-3395939D01*
G01X1623420Y-3395644D01*
G01X1623076Y-3395151D01*
G01X1623470Y-3393773D01*
G01X1624652Y-3390227D01*
G01X1625439Y-3388454D01*
G01X1626818Y-3385697D01*
G01X1627606Y-3384712D01*
G01X1628788Y-3383333D01*
G01X1629970Y-3382151D01*
G01X1630955Y-3381364D01*
G01X1632136Y-3380379D01*
G01X1633318Y-3379591D01*
G01X1634697Y-3378803D01*
G01X1636470Y-3378015D01*
G01X1640015Y-3376833D01*
G01X1641985Y-3376242D01*
G01X1643757Y-3375848D01*
G01X1646515Y-3375454D01*
G01X1652030Y-3375258D01*
G01X1658727Y-3375454D01*
G01X1661485Y-3375848D01*
G01X1663454Y-3376242D01*
G01X1665818Y-3376833D01*
G01X1667985Y-3377621D01*
G01X1669758Y-3378409D01*
G01X1671530Y-3379394D01*
G01X1673303Y-3380576D01*
G01X1674682Y-3381757D01*
G01X1675864Y-3383333D01*
G01X1677045Y-3385303D01*
G01X1677833Y-3387076D01*
G01X1678424Y-3389046D01*
G01X1678818Y-3390818D01*
G01X1679212Y-3397121D01*
G01X1679606Y-3431788D01*
G01X1679803Y-3433954D01*
G01X1680197Y-3436909D01*
G01X1680985Y-3439667D01*
G01X1681773Y-3441636D01*
G01X1682364Y-3443015D01*
G01X1682561Y-3443803D01*
G01X1676849Y-3443803D01*
G01X1672466Y-3443655D01*
G01X1670742Y-3443212D01*
G01X1669954Y-3441833D01*
G01X1669364Y-3439864D01*
G01X1668970Y-3438091D01*
G01X1668773Y-3436712D01*
G01X1668674Y-3436170D01*
G01X1668379Y-3436121D01*
G01X1667394Y-3436515D01*
G01X1666409Y-3437303D01*
G01X1665030Y-3438485D01*
G01X1663258Y-3439667D01*
G01X1661682Y-3440651D01*
G01X1660303Y-3441439D01*
G01X1658727Y-3442227D01*
G01X1656955Y-3443015D01*
G01X1653409Y-3444197D01*
G01X1651045Y-3444788D01*
G01X1648879Y-3445182D01*
G01X1643561Y-3445379D01*
G37*
G36*
G01X1726091Y-3445379D02*
G01X1721167Y-3444985D01*
G01X1718803Y-3444197D01*
G01X1716636Y-3443409D01*
G01X1715257Y-3442621D01*
G01X1714076Y-3442030D01*
G01X1712894Y-3441243D01*
G01X1711515Y-3440061D01*
G01X1709742Y-3438485D01*
G01X1708560Y-3436909D01*
G01X1707773Y-3436121D01*
G01X1707477Y-3436958D01*
G01X1707379Y-3439864D01*
G01X1707379Y-3443803D01*
G01X1697136Y-3443803D01*
G01X1697136Y-3409924D01*
G01X1707379Y-3409924D01*
G01X1707576Y-3415243D01*
G01X1707773Y-3416621D01*
G01X1707970Y-3418394D01*
G01X1708364Y-3420758D01*
G01X1708954Y-3423318D01*
G01X1709742Y-3425485D01*
G01X1710727Y-3427455D01*
G01X1712106Y-3429424D01*
G01X1713288Y-3431000D01*
G01X1714667Y-3432379D01*
G01X1716242Y-3433561D01*
G01X1717424Y-3434348D01*
G01X1718803Y-3434939D01*
G01X1720379Y-3435530D01*
G01X1722742Y-3435924D01*
G01X1722742Y-3435924D01*
G01X1724515Y-3436121D01*
G01X1725303Y-3436121D01*
G01X1726682Y-3435924D01*
G01X1728455Y-3435727D01*
G01X1730030Y-3435333D01*
G01X1731606Y-3434742D01*
G01X1733576Y-3433758D01*
G01X1734955Y-3432773D01*
G01X1737712Y-3430409D01*
G01X1738894Y-3429030D01*
G01X1740076Y-3427258D01*
G01X1740864Y-3425879D01*
G01X1741652Y-3424106D01*
G01X1742439Y-3421546D01*
G01X1743030Y-3419576D01*
G01X1743424Y-3416818D01*
G01X1743621Y-3411303D01*
G01X1743424Y-3405000D01*
G01X1743030Y-3402242D01*
G01X1742636Y-3400273D01*
G01X1742242Y-3398500D01*
G01X1741652Y-3396530D01*
G01X1740864Y-3394758D01*
G01X1739485Y-3392000D01*
G01X1738697Y-3391015D01*
G01X1735151Y-3387470D01*
G01X1733970Y-3386682D01*
G01X1731606Y-3385500D01*
G01X1729833Y-3384909D01*
G01X1728061Y-3384515D01*
G01X1726288Y-3384318D01*
G01X1724515Y-3384515D01*
G01X1722939Y-3384712D01*
G01X1721167Y-3385106D01*
G01X1719591Y-3385697D01*
G01X1717227Y-3386879D01*
G01X1716045Y-3387667D01*
G01X1713091Y-3390621D01*
G01X1711909Y-3392000D01*
G01X1710727Y-3393773D01*
G01X1709742Y-3395742D01*
G01X1708954Y-3397712D01*
G01X1708364Y-3399682D01*
G01X1707970Y-3401455D01*
G01X1707576Y-3404606D01*
G01X1707379Y-3409924D01*
G01X1697136Y-3409924D01*
G01X1697136Y-3350833D01*
G01X1708167Y-3350833D01*
G01X1708167Y-3366788D01*
G01X1708364Y-3383333D01*
G01X1708610Y-3383678D01*
G01X1708954Y-3383530D01*
G01X1709742Y-3382742D01*
G01X1710530Y-3381757D01*
G01X1712500Y-3380182D01*
G01X1713879Y-3379000D01*
G01X1715455Y-3378015D01*
G01X1717030Y-3377227D01*
G01X1718803Y-3376439D01*
G01X1720576Y-3375848D01*
G01X1722151Y-3375454D01*
G01X1726091Y-3375258D01*
G01X1730424Y-3375454D01*
G01X1732394Y-3375848D01*
G01X1735545Y-3376636D01*
G01X1737318Y-3377227D01*
G01X1739091Y-3378015D01*
G01X1741061Y-3379000D01*
G01X1742833Y-3380182D01*
G01X1744212Y-3381167D01*
G01X1747561Y-3384515D01*
G01X1748939Y-3386485D01*
G01X1750121Y-3388258D01*
G01X1751106Y-3390030D01*
G01X1751894Y-3391803D01*
G01X1752682Y-3393773D01*
G01X1754061Y-3397909D01*
G01X1754848Y-3401848D01*
G01X1755242Y-3405788D01*
G01X1755439Y-3408939D01*
G01X1755242Y-3412091D01*
G01X1755046Y-3414061D01*
G01X1754848Y-3416424D01*
G01X1754454Y-3418788D01*
G01X1754061Y-3420758D01*
G01X1753667Y-3422530D01*
G01X1753076Y-3424500D01*
G01X1752485Y-3426273D01*
G01X1751894Y-3427849D01*
G01X1751106Y-3429424D01*
G01X1750121Y-3431197D01*
G01X1748939Y-3432970D01*
G01X1747955Y-3434348D01*
G01X1747167Y-3435333D01*
G01X1742636Y-3439864D01*
G01X1741258Y-3440849D01*
G01X1739682Y-3441833D01*
G01X1738303Y-3442621D01*
G01X1736530Y-3443409D01*
G01X1734561Y-3444197D01*
G01X1732394Y-3444788D01*
G01X1730424Y-3445182D01*
G01X1726091Y-3445379D01*
G37*
G36*
G01X1768833Y-3443803D02*
G01X1768833Y-3350833D01*
G01X1780258Y-3350833D01*
G01X1780258Y-3443803D01*
G01X1768833Y-3443803D01*
G37*
G36*
G01X1826545Y-3445379D02*
G01X1821424Y-3445182D01*
G01X1816500Y-3444197D01*
G01X1814136Y-3443409D01*
G01X1811970Y-3442621D01*
G01X1810394Y-3441833D01*
G01X1809015Y-3441045D01*
G01X1807439Y-3440061D01*
G01X1806061Y-3439076D01*
G01X1804091Y-3437500D01*
G01X1802712Y-3436121D01*
G01X1801136Y-3434152D01*
G01X1799758Y-3432182D01*
G01X1798773Y-3430606D01*
G01X1797985Y-3429030D01*
G01X1797197Y-3427258D01*
G01X1796015Y-3423712D01*
G01X1795424Y-3421742D01*
G01X1795030Y-3419970D01*
G01X1794636Y-3416424D01*
G01X1794439Y-3411500D01*
G01X1794636Y-3406576D01*
G01X1794833Y-3405197D01*
G01X1795030Y-3403424D01*
G01X1795162Y-3402636D01*
G01X1806849Y-3402636D01*
G01X1806849Y-3403818D01*
G01X1825167Y-3404015D01*
G01X1843879Y-3403818D01*
G01X1844273Y-3403523D01*
G01X1844273Y-3403030D01*
G01X1844076Y-3401455D01*
G01X1843682Y-3399091D01*
G01X1843091Y-3397121D01*
G01X1842500Y-3395349D01*
G01X1841515Y-3393182D01*
G01X1840333Y-3391409D01*
G01X1839348Y-3390030D01*
G01X1838364Y-3389046D01*
G01X1837379Y-3388258D01*
G01X1836000Y-3387273D01*
G01X1834424Y-3386288D01*
G01X1832651Y-3385500D01*
G01X1830879Y-3384909D01*
G01X1826742Y-3384318D01*
G01X1825364Y-3384515D01*
G01X1823788Y-3384712D01*
G01X1821818Y-3384909D01*
G01X1819455Y-3385500D01*
G01X1817288Y-3386485D01*
G01X1815712Y-3387273D01*
G01X1814530Y-3388060D01*
G01X1813348Y-3389046D01*
G01X1812167Y-3390227D01*
G01X1810197Y-3392591D01*
G01X1809409Y-3393970D01*
G01X1808621Y-3395545D01*
G01X1807833Y-3397712D01*
G01X1807242Y-3399485D01*
G01X1807045Y-3400864D01*
G01X1806849Y-3402636D01*
G01X1806849Y-3402636D01*
G01X1795162Y-3402636D01*
G01X1795424Y-3401061D01*
G01X1796015Y-3398303D01*
G01X1796803Y-3395742D01*
G01X1797591Y-3393576D01*
G01X1799167Y-3390424D01*
G01X1800151Y-3388652D01*
G01X1800939Y-3387273D01*
G01X1803303Y-3384318D01*
G01X1804288Y-3383333D01*
G01X1806258Y-3381757D01*
G01X1807636Y-3380576D01*
G01X1809409Y-3379394D01*
G01X1811182Y-3378409D01*
G01X1812758Y-3377621D01*
G01X1814333Y-3377030D01*
G01X1816106Y-3376439D01*
G01X1818273Y-3375848D01*
G01X1820242Y-3375454D01*
G01X1824970Y-3375258D01*
G01X1830091Y-3375454D01*
G01X1832061Y-3375848D01*
G01X1833636Y-3376242D01*
G01X1835409Y-3376636D01*
G01X1837379Y-3377227D01*
G01X1839152Y-3378015D01*
G01X1840727Y-3378803D01*
G01X1842303Y-3379788D01*
G01X1843682Y-3380773D01*
G01X1844863Y-3381561D01*
G01X1846045Y-3382545D01*
G01X1848409Y-3384909D01*
G01X1849985Y-3386879D01*
G01X1851167Y-3388652D01*
G01X1851954Y-3390030D01*
G01X1852742Y-3391606D01*
G01X1853530Y-3393379D01*
G01X1854318Y-3395349D01*
G01X1854909Y-3397121D01*
G01X1855697Y-3400667D01*
G01X1856091Y-3403424D01*
G01X1856288Y-3408545D01*
G01X1856288Y-3413076D01*
G01X1806258Y-3413076D01*
G01X1806258Y-3414061D01*
G01X1806455Y-3416030D01*
G01X1806849Y-3418394D01*
G01X1807439Y-3421152D01*
G01X1808227Y-3423515D01*
G01X1809015Y-3425288D01*
G01X1810000Y-3427061D01*
G01X1811379Y-3429030D01*
G01X1812561Y-3430606D01*
G01X1814924Y-3432576D01*
G01X1816303Y-3433561D01*
G01X1817879Y-3434348D01*
G01X1819651Y-3435136D01*
G01X1821424Y-3435727D01*
G01X1823000Y-3435924D01*
G01X1824970Y-3436121D01*
G01X1826545Y-3436121D01*
G01X1827924Y-3435924D01*
G01X1830091Y-3435727D01*
G01X1832061Y-3435333D01*
G01X1833439Y-3434939D01*
G01X1835212Y-3434152D01*
G01X1837182Y-3432970D01*
G01X1838560Y-3431788D01*
G01X1839545Y-3430803D01*
G01X1841121Y-3428833D01*
G01X1842106Y-3427455D01*
G01X1843091Y-3425485D01*
G01X1843879Y-3423515D01*
G01X1844273Y-3422776D01*
G01X1845061Y-3422530D01*
G01X1849788Y-3423121D01*
G01X1853333Y-3423515D01*
G01X1854909Y-3423712D01*
G01X1855599Y-3423958D01*
G01X1855697Y-3424697D01*
G01X1855106Y-3426470D01*
G01X1854318Y-3428439D01*
G01X1853333Y-3430606D01*
G01X1852151Y-3432576D01*
G01X1850182Y-3435333D01*
G01X1849000Y-3436712D01*
G01X1847030Y-3438682D01*
G01X1846045Y-3439470D01*
G01X1844667Y-3440455D01*
G01X1843091Y-3441439D01*
G01X1841712Y-3442227D01*
G01X1839939Y-3443015D01*
G01X1837773Y-3443803D01*
G01X1836000Y-3444394D01*
G01X1832061Y-3445182D01*
G01X1826545Y-3445379D01*
G37*
G36*
G01X1890955Y-3443803D02*
G01X1891349Y-3442621D01*
G01X1892924Y-3438682D01*
G01X1893712Y-3436515D01*
G01X1894500Y-3434546D01*
G01X1895288Y-3432379D01*
G01X1896864Y-3428439D01*
G01X1897652Y-3426273D01*
G01X1898439Y-3424303D01*
G01X1899227Y-3422136D01*
G01X1900803Y-3418197D01*
G01X1901591Y-3416030D01*
G01X1902379Y-3414061D01*
G01X1903167Y-3411894D01*
G01X1904742Y-3407955D01*
G01X1906032Y-3404409D01*
G01X1917939Y-3404409D01*
G01X1917939Y-3405788D01*
G01X1933500Y-3405985D01*
G01X1948864Y-3405985D01*
G01X1948667Y-3405000D01*
G01X1948076Y-3403227D01*
G01X1945121Y-3395349D01*
G01X1944530Y-3393970D01*
G01X1936849Y-3373485D01*
G01X1933303Y-3362848D01*
G01X1932712Y-3361667D01*
G01X1932367Y-3361814D01*
G01X1932121Y-3362652D01*
G01X1931530Y-3365212D01*
G01X1930939Y-3367182D01*
G01X1930545Y-3369151D01*
G01X1929954Y-3371318D01*
G01X1927591Y-3378409D01*
G01X1926803Y-3380379D01*
G01X1925227Y-3384712D01*
G01X1924439Y-3386682D01*
G01X1923848Y-3388454D01*
G01X1918530Y-3402636D01*
G01X1917939Y-3404409D01*
G01X1917939Y-3404409D01*
G01X1906032Y-3404409D01*
G01X1906318Y-3403621D01*
G01X1907894Y-3399682D01*
G01X1908682Y-3397515D01*
G01X1909470Y-3395545D01*
G01X1910258Y-3393379D01*
G01X1911833Y-3389439D01*
G01X1912621Y-3387273D01*
G01X1913409Y-3385303D01*
G01X1914197Y-3383136D01*
G01X1915773Y-3379197D01*
G01X1916561Y-3377030D01*
G01X1917348Y-3375061D01*
G01X1918136Y-3372894D01*
G01X1919712Y-3368955D01*
G01X1920500Y-3366788D01*
G01X1921288Y-3364818D01*
G01X1922076Y-3362652D01*
G01X1922864Y-3360682D01*
G01X1924045Y-3357530D01*
G01X1925621Y-3353591D01*
G01X1926212Y-3351818D01*
G01X1926409Y-3350833D01*
G01X1932909Y-3350833D01*
G01X1937883Y-3351030D01*
G01X1939803Y-3351621D01*
G01X1941379Y-3355167D01*
G01X1942954Y-3359106D01*
G01X1943546Y-3360682D01*
G01X1944136Y-3362061D01*
G01X1944924Y-3363833D01*
G01X1947288Y-3369743D01*
G01X1948076Y-3371515D01*
G01X1951227Y-3379394D01*
G01X1952015Y-3381167D01*
G01X1953591Y-3385106D01*
G01X1954379Y-3386879D01*
G01X1957530Y-3394758D01*
G01X1958318Y-3396530D01*
G01X1959894Y-3400470D01*
G01X1960485Y-3402045D01*
G01X1961076Y-3403424D01*
G01X1961863Y-3405197D01*
G01X1964227Y-3411106D01*
G01X1965015Y-3412879D01*
G01X1968166Y-3420758D01*
G01X1968954Y-3422530D01*
G01X1970530Y-3426470D01*
G01X1971121Y-3428045D01*
G01X1971712Y-3429424D01*
G01X1972500Y-3431197D01*
G01X1974863Y-3437106D01*
G01X1975651Y-3438879D01*
G01X1977621Y-3443803D01*
G01X1970727Y-3443803D01*
G01X1965458Y-3443655D01*
G01X1963439Y-3443212D01*
G01X1962651Y-3441439D01*
G01X1961863Y-3439273D01*
G01X1961076Y-3437303D01*
G01X1960288Y-3435136D01*
G01X1958712Y-3431197D01*
G01X1957924Y-3429030D01*
G01X1957136Y-3427061D01*
G01X1956348Y-3424894D01*
G01X1954773Y-3420955D01*
G01X1953985Y-3418788D01*
G01X1952803Y-3415833D01*
G01X1913803Y-3415833D01*
G01X1913409Y-3416818D01*
G01X1911045Y-3423318D01*
G01X1910258Y-3425682D01*
G01X1909470Y-3427651D01*
G01X1908879Y-3429424D01*
G01X1907697Y-3432576D01*
G01X1907106Y-3434348D01*
G01X1906318Y-3436318D01*
G01X1905530Y-3438682D01*
G01X1904742Y-3440651D01*
G01X1904151Y-3442621D01*
G01X1903955Y-3443803D01*
G01X1890955Y-3443803D01*
G37*
G36*
G01X2010712Y-3445379D02*
G01X2005591Y-3444985D01*
G01X2002045Y-3443803D01*
G01X1999879Y-3443015D01*
G01X1998106Y-3442030D01*
G01X1996530Y-3441243D01*
G01X1995348Y-3440455D01*
G01X1993379Y-3438879D01*
G01X1990424Y-3435924D01*
G01X1989242Y-3434546D01*
G01X1987864Y-3432576D01*
G01X1986682Y-3430606D01*
G01X1985894Y-3429030D01*
G01X1984712Y-3426273D01*
G01X1984121Y-3424697D01*
G01X1983530Y-3422530D01*
G01X1982939Y-3420758D01*
G01X1982545Y-3418000D01*
G01X1982151Y-3414061D01*
G01X1981954Y-3411106D01*
G01X1982073Y-3409333D01*
G01X1993773Y-3409333D01*
G01X1993970Y-3415243D01*
G01X1994364Y-3418000D01*
G01X1994758Y-3419970D01*
G01X1995151Y-3421742D01*
G01X1995742Y-3423712D01*
G01X1996530Y-3425485D01*
G01X1997909Y-3428243D01*
G01X1998697Y-3429227D01*
G01X1999682Y-3430409D01*
G01X2000667Y-3431394D01*
G01X2001652Y-3432182D01*
G01X2002636Y-3433167D01*
G01X2004212Y-3434152D01*
G01X2006182Y-3435136D01*
G01X2007757Y-3435727D01*
G01X2009727Y-3435924D01*
G01X2009727Y-3435924D01*
G01X2011303Y-3436121D01*
G01X2012091Y-3436121D01*
G01X2013470Y-3435924D01*
G01X2015242Y-3435727D01*
G01X2016818Y-3435333D01*
G01X2018197Y-3434939D01*
G01X2019970Y-3434152D01*
G01X2021939Y-3432773D01*
G01X2023515Y-3431591D01*
G01X2024500Y-3430606D01*
G01X2025288Y-3429621D01*
G01X2026273Y-3428243D01*
G01X2027258Y-3426667D01*
G01X2028045Y-3424894D01*
G01X2028833Y-3422333D01*
G01X2029424Y-3420364D01*
G01X2029818Y-3417212D01*
G01X2030015Y-3412288D01*
G01X2029818Y-3406576D01*
G01X2029424Y-3403424D01*
G01X2029030Y-3401061D01*
G01X2028636Y-3399288D01*
G01X2028045Y-3397318D01*
G01X2027258Y-3395349D01*
G01X2026273Y-3393379D01*
G01X2025485Y-3392000D01*
G01X2023909Y-3390030D01*
G01X2023121Y-3389242D01*
G01X2022136Y-3388454D01*
G01X2020757Y-3387273D01*
G01X2019182Y-3386288D01*
G01X2017803Y-3385697D01*
G01X2016227Y-3385106D01*
G01X2014258Y-3384712D01*
G01X2012485Y-3384515D01*
G01X2011303Y-3384515D01*
G01X2009924Y-3384712D01*
G01X2008151Y-3384909D01*
G01X2006576Y-3385303D01*
G01X2005000Y-3385894D01*
G01X2002242Y-3387273D01*
G01X2001258Y-3388060D01*
G01X1998894Y-3390424D01*
G01X1997515Y-3392394D01*
G01X1996530Y-3393970D01*
G01X1995939Y-3395545D01*
G01X1995348Y-3397318D01*
G01X1994758Y-3399288D01*
G01X1994364Y-3401061D01*
G01X1993970Y-3404212D01*
G01X1993773Y-3409333D01*
G01X1982073Y-3409333D01*
G01X1982151Y-3408152D01*
G01X1982348Y-3406576D01*
G01X1982545Y-3403818D01*
G01X1982939Y-3401455D01*
G01X1983333Y-3399485D01*
G01X1983924Y-3396924D01*
G01X1984712Y-3394561D01*
G01X1985500Y-3392394D01*
G01X1986288Y-3390424D01*
G01X1987273Y-3388454D01*
G01X1989636Y-3384909D01*
G01X1990818Y-3383530D01*
G01X1992788Y-3381561D01*
G01X1994364Y-3380379D01*
G01X1996136Y-3379197D01*
G01X1997712Y-3378212D01*
G01X1999682Y-3377227D01*
G01X2001848Y-3376439D01*
G01X2003818Y-3375848D01*
G01X2005394Y-3375454D01*
G01X2009530Y-3375258D01*
G01X2013667Y-3375454D01*
G01X2015636Y-3375848D01*
G01X2018197Y-3376439D01*
G01X2019970Y-3377227D01*
G01X2021545Y-3378015D01*
G01X2023318Y-3379000D01*
G01X2025091Y-3380379D01*
G01X2026667Y-3381561D01*
G01X2027652Y-3382742D01*
G01X2028636Y-3383727D01*
G01X2029080Y-3379739D01*
G01X2029227Y-3367379D01*
G01X2029227Y-3350833D01*
G01X2040258Y-3350833D01*
G01X2040258Y-3443803D01*
G01X2030015Y-3443803D01*
G01X2030015Y-3440061D01*
G01X2029621Y-3436121D01*
G01X2028833Y-3436712D01*
G01X2027848Y-3437894D01*
G01X2025288Y-3440455D01*
G01X2023909Y-3441636D01*
G01X2022530Y-3442621D01*
G01X2020955Y-3443409D01*
G01X2018985Y-3444197D01*
G01X2017015Y-3444788D01*
G01X2015242Y-3445182D01*
G01X2010712Y-3445379D01*
G37*
G54D10*
G01X2789113Y-2198951D02*
G01X2789113Y-2323665D01*
G01X2747711Y-2198951D02*
G01X2830769Y-2198951D01*
G01X2869377Y-2198951D02*
G01X2952435Y-2323665D01*
G01X2952435Y-2198951D02*
G01X2869377Y-2323665D01*
G01X2760091Y-2702499D02*
G01X2760091Y-2827213D01*
G01X2760091Y-2702499D02*
G01X2813431Y-2702499D01*
G01X2831211Y-2708341D01*
G01X2837307Y-2714437D01*
G01X2843149Y-2726121D01*
G01X2843149Y-2738059D01*
G01X2837307Y-2749997D01*
G01X2831211Y-2755839D01*
G01X2813431Y-2761935D01*
G01X2760091Y-2761935D01*
G01X2801493Y-2761935D02*
G01X2843149Y-2827213D01*
G01X2881757Y-2702499D02*
G01X2964815Y-2827213D01*
G01X2964815Y-2702499D02*
G01X2881757Y-2827213D01*
G01X2807539Y-2494513D02*
G01X2803221Y-2485877D01*
G01X2794331Y-2476987D01*
G01X2785695Y-2472669D01*
G01X2768169Y-2472669D01*
G01X2759533Y-2476987D01*
G01X2750643Y-2485877D01*
G01X2746325Y-2494513D01*
G01X2742007Y-2507721D01*
G01X2742007Y-2529565D01*
G01X2746325Y-2542773D01*
G01X2750643Y-2551409D01*
G01X2759533Y-2560299D01*
G01X2768169Y-2564617D01*
G01X2785695Y-2564617D01*
G01X2794331Y-2560299D01*
G01X2803221Y-2551409D01*
G01X2807539Y-2542773D01*
G01X2807539Y-2529565D01*
G01X2785695Y-2529565D02*
G01X2807539Y-2529565D01*
G01X2838527Y-2472669D02*
G01X2838527Y-2564617D01*
G01X2838527Y-2472669D02*
G01X2899741Y-2564617D01*
G01X2899741Y-2472669D02*
G01X2899741Y-2564617D01*
G01X2930729Y-2472669D02*
G01X2930729Y-2564617D01*
G01X2930729Y-2472669D02*
G01X2961463Y-2472669D01*
G01X2974417Y-2476987D01*
G01X2983307Y-2485877D01*
G01X2987625Y-2494513D01*
G01X2991943Y-2507721D01*
G01X2991943Y-2529565D01*
G01X2987625Y-2542773D01*
G01X2983307Y-2551409D01*
G01X2974417Y-2560299D01*
G01X2961463Y-2564617D01*
G01X2930729Y-2564617D01*
G01X2846731Y-1993040D02*
G01X2840889Y-1981102D01*
G01X2828951Y-1969164D01*
G01X2817013Y-1963322D01*
G01X2793391Y-1963322D01*
G01X2781453Y-1969164D01*
G01X2769515Y-1981102D01*
G01X2763673Y-1993040D01*
G01X2757831Y-2010820D01*
G01X2757831Y-2040538D01*
G01X2763673Y-2058318D01*
G01X2769515Y-2070256D01*
G01X2781453Y-2081940D01*
G01X2793391Y-2088036D01*
G01X2817013Y-2088036D01*
G01X2828951Y-2081940D01*
G01X2840889Y-2070256D01*
G01X2846731Y-2058318D01*
G01X2885339Y-1963322D02*
G01X2885339Y-2088036D01*
G01X2885339Y-1963322D02*
G01X2926741Y-1963322D01*
G01X2944521Y-1969164D01*
G01X2956459Y-1981102D01*
G01X2962301Y-1993040D01*
G01X2968397Y-2010820D01*
G01X2968397Y-2040538D01*
G01X2962301Y-2058318D01*
G01X2956459Y-2070256D01*
G01X2944521Y-2081940D01*
G01X2926741Y-2088036D01*
G01X2885339Y-2088036D01*
G01X1044388Y-2739684D02*
G01X1056072Y-2733842D01*
G01X1074106Y-2716062D01*
G01X1074106Y-2840776D01*
G01X1112714Y-2716062D02*
G01X1160212Y-2775498D01*
G01X1160212Y-2840776D01*
G01X1207710Y-2716062D02*
G01X1160212Y-2775498D01*
G01X1246318Y-2793278D02*
G01X1317438Y-2793278D01*
G01X1317438Y-2781340D01*
G01X1311596Y-2769402D01*
G01X1305500Y-2763560D01*
G01X1293816Y-2757464D01*
G01X1275782Y-2757464D01*
G01X1264098Y-2763560D01*
G01X1252160Y-2775498D01*
G01X1246318Y-2793278D01*
G01X1246318Y-2804962D01*
G01X1252160Y-2822996D01*
G01X1264098Y-2834680D01*
G01X1275782Y-2840776D01*
G01X1293816Y-2840776D01*
G01X1305500Y-2834680D01*
G01X1317438Y-2822996D01*
G01X1356046Y-2716062D02*
G01X1356046Y-2840776D01*
G01X1394654Y-2716062D02*
G01X1394654Y-2840776D01*
G01X1462726Y-2757464D02*
G01X1451042Y-2763560D01*
G01X1439104Y-2775498D01*
G01X1433262Y-2793278D01*
G01X1433262Y-2804962D01*
G01X1439104Y-2822996D01*
G01X1451042Y-2834680D01*
G01X1462726Y-2840776D01*
G01X1480760Y-2840776D01*
G01X1492444Y-2834680D01*
G01X1504382Y-2822996D01*
G01X1510224Y-2804962D01*
G01X1510224Y-2793278D01*
G01X1504382Y-2775498D01*
G01X1492444Y-2763560D01*
G01X1480760Y-2757464D01*
G01X1462726Y-2757464D01*
G01X1548832Y-2757464D02*
G01X1572454Y-2840776D01*
G01X1596330Y-2757464D02*
G01X1572454Y-2840776D01*
G01X1596330Y-2757464D02*
G01X1619952Y-2840776D01*
G01X1643828Y-2757464D02*
G01X1619952Y-2840776D01*
G01X1055922Y-2481022D02*
G01X1055922Y-2474926D01*
G01X1061764Y-2463242D01*
G01X1067860Y-2457146D01*
G01X1079798Y-2451304D01*
G01X1103420Y-2451304D01*
G01X1115358Y-2457146D01*
G01X1121200Y-2463242D01*
G01X1127296Y-2474926D01*
G01X1127296Y-2486864D01*
G01X1121200Y-2498802D01*
G01X1109262Y-2516582D01*
G01X1050080Y-2576018D01*
G01X1133138Y-2576018D01*
G01X1171746Y-2451304D02*
G01X1201210Y-2576018D01*
G01X1230928Y-2451304D02*
G01X1201210Y-2576018D01*
G01X1230928Y-2451304D02*
G01X1260646Y-2576018D01*
G01X1290364Y-2451304D02*
G01X1260646Y-2576018D01*
G01X1328972Y-2451304D02*
G01X1328972Y-2576018D01*
G01X1328972Y-2516582D02*
G01X1346752Y-2498802D01*
G01X1358436Y-2492706D01*
G01X1376470Y-2492706D01*
G01X1388154Y-2498802D01*
G01X1394250Y-2516582D01*
G01X1394250Y-2576018D01*
G01X1432858Y-2451304D02*
G01X1438700Y-2457146D01*
G01X1444542Y-2451304D01*
G01X1438700Y-2445208D01*
G01X1432858Y-2451304D01*
G01X1438700Y-2492706D02*
G01X1438700Y-2576018D01*
G01X1500930Y-2451304D02*
G01X1500930Y-2552142D01*
G01X1506772Y-2569922D01*
G01X1518710Y-2576018D01*
G01X1530648Y-2576018D01*
G01X1483150Y-2492706D02*
G01X1524552Y-2492706D01*
G01X1569256Y-2528520D02*
G01X1640376Y-2528520D01*
G01X1640376Y-2516582D01*
G01X1634534Y-2504644D01*
G01X1628438Y-2498802D01*
G01X1616754Y-2492706D01*
G01X1598720Y-2492706D01*
G01X1587036Y-2498802D01*
G01X1575098Y-2510740D01*
G01X1569256Y-2528520D01*
G01X1569256Y-2540204D01*
G01X1575098Y-2558238D01*
G01X1587036Y-2569922D01*
G01X1598720Y-2576018D01*
G01X1616754Y-2576018D01*
G01X1628438Y-2569922D01*
G01X1640376Y-2558238D01*
G01X1058333Y-2196152D02*
G01X1123865Y-2196152D01*
G01X1088051Y-2243650D01*
G01X1105831Y-2243650D01*
G01X1117769Y-2249492D01*
G01X1123865Y-2255588D01*
G01X1129707Y-2273368D01*
G01X1129707Y-2285052D01*
G01X1123865Y-2303086D01*
G01X1111927Y-2314770D01*
G01X1094147Y-2320866D01*
G01X1076367Y-2320866D01*
G01X1058333Y-2314770D01*
G01X1052491Y-2308928D01*
G01X1046649Y-2296990D01*
G01X1168315Y-2196152D02*
G01X1168315Y-2320866D01*
G01X1168315Y-2196152D02*
G01X1221655Y-2196152D01*
G01X1239435Y-2201994D01*
G01X1245277Y-2208090D01*
G01X1251373Y-2219774D01*
G01X1251373Y-2231712D01*
G01X1245277Y-2243650D01*
G01X1239435Y-2249492D01*
G01X1221655Y-2255588D01*
G01X1168315Y-2255588D01*
G01X1209717Y-2255588D02*
G01X1251373Y-2320866D01*
G01X1289981Y-2273368D02*
G01X1361101Y-2273368D01*
G01X1361101Y-2261430D01*
G01X1355259Y-2249492D01*
G01X1349163Y-2243650D01*
G01X1337479Y-2237554D01*
G01X1319445Y-2237554D01*
G01X1307761Y-2243650D01*
G01X1295823Y-2255588D01*
G01X1289981Y-2273368D01*
G01X1289981Y-2285052D01*
G01X1295823Y-2303086D01*
G01X1307761Y-2314770D01*
G01X1319445Y-2320866D01*
G01X1337479Y-2320866D01*
G01X1349163Y-2314770D01*
G01X1361101Y-2303086D01*
G01X1470829Y-2196152D02*
G01X1470829Y-2320866D01*
G01X1470829Y-2255588D02*
G01X1458891Y-2243650D01*
G01X1447207Y-2237554D01*
G01X1429173Y-2237554D01*
G01X1417489Y-2243650D01*
G01X1405551Y-2255588D01*
G01X1399709Y-2273368D01*
G01X1399709Y-2285052D01*
G01X1405551Y-2303086D01*
G01X1417489Y-2314770D01*
G01X1429173Y-2320866D01*
G01X1447207Y-2320866D01*
G01X1458891Y-2314770D01*
G01X1470829Y-2303086D01*
G01X1101310Y-1933936D02*
G01X1042128Y-2016994D01*
G01X1131028Y-2016994D01*
G01X1101310Y-1933936D02*
G01X1101310Y-2058650D01*
G01X1169636Y-1933936D02*
G01X1169636Y-2058650D01*
G01X1169636Y-1933936D02*
G01X1222976Y-1933936D01*
G01X1240756Y-1939778D01*
G01X1246598Y-1945874D01*
G01X1252694Y-1957558D01*
G01X1252694Y-1969496D01*
G01X1246598Y-1981434D01*
G01X1240756Y-1987276D01*
G01X1222976Y-1993372D01*
G01X1169636Y-1993372D02*
G01X1222976Y-1993372D01*
G01X1240756Y-1999214D01*
G01X1246598Y-2005056D01*
G01X1252694Y-2016994D01*
G01X1252694Y-2034774D01*
G01X1246598Y-2046712D01*
G01X1240756Y-2052554D01*
G01X1222976Y-2058650D01*
G01X1169636Y-2058650D01*
G01X1291302Y-1933936D02*
G01X1291302Y-2058650D01*
G01X1401030Y-1975338D02*
G01X1401030Y-2058650D01*
G01X1401030Y-1993372D02*
G01X1389092Y-1981434D01*
G01X1377408Y-1975338D01*
G01X1359374Y-1975338D01*
G01X1347690Y-1981434D01*
G01X1335752Y-1993372D01*
G01X1329910Y-2011152D01*
G01X1329910Y-2022836D01*
G01X1335752Y-2040870D01*
G01X1347690Y-2052554D01*
G01X1359374Y-2058650D01*
G01X1377408Y-2058650D01*
G01X1389092Y-2052554D01*
G01X1401030Y-2040870D01*
G01X1510758Y-1993372D02*
G01X1498820Y-1981434D01*
G01X1487136Y-1975338D01*
G01X1469102Y-1975338D01*
G01X1457418Y-1981434D01*
G01X1445480Y-1993372D01*
G01X1439638Y-2011152D01*
G01X1439638Y-2022836D01*
G01X1445480Y-2040870D01*
G01X1457418Y-2052554D01*
G01X1469102Y-2058650D01*
G01X1487136Y-2058650D01*
G01X1498820Y-2052554D01*
G01X1510758Y-2040870D01*
G01X1549366Y-1933936D02*
G01X1549366Y-2058650D01*
G01X1608548Y-1975338D02*
G01X1549366Y-2034774D01*
G01X1572988Y-2011152D02*
G01X1614644Y-2058650D01*
G01X2733406Y-571708D02*
G01X2608692Y-571708D01*
G01X2733406Y-530306D02*
G01X2733406Y-613364D01*
G01X2733406Y-651972D02*
G01X2608692Y-735030D01*
G01X2733406Y-735030D02*
G01X2608692Y-651972D01*
G01X411110Y-644072D02*
G01X423048Y-638230D01*
G01X434986Y-626292D01*
G01X440828Y-614354D01*
G01X440828Y-590732D01*
G01X434986Y-578794D01*
G01X423048Y-566856D01*
G01X411110Y-561014D01*
G01X393330Y-555172D01*
G01X363612Y-555172D01*
G01X345832Y-561014D01*
G01X333894Y-566856D01*
G01X322210Y-578794D01*
G01X316114Y-590732D01*
G01X316114Y-614354D01*
G01X322210Y-626292D01*
G01X333894Y-638230D01*
G01X345832Y-644072D01*
G01X440828Y-682680D02*
G01X316114Y-682680D01*
G01X440828Y-682680D02*
G01X440828Y-724082D01*
G01X434986Y-741862D01*
G01X423048Y-753800D01*
G01X411110Y-759642D01*
G01X393330Y-765738D01*
G01X363612Y-765738D01*
G01X345832Y-759642D01*
G01X333894Y-753800D01*
G01X322210Y-741862D01*
G01X316114Y-724082D01*
G01X316114Y-682680D01*
G54D11*
G01X2868660Y-220065D02*
G01X2879836Y-214477D01*
G01X2896854Y-197713D01*
G01X2896854Y-315569D01*
G01X92660Y-201565D02*
G01X103836Y-195977D01*
G01X120854Y-179213D01*
G01X120854Y-297069D01*
G01X240996Y-218583D02*
G01X235408Y-235347D01*
G01X224232Y-246523D01*
G01X207468Y-252111D01*
G01X201880Y-252111D01*
G01X184862Y-246523D01*
G01X173686Y-235347D01*
G01X168098Y-218583D01*
G01X168098Y-212995D01*
G01X173686Y-195977D01*
G01X184862Y-184801D01*
G01X201880Y-179213D01*
G01X207468Y-179213D01*
G01X224232Y-184801D01*
G01X235408Y-195977D01*
G01X240996Y-218583D01*
G01X240996Y-246523D01*
G01X235408Y-274717D01*
G01X224232Y-291481D01*
G01X207468Y-297069D01*
G01X196292Y-297069D01*
G01X179274Y-291481D01*
G01X173686Y-280305D01*
G36*
G01X96821Y-649467D02*
G01X99765Y-649640D01*
G01X102882Y-649467D01*
G01X105653Y-649121D01*
G01X108424Y-648428D01*
G01X109983Y-647908D01*
G01X111542Y-647216D01*
G01X112754Y-646523D01*
G01X114139Y-645657D01*
G01X115352Y-644791D01*
G01X117083Y-643059D01*
G01X118122Y-641847D01*
G01X118988Y-640634D01*
G01X119681Y-639422D01*
G01X120374Y-638037D01*
G01X121067Y-636478D01*
G01X121759Y-634227D01*
G01X122279Y-631456D01*
G01X122625Y-629032D01*
G01X122798Y-626780D01*
G01X122972Y-624875D01*
G01X123145Y-595434D01*
G01X123145Y-566513D01*
G01X112407Y-566513D01*
G01X112407Y-596300D01*
G01X112234Y-626607D01*
G01X111888Y-630417D01*
G01X111542Y-632149D01*
G01X111022Y-633881D01*
G01X110156Y-635266D01*
G01X109117Y-636478D01*
G01X108251Y-637344D01*
G01X107212Y-638037D01*
G01X106173Y-638557D01*
G01X104961Y-639076D01*
G01X102190Y-639769D01*
G01X99246Y-639942D01*
G01X96475Y-639596D01*
G01X95089Y-639076D01*
G01X93877Y-638557D01*
G01X92838Y-637864D01*
G01X91972Y-637171D01*
G01X90933Y-635959D01*
G01X89894Y-634227D01*
G01X89201Y-632322D01*
G01X88682Y-630071D01*
G01X88335Y-628339D01*
G01X87989Y-625222D01*
G01X87642Y-624182D01*
G01X87209Y-623836D01*
G01X86257Y-623836D01*
G01X81408Y-624529D01*
G01X79157Y-624875D01*
G01X78117Y-625048D01*
G01X78117Y-627127D01*
G01X78291Y-629724D01*
G01X78637Y-632842D01*
G01X78983Y-634400D01*
G01X79503Y-636132D01*
G01X80022Y-637517D01*
G01X80542Y-638729D01*
G01X81235Y-640115D01*
G01X81927Y-641327D01*
G01X83313Y-643059D01*
G01X84525Y-644098D01*
G01X85737Y-645311D01*
G01X86603Y-646003D01*
G01X90413Y-647908D01*
G01X91972Y-648428D01*
G01X93531Y-648774D01*
G01X95262Y-649121D01*
G01X96821Y-649467D01*
G37*
G36*
G01X164708Y-616389D02*
G01X164708Y-648254D01*
G01X174407Y-648254D01*
G01X174407Y-566167D01*
G01X168172Y-566167D01*
G01X167652Y-567032D01*
G01X166787Y-568591D01*
G01X166094Y-569630D01*
G01X165401Y-570496D01*
G01X164362Y-571882D01*
G01X158820Y-577423D01*
G01X156742Y-579155D01*
G01X155876Y-579848D01*
G01X155010Y-580367D01*
G01X152586Y-582099D01*
G01X151547Y-582792D01*
G01X150334Y-583484D01*
G01X148949Y-584351D01*
G01X145832Y-585909D01*
G01X144792Y-586602D01*
G01X144403Y-587987D01*
G01X144273Y-591451D01*
G01X144446Y-594828D01*
G01X144966Y-595954D01*
G01X146178Y-595607D01*
G01X149295Y-594222D01*
G01X150681Y-593529D01*
G01X153798Y-591797D01*
G01X155010Y-591104D01*
G01X156049Y-590412D01*
G01X157435Y-589546D01*
G01X158993Y-588507D01*
G01X160725Y-587294D01*
G01X162457Y-585909D01*
G01X164016Y-584870D01*
G01X164708Y-584524D01*
G01X164708Y-616389D01*
G37*
G36*
G01X1714904Y-1706987D02*
G01X1714904Y-1708026D01*
G01X1768591Y-1708026D01*
G01X1768764Y-1707160D01*
G01X1768937Y-1702484D01*
G01X1768937Y-1698674D01*
G01X1768071Y-1698501D01*
G01X1747982Y-1698328D01*
G01X1733608Y-1698198D01*
G01X1728932Y-1697808D01*
G01X1729451Y-1696942D01*
G01X1730317Y-1695730D01*
G01X1733435Y-1692093D01*
G01X1734301Y-1691227D01*
G01X1736032Y-1689842D01*
G01X1736898Y-1688976D01*
G01X1738630Y-1687590D01*
G01X1739496Y-1686725D01*
G01X1741921Y-1684646D01*
G01X1743999Y-1682915D01*
G01X1748848Y-1678758D01*
G01X1749714Y-1677892D01*
G01X1751099Y-1676853D01*
G01X1754043Y-1673909D01*
G01X1755775Y-1672524D01*
G01X1758373Y-1669926D01*
G01X1760105Y-1667848D01*
G01X1762183Y-1665423D01*
G01X1762876Y-1664557D01*
G01X1763741Y-1663172D01*
G01X1764781Y-1661613D01*
G01X1765473Y-1660401D01*
G01X1766166Y-1659015D01*
G01X1766859Y-1657457D01*
G01X1767378Y-1655898D01*
G01X1768071Y-1653127D01*
G01X1768417Y-1651049D01*
G01X1768591Y-1647585D01*
G01X1768417Y-1644815D01*
G01X1768071Y-1643083D01*
G01X1767551Y-1641351D01*
G01X1767032Y-1640139D01*
G01X1766512Y-1638753D01*
G01X1765646Y-1637195D01*
G01X1764434Y-1635463D01*
G01X1763395Y-1634077D01*
G01X1761663Y-1632345D01*
G01X1760624Y-1631480D01*
G01X1759585Y-1630787D01*
G01X1758373Y-1629921D01*
G01X1756987Y-1629055D01*
G01X1755602Y-1628362D01*
G01X1753870Y-1627670D01*
G01X1752138Y-1627150D01*
G01X1750753Y-1626804D01*
G01X1749021Y-1626457D01*
G01X1746596Y-1626111D01*
G01X1742267Y-1625938D01*
G01X1738630Y-1626111D01*
G01X1736206Y-1626457D01*
G01X1734647Y-1626804D01*
G01X1732915Y-1627323D01*
G01X1730144Y-1628362D01*
G01X1728759Y-1629055D01*
G01X1727373Y-1629921D01*
G01X1726161Y-1630787D01*
G01X1724776Y-1631826D01*
G01X1722697Y-1633904D01*
G01X1722005Y-1634770D01*
G01X1721485Y-1635636D01*
G01X1720619Y-1636848D01*
G01X1719061Y-1639965D01*
G01X1718541Y-1641351D01*
G01X1718021Y-1642910D01*
G01X1717502Y-1644988D01*
G01X1717156Y-1646893D01*
G01X1716809Y-1648451D01*
G01X1716636Y-1649490D01*
G01X1717502Y-1649490D01*
G01X1718887Y-1649664D01*
G01X1725815Y-1650356D01*
G01X1726681Y-1650356D01*
G01X1727027Y-1648625D01*
G01X1727200Y-1646546D01*
G01X1727720Y-1644815D01*
G01X1728412Y-1642736D01*
G01X1729105Y-1641351D01*
G01X1729798Y-1640312D01*
G01X1730837Y-1638926D01*
G01X1732396Y-1637541D01*
G01X1733608Y-1636675D01*
G01X1734820Y-1635982D01*
G01X1736379Y-1635290D01*
G01X1738111Y-1634770D01*
G01X1739669Y-1634424D01*
G01X1743306Y-1634250D01*
G01X1746943Y-1634424D01*
G01X1748675Y-1634943D01*
G01X1750406Y-1635636D01*
G01X1751619Y-1636329D01*
G01X1752658Y-1637021D01*
G01X1753524Y-1637714D01*
G01X1755256Y-1639446D01*
G01X1755948Y-1640312D01*
G01X1757161Y-1642736D01*
G01X1757853Y-1644641D01*
G01X1758200Y-1646893D01*
G01X1758373Y-1648451D01*
G01X1758373Y-1649317D01*
G01X1758200Y-1650876D01*
G01X1757853Y-1652608D01*
G01X1757334Y-1654166D01*
G01X1756814Y-1655552D01*
G01X1756121Y-1656937D01*
G01X1755429Y-1658150D01*
G01X1754563Y-1659362D01*
G01X1753351Y-1661094D01*
G01X1751965Y-1662825D01*
G01X1744691Y-1670099D01*
G01X1742267Y-1672177D01*
G01X1741401Y-1673043D01*
G01X1740016Y-1674082D01*
G01X1738803Y-1675295D01*
G01X1737071Y-1676680D01*
G01X1732915Y-1680144D01*
G01X1730491Y-1682222D01*
G01X1727893Y-1684820D01*
G01X1726161Y-1686205D01*
G01X1724083Y-1688630D01*
G01X1723217Y-1689495D01*
G01X1721139Y-1692093D01*
G01X1720273Y-1693305D01*
G01X1719234Y-1694864D01*
G01X1718368Y-1696250D01*
G01X1717675Y-1697462D01*
G01X1716982Y-1698847D01*
G01X1716290Y-1700579D01*
G01X1715597Y-1702484D01*
G01X1715077Y-1704735D01*
G01X1714904Y-1706987D01*
G37*
G36*
G01X1676111Y-1709238D02*
G01X1679056Y-1709411D01*
G01X1682173Y-1709238D01*
G01X1684944Y-1708892D01*
G01X1687715Y-1708199D01*
G01X1689273Y-1707680D01*
G01X1690832Y-1706987D01*
G01X1692044Y-1706294D01*
G01X1693430Y-1705428D01*
G01X1694642Y-1704562D01*
G01X1696374Y-1702830D01*
G01X1697413Y-1701618D01*
G01X1698279Y-1700406D01*
G01X1698971Y-1699194D01*
G01X1699664Y-1697808D01*
G01X1700357Y-1696250D01*
G01X1701050Y-1693998D01*
G01X1701569Y-1691227D01*
G01X1701916Y-1688803D01*
G01X1702089Y-1686551D01*
G01X1702262Y-1684646D01*
G01X1702435Y-1655205D01*
G01X1702435Y-1626284D01*
G01X1691698Y-1626284D01*
G01X1691698Y-1656071D01*
G01X1691525Y-1686378D01*
G01X1691178Y-1690188D01*
G01X1690832Y-1691920D01*
G01X1690312Y-1693652D01*
G01X1689446Y-1695037D01*
G01X1688407Y-1696250D01*
G01X1687541Y-1697115D01*
G01X1686502Y-1697808D01*
G01X1685463Y-1698328D01*
G01X1684251Y-1698847D01*
G01X1681480Y-1699540D01*
G01X1678536Y-1699713D01*
G01X1675765Y-1699367D01*
G01X1674380Y-1698847D01*
G01X1673167Y-1698328D01*
G01X1672128Y-1697635D01*
G01X1671262Y-1696942D01*
G01X1670223Y-1695730D01*
G01X1669184Y-1693998D01*
G01X1668491Y-1692093D01*
G01X1667972Y-1689842D01*
G01X1667626Y-1688110D01*
G01X1667279Y-1684993D01*
G01X1666933Y-1683954D01*
G01X1666500Y-1683607D01*
G01X1665547Y-1683607D01*
G01X1660698Y-1684300D01*
G01X1658447Y-1684646D01*
G01X1657408Y-1684820D01*
G01X1657408Y-1686898D01*
G01X1657581Y-1689495D01*
G01X1657927Y-1692613D01*
G01X1658274Y-1694171D01*
G01X1658793Y-1695903D01*
G01X1659313Y-1697289D01*
G01X1659832Y-1698501D01*
G01X1660525Y-1699886D01*
G01X1661218Y-1701099D01*
G01X1662603Y-1702830D01*
G01X1663816Y-1703870D01*
G01X1665028Y-1705082D01*
G01X1665894Y-1705775D01*
G01X1669704Y-1707680D01*
G01X1671262Y-1708199D01*
G01X1672821Y-1708545D01*
G01X1674553Y-1708892D01*
G01X1676111Y-1709238D01*
G37*
G04 Text End*

G04 PolygonModel Start*
G54D12*
G01X1398000Y-619099D02*
G01X1398000Y-492099D01*
G01X1588500Y-619099D02*
G01X1588500Y-495062D01*
G01X1525000Y-492099D02*
G01X0Y-492099D01*
G01X0Y-492099D02*
G01X1000Y-492099D01*
G01X1000Y-42817D01*
G01X1525000Y-492099D02*
G01X3050000Y-492099D01*
G01X1398000Y-619099D02*
G01X1588500Y-619099D01*
G01X3050000Y-492099D02*
G01X3050000Y-42799D01*
G01X1683512Y-1770495D02*
G01X2833627Y-1770497D01*
G01X1683512Y-3020508D02*
G01X1683512Y-1770497D01*
G01X1683499Y-3020502D02*
G01X2833500Y-3020502D01*
G01X2832100Y-2913505D02*
G01X2603500Y-2913505D01*
G01X2603500Y-2913505D02*
G01X2603500Y-2773805D01*
G01X2832100Y-1887497D02*
G01X2603500Y-1887497D01*
G01X2603500Y-1887497D02*
G01X2603500Y-2001797D01*
G01X2603500Y-2001797D02*
G01X2590800Y-2014497D01*
G01X2832100Y-1887497D02*
G01X2832100Y-1770497D01*
G01X2832100Y-2913505D02*
G01X2832100Y-3020502D01*
G01X2603500Y-2913505D02*
G01X2603500Y-2873607D01*
G01X2603500Y-2667379D02*
G01X2603500Y-2623620D01*
G01X2603500Y-2417392D02*
G01X2603500Y-2373608D01*
G01X2603500Y-2167380D02*
G01X2603500Y-2123621D01*
G01X2603500Y-1917393D02*
G01X2603500Y-1887497D01*

M02*

