G04 Layer: DrillDrawingLayer*
G04 EasyEDA Pro v3.2.149.88089769, 2026-07-20 20:13:49*
G04 Gerber Generator version 0.3*
G04 Scale: 100 percent, Rotated: No, Reflected: No*
G04 Dimensions in millimeters*
G04 Leading zeros omitted, absolute positions, 4 integers and 5 decimals*
G04 Generated by one-click*
G04 Object Configs: Pad,Via,Track,Text,Image,Dimension,BoardOutline,BoardCutout,CopperFilled,SolidRegion,FPCStiffener,Line,PlaneZone,ComponentProperty,ComponentSilkscreen,TearDrop*
G04 Layer Configs: 1,2,3,4,5,6,7,8,9,10,11,13,14,56*
G04 Copper Areas: 0*
%FSLAX45Y45*%
%MOMM*%
%AMIconRect*4,1,4,0.28,-0.28,-0.28,-0.28,-0.28,0.28,0.28,0.28,0.28,-0.28,0*4,0,4,0.233333,-0.233333,0.233333,0.233333,-0.233333,0.233333,-0.233333,-0.233333,0.233333,-0.233333,0*%
%AMIconTriangle*4,1,3,-0.339593,0.240473,0.339593,0.240473,0,-0.37884,-0.339593,0.240473,0*4,0,3,-0.265673,0.19404,0,-0.27342,0.266233,0.19404,-0.265673,0.19404,0*%
%AMIconStar6*4,1,12,0.12068,0.20888,0.298527,0.172713,0.241313,0,0.298527,-0.17206,0.12068,-0.208227,0,-0.344073,-0.120073,-0.208227,-0.298573,-0.17206,-0.240707,0,-0.298573,0.17206,-0.120073,0.20888,0,0.344073,0.12068,0.20888,0*4,0,12,-0.000467,0.273467,-0.090067,0.171733,-0.237533,0.136733,-0.193667,-0.007467,-0.237533,-0.1372,-0.090067,-0.171733,-0.000467,-0.273933,0.090067,-0.171733,0.237533,-0.1372,0.194133,0.007,0.237533,0.1372,0.090067,0.171267,-0.000467,0.273467,0*%
%ADD10IconRect*%
%ADD11C,0.616X0.522667*%
%ADD12IconTriangle*%
%ADD13IconStar6*%
%ADD14C,0.2032*%
%ADD15C,0.254*%
G75*


G04 Drill Drawing Start*
G54D10*
G01X2669424Y-632576D03*
G54D11*
G01X825500Y-2903500D03*
G01X825500Y-1824000D03*
G54D12*
G01X400000Y-3400000D03*
G01X400000Y-1400000D03*
G01X2650000Y-3400000D03*
G01X2650000Y-1400000D03*
G54D13*
G01X2603500Y-2770493D03*
G01X2603500Y-2520506D03*
G01X2603500Y-2270494D03*
G01X2603500Y-2020507D03*
G04 Drill Drawing End*

G04 Text Start*
G54D14*
G01X5350446Y-221706D02*
G01X5350446Y-341848D01*
G01X5350446Y-221706D02*
G01X5396166Y-341848D01*
G01X5441886Y-221706D02*
G01X5396166Y-341848D01*
G01X5441886Y-221706D02*
G01X5441886Y-341848D01*
G01X5558218Y-261838D02*
G01X5558218Y-341848D01*
G01X5558218Y-278856D02*
G01X5546788Y-267426D01*
G01X5535358Y-261838D01*
G01X5518340Y-261838D01*
G01X5506910Y-267426D01*
G01X5495480Y-278856D01*
G01X5489638Y-296128D01*
G01X5489638Y-307558D01*
G01X5495480Y-324576D01*
G01X5506910Y-336006D01*
G01X5518340Y-341848D01*
G01X5535358Y-341848D01*
G01X5546788Y-336006D01*
G01X5558218Y-324576D01*
G01X5605970Y-261838D02*
G01X5605970Y-341848D01*
G01X5605970Y-296128D02*
G01X5611812Y-278856D01*
G01X5623242Y-267426D01*
G01X5634672Y-261838D01*
G01X5651690Y-261838D01*
G01X5699442Y-221706D02*
G01X5699442Y-341848D01*
G01X5756592Y-261838D02*
G01X5699442Y-318988D01*
G01X5722302Y-296128D02*
G01X5762434Y-341848D01*
G01X6887726Y-250408D02*
G01X6881884Y-238978D01*
G01X6870454Y-227548D01*
G01X6859024Y-221706D01*
G01X6836164Y-221706D01*
G01X6824734Y-227548D01*
G01X6813304Y-238978D01*
G01X6807716Y-250408D01*
G01X6801874Y-267426D01*
G01X6801874Y-296128D01*
G01X6807716Y-313146D01*
G01X6813304Y-324576D01*
G01X6824734Y-336006D01*
G01X6836164Y-341848D01*
G01X6859024Y-341848D01*
G01X6870454Y-336006D01*
G01X6881884Y-324576D01*
G01X6887726Y-313146D01*
G01X6964180Y-261838D02*
G01X6952750Y-267426D01*
G01X6941320Y-278856D01*
G01X6935478Y-296128D01*
G01X6935478Y-307558D01*
G01X6941320Y-324576D01*
G01X6952750Y-336006D01*
G01X6964180Y-341848D01*
G01X6981198Y-341848D01*
G01X6992628Y-336006D01*
G01X7004058Y-324576D01*
G01X7009900Y-307558D01*
G01X7009900Y-296128D01*
G01X7004058Y-278856D01*
G01X6992628Y-267426D01*
G01X6981198Y-261838D01*
G01X6964180Y-261838D01*
G01X7057652Y-261838D02*
G01X7057652Y-318988D01*
G01X7063494Y-336006D01*
G01X7074924Y-341848D01*
G01X7091942Y-341848D01*
G01X7103372Y-336006D01*
G01X7120644Y-318988D01*
G01X7120644Y-261838D02*
G01X7120644Y-341848D01*
G01X7168396Y-261838D02*
G01X7168396Y-341848D01*
G01X7168396Y-284698D02*
G01X7185668Y-267426D01*
G01X7197098Y-261838D01*
G01X7214116Y-261838D01*
G01X7225546Y-267426D01*
G01X7231388Y-284698D01*
G01X7231388Y-341848D01*
G01X7296412Y-221706D02*
G01X7296412Y-318988D01*
G01X7302000Y-336006D01*
G01X7313430Y-341848D01*
G01X7324860Y-341848D01*
G01X7279140Y-261838D02*
G01X7319272Y-261838D01*
G01X8296047Y-238978D02*
G01X8284617Y-227548D01*
G01X8267599Y-221706D01*
G01X8244739Y-221706D01*
G01X8227467Y-227548D01*
G01X8216037Y-238978D01*
G01X8216037Y-250408D01*
G01X8221879Y-261838D01*
G01X8227467Y-267426D01*
G01X8238897Y-273268D01*
G01X8273187Y-284698D01*
G01X8284617Y-290286D01*
G01X8290459Y-296128D01*
G01X8296047Y-307558D01*
G01X8296047Y-324576D01*
G01X8284617Y-336006D01*
G01X8267599Y-341848D01*
G01X8244739Y-341848D01*
G01X8227467Y-336006D01*
G01X8216037Y-324576D01*
G01X8343799Y-221706D02*
G01X8349641Y-227548D01*
G01X8355229Y-221706D01*
G01X8349641Y-216118D01*
G01X8343799Y-221706D01*
G01X8349641Y-261838D02*
G01X8349641Y-341848D01*
G01X8465973Y-261838D02*
G01X8402981Y-341848D01*
G01X8402981Y-261838D02*
G01X8465973Y-261838D01*
G01X8402981Y-341848D02*
G01X8465973Y-341848D01*
G01X8513725Y-296128D02*
G01X8582305Y-296128D01*
G01X8582305Y-284698D01*
G01X8576717Y-273268D01*
G01X8570875Y-267426D01*
G01X8559445Y-261838D01*
G01X8542427Y-261838D01*
G01X8530997Y-267426D01*
G01X8519567Y-278856D01*
G01X8513725Y-296128D01*
G01X8513725Y-307558D01*
G01X8519567Y-324576D01*
G01X8530997Y-336006D01*
G01X8542427Y-341848D01*
G01X8559445Y-341848D01*
G01X8570875Y-336006D01*
G01X8582305Y-324576D01*
G01X12262911Y-221706D02*
G01X12262911Y-341848D01*
G01X12262911Y-221706D02*
G01X12314473Y-221706D01*
G01X12331491Y-227548D01*
G01X12337333Y-233136D01*
G01X12342921Y-244566D01*
G01X12342921Y-261838D01*
G01X12337333Y-273268D01*
G01X12331491Y-278856D01*
G01X12314473Y-284698D01*
G01X12262911Y-284698D01*
G01X12390673Y-221706D02*
G01X12390673Y-341848D01*
G01X12507005Y-261838D02*
G01X12507005Y-341848D01*
G01X12507005Y-278856D02*
G01X12495575Y-267426D01*
G01X12484145Y-261838D01*
G01X12467127Y-261838D01*
G01X12455697Y-267426D01*
G01X12444267Y-278856D01*
G01X12438425Y-296128D01*
G01X12438425Y-307558D01*
G01X12444267Y-324576D01*
G01X12455697Y-336006D01*
G01X12467127Y-341848D01*
G01X12484145Y-341848D01*
G01X12495575Y-336006D01*
G01X12507005Y-324576D01*
G01X12572029Y-221706D02*
G01X12572029Y-318988D01*
G01X12577617Y-336006D01*
G01X12589047Y-341848D01*
G01X12600477Y-341848D01*
G01X12554757Y-261838D02*
G01X12594889Y-261838D01*
G01X12648229Y-296128D02*
G01X12716809Y-296128D01*
G01X12716809Y-284698D01*
G01X12711221Y-273268D01*
G01X12705379Y-267426D01*
G01X12693949Y-261838D01*
G01X12676931Y-261838D01*
G01X12665501Y-267426D01*
G01X12654071Y-278856D01*
G01X12648229Y-296128D01*
G01X12648229Y-307558D01*
G01X12654071Y-324576D01*
G01X12665501Y-336006D01*
G01X12676931Y-341848D01*
G01X12693949Y-341848D01*
G01X12705379Y-336006D01*
G01X12716809Y-324576D01*
G01X12833141Y-221706D02*
G01X12833141Y-341848D01*
G01X12833141Y-278856D02*
G01X12821711Y-267426D01*
G01X12810281Y-261838D01*
G01X12793263Y-261838D01*
G01X12781833Y-267426D01*
G01X12770403Y-278856D01*
G01X12764561Y-296128D01*
G01X12764561Y-307558D01*
G01X12770403Y-324576D01*
G01X12781833Y-336006D01*
G01X12793263Y-341848D01*
G01X12810281Y-341848D01*
G01X12821711Y-336006D01*
G01X12833141Y-324576D01*
G01X13804328Y-238978D02*
G01X13792898Y-227548D01*
G01X13775880Y-221706D01*
G01X13753020Y-221706D01*
G01X13735748Y-227548D01*
G01X13724318Y-238978D01*
G01X13724318Y-250408D01*
G01X13730160Y-261838D01*
G01X13735748Y-267426D01*
G01X13747178Y-273268D01*
G01X13781468Y-284698D01*
G01X13792898Y-290286D01*
G01X13798740Y-296128D01*
G01X13804328Y-307558D01*
G01X13804328Y-324576D01*
G01X13792898Y-336006D01*
G01X13775880Y-341848D01*
G01X13753020Y-341848D01*
G01X13735748Y-336006D01*
G01X13724318Y-324576D01*
G01X13852080Y-221706D02*
G01X13852080Y-341848D01*
G01X13852080Y-284698D02*
G01X13869352Y-267426D01*
G01X13880782Y-261838D01*
G01X13897800Y-261838D01*
G01X13909230Y-267426D01*
G01X13915072Y-284698D01*
G01X13915072Y-341848D01*
G01X14031404Y-261838D02*
G01X14031404Y-341848D01*
G01X14031404Y-278856D02*
G01X14019974Y-267426D01*
G01X14008544Y-261838D01*
G01X13991526Y-261838D01*
G01X13980096Y-267426D01*
G01X13968666Y-278856D01*
G01X13962824Y-296128D01*
G01X13962824Y-307558D01*
G01X13968666Y-324576D01*
G01X13980096Y-336006D01*
G01X13991526Y-341848D01*
G01X14008544Y-341848D01*
G01X14019974Y-336006D01*
G01X14031404Y-324576D01*
G01X14079156Y-261838D02*
G01X14079156Y-381726D01*
G01X14079156Y-278856D02*
G01X14090586Y-267426D01*
G01X14102016Y-261838D01*
G01X14119288Y-261838D01*
G01X14130718Y-267426D01*
G01X14142148Y-278856D01*
G01X14147736Y-296128D01*
G01X14147736Y-307558D01*
G01X14142148Y-324576D01*
G01X14130718Y-336006D01*
G01X14119288Y-341848D01*
G01X14102016Y-341848D01*
G01X14090586Y-336006D01*
G01X14079156Y-324576D01*
G01X14195488Y-296128D02*
G01X14264068Y-296128D01*
G01X14264068Y-284698D01*
G01X14258480Y-273268D01*
G01X14252638Y-267426D01*
G01X14241208Y-261838D01*
G01X14224190Y-261838D01*
G01X14212760Y-267426D01*
G01X14201330Y-278856D01*
G01X14195488Y-296128D01*
G01X14195488Y-307558D01*
G01X14201330Y-324576D01*
G01X14212760Y-336006D01*
G01X14224190Y-341848D01*
G01X14241208Y-341848D01*
G01X14252638Y-336006D01*
G01X14264068Y-324576D01*
G01X15155499Y-221706D02*
G01X15201219Y-341848D01*
G01X15246939Y-221706D02*
G01X15201219Y-341848D01*
G01X15294691Y-221706D02*
G01X15300533Y-227548D01*
G01X15306121Y-221706D01*
G01X15300533Y-216118D01*
G01X15294691Y-221706D01*
G01X15300533Y-261838D02*
G01X15300533Y-341848D01*
G01X15422453Y-261838D02*
G01X15422453Y-341848D01*
G01X15422453Y-278856D02*
G01X15411023Y-267426D01*
G01X15399593Y-261838D01*
G01X15382575Y-261838D01*
G01X15371145Y-267426D01*
G01X15359715Y-278856D01*
G01X15353873Y-296128D01*
G01X15353873Y-307558D01*
G01X15359715Y-324576D01*
G01X15371145Y-336006D01*
G01X15382575Y-341848D01*
G01X15399593Y-341848D01*
G01X15411023Y-336006D01*
G01X15422453Y-324576D01*
G01X15573075Y-198846D02*
G01X15470205Y-381726D01*
G01X15620827Y-221706D02*
G01X15620827Y-341848D01*
G01X15620827Y-221706D02*
G01X15672389Y-221706D01*
G01X15689407Y-227548D01*
G01X15695249Y-233136D01*
G01X15700837Y-244566D01*
G01X15700837Y-261838D01*
G01X15695249Y-273268D01*
G01X15689407Y-278856D01*
G01X15672389Y-284698D01*
G01X15620827Y-284698D01*
G01X15817169Y-261838D02*
G01X15817169Y-341848D01*
G01X15817169Y-278856D02*
G01X15805739Y-267426D01*
G01X15794309Y-261838D01*
G01X15777291Y-261838D01*
G01X15765861Y-267426D01*
G01X15754431Y-278856D01*
G01X15748589Y-296128D01*
G01X15748589Y-307558D01*
G01X15754431Y-324576D01*
G01X15765861Y-336006D01*
G01X15777291Y-341848D01*
G01X15794309Y-341848D01*
G01X15805739Y-336006D01*
G01X15817169Y-324576D01*
G01X15933501Y-221706D02*
G01X15933501Y-341848D01*
G01X15933501Y-278856D02*
G01X15922071Y-267426D01*
G01X15910641Y-261838D01*
G01X15893623Y-261838D01*
G01X15882193Y-267426D01*
G01X15870763Y-278856D01*
G01X15864921Y-296128D01*
G01X15864921Y-307558D01*
G01X15870763Y-324576D01*
G01X15882193Y-336006D01*
G01X15893623Y-341848D01*
G01X15910641Y-341848D01*
G01X15922071Y-336006D01*
G01X15933501Y-324576D01*
G01X16824678Y-221706D02*
G01X16824678Y-341848D01*
G01X16824678Y-221706D02*
G01X16876240Y-221706D01*
G01X16893258Y-227548D01*
G01X16899100Y-233136D01*
G01X16904688Y-244566D01*
G01X16904688Y-261838D01*
G01X16899100Y-273268D01*
G01X16893258Y-278856D01*
G01X16876240Y-284698D01*
G01X16824678Y-284698D01*
G01X17021020Y-261838D02*
G01X17021020Y-341848D01*
G01X17021020Y-278856D02*
G01X17009590Y-267426D01*
G01X16998160Y-261838D01*
G01X16981142Y-261838D01*
G01X16969712Y-267426D01*
G01X16958282Y-278856D01*
G01X16952440Y-296128D01*
G01X16952440Y-307558D01*
G01X16958282Y-324576D01*
G01X16969712Y-336006D01*
G01X16981142Y-341848D01*
G01X16998160Y-341848D01*
G01X17009590Y-336006D01*
G01X17021020Y-324576D01*
G01X17137352Y-221706D02*
G01X17137352Y-341848D01*
G01X17137352Y-278856D02*
G01X17125922Y-267426D01*
G01X17114492Y-261838D01*
G01X17097474Y-261838D01*
G01X17086044Y-267426D01*
G01X17074614Y-278856D01*
G01X17068772Y-296128D01*
G01X17068772Y-307558D01*
G01X17074614Y-324576D01*
G01X17086044Y-336006D01*
G01X17097474Y-341848D01*
G01X17114492Y-341848D01*
G01X17125922Y-336006D01*
G01X17137352Y-324576D01*
G01X17393130Y-238978D02*
G01X17381700Y-227548D01*
G01X17364682Y-221706D01*
G01X17341822Y-221706D01*
G01X17324550Y-227548D01*
G01X17313120Y-238978D01*
G01X17313120Y-250408D01*
G01X17318962Y-261838D01*
G01X17324550Y-267426D01*
G01X17335980Y-273268D01*
G01X17370270Y-284698D01*
G01X17381700Y-290286D01*
G01X17387542Y-296128D01*
G01X17393130Y-307558D01*
G01X17393130Y-324576D01*
G01X17381700Y-336006D01*
G01X17364682Y-341848D01*
G01X17341822Y-341848D01*
G01X17324550Y-336006D01*
G01X17313120Y-324576D01*
G01X17440882Y-221706D02*
G01X17440882Y-341848D01*
G01X17440882Y-284698D02*
G01X17458154Y-267426D01*
G01X17469584Y-261838D01*
G01X17486602Y-261838D01*
G01X17498032Y-267426D01*
G01X17503874Y-284698D01*
G01X17503874Y-341848D01*
G01X17620206Y-261838D02*
G01X17620206Y-341848D01*
G01X17620206Y-278856D02*
G01X17608776Y-267426D01*
G01X17597346Y-261838D01*
G01X17580328Y-261838D01*
G01X17568898Y-267426D01*
G01X17557468Y-278856D01*
G01X17551626Y-296128D01*
G01X17551626Y-307558D01*
G01X17557468Y-324576D01*
G01X17568898Y-336006D01*
G01X17580328Y-341848D01*
G01X17597346Y-341848D01*
G01X17608776Y-336006D01*
G01X17620206Y-324576D01*
G01X17667958Y-261838D02*
G01X17667958Y-381726D01*
G01X17667958Y-278856D02*
G01X17679388Y-267426D01*
G01X17690818Y-261838D01*
G01X17708090Y-261838D01*
G01X17719520Y-267426D01*
G01X17730950Y-278856D01*
G01X17736538Y-296128D01*
G01X17736538Y-307558D01*
G01X17730950Y-324576D01*
G01X17719520Y-336006D01*
G01X17708090Y-341848D01*
G01X17690818Y-341848D01*
G01X17679388Y-336006D01*
G01X17667958Y-324576D01*
G01X17784290Y-296128D02*
G01X17852870Y-296128D01*
G01X17852870Y-284698D01*
G01X17847282Y-273268D01*
G01X17841440Y-267426D01*
G01X17830010Y-261838D01*
G01X17812992Y-261838D01*
G01X17801562Y-267426D01*
G01X17790132Y-278856D01*
G01X17784290Y-296128D01*
G01X17784290Y-307558D01*
G01X17790132Y-324576D01*
G01X17801562Y-336006D01*
G01X17812992Y-341848D01*
G01X17830010Y-341848D01*
G01X17841440Y-336006D01*
G01X17852870Y-324576D01*
G01X18744047Y-221706D02*
G01X18744047Y-341848D01*
G01X18744047Y-341848D02*
G01X18812627Y-341848D01*
G01X18928959Y-261838D02*
G01X18928959Y-341848D01*
G01X18928959Y-278856D02*
G01X18917529Y-267426D01*
G01X18906099Y-261838D01*
G01X18889081Y-261838D01*
G01X18877651Y-267426D01*
G01X18866221Y-278856D01*
G01X18860379Y-296128D01*
G01X18860379Y-307558D01*
G01X18866221Y-324576D01*
G01X18877651Y-336006D01*
G01X18889081Y-341848D01*
G01X18906099Y-341848D01*
G01X18917529Y-336006D01*
G01X18928959Y-324576D01*
G01X18982553Y-261838D02*
G01X19016843Y-341848D01*
G01X19051133Y-261838D02*
G01X19016843Y-341848D01*
G01X19005413Y-364708D01*
G01X18993983Y-376138D01*
G01X18982553Y-381726D01*
G01X18976711Y-381726D01*
G01X19098885Y-296128D02*
G01X19167465Y-296128D01*
G01X19167465Y-284698D01*
G01X19161877Y-273268D01*
G01X19156035Y-267426D01*
G01X19144605Y-261838D01*
G01X19127587Y-261838D01*
G01X19116157Y-267426D01*
G01X19104727Y-278856D01*
G01X19098885Y-296128D01*
G01X19098885Y-307558D01*
G01X19104727Y-324576D01*
G01X19116157Y-336006D01*
G01X19127587Y-341848D01*
G01X19144605Y-341848D01*
G01X19156035Y-336006D01*
G01X19167465Y-324576D01*
G01X19215217Y-261838D02*
G01X19215217Y-341848D01*
G01X19215217Y-296128D02*
G01X19221059Y-278856D01*
G01X19232489Y-267426D01*
G01X19243919Y-261838D01*
G01X19260937Y-261838D01*
G01X19436705Y-221706D02*
G01X19436705Y-341848D01*
G01X19436705Y-221706D02*
G01X19488267Y-221706D01*
G01X19505285Y-227548D01*
G01X19511127Y-233136D01*
G01X19516715Y-244566D01*
G01X19516715Y-261838D01*
G01X19511127Y-273268D01*
G01X19505285Y-278856D01*
G01X19488267Y-284698D01*
G01X19436705Y-284698D01*
G01X19633047Y-261838D02*
G01X19633047Y-341848D01*
G01X19633047Y-278856D02*
G01X19621617Y-267426D01*
G01X19610187Y-261838D01*
G01X19593169Y-261838D01*
G01X19581739Y-267426D01*
G01X19570309Y-278856D01*
G01X19564467Y-296128D01*
G01X19564467Y-307558D01*
G01X19570309Y-324576D01*
G01X19581739Y-336006D01*
G01X19593169Y-341848D01*
G01X19610187Y-341848D01*
G01X19621617Y-336006D01*
G01X19633047Y-324576D01*
G01X19680799Y-221706D02*
G01X19686641Y-227548D01*
G01X19692229Y-221706D01*
G01X19686641Y-216118D01*
G01X19680799Y-221706D01*
G01X19686641Y-261838D02*
G01X19686641Y-341848D01*
G01X19739981Y-261838D02*
G01X19739981Y-341848D01*
G01X19739981Y-296128D02*
G01X19745823Y-278856D01*
G01X19757253Y-267426D01*
G01X19768683Y-261838D01*
G01X19785701Y-261838D01*
G01X6801874Y-825137D02*
G01X6813304Y-819549D01*
G01X6830576Y-802277D01*
G01X6830576Y-922419D01*
G01X8216037Y-825137D02*
G01X8227467Y-819549D01*
G01X8244739Y-802277D01*
G01X8244739Y-922419D01*
G01X8298333Y-830979D02*
G01X8298333Y-825137D01*
G01X8303921Y-813707D01*
G01X8309763Y-808119D01*
G01X8321193Y-802277D01*
G01X8344053Y-802277D01*
G01X8355483Y-808119D01*
G01X8361071Y-813707D01*
G01X8366913Y-825137D01*
G01X8366913Y-836567D01*
G01X8361071Y-847997D01*
G01X8349641Y-865269D01*
G01X8292491Y-922419D01*
G01X8372501Y-922419D01*
G01X8426095Y-893717D02*
G01X8420253Y-899559D01*
G01X8426095Y-905147D01*
G01X8431683Y-899559D01*
G01X8426095Y-893717D01*
G01X8513725Y-802277D02*
G01X8496707Y-808119D01*
G01X8485277Y-825137D01*
G01X8479435Y-853839D01*
G01X8479435Y-870857D01*
G01X8485277Y-899559D01*
G01X8496707Y-916577D01*
G01X8513725Y-922419D01*
G01X8525155Y-922419D01*
G01X8542427Y-916577D01*
G01X8553857Y-899559D01*
G01X8559445Y-870857D01*
G01X8559445Y-853839D01*
G01X8553857Y-825137D01*
G01X8542427Y-808119D01*
G01X8525155Y-802277D01*
G01X8513725Y-802277D01*
G01X8607197Y-842409D02*
G01X8607197Y-922419D01*
G01X8607197Y-865269D02*
G01X8624469Y-847997D01*
G01X8635899Y-842409D01*
G01X8652917Y-842409D01*
G01X8664347Y-847997D01*
G01X8670189Y-865269D01*
G01X8670189Y-922419D01*
G01X8670189Y-865269D02*
G01X8687207Y-847997D01*
G01X8698637Y-842409D01*
G01X8715909Y-842409D01*
G01X8727339Y-847997D01*
G01X8732927Y-865269D01*
G01X8732927Y-922419D01*
G01X8780679Y-802277D02*
G01X8786521Y-808119D01*
G01X8792109Y-802277D01*
G01X8786521Y-796689D01*
G01X8780679Y-802277D01*
G01X8786521Y-842409D02*
G01X8786521Y-922419D01*
G01X8839861Y-802277D02*
G01X8839861Y-922419D01*
G01X8927745Y-779417D02*
G01X8916315Y-790847D01*
G01X8904885Y-808119D01*
G01X8893455Y-830979D01*
G01X8887613Y-859427D01*
G01X8887613Y-882287D01*
G01X8893455Y-910989D01*
G01X8904885Y-933849D01*
G01X8916315Y-950867D01*
G01X8927745Y-962297D01*
G01X9009787Y-802277D02*
G01X8992769Y-808119D01*
G01X8981339Y-825137D01*
G01X8975497Y-853839D01*
G01X8975497Y-870857D01*
G01X8981339Y-899559D01*
G01X8992769Y-916577D01*
G01X9009787Y-922419D01*
G01X9021217Y-922419D01*
G01X9038489Y-916577D01*
G01X9049919Y-899559D01*
G01X9055507Y-870857D01*
G01X9055507Y-853839D01*
G01X9049919Y-825137D01*
G01X9038489Y-808119D01*
G01X9021217Y-802277D01*
G01X9009787Y-802277D01*
G01X9109101Y-893717D02*
G01X9103259Y-899559D01*
G01X9109101Y-905147D01*
G01X9114689Y-899559D01*
G01X9109101Y-893717D01*
G01X9173871Y-802277D02*
G01X9236863Y-802277D01*
G01X9202573Y-847997D01*
G01X9219591Y-847997D01*
G01X9231021Y-853839D01*
G01X9236863Y-859427D01*
G01X9242451Y-876699D01*
G01X9242451Y-888129D01*
G01X9236863Y-905147D01*
G01X9225433Y-916577D01*
G01X9208161Y-922419D01*
G01X9191143Y-922419D01*
G01X9173871Y-916577D01*
G01X9168283Y-910989D01*
G01X9162441Y-899559D01*
G01X9324493Y-802277D02*
G01X9307475Y-808119D01*
G01X9296045Y-825137D01*
G01X9290203Y-853839D01*
G01X9290203Y-870857D01*
G01X9296045Y-899559D01*
G01X9307475Y-916577D01*
G01X9324493Y-922419D01*
G01X9335923Y-922419D01*
G01X9353195Y-916577D01*
G01X9364625Y-899559D01*
G01X9370213Y-870857D01*
G01X9370213Y-853839D01*
G01X9364625Y-825137D01*
G01X9353195Y-808119D01*
G01X9335923Y-802277D01*
G01X9324493Y-802277D01*
G01X9486545Y-802277D02*
G01X9429395Y-802277D01*
G01X9423807Y-853839D01*
G01X9429395Y-847997D01*
G01X9446667Y-842409D01*
G01X9463685Y-842409D01*
G01X9480957Y-847997D01*
G01X9492387Y-859427D01*
G01X9497975Y-876699D01*
G01X9497975Y-888129D01*
G01X9492387Y-905147D01*
G01X9480957Y-916577D01*
G01X9463685Y-922419D01*
G01X9446667Y-922419D01*
G01X9429395Y-916577D01*
G01X9423807Y-910989D01*
G01X9417965Y-899559D01*
G01X9545727Y-842409D02*
G01X9545727Y-922419D01*
G01X9545727Y-865269D02*
G01X9562999Y-847997D01*
G01X9574429Y-842409D01*
G01X9591447Y-842409D01*
G01X9602877Y-847997D01*
G01X9608719Y-865269D01*
G01X9608719Y-922419D01*
G01X9608719Y-865269D02*
G01X9625737Y-847997D01*
G01X9637167Y-842409D01*
G01X9654439Y-842409D01*
G01X9665869Y-847997D01*
G01X9671457Y-865269D01*
G01X9671457Y-922419D01*
G01X9719209Y-842409D02*
G01X9719209Y-922419D01*
G01X9719209Y-865269D02*
G01X9736481Y-847997D01*
G01X9747911Y-842409D01*
G01X9764929Y-842409D01*
G01X9776359Y-847997D01*
G01X9782201Y-865269D01*
G01X9782201Y-922419D01*
G01X9782201Y-865269D02*
G01X9799219Y-847997D01*
G01X9810649Y-842409D01*
G01X9827921Y-842409D01*
G01X9839351Y-847997D01*
G01X9844939Y-865269D01*
G01X9844939Y-922419D01*
G01X9892691Y-779417D02*
G01X9904121Y-790847D01*
G01X9915551Y-808119D01*
G01X9926981Y-830979D01*
G01X9932823Y-859427D01*
G01X9932823Y-882287D01*
G01X9926981Y-910989D01*
G01X9915551Y-933849D01*
G01X9904121Y-950867D01*
G01X9892691Y-962297D01*
G01X12262911Y-802277D02*
G01X12262911Y-922419D01*
G01X12262911Y-802277D02*
G01X12314473Y-802277D01*
G01X12331491Y-808119D01*
G01X12337333Y-813707D01*
G01X12342921Y-825137D01*
G01X12342921Y-842409D01*
G01X12337333Y-853839D01*
G01X12331491Y-859427D01*
G01X12314473Y-865269D01*
G01X12262911Y-865269D01*
G01X12430805Y-802277D02*
G01X12430805Y-922419D01*
G01X12390673Y-802277D02*
G01X12470683Y-802277D01*
G01X12518435Y-802277D02*
G01X12518435Y-922419D01*
G01X12598445Y-802277D02*
G01X12598445Y-922419D01*
G01X12518435Y-859427D02*
G01X12598445Y-859427D01*
G01X13724318Y-802277D02*
G01X13724318Y-922419D01*
G01X13724318Y-802277D02*
G01X13775880Y-802277D01*
G01X13792898Y-808119D01*
G01X13798740Y-813707D01*
G01X13804328Y-825137D01*
G01X13804328Y-836567D01*
G01X13798740Y-847997D01*
G01X13792898Y-853839D01*
G01X13775880Y-859427D01*
G01X13724318Y-859427D01*
G01X13764450Y-859427D02*
G01X13804328Y-922419D01*
G01X13880782Y-842409D02*
G01X13869352Y-847997D01*
G01X13857922Y-859427D01*
G01X13852080Y-876699D01*
G01X13852080Y-888129D01*
G01X13857922Y-905147D01*
G01X13869352Y-916577D01*
G01X13880782Y-922419D01*
G01X13897800Y-922419D01*
G01X13909230Y-916577D01*
G01X13920660Y-905147D01*
G01X13926502Y-888129D01*
G01X13926502Y-876699D01*
G01X13920660Y-859427D01*
G01X13909230Y-847997D01*
G01X13897800Y-842409D01*
G01X13880782Y-842409D01*
G01X13974254Y-842409D02*
G01X13974254Y-899559D01*
G01X13980096Y-916577D01*
G01X13991526Y-922419D01*
G01X14008544Y-922419D01*
G01X14019974Y-916577D01*
G01X14037246Y-899559D01*
G01X14037246Y-842409D02*
G01X14037246Y-922419D01*
G01X14084998Y-842409D02*
G01X14084998Y-922419D01*
G01X14084998Y-865269D02*
G01X14102270Y-847997D01*
G01X14113700Y-842409D01*
G01X14130718Y-842409D01*
G01X14142148Y-847997D01*
G01X14147990Y-865269D01*
G01X14147990Y-922419D01*
G01X14264322Y-802277D02*
G01X14264322Y-922419D01*
G01X14264322Y-859427D02*
G01X14252892Y-847997D01*
G01X14241462Y-842409D01*
G01X14224444Y-842409D01*
G01X14213014Y-847997D01*
G01X14201584Y-859427D01*
G01X14195742Y-876699D01*
G01X14195742Y-888129D01*
G01X14201584Y-905147D01*
G01X14213014Y-916577D01*
G01X14224444Y-922419D01*
G01X14241462Y-922419D01*
G01X14252892Y-916577D01*
G01X14264322Y-905147D01*
G01X15155499Y-802277D02*
G01X15201219Y-922419D01*
G01X15246939Y-802277D02*
G01X15201219Y-922419D01*
G01X15294691Y-802277D02*
G01X15300533Y-808119D01*
G01X15306121Y-802277D01*
G01X15300533Y-796689D01*
G01X15294691Y-802277D01*
G01X15300533Y-842409D02*
G01X15300533Y-922419D01*
G01X15422453Y-842409D02*
G01X15422453Y-922419D01*
G01X15422453Y-859427D02*
G01X15411023Y-847997D01*
G01X15399593Y-842409D01*
G01X15382575Y-842409D01*
G01X15371145Y-847997D01*
G01X15359715Y-859427D01*
G01X15353873Y-876699D01*
G01X15353873Y-888129D01*
G01X15359715Y-905147D01*
G01X15371145Y-916577D01*
G01X15382575Y-922419D01*
G01X15399593Y-922419D01*
G01X15411023Y-916577D01*
G01X15422453Y-905147D01*
G01X18784179Y-802277D02*
G01X18784179Y-922419D01*
G01X18744047Y-802277D02*
G01X18824057Y-802277D01*
G01X18900511Y-842409D02*
G01X18889081Y-847997D01*
G01X18877651Y-859427D01*
G01X18871809Y-876699D01*
G01X18871809Y-888129D01*
G01X18877651Y-905147D01*
G01X18889081Y-916577D01*
G01X18900511Y-922419D01*
G01X18917529Y-922419D01*
G01X18928959Y-916577D01*
G01X18940389Y-905147D01*
G01X18946231Y-888129D01*
G01X18946231Y-876699D01*
G01X18940389Y-859427D01*
G01X18928959Y-847997D01*
G01X18917529Y-842409D01*
G01X18900511Y-842409D01*
G01X18993983Y-842409D02*
G01X18993983Y-962297D01*
G01X18993983Y-859427D02*
G01X19005413Y-847997D01*
G01X19016843Y-842409D01*
G01X19034115Y-842409D01*
G01X19045545Y-847997D01*
G01X19056975Y-859427D01*
G01X19062563Y-876699D01*
G01X19062563Y-888129D01*
G01X19056975Y-905147D01*
G01X19045545Y-916577D01*
G01X19034115Y-922419D01*
G01X19016843Y-922419D01*
G01X19005413Y-916577D01*
G01X18993983Y-905147D01*
G01X19238331Y-802277D02*
G01X19238331Y-922419D01*
G01X19238331Y-922419D02*
G01X19306911Y-922419D01*
G01X19423243Y-842409D02*
G01X19423243Y-922419D01*
G01X19423243Y-859427D02*
G01X19411813Y-847997D01*
G01X19400383Y-842409D01*
G01X19383365Y-842409D01*
G01X19371935Y-847997D01*
G01X19360505Y-859427D01*
G01X19354663Y-876699D01*
G01X19354663Y-888129D01*
G01X19360505Y-905147D01*
G01X19371935Y-916577D01*
G01X19383365Y-922419D01*
G01X19400383Y-922419D01*
G01X19411813Y-916577D01*
G01X19423243Y-905147D01*
G01X19476837Y-842409D02*
G01X19511127Y-922419D01*
G01X19545417Y-842409D02*
G01X19511127Y-922419D01*
G01X19499697Y-945279D01*
G01X19488267Y-956709D01*
G01X19476837Y-962297D01*
G01X19470995Y-962297D01*
G01X19593169Y-876699D02*
G01X19661749Y-876699D01*
G01X19661749Y-865269D01*
G01X19656161Y-853839D01*
G01X19650319Y-847997D01*
G01X19638889Y-842409D01*
G01X19621871Y-842409D01*
G01X19610441Y-847997D01*
G01X19599011Y-859427D01*
G01X19593169Y-876699D01*
G01X19593169Y-888129D01*
G01X19599011Y-905147D01*
G01X19610441Y-916577D01*
G01X19621871Y-922419D01*
G01X19638889Y-922419D01*
G01X19650319Y-916577D01*
G01X19661749Y-905147D01*
G01X19709501Y-842409D02*
G01X19709501Y-922419D01*
G01X19709501Y-876699D02*
G01X19715343Y-859427D01*
G01X19726773Y-847997D01*
G01X19738203Y-842409D01*
G01X19755221Y-842409D01*
G01X19802973Y-870857D02*
G01X19905843Y-870857D01*
G01X19953595Y-802277D02*
G01X19953595Y-922419D01*
G01X19953595Y-802277D02*
G01X20005157Y-802277D01*
G01X20022175Y-808119D01*
G01X20028017Y-813707D01*
G01X20033605Y-825137D01*
G01X20033605Y-836567D01*
G01X20028017Y-847997D01*
G01X20022175Y-853839D01*
G01X20005157Y-859427D01*
G01X19953595Y-859427D02*
G01X20005157Y-859427D01*
G01X20022175Y-865269D01*
G01X20028017Y-870857D01*
G01X20033605Y-882287D01*
G01X20033605Y-899559D01*
G01X20028017Y-910989D01*
G01X20022175Y-916577D01*
G01X20005157Y-922419D01*
G01X19953595Y-922419D01*
G01X20110059Y-842409D02*
G01X20098629Y-847997D01*
G01X20087199Y-859427D01*
G01X20081357Y-876699D01*
G01X20081357Y-888129D01*
G01X20087199Y-905147D01*
G01X20098629Y-916577D01*
G01X20110059Y-922419D01*
G01X20127077Y-922419D01*
G01X20138507Y-916577D01*
G01X20149937Y-905147D01*
G01X20155779Y-888129D01*
G01X20155779Y-876699D01*
G01X20149937Y-859427D01*
G01X20138507Y-847997D01*
G01X20127077Y-842409D01*
G01X20110059Y-842409D01*
G01X20220803Y-802277D02*
G01X20220803Y-899559D01*
G01X20226391Y-916577D01*
G01X20237821Y-922419D01*
G01X20249251Y-922419D01*
G01X20203531Y-842409D02*
G01X20243663Y-842409D01*
G01X20314275Y-802277D02*
G01X20314275Y-899559D01*
G01X20319863Y-916577D01*
G01X20331293Y-922419D01*
G01X20342723Y-922419D01*
G01X20297003Y-842409D02*
G01X20337135Y-842409D01*
G01X20419177Y-842409D02*
G01X20407747Y-847997D01*
G01X20396317Y-859427D01*
G01X20390475Y-876699D01*
G01X20390475Y-888129D01*
G01X20396317Y-905147D01*
G01X20407747Y-916577D01*
G01X20419177Y-922419D01*
G01X20436195Y-922419D01*
G01X20447625Y-916577D01*
G01X20459055Y-905147D01*
G01X20464897Y-888129D01*
G01X20464897Y-876699D01*
G01X20459055Y-859427D01*
G01X20447625Y-847997D01*
G01X20436195Y-842409D01*
G01X20419177Y-842409D01*
G01X20512649Y-842409D02*
G01X20512649Y-922419D01*
G01X20512649Y-865269D02*
G01X20529921Y-847997D01*
G01X20541351Y-842409D01*
G01X20558369Y-842409D01*
G01X20569799Y-847997D01*
G01X20575641Y-865269D01*
G01X20575641Y-922419D01*
G01X20575641Y-865269D02*
G01X20592659Y-847997D01*
G01X20604089Y-842409D01*
G01X20621361Y-842409D01*
G01X20632791Y-847997D01*
G01X20638379Y-865269D01*
G01X20638379Y-922419D01*
G01X20814147Y-802277D02*
G01X20814147Y-922419D01*
G01X20814147Y-922419D02*
G01X20882727Y-922419D01*
G01X20999059Y-842409D02*
G01X20999059Y-922419D01*
G01X20999059Y-859427D02*
G01X20987629Y-847997D01*
G01X20976199Y-842409D01*
G01X20959181Y-842409D01*
G01X20947751Y-847997D01*
G01X20936321Y-859427D01*
G01X20930479Y-876699D01*
G01X20930479Y-888129D01*
G01X20936321Y-905147D01*
G01X20947751Y-916577D01*
G01X20959181Y-922419D01*
G01X20976199Y-922419D01*
G01X20987629Y-916577D01*
G01X20999059Y-905147D01*
G01X21052653Y-842409D02*
G01X21086943Y-922419D01*
G01X21121233Y-842409D02*
G01X21086943Y-922419D01*
G01X21075513Y-945279D01*
G01X21064083Y-956709D01*
G01X21052653Y-962297D01*
G01X21046811Y-962297D01*
G01X21168985Y-876699D02*
G01X21237565Y-876699D01*
G01X21237565Y-865269D01*
G01X21231977Y-853839D01*
G01X21226135Y-847997D01*
G01X21214705Y-842409D01*
G01X21197687Y-842409D01*
G01X21186257Y-847997D01*
G01X21174827Y-859427D01*
G01X21168985Y-876699D01*
G01X21168985Y-888129D01*
G01X21174827Y-905147D01*
G01X21186257Y-916577D01*
G01X21197687Y-922419D01*
G01X21214705Y-922419D01*
G01X21226135Y-916577D01*
G01X21237565Y-905147D01*
G01X21285317Y-842409D02*
G01X21285317Y-922419D01*
G01X21285317Y-876699D02*
G01X21291159Y-859427D01*
G01X21302589Y-847997D01*
G01X21314019Y-842409D01*
G01X21331037Y-842409D01*
G01X6807716Y-1411551D02*
G01X6807716Y-1405709D01*
G01X6813304Y-1394279D01*
G01X6819146Y-1388691D01*
G01X6830576Y-1382849D01*
G01X6853436Y-1382849D01*
G01X6864866Y-1388691D01*
G01X6870454Y-1394279D01*
G01X6876296Y-1405709D01*
G01X6876296Y-1417139D01*
G01X6870454Y-1428569D01*
G01X6859024Y-1445841D01*
G01X6801874Y-1502991D01*
G01X6881884Y-1502991D01*
G01X8216037Y-1405709D02*
G01X8227467Y-1400121D01*
G01X8244739Y-1382849D01*
G01X8244739Y-1502991D01*
G01X8292491Y-1405709D02*
G01X8303921Y-1400121D01*
G01X8321193Y-1382849D01*
G01X8321193Y-1502991D01*
G01X8397647Y-1382849D02*
G01X8380375Y-1388691D01*
G01X8374787Y-1400121D01*
G01X8374787Y-1411551D01*
G01X8380375Y-1422981D01*
G01X8391805Y-1428569D01*
G01X8414665Y-1434411D01*
G01X8431937Y-1439999D01*
G01X8443367Y-1451429D01*
G01X8448955Y-1462859D01*
G01X8448955Y-1480131D01*
G01X8443367Y-1491561D01*
G01X8437525Y-1497149D01*
G01X8420507Y-1502991D01*
G01X8397647Y-1502991D01*
G01X8380375Y-1497149D01*
G01X8374787Y-1491561D01*
G01X8368945Y-1480131D01*
G01X8368945Y-1462859D01*
G01X8374787Y-1451429D01*
G01X8386217Y-1439999D01*
G01X8403235Y-1434411D01*
G01X8426095Y-1428569D01*
G01X8437525Y-1422981D01*
G01X8443367Y-1411551D01*
G01X8443367Y-1400121D01*
G01X8437525Y-1388691D01*
G01X8420507Y-1382849D01*
G01X8397647Y-1382849D01*
G01X8502549Y-1474289D02*
G01X8496707Y-1480131D01*
G01X8502549Y-1485719D01*
G01X8508137Y-1480131D01*
G01X8502549Y-1474289D01*
G01X8555889Y-1405709D02*
G01X8567319Y-1400121D01*
G01X8584591Y-1382849D01*
G01X8584591Y-1502991D01*
G01X8632343Y-1422981D02*
G01X8695335Y-1502991D01*
G01X8695335Y-1422981D02*
G01X8632343Y-1502991D01*
G01X8743087Y-1405709D02*
G01X8754517Y-1400121D01*
G01X8771789Y-1382849D01*
G01X8771789Y-1502991D01*
G01X8819541Y-1405709D02*
G01X8830971Y-1400121D01*
G01X8848243Y-1382849D01*
G01X8848243Y-1502991D01*
G01X8924697Y-1382849D02*
G01X8907425Y-1388691D01*
G01X8901837Y-1400121D01*
G01X8901837Y-1411551D01*
G01X8907425Y-1422981D01*
G01X8918855Y-1428569D01*
G01X8941715Y-1434411D01*
G01X8958987Y-1439999D01*
G01X8970417Y-1451429D01*
G01X8976005Y-1462859D01*
G01X8976005Y-1480131D01*
G01X8970417Y-1491561D01*
G01X8964575Y-1497149D01*
G01X8947557Y-1502991D01*
G01X8924697Y-1502991D01*
G01X8907425Y-1497149D01*
G01X8901837Y-1491561D01*
G01X8895995Y-1480131D01*
G01X8895995Y-1462859D01*
G01X8901837Y-1451429D01*
G01X8913267Y-1439999D01*
G01X8930285Y-1434411D01*
G01X8953145Y-1428569D01*
G01X8964575Y-1422981D01*
G01X8970417Y-1411551D01*
G01X8970417Y-1400121D01*
G01X8964575Y-1388691D01*
G01X8947557Y-1382849D01*
G01X8924697Y-1382849D01*
G01X9029599Y-1474289D02*
G01X9023757Y-1480131D01*
G01X9029599Y-1485719D01*
G01X9035187Y-1480131D01*
G01X9029599Y-1474289D01*
G01X9082939Y-1405709D02*
G01X9094369Y-1400121D01*
G01X9111641Y-1382849D01*
G01X9111641Y-1502991D01*
G01X9159393Y-1422981D02*
G01X9159393Y-1502991D01*
G01X9159393Y-1445841D02*
G01X9176665Y-1428569D01*
G01X9188095Y-1422981D01*
G01X9205113Y-1422981D01*
G01X9216543Y-1428569D01*
G01X9222385Y-1445841D01*
G01X9222385Y-1502991D01*
G01X9222385Y-1445841D02*
G01X9239403Y-1428569D01*
G01X9250833Y-1422981D01*
G01X9268105Y-1422981D01*
G01X9279535Y-1428569D01*
G01X9285123Y-1445841D01*
G01X9285123Y-1502991D01*
G01X9332875Y-1382849D02*
G01X9338717Y-1388691D01*
G01X9344305Y-1382849D01*
G01X9338717Y-1377261D01*
G01X9332875Y-1382849D01*
G01X9338717Y-1422981D02*
G01X9338717Y-1502991D01*
G01X9392057Y-1382849D02*
G01X9392057Y-1502991D01*
G01X9479941Y-1359989D02*
G01X9468511Y-1371419D01*
G01X9457081Y-1388691D01*
G01X9445651Y-1411551D01*
G01X9439809Y-1439999D01*
G01X9439809Y-1462859D01*
G01X9445651Y-1491561D01*
G01X9457081Y-1514421D01*
G01X9468511Y-1531439D01*
G01X9479941Y-1542869D01*
G01X9539123Y-1382849D02*
G01X9602115Y-1382849D01*
G01X9567825Y-1428569D01*
G01X9584843Y-1428569D01*
G01X9596273Y-1434411D01*
G01X9602115Y-1439999D01*
G01X9607703Y-1457271D01*
G01X9607703Y-1468701D01*
G01X9602115Y-1485719D01*
G01X9590685Y-1497149D01*
G01X9573413Y-1502991D01*
G01X9556395Y-1502991D01*
G01X9539123Y-1497149D01*
G01X9533535Y-1491561D01*
G01X9527693Y-1480131D01*
G01X9661297Y-1474289D02*
G01X9655455Y-1480131D01*
G01X9661297Y-1485719D01*
G01X9666885Y-1480131D01*
G01X9661297Y-1474289D01*
G01X9748927Y-1382849D02*
G01X9731909Y-1388691D01*
G01X9720479Y-1405709D01*
G01X9714637Y-1434411D01*
G01X9714637Y-1451429D01*
G01X9720479Y-1480131D01*
G01X9731909Y-1497149D01*
G01X9748927Y-1502991D01*
G01X9760357Y-1502991D01*
G01X9777629Y-1497149D01*
G01X9789059Y-1480131D01*
G01X9794647Y-1451429D01*
G01X9794647Y-1434411D01*
G01X9789059Y-1405709D01*
G01X9777629Y-1388691D01*
G01X9760357Y-1382849D01*
G01X9748927Y-1382849D01*
G01X9876689Y-1382849D02*
G01X9859671Y-1388691D01*
G01X9848241Y-1405709D01*
G01X9842399Y-1434411D01*
G01X9842399Y-1451429D01*
G01X9848241Y-1480131D01*
G01X9859671Y-1497149D01*
G01X9876689Y-1502991D01*
G01X9888119Y-1502991D01*
G01X9905391Y-1497149D01*
G01X9916821Y-1480131D01*
G01X9922409Y-1451429D01*
G01X9922409Y-1434411D01*
G01X9916821Y-1405709D01*
G01X9905391Y-1388691D01*
G01X9888119Y-1382849D01*
G01X9876689Y-1382849D01*
G01X10004451Y-1382849D02*
G01X9987433Y-1388691D01*
G01X9976003Y-1405709D01*
G01X9970161Y-1434411D01*
G01X9970161Y-1451429D01*
G01X9976003Y-1480131D01*
G01X9987433Y-1497149D01*
G01X10004451Y-1502991D01*
G01X10015881Y-1502991D01*
G01X10033153Y-1497149D01*
G01X10044583Y-1480131D01*
G01X10050171Y-1451429D01*
G01X10050171Y-1434411D01*
G01X10044583Y-1405709D01*
G01X10033153Y-1388691D01*
G01X10015881Y-1382849D01*
G01X10004451Y-1382849D01*
G01X10097923Y-1422981D02*
G01X10160915Y-1502991D01*
G01X10160915Y-1422981D02*
G01X10097923Y-1502991D01*
G01X10220097Y-1382849D02*
G01X10283089Y-1382849D01*
G01X10248799Y-1428569D01*
G01X10265817Y-1428569D01*
G01X10277247Y-1434411D01*
G01X10283089Y-1439999D01*
G01X10288677Y-1457271D01*
G01X10288677Y-1468701D01*
G01X10283089Y-1485719D01*
G01X10271659Y-1497149D01*
G01X10254387Y-1502991D01*
G01X10237369Y-1502991D01*
G01X10220097Y-1497149D01*
G01X10214509Y-1491561D01*
G01X10208667Y-1480131D01*
G01X10342271Y-1474289D02*
G01X10336429Y-1480131D01*
G01X10342271Y-1485719D01*
G01X10347859Y-1480131D01*
G01X10342271Y-1474289D01*
G01X10429901Y-1382849D02*
G01X10412883Y-1388691D01*
G01X10401453Y-1405709D01*
G01X10395611Y-1434411D01*
G01X10395611Y-1451429D01*
G01X10401453Y-1480131D01*
G01X10412883Y-1497149D01*
G01X10429901Y-1502991D01*
G01X10441331Y-1502991D01*
G01X10458603Y-1497149D01*
G01X10470033Y-1480131D01*
G01X10475621Y-1451429D01*
G01X10475621Y-1434411D01*
G01X10470033Y-1405709D01*
G01X10458603Y-1388691D01*
G01X10441331Y-1382849D01*
G01X10429901Y-1382849D01*
G01X10557663Y-1382849D02*
G01X10540645Y-1388691D01*
G01X10529215Y-1405709D01*
G01X10523373Y-1434411D01*
G01X10523373Y-1451429D01*
G01X10529215Y-1480131D01*
G01X10540645Y-1497149D01*
G01X10557663Y-1502991D01*
G01X10569093Y-1502991D01*
G01X10586365Y-1497149D01*
G01X10597795Y-1480131D01*
G01X10603383Y-1451429D01*
G01X10603383Y-1434411D01*
G01X10597795Y-1405709D01*
G01X10586365Y-1388691D01*
G01X10569093Y-1382849D01*
G01X10557663Y-1382849D01*
G01X10685425Y-1382849D02*
G01X10668407Y-1388691D01*
G01X10656977Y-1405709D01*
G01X10651135Y-1434411D01*
G01X10651135Y-1451429D01*
G01X10656977Y-1480131D01*
G01X10668407Y-1497149D01*
G01X10685425Y-1502991D01*
G01X10696855Y-1502991D01*
G01X10714127Y-1497149D01*
G01X10725557Y-1480131D01*
G01X10731145Y-1451429D01*
G01X10731145Y-1434411D01*
G01X10725557Y-1405709D01*
G01X10714127Y-1388691D01*
G01X10696855Y-1382849D01*
G01X10685425Y-1382849D01*
G01X10778897Y-1422981D02*
G01X10778897Y-1502991D01*
G01X10778897Y-1445841D02*
G01X10796169Y-1428569D01*
G01X10807599Y-1422981D01*
G01X10824617Y-1422981D01*
G01X10836047Y-1428569D01*
G01X10841889Y-1445841D01*
G01X10841889Y-1502991D01*
G01X10841889Y-1445841D02*
G01X10858907Y-1428569D01*
G01X10870337Y-1422981D01*
G01X10887609Y-1422981D01*
G01X10899039Y-1428569D01*
G01X10904627Y-1445841D01*
G01X10904627Y-1502991D01*
G01X10952379Y-1422981D02*
G01X10952379Y-1502991D01*
G01X10952379Y-1445841D02*
G01X10969651Y-1428569D01*
G01X10981081Y-1422981D01*
G01X10998099Y-1422981D01*
G01X11009529Y-1428569D01*
G01X11015371Y-1445841D01*
G01X11015371Y-1502991D01*
G01X11015371Y-1445841D02*
G01X11032389Y-1428569D01*
G01X11043819Y-1422981D01*
G01X11061091Y-1422981D01*
G01X11072521Y-1428569D01*
G01X11078109Y-1445841D01*
G01X11078109Y-1502991D01*
G01X11125861Y-1359989D02*
G01X11137291Y-1371419D01*
G01X11148721Y-1388691D01*
G01X11160151Y-1411551D01*
G01X11165993Y-1439999D01*
G01X11165993Y-1462859D01*
G01X11160151Y-1491561D01*
G01X11148721Y-1514421D01*
G01X11137291Y-1531439D01*
G01X11125861Y-1542869D01*
G01X12262911Y-1382849D02*
G01X12262911Y-1502991D01*
G01X12262911Y-1382849D02*
G01X12314473Y-1382849D01*
G01X12331491Y-1388691D01*
G01X12337333Y-1394279D01*
G01X12342921Y-1405709D01*
G01X12342921Y-1422981D01*
G01X12337333Y-1434411D01*
G01X12331491Y-1439999D01*
G01X12314473Y-1445841D01*
G01X12262911Y-1445841D01*
G01X12430805Y-1382849D02*
G01X12430805Y-1502991D01*
G01X12390673Y-1382849D02*
G01X12470683Y-1382849D01*
G01X12518435Y-1382849D02*
G01X12518435Y-1502991D01*
G01X12598445Y-1382849D02*
G01X12598445Y-1502991D01*
G01X12518435Y-1439999D02*
G01X12598445Y-1439999D01*
G01X13724318Y-1382849D02*
G01X13724318Y-1502991D01*
G01X13724318Y-1382849D02*
G01X13775880Y-1382849D01*
G01X13792898Y-1388691D01*
G01X13798740Y-1394279D01*
G01X13804328Y-1405709D01*
G01X13804328Y-1417139D01*
G01X13798740Y-1428569D01*
G01X13792898Y-1434411D01*
G01X13775880Y-1439999D01*
G01X13724318Y-1439999D01*
G01X13764450Y-1439999D02*
G01X13804328Y-1502991D01*
G01X13880782Y-1422981D02*
G01X13869352Y-1428569D01*
G01X13857922Y-1439999D01*
G01X13852080Y-1457271D01*
G01X13852080Y-1468701D01*
G01X13857922Y-1485719D01*
G01X13869352Y-1497149D01*
G01X13880782Y-1502991D01*
G01X13897800Y-1502991D01*
G01X13909230Y-1497149D01*
G01X13920660Y-1485719D01*
G01X13926502Y-1468701D01*
G01X13926502Y-1457271D01*
G01X13920660Y-1439999D01*
G01X13909230Y-1428569D01*
G01X13897800Y-1422981D01*
G01X13880782Y-1422981D01*
G01X13974254Y-1422981D02*
G01X13974254Y-1480131D01*
G01X13980096Y-1497149D01*
G01X13991526Y-1502991D01*
G01X14008544Y-1502991D01*
G01X14019974Y-1497149D01*
G01X14037246Y-1480131D01*
G01X14037246Y-1422981D02*
G01X14037246Y-1502991D01*
G01X14084998Y-1422981D02*
G01X14084998Y-1502991D01*
G01X14084998Y-1445841D02*
G01X14102270Y-1428569D01*
G01X14113700Y-1422981D01*
G01X14130718Y-1422981D01*
G01X14142148Y-1428569D01*
G01X14147990Y-1445841D01*
G01X14147990Y-1502991D01*
G01X14264322Y-1382849D02*
G01X14264322Y-1502991D01*
G01X14264322Y-1439999D02*
G01X14252892Y-1428569D01*
G01X14241462Y-1422981D01*
G01X14224444Y-1422981D01*
G01X14213014Y-1428569D01*
G01X14201584Y-1439999D01*
G01X14195742Y-1457271D01*
G01X14195742Y-1468701D01*
G01X14201584Y-1485719D01*
G01X14213014Y-1497149D01*
G01X14224444Y-1502991D01*
G01X14241462Y-1502991D01*
G01X14252892Y-1497149D01*
G01X14264322Y-1485719D01*
G01X15155499Y-1382849D02*
G01X15155499Y-1502991D01*
G01X15155499Y-1382849D02*
G01X15207061Y-1382849D01*
G01X15224079Y-1388691D01*
G01X15229921Y-1394279D01*
G01X15235509Y-1405709D01*
G01X15235509Y-1422981D01*
G01X15229921Y-1434411D01*
G01X15224079Y-1439999D01*
G01X15207061Y-1445841D01*
G01X15155499Y-1445841D01*
G01X15351841Y-1422981D02*
G01X15351841Y-1502991D01*
G01X15351841Y-1439999D02*
G01X15340411Y-1428569D01*
G01X15328981Y-1422981D01*
G01X15311963Y-1422981D01*
G01X15300533Y-1428569D01*
G01X15289103Y-1439999D01*
G01X15283261Y-1457271D01*
G01X15283261Y-1468701D01*
G01X15289103Y-1485719D01*
G01X15300533Y-1497149D01*
G01X15311963Y-1502991D01*
G01X15328981Y-1502991D01*
G01X15340411Y-1497149D01*
G01X15351841Y-1485719D01*
G01X15468173Y-1382849D02*
G01X15468173Y-1502991D01*
G01X15468173Y-1439999D02*
G01X15456743Y-1428569D01*
G01X15445313Y-1422981D01*
G01X15428295Y-1422981D01*
G01X15416865Y-1428569D01*
G01X15405435Y-1439999D01*
G01X15399593Y-1457271D01*
G01X15399593Y-1468701D01*
G01X15405435Y-1485719D01*
G01X15416865Y-1497149D01*
G01X15428295Y-1502991D01*
G01X15445313Y-1502991D01*
G01X15456743Y-1497149D01*
G01X15468173Y-1485719D01*
G01X16824678Y-1382849D02*
G01X16824678Y-1502991D01*
G01X16824678Y-1382849D02*
G01X16876240Y-1382849D01*
G01X16893258Y-1388691D01*
G01X16899100Y-1394279D01*
G01X16904688Y-1405709D01*
G01X16904688Y-1417139D01*
G01X16899100Y-1428569D01*
G01X16893258Y-1434411D01*
G01X16876240Y-1439999D01*
G01X16824678Y-1439999D01*
G01X16864810Y-1439999D02*
G01X16904688Y-1502991D01*
G01X16981142Y-1422981D02*
G01X16969712Y-1428569D01*
G01X16958282Y-1439999D01*
G01X16952440Y-1457271D01*
G01X16952440Y-1468701D01*
G01X16958282Y-1485719D01*
G01X16969712Y-1497149D01*
G01X16981142Y-1502991D01*
G01X16998160Y-1502991D01*
G01X17009590Y-1497149D01*
G01X17021020Y-1485719D01*
G01X17026862Y-1468701D01*
G01X17026862Y-1457271D01*
G01X17021020Y-1439999D01*
G01X17009590Y-1428569D01*
G01X16998160Y-1422981D01*
G01X16981142Y-1422981D01*
G01X17074614Y-1422981D02*
G01X17074614Y-1480131D01*
G01X17080456Y-1497149D01*
G01X17091886Y-1502991D01*
G01X17108904Y-1502991D01*
G01X17120334Y-1497149D01*
G01X17137606Y-1480131D01*
G01X17137606Y-1422981D02*
G01X17137606Y-1502991D01*
G01X17185358Y-1422981D02*
G01X17185358Y-1502991D01*
G01X17185358Y-1445841D02*
G01X17202630Y-1428569D01*
G01X17214060Y-1422981D01*
G01X17231078Y-1422981D01*
G01X17242508Y-1428569D01*
G01X17248350Y-1445841D01*
G01X17248350Y-1502991D01*
G01X17364682Y-1382849D02*
G01X17364682Y-1502991D01*
G01X17364682Y-1439999D02*
G01X17353252Y-1428569D01*
G01X17341822Y-1422981D01*
G01X17324804Y-1422981D01*
G01X17313374Y-1428569D01*
G01X17301944Y-1439999D01*
G01X17296102Y-1457271D01*
G01X17296102Y-1468701D01*
G01X17301944Y-1485719D01*
G01X17313374Y-1497149D01*
G01X17324804Y-1502991D01*
G01X17341822Y-1502991D01*
G01X17353252Y-1497149D01*
G01X17364682Y-1485719D01*
G01X18784179Y-1382849D02*
G01X18784179Y-1502991D01*
G01X18744047Y-1382849D02*
G01X18824057Y-1382849D01*
G01X18900511Y-1422981D02*
G01X18889081Y-1428569D01*
G01X18877651Y-1439999D01*
G01X18871809Y-1457271D01*
G01X18871809Y-1468701D01*
G01X18877651Y-1485719D01*
G01X18889081Y-1497149D01*
G01X18900511Y-1502991D01*
G01X18917529Y-1502991D01*
G01X18928959Y-1497149D01*
G01X18940389Y-1485719D01*
G01X18946231Y-1468701D01*
G01X18946231Y-1457271D01*
G01X18940389Y-1439999D01*
G01X18928959Y-1428569D01*
G01X18917529Y-1422981D01*
G01X18900511Y-1422981D01*
G01X18993983Y-1422981D02*
G01X18993983Y-1542869D01*
G01X18993983Y-1439999D02*
G01X19005413Y-1428569D01*
G01X19016843Y-1422981D01*
G01X19034115Y-1422981D01*
G01X19045545Y-1428569D01*
G01X19056975Y-1439999D01*
G01X19062563Y-1457271D01*
G01X19062563Y-1468701D01*
G01X19056975Y-1485719D01*
G01X19045545Y-1497149D01*
G01X19034115Y-1502991D01*
G01X19016843Y-1502991D01*
G01X19005413Y-1497149D01*
G01X18993983Y-1485719D01*
G01X19238331Y-1382849D02*
G01X19238331Y-1502991D01*
G01X19238331Y-1502991D02*
G01X19306911Y-1502991D01*
G01X19423243Y-1422981D02*
G01X19423243Y-1502991D01*
G01X19423243Y-1439999D02*
G01X19411813Y-1428569D01*
G01X19400383Y-1422981D01*
G01X19383365Y-1422981D01*
G01X19371935Y-1428569D01*
G01X19360505Y-1439999D01*
G01X19354663Y-1457271D01*
G01X19354663Y-1468701D01*
G01X19360505Y-1485719D01*
G01X19371935Y-1497149D01*
G01X19383365Y-1502991D01*
G01X19400383Y-1502991D01*
G01X19411813Y-1497149D01*
G01X19423243Y-1485719D01*
G01X19476837Y-1422981D02*
G01X19511127Y-1502991D01*
G01X19545417Y-1422981D02*
G01X19511127Y-1502991D01*
G01X19499697Y-1525851D01*
G01X19488267Y-1537281D01*
G01X19476837Y-1542869D01*
G01X19470995Y-1542869D01*
G01X19593169Y-1457271D02*
G01X19661749Y-1457271D01*
G01X19661749Y-1445841D01*
G01X19656161Y-1434411D01*
G01X19650319Y-1428569D01*
G01X19638889Y-1422981D01*
G01X19621871Y-1422981D01*
G01X19610441Y-1428569D01*
G01X19599011Y-1439999D01*
G01X19593169Y-1457271D01*
G01X19593169Y-1468701D01*
G01X19599011Y-1485719D01*
G01X19610441Y-1497149D01*
G01X19621871Y-1502991D01*
G01X19638889Y-1502991D01*
G01X19650319Y-1497149D01*
G01X19661749Y-1485719D01*
G01X19709501Y-1422981D02*
G01X19709501Y-1502991D01*
G01X19709501Y-1457271D02*
G01X19715343Y-1439999D01*
G01X19726773Y-1428569D01*
G01X19738203Y-1422981D01*
G01X19755221Y-1422981D01*
G01X19802973Y-1451429D02*
G01X19905843Y-1451429D01*
G01X19953595Y-1382849D02*
G01X19953595Y-1502991D01*
G01X19953595Y-1382849D02*
G01X20005157Y-1382849D01*
G01X20022175Y-1388691D01*
G01X20028017Y-1394279D01*
G01X20033605Y-1405709D01*
G01X20033605Y-1417139D01*
G01X20028017Y-1428569D01*
G01X20022175Y-1434411D01*
G01X20005157Y-1439999D01*
G01X19953595Y-1439999D02*
G01X20005157Y-1439999D01*
G01X20022175Y-1445841D01*
G01X20028017Y-1451429D01*
G01X20033605Y-1462859D01*
G01X20033605Y-1480131D01*
G01X20028017Y-1491561D01*
G01X20022175Y-1497149D01*
G01X20005157Y-1502991D01*
G01X19953595Y-1502991D01*
G01X20110059Y-1422981D02*
G01X20098629Y-1428569D01*
G01X20087199Y-1439999D01*
G01X20081357Y-1457271D01*
G01X20081357Y-1468701D01*
G01X20087199Y-1485719D01*
G01X20098629Y-1497149D01*
G01X20110059Y-1502991D01*
G01X20127077Y-1502991D01*
G01X20138507Y-1497149D01*
G01X20149937Y-1485719D01*
G01X20155779Y-1468701D01*
G01X20155779Y-1457271D01*
G01X20149937Y-1439999D01*
G01X20138507Y-1428569D01*
G01X20127077Y-1422981D01*
G01X20110059Y-1422981D01*
G01X20220803Y-1382849D02*
G01X20220803Y-1480131D01*
G01X20226391Y-1497149D01*
G01X20237821Y-1502991D01*
G01X20249251Y-1502991D01*
G01X20203531Y-1422981D02*
G01X20243663Y-1422981D01*
G01X20314275Y-1382849D02*
G01X20314275Y-1480131D01*
G01X20319863Y-1497149D01*
G01X20331293Y-1502991D01*
G01X20342723Y-1502991D01*
G01X20297003Y-1422981D02*
G01X20337135Y-1422981D01*
G01X20419177Y-1422981D02*
G01X20407747Y-1428569D01*
G01X20396317Y-1439999D01*
G01X20390475Y-1457271D01*
G01X20390475Y-1468701D01*
G01X20396317Y-1485719D01*
G01X20407747Y-1497149D01*
G01X20419177Y-1502991D01*
G01X20436195Y-1502991D01*
G01X20447625Y-1497149D01*
G01X20459055Y-1485719D01*
G01X20464897Y-1468701D01*
G01X20464897Y-1457271D01*
G01X20459055Y-1439999D01*
G01X20447625Y-1428569D01*
G01X20436195Y-1422981D01*
G01X20419177Y-1422981D01*
G01X20512649Y-1422981D02*
G01X20512649Y-1502991D01*
G01X20512649Y-1445841D02*
G01X20529921Y-1428569D01*
G01X20541351Y-1422981D01*
G01X20558369Y-1422981D01*
G01X20569799Y-1428569D01*
G01X20575641Y-1445841D01*
G01X20575641Y-1502991D01*
G01X20575641Y-1445841D02*
G01X20592659Y-1428569D01*
G01X20604089Y-1422981D01*
G01X20621361Y-1422981D01*
G01X20632791Y-1428569D01*
G01X20638379Y-1445841D01*
G01X20638379Y-1502991D01*
G01X20814147Y-1382849D02*
G01X20814147Y-1502991D01*
G01X20814147Y-1502991D02*
G01X20882727Y-1502991D01*
G01X20999059Y-1422981D02*
G01X20999059Y-1502991D01*
G01X20999059Y-1439999D02*
G01X20987629Y-1428569D01*
G01X20976199Y-1422981D01*
G01X20959181Y-1422981D01*
G01X20947751Y-1428569D01*
G01X20936321Y-1439999D01*
G01X20930479Y-1457271D01*
G01X20930479Y-1468701D01*
G01X20936321Y-1485719D01*
G01X20947751Y-1497149D01*
G01X20959181Y-1502991D01*
G01X20976199Y-1502991D01*
G01X20987629Y-1497149D01*
G01X20999059Y-1485719D01*
G01X21052653Y-1422981D02*
G01X21086943Y-1502991D01*
G01X21121233Y-1422981D02*
G01X21086943Y-1502991D01*
G01X21075513Y-1525851D01*
G01X21064083Y-1537281D01*
G01X21052653Y-1542869D01*
G01X21046811Y-1542869D01*
G01X21168985Y-1457271D02*
G01X21237565Y-1457271D01*
G01X21237565Y-1445841D01*
G01X21231977Y-1434411D01*
G01X21226135Y-1428569D01*
G01X21214705Y-1422981D01*
G01X21197687Y-1422981D01*
G01X21186257Y-1428569D01*
G01X21174827Y-1439999D01*
G01X21168985Y-1457271D01*
G01X21168985Y-1468701D01*
G01X21174827Y-1485719D01*
G01X21186257Y-1497149D01*
G01X21197687Y-1502991D01*
G01X21214705Y-1502991D01*
G01X21226135Y-1497149D01*
G01X21237565Y-1485719D01*
G01X21285317Y-1422981D02*
G01X21285317Y-1502991D01*
G01X21285317Y-1457271D02*
G01X21291159Y-1439999D01*
G01X21302589Y-1428569D01*
G01X21314019Y-1422981D01*
G01X21331037Y-1422981D01*
G01X6859024Y-1963420D02*
G01X6801874Y-2043430D01*
G01X6887726Y-2043430D01*
G01X6859024Y-1963420D02*
G01X6859024Y-2083562D01*
G01X8216037Y-1986280D02*
G01X8227467Y-1980692D01*
G01X8244739Y-1963420D01*
G01X8244739Y-2083562D01*
G01X8303921Y-1963420D02*
G01X8366913Y-1963420D01*
G01X8332623Y-2009140D01*
G01X8349641Y-2009140D01*
G01X8361071Y-2014982D01*
G01X8366913Y-2020570D01*
G01X8372501Y-2037842D01*
G01X8372501Y-2049272D01*
G01X8366913Y-2066290D01*
G01X8355483Y-2077720D01*
G01X8338211Y-2083562D01*
G01X8321193Y-2083562D01*
G01X8303921Y-2077720D01*
G01X8298333Y-2072132D01*
G01X8292491Y-2060702D01*
G01X8431683Y-1963420D02*
G01X8494675Y-1963420D01*
G01X8460385Y-2009140D01*
G01X8477403Y-2009140D01*
G01X8488833Y-2014982D01*
G01X8494675Y-2020570D01*
G01X8500263Y-2037842D01*
G01X8500263Y-2049272D01*
G01X8494675Y-2066290D01*
G01X8483245Y-2077720D01*
G01X8465973Y-2083562D01*
G01X8448955Y-2083562D01*
G01X8431683Y-2077720D01*
G01X8426095Y-2072132D01*
G01X8420253Y-2060702D01*
G01X8553857Y-2054860D02*
G01X8548015Y-2060702D01*
G01X8553857Y-2066290D01*
G01X8559445Y-2060702D01*
G01X8553857Y-2054860D01*
G01X8681619Y-2003552D02*
G01X8675777Y-2020570D01*
G01X8664347Y-2032000D01*
G01X8647329Y-2037842D01*
G01X8641487Y-2037842D01*
G01X8624469Y-2032000D01*
G01X8613039Y-2020570D01*
G01X8607197Y-2003552D01*
G01X8607197Y-1997710D01*
G01X8613039Y-1980692D01*
G01X8624469Y-1969262D01*
G01X8641487Y-1963420D01*
G01X8647329Y-1963420D01*
G01X8664347Y-1969262D01*
G01X8675777Y-1980692D01*
G01X8681619Y-2003552D01*
G01X8681619Y-2032000D01*
G01X8675777Y-2060702D01*
G01X8664347Y-2077720D01*
G01X8647329Y-2083562D01*
G01X8635899Y-2083562D01*
G01X8618627Y-2077720D01*
G01X8613039Y-2066290D01*
G01X8729371Y-2003552D02*
G01X8792363Y-2083562D01*
G01X8792363Y-2003552D02*
G01X8729371Y-2083562D01*
G01X8840115Y-1986280D02*
G01X8851545Y-1980692D01*
G01X8868817Y-1963420D01*
G01X8868817Y-2083562D01*
G01X8927999Y-1963420D02*
G01X8990991Y-1963420D01*
G01X8956701Y-2009140D01*
G01X8973719Y-2009140D01*
G01X8985149Y-2014982D01*
G01X8990991Y-2020570D01*
G01X8996579Y-2037842D01*
G01X8996579Y-2049272D01*
G01X8990991Y-2066290D01*
G01X8979561Y-2077720D01*
G01X8962289Y-2083562D01*
G01X8945271Y-2083562D01*
G01X8927999Y-2077720D01*
G01X8922411Y-2072132D01*
G01X8916569Y-2060702D01*
G01X9055761Y-1963420D02*
G01X9118753Y-1963420D01*
G01X9084463Y-2009140D01*
G01X9101481Y-2009140D01*
G01X9112911Y-2014982D01*
G01X9118753Y-2020570D01*
G01X9124341Y-2037842D01*
G01X9124341Y-2049272D01*
G01X9118753Y-2066290D01*
G01X9107323Y-2077720D01*
G01X9090051Y-2083562D01*
G01X9073033Y-2083562D01*
G01X9055761Y-2077720D01*
G01X9050173Y-2072132D01*
G01X9044331Y-2060702D01*
G01X9177935Y-2054860D02*
G01X9172093Y-2060702D01*
G01X9177935Y-2066290D01*
G01X9183523Y-2060702D01*
G01X9177935Y-2054860D01*
G01X9305697Y-2003552D02*
G01X9299855Y-2020570D01*
G01X9288425Y-2032000D01*
G01X9271407Y-2037842D01*
G01X9265565Y-2037842D01*
G01X9248547Y-2032000D01*
G01X9237117Y-2020570D01*
G01X9231275Y-2003552D01*
G01X9231275Y-1997710D01*
G01X9237117Y-1980692D01*
G01X9248547Y-1969262D01*
G01X9265565Y-1963420D01*
G01X9271407Y-1963420D01*
G01X9288425Y-1969262D01*
G01X9299855Y-1980692D01*
G01X9305697Y-2003552D01*
G01X9305697Y-2032000D01*
G01X9299855Y-2060702D01*
G01X9288425Y-2077720D01*
G01X9271407Y-2083562D01*
G01X9259977Y-2083562D01*
G01X9242705Y-2077720D01*
G01X9237117Y-2066290D01*
G01X9353449Y-2003552D02*
G01X9353449Y-2083562D01*
G01X9353449Y-2026412D02*
G01X9370721Y-2009140D01*
G01X9382151Y-2003552D01*
G01X9399169Y-2003552D01*
G01X9410599Y-2009140D01*
G01X9416441Y-2026412D01*
G01X9416441Y-2083562D01*
G01X9416441Y-2026412D02*
G01X9433459Y-2009140D01*
G01X9444889Y-2003552D01*
G01X9462161Y-2003552D01*
G01X9473591Y-2009140D01*
G01X9479179Y-2026412D01*
G01X9479179Y-2083562D01*
G01X9526931Y-1963420D02*
G01X9532773Y-1969262D01*
G01X9538361Y-1963420D01*
G01X9532773Y-1957832D01*
G01X9526931Y-1963420D01*
G01X9532773Y-2003552D02*
G01X9532773Y-2083562D01*
G01X9586113Y-1963420D02*
G01X9586113Y-2083562D01*
G01X9673997Y-1940560D02*
G01X9662567Y-1951990D01*
G01X9651137Y-1969262D01*
G01X9639707Y-1992122D01*
G01X9633865Y-2020570D01*
G01X9633865Y-2043430D01*
G01X9639707Y-2072132D01*
G01X9651137Y-2094992D01*
G01X9662567Y-2112010D01*
G01X9673997Y-2123440D01*
G01X9733179Y-1963420D02*
G01X9796171Y-1963420D01*
G01X9761881Y-2009140D01*
G01X9778899Y-2009140D01*
G01X9790329Y-2014982D01*
G01X9796171Y-2020570D01*
G01X9801759Y-2037842D01*
G01X9801759Y-2049272D01*
G01X9796171Y-2066290D01*
G01X9784741Y-2077720D01*
G01X9767469Y-2083562D01*
G01X9750451Y-2083562D01*
G01X9733179Y-2077720D01*
G01X9727591Y-2072132D01*
G01X9721749Y-2060702D01*
G01X9855353Y-2054860D02*
G01X9849511Y-2060702D01*
G01X9855353Y-2066290D01*
G01X9860941Y-2060702D01*
G01X9855353Y-2054860D01*
G01X9965843Y-1963420D02*
G01X9908693Y-2043430D01*
G01X9994545Y-2043430D01*
G01X9965843Y-1963420D02*
G01X9965843Y-2083562D01*
G01X10076587Y-1963420D02*
G01X10059569Y-1969262D01*
G01X10048139Y-1986280D01*
G01X10042297Y-2014982D01*
G01X10042297Y-2032000D01*
G01X10048139Y-2060702D01*
G01X10059569Y-2077720D01*
G01X10076587Y-2083562D01*
G01X10088017Y-2083562D01*
G01X10105289Y-2077720D01*
G01X10116719Y-2060702D01*
G01X10122307Y-2032000D01*
G01X10122307Y-2014982D01*
G01X10116719Y-1986280D01*
G01X10105289Y-1969262D01*
G01X10088017Y-1963420D01*
G01X10076587Y-1963420D01*
G01X10204349Y-1963420D02*
G01X10187331Y-1969262D01*
G01X10175901Y-1986280D01*
G01X10170059Y-2014982D01*
G01X10170059Y-2032000D01*
G01X10175901Y-2060702D01*
G01X10187331Y-2077720D01*
G01X10204349Y-2083562D01*
G01X10215779Y-2083562D01*
G01X10233051Y-2077720D01*
G01X10244481Y-2060702D01*
G01X10250069Y-2032000D01*
G01X10250069Y-2014982D01*
G01X10244481Y-1986280D01*
G01X10233051Y-1969262D01*
G01X10215779Y-1963420D01*
G01X10204349Y-1963420D01*
G01X10297821Y-2003552D02*
G01X10360813Y-2083562D01*
G01X10360813Y-2003552D02*
G01X10297821Y-2083562D01*
G01X10419995Y-1963420D02*
G01X10482987Y-1963420D01*
G01X10448697Y-2009140D01*
G01X10465715Y-2009140D01*
G01X10477145Y-2014982D01*
G01X10482987Y-2020570D01*
G01X10488575Y-2037842D01*
G01X10488575Y-2049272D01*
G01X10482987Y-2066290D01*
G01X10471557Y-2077720D01*
G01X10454285Y-2083562D01*
G01X10437267Y-2083562D01*
G01X10419995Y-2077720D01*
G01X10414407Y-2072132D01*
G01X10408565Y-2060702D01*
G01X10542169Y-2054860D02*
G01X10536327Y-2060702D01*
G01X10542169Y-2066290D01*
G01X10547757Y-2060702D01*
G01X10542169Y-2054860D01*
G01X10652659Y-1963420D02*
G01X10595509Y-2043430D01*
G01X10681361Y-2043430D01*
G01X10652659Y-1963420D02*
G01X10652659Y-2083562D01*
G01X10763403Y-1963420D02*
G01X10746385Y-1969262D01*
G01X10734955Y-1986280D01*
G01X10729113Y-2014982D01*
G01X10729113Y-2032000D01*
G01X10734955Y-2060702D01*
G01X10746385Y-2077720D01*
G01X10763403Y-2083562D01*
G01X10774833Y-2083562D01*
G01X10792105Y-2077720D01*
G01X10803535Y-2060702D01*
G01X10809123Y-2032000D01*
G01X10809123Y-2014982D01*
G01X10803535Y-1986280D01*
G01X10792105Y-1969262D01*
G01X10774833Y-1963420D01*
G01X10763403Y-1963420D01*
G01X10891165Y-1963420D02*
G01X10874147Y-1969262D01*
G01X10862717Y-1986280D01*
G01X10856875Y-2014982D01*
G01X10856875Y-2032000D01*
G01X10862717Y-2060702D01*
G01X10874147Y-2077720D01*
G01X10891165Y-2083562D01*
G01X10902595Y-2083562D01*
G01X10919867Y-2077720D01*
G01X10931297Y-2060702D01*
G01X10936885Y-2032000D01*
G01X10936885Y-2014982D01*
G01X10931297Y-1986280D01*
G01X10919867Y-1969262D01*
G01X10902595Y-1963420D01*
G01X10891165Y-1963420D01*
G01X10984637Y-2003552D02*
G01X10984637Y-2083562D01*
G01X10984637Y-2026412D02*
G01X11001909Y-2009140D01*
G01X11013339Y-2003552D01*
G01X11030357Y-2003552D01*
G01X11041787Y-2009140D01*
G01X11047629Y-2026412D01*
G01X11047629Y-2083562D01*
G01X11047629Y-2026412D02*
G01X11064647Y-2009140D01*
G01X11076077Y-2003552D01*
G01X11093349Y-2003552D01*
G01X11104779Y-2009140D01*
G01X11110367Y-2026412D01*
G01X11110367Y-2083562D01*
G01X11158119Y-2003552D02*
G01X11158119Y-2083562D01*
G01X11158119Y-2026412D02*
G01X11175391Y-2009140D01*
G01X11186821Y-2003552D01*
G01X11203839Y-2003552D01*
G01X11215269Y-2009140D01*
G01X11221111Y-2026412D01*
G01X11221111Y-2083562D01*
G01X11221111Y-2026412D02*
G01X11238129Y-2009140D01*
G01X11249559Y-2003552D01*
G01X11266831Y-2003552D01*
G01X11278261Y-2009140D01*
G01X11283849Y-2026412D01*
G01X11283849Y-2083562D01*
G01X11331601Y-1940560D02*
G01X11343031Y-1951990D01*
G01X11354461Y-1969262D01*
G01X11365891Y-1992122D01*
G01X11371733Y-2020570D01*
G01X11371733Y-2043430D01*
G01X11365891Y-2072132D01*
G01X11354461Y-2094992D01*
G01X11343031Y-2112010D01*
G01X11331601Y-2123440D01*
G01X12262911Y-1963420D02*
G01X12262911Y-2083562D01*
G01X12262911Y-1963420D02*
G01X12314473Y-1963420D01*
G01X12331491Y-1969262D01*
G01X12337333Y-1974850D01*
G01X12342921Y-1986280D01*
G01X12342921Y-2003552D01*
G01X12337333Y-2014982D01*
G01X12331491Y-2020570D01*
G01X12314473Y-2026412D01*
G01X12262911Y-2026412D01*
G01X12430805Y-1963420D02*
G01X12430805Y-2083562D01*
G01X12390673Y-1963420D02*
G01X12470683Y-1963420D01*
G01X12518435Y-1963420D02*
G01X12518435Y-2083562D01*
G01X12598445Y-1963420D02*
G01X12598445Y-2083562D01*
G01X12518435Y-2020570D02*
G01X12598445Y-2020570D01*
G01X13724318Y-1963420D02*
G01X13724318Y-2083562D01*
G01X13724318Y-1963420D02*
G01X13775880Y-1963420D01*
G01X13792898Y-1969262D01*
G01X13798740Y-1974850D01*
G01X13804328Y-1986280D01*
G01X13804328Y-1997710D01*
G01X13798740Y-2009140D01*
G01X13792898Y-2014982D01*
G01X13775880Y-2020570D01*
G01X13724318Y-2020570D01*
G01X13764450Y-2020570D02*
G01X13804328Y-2083562D01*
G01X13880782Y-2003552D02*
G01X13869352Y-2009140D01*
G01X13857922Y-2020570D01*
G01X13852080Y-2037842D01*
G01X13852080Y-2049272D01*
G01X13857922Y-2066290D01*
G01X13869352Y-2077720D01*
G01X13880782Y-2083562D01*
G01X13897800Y-2083562D01*
G01X13909230Y-2077720D01*
G01X13920660Y-2066290D01*
G01X13926502Y-2049272D01*
G01X13926502Y-2037842D01*
G01X13920660Y-2020570D01*
G01X13909230Y-2009140D01*
G01X13897800Y-2003552D01*
G01X13880782Y-2003552D01*
G01X13974254Y-2003552D02*
G01X13974254Y-2060702D01*
G01X13980096Y-2077720D01*
G01X13991526Y-2083562D01*
G01X14008544Y-2083562D01*
G01X14019974Y-2077720D01*
G01X14037246Y-2060702D01*
G01X14037246Y-2003552D02*
G01X14037246Y-2083562D01*
G01X14084998Y-2003552D02*
G01X14084998Y-2083562D01*
G01X14084998Y-2026412D02*
G01X14102270Y-2009140D01*
G01X14113700Y-2003552D01*
G01X14130718Y-2003552D01*
G01X14142148Y-2009140D01*
G01X14147990Y-2026412D01*
G01X14147990Y-2083562D01*
G01X14264322Y-1963420D02*
G01X14264322Y-2083562D01*
G01X14264322Y-2020570D02*
G01X14252892Y-2009140D01*
G01X14241462Y-2003552D01*
G01X14224444Y-2003552D01*
G01X14213014Y-2009140D01*
G01X14201584Y-2020570D01*
G01X14195742Y-2037842D01*
G01X14195742Y-2049272D01*
G01X14201584Y-2066290D01*
G01X14213014Y-2077720D01*
G01X14224444Y-2083562D01*
G01X14241462Y-2083562D01*
G01X14252892Y-2077720D01*
G01X14264322Y-2066290D01*
G01X15155499Y-1963420D02*
G01X15155499Y-2083562D01*
G01X15155499Y-1963420D02*
G01X15207061Y-1963420D01*
G01X15224079Y-1969262D01*
G01X15229921Y-1974850D01*
G01X15235509Y-1986280D01*
G01X15235509Y-2003552D01*
G01X15229921Y-2014982D01*
G01X15224079Y-2020570D01*
G01X15207061Y-2026412D01*
G01X15155499Y-2026412D01*
G01X15351841Y-2003552D02*
G01X15351841Y-2083562D01*
G01X15351841Y-2020570D02*
G01X15340411Y-2009140D01*
G01X15328981Y-2003552D01*
G01X15311963Y-2003552D01*
G01X15300533Y-2009140D01*
G01X15289103Y-2020570D01*
G01X15283261Y-2037842D01*
G01X15283261Y-2049272D01*
G01X15289103Y-2066290D01*
G01X15300533Y-2077720D01*
G01X15311963Y-2083562D01*
G01X15328981Y-2083562D01*
G01X15340411Y-2077720D01*
G01X15351841Y-2066290D01*
G01X15468173Y-1963420D02*
G01X15468173Y-2083562D01*
G01X15468173Y-2020570D02*
G01X15456743Y-2009140D01*
G01X15445313Y-2003552D01*
G01X15428295Y-2003552D01*
G01X15416865Y-2009140D01*
G01X15405435Y-2020570D01*
G01X15399593Y-2037842D01*
G01X15399593Y-2049272D01*
G01X15405435Y-2066290D01*
G01X15416865Y-2077720D01*
G01X15428295Y-2083562D01*
G01X15445313Y-2083562D01*
G01X15456743Y-2077720D01*
G01X15468173Y-2066290D01*
G01X16824678Y-1963420D02*
G01X16824678Y-2083562D01*
G01X16824678Y-1963420D02*
G01X16876240Y-1963420D01*
G01X16893258Y-1969262D01*
G01X16899100Y-1974850D01*
G01X16904688Y-1986280D01*
G01X16904688Y-1997710D01*
G01X16899100Y-2009140D01*
G01X16893258Y-2014982D01*
G01X16876240Y-2020570D01*
G01X16824678Y-2020570D01*
G01X16864810Y-2020570D02*
G01X16904688Y-2083562D01*
G01X16981142Y-2003552D02*
G01X16969712Y-2009140D01*
G01X16958282Y-2020570D01*
G01X16952440Y-2037842D01*
G01X16952440Y-2049272D01*
G01X16958282Y-2066290D01*
G01X16969712Y-2077720D01*
G01X16981142Y-2083562D01*
G01X16998160Y-2083562D01*
G01X17009590Y-2077720D01*
G01X17021020Y-2066290D01*
G01X17026862Y-2049272D01*
G01X17026862Y-2037842D01*
G01X17021020Y-2020570D01*
G01X17009590Y-2009140D01*
G01X16998160Y-2003552D01*
G01X16981142Y-2003552D01*
G01X17074614Y-2003552D02*
G01X17074614Y-2060702D01*
G01X17080456Y-2077720D01*
G01X17091886Y-2083562D01*
G01X17108904Y-2083562D01*
G01X17120334Y-2077720D01*
G01X17137606Y-2060702D01*
G01X17137606Y-2003552D02*
G01X17137606Y-2083562D01*
G01X17185358Y-2003552D02*
G01X17185358Y-2083562D01*
G01X17185358Y-2026412D02*
G01X17202630Y-2009140D01*
G01X17214060Y-2003552D01*
G01X17231078Y-2003552D01*
G01X17242508Y-2009140D01*
G01X17248350Y-2026412D01*
G01X17248350Y-2083562D01*
G01X17364682Y-1963420D02*
G01X17364682Y-2083562D01*
G01X17364682Y-2020570D02*
G01X17353252Y-2009140D01*
G01X17341822Y-2003552D01*
G01X17324804Y-2003552D01*
G01X17313374Y-2009140D01*
G01X17301944Y-2020570D01*
G01X17296102Y-2037842D01*
G01X17296102Y-2049272D01*
G01X17301944Y-2066290D01*
G01X17313374Y-2077720D01*
G01X17324804Y-2083562D01*
G01X17341822Y-2083562D01*
G01X17353252Y-2077720D01*
G01X17364682Y-2066290D01*
G01X18784179Y-1963420D02*
G01X18784179Y-2083562D01*
G01X18744047Y-1963420D02*
G01X18824057Y-1963420D01*
G01X18900511Y-2003552D02*
G01X18889081Y-2009140D01*
G01X18877651Y-2020570D01*
G01X18871809Y-2037842D01*
G01X18871809Y-2049272D01*
G01X18877651Y-2066290D01*
G01X18889081Y-2077720D01*
G01X18900511Y-2083562D01*
G01X18917529Y-2083562D01*
G01X18928959Y-2077720D01*
G01X18940389Y-2066290D01*
G01X18946231Y-2049272D01*
G01X18946231Y-2037842D01*
G01X18940389Y-2020570D01*
G01X18928959Y-2009140D01*
G01X18917529Y-2003552D01*
G01X18900511Y-2003552D01*
G01X18993983Y-2003552D02*
G01X18993983Y-2123440D01*
G01X18993983Y-2020570D02*
G01X19005413Y-2009140D01*
G01X19016843Y-2003552D01*
G01X19034115Y-2003552D01*
G01X19045545Y-2009140D01*
G01X19056975Y-2020570D01*
G01X19062563Y-2037842D01*
G01X19062563Y-2049272D01*
G01X19056975Y-2066290D01*
G01X19045545Y-2077720D01*
G01X19034115Y-2083562D01*
G01X19016843Y-2083562D01*
G01X19005413Y-2077720D01*
G01X18993983Y-2066290D01*
G01X19238331Y-1963420D02*
G01X19238331Y-2083562D01*
G01X19238331Y-2083562D02*
G01X19306911Y-2083562D01*
G01X19423243Y-2003552D02*
G01X19423243Y-2083562D01*
G01X19423243Y-2020570D02*
G01X19411813Y-2009140D01*
G01X19400383Y-2003552D01*
G01X19383365Y-2003552D01*
G01X19371935Y-2009140D01*
G01X19360505Y-2020570D01*
G01X19354663Y-2037842D01*
G01X19354663Y-2049272D01*
G01X19360505Y-2066290D01*
G01X19371935Y-2077720D01*
G01X19383365Y-2083562D01*
G01X19400383Y-2083562D01*
G01X19411813Y-2077720D01*
G01X19423243Y-2066290D01*
G01X19476837Y-2003552D02*
G01X19511127Y-2083562D01*
G01X19545417Y-2003552D02*
G01X19511127Y-2083562D01*
G01X19499697Y-2106422D01*
G01X19488267Y-2117852D01*
G01X19476837Y-2123440D01*
G01X19470995Y-2123440D01*
G01X19593169Y-2037842D02*
G01X19661749Y-2037842D01*
G01X19661749Y-2026412D01*
G01X19656161Y-2014982D01*
G01X19650319Y-2009140D01*
G01X19638889Y-2003552D01*
G01X19621871Y-2003552D01*
G01X19610441Y-2009140D01*
G01X19599011Y-2020570D01*
G01X19593169Y-2037842D01*
G01X19593169Y-2049272D01*
G01X19599011Y-2066290D01*
G01X19610441Y-2077720D01*
G01X19621871Y-2083562D01*
G01X19638889Y-2083562D01*
G01X19650319Y-2077720D01*
G01X19661749Y-2066290D01*
G01X19709501Y-2003552D02*
G01X19709501Y-2083562D01*
G01X19709501Y-2037842D02*
G01X19715343Y-2020570D01*
G01X19726773Y-2009140D01*
G01X19738203Y-2003552D01*
G01X19755221Y-2003552D01*
G01X19802973Y-2032000D02*
G01X19905843Y-2032000D01*
G01X19953595Y-1963420D02*
G01X19953595Y-2083562D01*
G01X19953595Y-1963420D02*
G01X20005157Y-1963420D01*
G01X20022175Y-1969262D01*
G01X20028017Y-1974850D01*
G01X20033605Y-1986280D01*
G01X20033605Y-1997710D01*
G01X20028017Y-2009140D01*
G01X20022175Y-2014982D01*
G01X20005157Y-2020570D01*
G01X19953595Y-2020570D02*
G01X20005157Y-2020570D01*
G01X20022175Y-2026412D01*
G01X20028017Y-2032000D01*
G01X20033605Y-2043430D01*
G01X20033605Y-2060702D01*
G01X20028017Y-2072132D01*
G01X20022175Y-2077720D01*
G01X20005157Y-2083562D01*
G01X19953595Y-2083562D01*
G01X20110059Y-2003552D02*
G01X20098629Y-2009140D01*
G01X20087199Y-2020570D01*
G01X20081357Y-2037842D01*
G01X20081357Y-2049272D01*
G01X20087199Y-2066290D01*
G01X20098629Y-2077720D01*
G01X20110059Y-2083562D01*
G01X20127077Y-2083562D01*
G01X20138507Y-2077720D01*
G01X20149937Y-2066290D01*
G01X20155779Y-2049272D01*
G01X20155779Y-2037842D01*
G01X20149937Y-2020570D01*
G01X20138507Y-2009140D01*
G01X20127077Y-2003552D01*
G01X20110059Y-2003552D01*
G01X20220803Y-1963420D02*
G01X20220803Y-2060702D01*
G01X20226391Y-2077720D01*
G01X20237821Y-2083562D01*
G01X20249251Y-2083562D01*
G01X20203531Y-2003552D02*
G01X20243663Y-2003552D01*
G01X20314275Y-1963420D02*
G01X20314275Y-2060702D01*
G01X20319863Y-2077720D01*
G01X20331293Y-2083562D01*
G01X20342723Y-2083562D01*
G01X20297003Y-2003552D02*
G01X20337135Y-2003552D01*
G01X20419177Y-2003552D02*
G01X20407747Y-2009140D01*
G01X20396317Y-2020570D01*
G01X20390475Y-2037842D01*
G01X20390475Y-2049272D01*
G01X20396317Y-2066290D01*
G01X20407747Y-2077720D01*
G01X20419177Y-2083562D01*
G01X20436195Y-2083562D01*
G01X20447625Y-2077720D01*
G01X20459055Y-2066290D01*
G01X20464897Y-2049272D01*
G01X20464897Y-2037842D01*
G01X20459055Y-2020570D01*
G01X20447625Y-2009140D01*
G01X20436195Y-2003552D01*
G01X20419177Y-2003552D01*
G01X20512649Y-2003552D02*
G01X20512649Y-2083562D01*
G01X20512649Y-2026412D02*
G01X20529921Y-2009140D01*
G01X20541351Y-2003552D01*
G01X20558369Y-2003552D01*
G01X20569799Y-2009140D01*
G01X20575641Y-2026412D01*
G01X20575641Y-2083562D01*
G01X20575641Y-2026412D02*
G01X20592659Y-2009140D01*
G01X20604089Y-2003552D01*
G01X20621361Y-2003552D01*
G01X20632791Y-2009140D01*
G01X20638379Y-2026412D01*
G01X20638379Y-2083562D01*
G01X20814147Y-1963420D02*
G01X20814147Y-2083562D01*
G01X20814147Y-2083562D02*
G01X20882727Y-2083562D01*
G01X20999059Y-2003552D02*
G01X20999059Y-2083562D01*
G01X20999059Y-2020570D02*
G01X20987629Y-2009140D01*
G01X20976199Y-2003552D01*
G01X20959181Y-2003552D01*
G01X20947751Y-2009140D01*
G01X20936321Y-2020570D01*
G01X20930479Y-2037842D01*
G01X20930479Y-2049272D01*
G01X20936321Y-2066290D01*
G01X20947751Y-2077720D01*
G01X20959181Y-2083562D01*
G01X20976199Y-2083562D01*
G01X20987629Y-2077720D01*
G01X20999059Y-2066290D01*
G01X21052653Y-2003552D02*
G01X21086943Y-2083562D01*
G01X21121233Y-2003552D02*
G01X21086943Y-2083562D01*
G01X21075513Y-2106422D01*
G01X21064083Y-2117852D01*
G01X21052653Y-2123440D01*
G01X21046811Y-2123440D01*
G01X21168985Y-2037842D02*
G01X21237565Y-2037842D01*
G01X21237565Y-2026412D01*
G01X21231977Y-2014982D01*
G01X21226135Y-2009140D01*
G01X21214705Y-2003552D01*
G01X21197687Y-2003552D01*
G01X21186257Y-2009140D01*
G01X21174827Y-2020570D01*
G01X21168985Y-2037842D01*
G01X21168985Y-2049272D01*
G01X21174827Y-2066290D01*
G01X21186257Y-2077720D01*
G01X21197687Y-2083562D01*
G01X21214705Y-2083562D01*
G01X21226135Y-2077720D01*
G01X21237565Y-2066290D01*
G01X21285317Y-2003552D02*
G01X21285317Y-2083562D01*
G01X21285317Y-2037842D02*
G01X21291159Y-2020570D01*
G01X21302589Y-2009140D01*
G01X21314019Y-2003552D01*
G01X21331037Y-2003552D01*
G01X6859024Y-2543991D02*
G01X6801874Y-2624001D01*
G01X6887726Y-2624001D01*
G01X6859024Y-2543991D02*
G01X6859024Y-2664133D01*
G01X8227467Y-2543991D02*
G01X8290459Y-2543991D01*
G01X8256169Y-2589711D01*
G01X8273187Y-2589711D01*
G01X8284617Y-2595553D01*
G01X8290459Y-2601141D01*
G01X8296047Y-2618413D01*
G01X8296047Y-2629843D01*
G01X8290459Y-2646861D01*
G01X8279029Y-2658291D01*
G01X8261757Y-2664133D01*
G01X8244739Y-2664133D01*
G01X8227467Y-2658291D01*
G01X8221879Y-2652703D01*
G01X8216037Y-2641273D01*
G01X8418221Y-2584123D02*
G01X8412379Y-2601141D01*
G01X8400949Y-2612571D01*
G01X8383931Y-2618413D01*
G01X8378089Y-2618413D01*
G01X8361071Y-2612571D01*
G01X8349641Y-2601141D01*
G01X8343799Y-2584123D01*
G01X8343799Y-2578281D01*
G01X8349641Y-2561263D01*
G01X8361071Y-2549833D01*
G01X8378089Y-2543991D01*
G01X8383931Y-2543991D01*
G01X8400949Y-2549833D01*
G01X8412379Y-2561263D01*
G01X8418221Y-2584123D01*
G01X8418221Y-2612571D01*
G01X8412379Y-2641273D01*
G01X8400949Y-2658291D01*
G01X8383931Y-2664133D01*
G01X8372501Y-2664133D01*
G01X8355229Y-2658291D01*
G01X8349641Y-2646861D01*
G01X8471815Y-2635431D02*
G01X8465973Y-2641273D01*
G01X8471815Y-2646861D01*
G01X8477403Y-2641273D01*
G01X8471815Y-2635431D01*
G01X8582305Y-2543991D02*
G01X8525155Y-2624001D01*
G01X8611007Y-2624001D01*
G01X8582305Y-2543991D02*
G01X8582305Y-2664133D01*
G01X8658759Y-2584123D02*
G01X8721751Y-2664133D01*
G01X8721751Y-2584123D02*
G01X8658759Y-2664133D01*
G01X8780933Y-2543991D02*
G01X8843925Y-2543991D01*
G01X8809635Y-2589711D01*
G01X8826653Y-2589711D01*
G01X8838083Y-2595553D01*
G01X8843925Y-2601141D01*
G01X8849513Y-2618413D01*
G01X8849513Y-2629843D01*
G01X8843925Y-2646861D01*
G01X8832495Y-2658291D01*
G01X8815223Y-2664133D01*
G01X8798205Y-2664133D01*
G01X8780933Y-2658291D01*
G01X8775345Y-2652703D01*
G01X8769503Y-2641273D01*
G01X8971687Y-2584123D02*
G01X8965845Y-2601141D01*
G01X8954415Y-2612571D01*
G01X8937397Y-2618413D01*
G01X8931555Y-2618413D01*
G01X8914537Y-2612571D01*
G01X8903107Y-2601141D01*
G01X8897265Y-2584123D01*
G01X8897265Y-2578281D01*
G01X8903107Y-2561263D01*
G01X8914537Y-2549833D01*
G01X8931555Y-2543991D01*
G01X8937397Y-2543991D01*
G01X8954415Y-2549833D01*
G01X8965845Y-2561263D01*
G01X8971687Y-2584123D01*
G01X8971687Y-2612571D01*
G01X8965845Y-2641273D01*
G01X8954415Y-2658291D01*
G01X8937397Y-2664133D01*
G01X8925967Y-2664133D01*
G01X8908695Y-2658291D01*
G01X8903107Y-2646861D01*
G01X9025281Y-2635431D02*
G01X9019439Y-2641273D01*
G01X9025281Y-2646861D01*
G01X9030869Y-2641273D01*
G01X9025281Y-2635431D01*
G01X9135771Y-2543991D02*
G01X9078621Y-2624001D01*
G01X9164473Y-2624001D01*
G01X9135771Y-2543991D02*
G01X9135771Y-2664133D01*
G01X9212225Y-2584123D02*
G01X9212225Y-2664133D01*
G01X9212225Y-2606983D02*
G01X9229497Y-2589711D01*
G01X9240927Y-2584123D01*
G01X9257945Y-2584123D01*
G01X9269375Y-2589711D01*
G01X9275217Y-2606983D01*
G01X9275217Y-2664133D01*
G01X9275217Y-2606983D02*
G01X9292235Y-2589711D01*
G01X9303665Y-2584123D01*
G01X9320937Y-2584123D01*
G01X9332367Y-2589711D01*
G01X9337955Y-2606983D01*
G01X9337955Y-2664133D01*
G01X9385707Y-2543991D02*
G01X9391549Y-2549833D01*
G01X9397137Y-2543991D01*
G01X9391549Y-2538403D01*
G01X9385707Y-2543991D01*
G01X9391549Y-2584123D02*
G01X9391549Y-2664133D01*
G01X9444889Y-2543991D02*
G01X9444889Y-2664133D01*
G01X9532773Y-2521131D02*
G01X9521343Y-2532561D01*
G01X9509913Y-2549833D01*
G01X9498483Y-2572693D01*
G01X9492641Y-2601141D01*
G01X9492641Y-2624001D01*
G01X9498483Y-2652703D01*
G01X9509913Y-2675563D01*
G01X9521343Y-2692581D01*
G01X9532773Y-2704011D01*
G01X9580525Y-2566851D02*
G01X9591955Y-2561263D01*
G01X9609227Y-2543991D01*
G01X9609227Y-2664133D01*
G01X9662821Y-2635431D02*
G01X9656979Y-2641273D01*
G01X9662821Y-2646861D01*
G01X9668409Y-2641273D01*
G01X9662821Y-2635431D01*
G01X9750451Y-2543991D02*
G01X9733433Y-2549833D01*
G01X9722003Y-2566851D01*
G01X9716161Y-2595553D01*
G01X9716161Y-2612571D01*
G01X9722003Y-2641273D01*
G01X9733433Y-2658291D01*
G01X9750451Y-2664133D01*
G01X9761881Y-2664133D01*
G01X9779153Y-2658291D01*
G01X9790583Y-2641273D01*
G01X9796171Y-2612571D01*
G01X9796171Y-2595553D01*
G01X9790583Y-2566851D01*
G01X9779153Y-2549833D01*
G01X9761881Y-2543991D01*
G01X9750451Y-2543991D01*
G01X9878213Y-2543991D02*
G01X9861195Y-2549833D01*
G01X9849765Y-2566851D01*
G01X9843923Y-2595553D01*
G01X9843923Y-2612571D01*
G01X9849765Y-2641273D01*
G01X9861195Y-2658291D01*
G01X9878213Y-2664133D01*
G01X9889643Y-2664133D01*
G01X9906915Y-2658291D01*
G01X9918345Y-2641273D01*
G01X9923933Y-2612571D01*
G01X9923933Y-2595553D01*
G01X9918345Y-2566851D01*
G01X9906915Y-2549833D01*
G01X9889643Y-2543991D01*
G01X9878213Y-2543991D01*
G01X10005975Y-2543991D02*
G01X9988957Y-2549833D01*
G01X9977527Y-2566851D01*
G01X9971685Y-2595553D01*
G01X9971685Y-2612571D01*
G01X9977527Y-2641273D01*
G01X9988957Y-2658291D01*
G01X10005975Y-2664133D01*
G01X10017405Y-2664133D01*
G01X10034677Y-2658291D01*
G01X10046107Y-2641273D01*
G01X10051695Y-2612571D01*
G01X10051695Y-2595553D01*
G01X10046107Y-2566851D01*
G01X10034677Y-2549833D01*
G01X10017405Y-2543991D01*
G01X10005975Y-2543991D01*
G01X10099447Y-2584123D02*
G01X10162439Y-2664133D01*
G01X10162439Y-2584123D02*
G01X10099447Y-2664133D01*
G01X10210191Y-2566851D02*
G01X10221621Y-2561263D01*
G01X10238893Y-2543991D01*
G01X10238893Y-2664133D01*
G01X10292487Y-2635431D02*
G01X10286645Y-2641273D01*
G01X10292487Y-2646861D01*
G01X10298075Y-2641273D01*
G01X10292487Y-2635431D01*
G01X10380117Y-2543991D02*
G01X10363099Y-2549833D01*
G01X10351669Y-2566851D01*
G01X10345827Y-2595553D01*
G01X10345827Y-2612571D01*
G01X10351669Y-2641273D01*
G01X10363099Y-2658291D01*
G01X10380117Y-2664133D01*
G01X10391547Y-2664133D01*
G01X10408819Y-2658291D01*
G01X10420249Y-2641273D01*
G01X10425837Y-2612571D01*
G01X10425837Y-2595553D01*
G01X10420249Y-2566851D01*
G01X10408819Y-2549833D01*
G01X10391547Y-2543991D01*
G01X10380117Y-2543991D01*
G01X10507879Y-2543991D02*
G01X10490861Y-2549833D01*
G01X10479431Y-2566851D01*
G01X10473589Y-2595553D01*
G01X10473589Y-2612571D01*
G01X10479431Y-2641273D01*
G01X10490861Y-2658291D01*
G01X10507879Y-2664133D01*
G01X10519309Y-2664133D01*
G01X10536581Y-2658291D01*
G01X10548011Y-2641273D01*
G01X10553599Y-2612571D01*
G01X10553599Y-2595553D01*
G01X10548011Y-2566851D01*
G01X10536581Y-2549833D01*
G01X10519309Y-2543991D01*
G01X10507879Y-2543991D01*
G01X10635641Y-2543991D02*
G01X10618623Y-2549833D01*
G01X10607193Y-2566851D01*
G01X10601351Y-2595553D01*
G01X10601351Y-2612571D01*
G01X10607193Y-2641273D01*
G01X10618623Y-2658291D01*
G01X10635641Y-2664133D01*
G01X10647071Y-2664133D01*
G01X10664343Y-2658291D01*
G01X10675773Y-2641273D01*
G01X10681361Y-2612571D01*
G01X10681361Y-2595553D01*
G01X10675773Y-2566851D01*
G01X10664343Y-2549833D01*
G01X10647071Y-2543991D01*
G01X10635641Y-2543991D01*
G01X10729113Y-2584123D02*
G01X10729113Y-2664133D01*
G01X10729113Y-2606983D02*
G01X10746385Y-2589711D01*
G01X10757815Y-2584123D01*
G01X10774833Y-2584123D01*
G01X10786263Y-2589711D01*
G01X10792105Y-2606983D01*
G01X10792105Y-2664133D01*
G01X10792105Y-2606983D02*
G01X10809123Y-2589711D01*
G01X10820553Y-2584123D01*
G01X10837825Y-2584123D01*
G01X10849255Y-2589711D01*
G01X10854843Y-2606983D01*
G01X10854843Y-2664133D01*
G01X10902595Y-2584123D02*
G01X10902595Y-2664133D01*
G01X10902595Y-2606983D02*
G01X10919867Y-2589711D01*
G01X10931297Y-2584123D01*
G01X10948315Y-2584123D01*
G01X10959745Y-2589711D01*
G01X10965587Y-2606983D01*
G01X10965587Y-2664133D01*
G01X10965587Y-2606983D02*
G01X10982605Y-2589711D01*
G01X10994035Y-2584123D01*
G01X11011307Y-2584123D01*
G01X11022737Y-2589711D01*
G01X11028325Y-2606983D01*
G01X11028325Y-2664133D01*
G01X11076077Y-2521131D02*
G01X11087507Y-2532561D01*
G01X11098937Y-2549833D01*
G01X11110367Y-2572693D01*
G01X11116209Y-2601141D01*
G01X11116209Y-2624001D01*
G01X11110367Y-2652703D01*
G01X11098937Y-2675563D01*
G01X11087507Y-2692581D01*
G01X11076077Y-2704011D01*
G01X12262911Y-2543991D02*
G01X12262911Y-2664133D01*
G01X12262911Y-2543991D02*
G01X12314473Y-2543991D01*
G01X12331491Y-2549833D01*
G01X12337333Y-2555421D01*
G01X12342921Y-2566851D01*
G01X12342921Y-2584123D01*
G01X12337333Y-2595553D01*
G01X12331491Y-2601141D01*
G01X12314473Y-2606983D01*
G01X12262911Y-2606983D01*
G01X12430805Y-2543991D02*
G01X12430805Y-2664133D01*
G01X12390673Y-2543991D02*
G01X12470683Y-2543991D01*
G01X12518435Y-2543991D02*
G01X12518435Y-2664133D01*
G01X12598445Y-2543991D02*
G01X12598445Y-2664133D01*
G01X12518435Y-2601141D02*
G01X12598445Y-2601141D01*
G01X13724318Y-2543991D02*
G01X13724318Y-2664133D01*
G01X13724318Y-2543991D02*
G01X13775880Y-2543991D01*
G01X13792898Y-2549833D01*
G01X13798740Y-2555421D01*
G01X13804328Y-2566851D01*
G01X13804328Y-2578281D01*
G01X13798740Y-2589711D01*
G01X13792898Y-2595553D01*
G01X13775880Y-2601141D01*
G01X13724318Y-2601141D01*
G01X13764450Y-2601141D02*
G01X13804328Y-2664133D01*
G01X13880782Y-2584123D02*
G01X13869352Y-2589711D01*
G01X13857922Y-2601141D01*
G01X13852080Y-2618413D01*
G01X13852080Y-2629843D01*
G01X13857922Y-2646861D01*
G01X13869352Y-2658291D01*
G01X13880782Y-2664133D01*
G01X13897800Y-2664133D01*
G01X13909230Y-2658291D01*
G01X13920660Y-2646861D01*
G01X13926502Y-2629843D01*
G01X13926502Y-2618413D01*
G01X13920660Y-2601141D01*
G01X13909230Y-2589711D01*
G01X13897800Y-2584123D01*
G01X13880782Y-2584123D01*
G01X13974254Y-2584123D02*
G01X13974254Y-2641273D01*
G01X13980096Y-2658291D01*
G01X13991526Y-2664133D01*
G01X14008544Y-2664133D01*
G01X14019974Y-2658291D01*
G01X14037246Y-2641273D01*
G01X14037246Y-2584123D02*
G01X14037246Y-2664133D01*
G01X14084998Y-2584123D02*
G01X14084998Y-2664133D01*
G01X14084998Y-2606983D02*
G01X14102270Y-2589711D01*
G01X14113700Y-2584123D01*
G01X14130718Y-2584123D01*
G01X14142148Y-2589711D01*
G01X14147990Y-2606983D01*
G01X14147990Y-2664133D01*
G01X14264322Y-2543991D02*
G01X14264322Y-2664133D01*
G01X14264322Y-2601141D02*
G01X14252892Y-2589711D01*
G01X14241462Y-2584123D01*
G01X14224444Y-2584123D01*
G01X14213014Y-2589711D01*
G01X14201584Y-2601141D01*
G01X14195742Y-2618413D01*
G01X14195742Y-2629843D01*
G01X14201584Y-2646861D01*
G01X14213014Y-2658291D01*
G01X14224444Y-2664133D01*
G01X14241462Y-2664133D01*
G01X14252892Y-2658291D01*
G01X14264322Y-2646861D01*
G01X15155499Y-2543991D02*
G01X15155499Y-2664133D01*
G01X15155499Y-2543991D02*
G01X15207061Y-2543991D01*
G01X15224079Y-2549833D01*
G01X15229921Y-2555421D01*
G01X15235509Y-2566851D01*
G01X15235509Y-2584123D01*
G01X15229921Y-2595553D01*
G01X15224079Y-2601141D01*
G01X15207061Y-2606983D01*
G01X15155499Y-2606983D01*
G01X15351841Y-2584123D02*
G01X15351841Y-2664133D01*
G01X15351841Y-2601141D02*
G01X15340411Y-2589711D01*
G01X15328981Y-2584123D01*
G01X15311963Y-2584123D01*
G01X15300533Y-2589711D01*
G01X15289103Y-2601141D01*
G01X15283261Y-2618413D01*
G01X15283261Y-2629843D01*
G01X15289103Y-2646861D01*
G01X15300533Y-2658291D01*
G01X15311963Y-2664133D01*
G01X15328981Y-2664133D01*
G01X15340411Y-2658291D01*
G01X15351841Y-2646861D01*
G01X15468173Y-2543991D02*
G01X15468173Y-2664133D01*
G01X15468173Y-2601141D02*
G01X15456743Y-2589711D01*
G01X15445313Y-2584123D01*
G01X15428295Y-2584123D01*
G01X15416865Y-2589711D01*
G01X15405435Y-2601141D01*
G01X15399593Y-2618413D01*
G01X15399593Y-2629843D01*
G01X15405435Y-2646861D01*
G01X15416865Y-2658291D01*
G01X15428295Y-2664133D01*
G01X15445313Y-2664133D01*
G01X15456743Y-2658291D01*
G01X15468173Y-2646861D01*
G01X16864810Y-2521131D02*
G01X16853380Y-2532561D01*
G01X16841950Y-2549833D01*
G01X16830520Y-2572693D01*
G01X16824678Y-2601141D01*
G01X16824678Y-2624001D01*
G01X16830520Y-2652703D01*
G01X16841950Y-2675563D01*
G01X16853380Y-2692581D01*
G01X16864810Y-2704011D01*
G01X16912562Y-2543991D02*
G01X16912562Y-2664133D01*
G01X16912562Y-2543991D02*
G01X16958282Y-2664133D01*
G01X17004002Y-2543991D02*
G01X16958282Y-2664133D01*
G01X17004002Y-2543991D02*
G01X17004002Y-2664133D01*
G01X17051754Y-2543991D02*
G01X17057596Y-2549833D01*
G01X17063184Y-2543991D01*
G01X17057596Y-2538403D01*
G01X17051754Y-2543991D01*
G01X17057596Y-2584123D02*
G01X17057596Y-2664133D01*
G01X17110936Y-2584123D02*
G01X17173928Y-2664133D01*
G01X17173928Y-2584123D02*
G01X17110936Y-2664133D01*
G01X17221680Y-2618413D02*
G01X17290260Y-2618413D01*
G01X17290260Y-2606983D01*
G01X17284672Y-2595553D01*
G01X17278830Y-2589711D01*
G01X17267400Y-2584123D01*
G01X17250382Y-2584123D01*
G01X17238952Y-2589711D01*
G01X17227522Y-2601141D01*
G01X17221680Y-2618413D01*
G01X17221680Y-2629843D01*
G01X17227522Y-2646861D01*
G01X17238952Y-2658291D01*
G01X17250382Y-2664133D01*
G01X17267400Y-2664133D01*
G01X17278830Y-2658291D01*
G01X17290260Y-2646861D01*
G01X17406592Y-2543991D02*
G01X17406592Y-2664133D01*
G01X17406592Y-2601141D02*
G01X17395162Y-2589711D01*
G01X17383732Y-2584123D01*
G01X17366714Y-2584123D01*
G01X17355284Y-2589711D01*
G01X17343854Y-2601141D01*
G01X17338012Y-2618413D01*
G01X17338012Y-2629843D01*
G01X17343854Y-2646861D01*
G01X17355284Y-2658291D01*
G01X17366714Y-2664133D01*
G01X17383732Y-2664133D01*
G01X17395162Y-2658291D01*
G01X17406592Y-2646861D01*
G01X17454344Y-2521131D02*
G01X17465774Y-2532561D01*
G01X17477204Y-2549833D01*
G01X17488634Y-2572693D01*
G01X17494476Y-2601141D01*
G01X17494476Y-2624001D01*
G01X17488634Y-2652703D01*
G01X17477204Y-2675563D01*
G01X17465774Y-2692581D01*
G01X17454344Y-2704011D01*
G01X18784179Y-2543991D02*
G01X18784179Y-2664133D01*
G01X18744047Y-2543991D02*
G01X18824057Y-2543991D01*
G01X18900511Y-2584123D02*
G01X18889081Y-2589711D01*
G01X18877651Y-2601141D01*
G01X18871809Y-2618413D01*
G01X18871809Y-2629843D01*
G01X18877651Y-2646861D01*
G01X18889081Y-2658291D01*
G01X18900511Y-2664133D01*
G01X18917529Y-2664133D01*
G01X18928959Y-2658291D01*
G01X18940389Y-2646861D01*
G01X18946231Y-2629843D01*
G01X18946231Y-2618413D01*
G01X18940389Y-2601141D01*
G01X18928959Y-2589711D01*
G01X18917529Y-2584123D01*
G01X18900511Y-2584123D01*
G01X18993983Y-2584123D02*
G01X18993983Y-2704011D01*
G01X18993983Y-2601141D02*
G01X19005413Y-2589711D01*
G01X19016843Y-2584123D01*
G01X19034115Y-2584123D01*
G01X19045545Y-2589711D01*
G01X19056975Y-2601141D01*
G01X19062563Y-2618413D01*
G01X19062563Y-2629843D01*
G01X19056975Y-2646861D01*
G01X19045545Y-2658291D01*
G01X19034115Y-2664133D01*
G01X19016843Y-2664133D01*
G01X19005413Y-2658291D01*
G01X18993983Y-2646861D01*
G01X19238331Y-2543991D02*
G01X19238331Y-2664133D01*
G01X19238331Y-2664133D02*
G01X19306911Y-2664133D01*
G01X19423243Y-2584123D02*
G01X19423243Y-2664133D01*
G01X19423243Y-2601141D02*
G01X19411813Y-2589711D01*
G01X19400383Y-2584123D01*
G01X19383365Y-2584123D01*
G01X19371935Y-2589711D01*
G01X19360505Y-2601141D01*
G01X19354663Y-2618413D01*
G01X19354663Y-2629843D01*
G01X19360505Y-2646861D01*
G01X19371935Y-2658291D01*
G01X19383365Y-2664133D01*
G01X19400383Y-2664133D01*
G01X19411813Y-2658291D01*
G01X19423243Y-2646861D01*
G01X19476837Y-2584123D02*
G01X19511127Y-2664133D01*
G01X19545417Y-2584123D02*
G01X19511127Y-2664133D01*
G01X19499697Y-2686993D01*
G01X19488267Y-2698423D01*
G01X19476837Y-2704011D01*
G01X19470995Y-2704011D01*
G01X19593169Y-2618413D02*
G01X19661749Y-2618413D01*
G01X19661749Y-2606983D01*
G01X19656161Y-2595553D01*
G01X19650319Y-2589711D01*
G01X19638889Y-2584123D01*
G01X19621871Y-2584123D01*
G01X19610441Y-2589711D01*
G01X19599011Y-2601141D01*
G01X19593169Y-2618413D01*
G01X19593169Y-2629843D01*
G01X19599011Y-2646861D01*
G01X19610441Y-2658291D01*
G01X19621871Y-2664133D01*
G01X19638889Y-2664133D01*
G01X19650319Y-2658291D01*
G01X19661749Y-2646861D01*
G01X19709501Y-2584123D02*
G01X19709501Y-2664133D01*
G01X19709501Y-2618413D02*
G01X19715343Y-2601141D01*
G01X19726773Y-2589711D01*
G01X19738203Y-2584123D01*
G01X19755221Y-2584123D01*
G01X19802973Y-2612571D02*
G01X19905843Y-2612571D01*
G01X19953595Y-2543991D02*
G01X19953595Y-2664133D01*
G01X19953595Y-2543991D02*
G01X20005157Y-2543991D01*
G01X20022175Y-2549833D01*
G01X20028017Y-2555421D01*
G01X20033605Y-2566851D01*
G01X20033605Y-2578281D01*
G01X20028017Y-2589711D01*
G01X20022175Y-2595553D01*
G01X20005157Y-2601141D01*
G01X19953595Y-2601141D02*
G01X20005157Y-2601141D01*
G01X20022175Y-2606983D01*
G01X20028017Y-2612571D01*
G01X20033605Y-2624001D01*
G01X20033605Y-2641273D01*
G01X20028017Y-2652703D01*
G01X20022175Y-2658291D01*
G01X20005157Y-2664133D01*
G01X19953595Y-2664133D01*
G01X20110059Y-2584123D02*
G01X20098629Y-2589711D01*
G01X20087199Y-2601141D01*
G01X20081357Y-2618413D01*
G01X20081357Y-2629843D01*
G01X20087199Y-2646861D01*
G01X20098629Y-2658291D01*
G01X20110059Y-2664133D01*
G01X20127077Y-2664133D01*
G01X20138507Y-2658291D01*
G01X20149937Y-2646861D01*
G01X20155779Y-2629843D01*
G01X20155779Y-2618413D01*
G01X20149937Y-2601141D01*
G01X20138507Y-2589711D01*
G01X20127077Y-2584123D01*
G01X20110059Y-2584123D01*
G01X20220803Y-2543991D02*
G01X20220803Y-2641273D01*
G01X20226391Y-2658291D01*
G01X20237821Y-2664133D01*
G01X20249251Y-2664133D01*
G01X20203531Y-2584123D02*
G01X20243663Y-2584123D01*
G01X20314275Y-2543991D02*
G01X20314275Y-2641273D01*
G01X20319863Y-2658291D01*
G01X20331293Y-2664133D01*
G01X20342723Y-2664133D01*
G01X20297003Y-2584123D02*
G01X20337135Y-2584123D01*
G01X20419177Y-2584123D02*
G01X20407747Y-2589711D01*
G01X20396317Y-2601141D01*
G01X20390475Y-2618413D01*
G01X20390475Y-2629843D01*
G01X20396317Y-2646861D01*
G01X20407747Y-2658291D01*
G01X20419177Y-2664133D01*
G01X20436195Y-2664133D01*
G01X20447625Y-2658291D01*
G01X20459055Y-2646861D01*
G01X20464897Y-2629843D01*
G01X20464897Y-2618413D01*
G01X20459055Y-2601141D01*
G01X20447625Y-2589711D01*
G01X20436195Y-2584123D01*
G01X20419177Y-2584123D01*
G01X20512649Y-2584123D02*
G01X20512649Y-2664133D01*
G01X20512649Y-2606983D02*
G01X20529921Y-2589711D01*
G01X20541351Y-2584123D01*
G01X20558369Y-2584123D01*
G01X20569799Y-2589711D01*
G01X20575641Y-2606983D01*
G01X20575641Y-2664133D01*
G01X20575641Y-2606983D02*
G01X20592659Y-2589711D01*
G01X20604089Y-2584123D01*
G01X20621361Y-2584123D01*
G01X20632791Y-2589711D01*
G01X20638379Y-2606983D01*
G01X20638379Y-2664133D01*
G01X20814147Y-2543991D02*
G01X20814147Y-2664133D01*
G01X20814147Y-2664133D02*
G01X20882727Y-2664133D01*
G01X20999059Y-2584123D02*
G01X20999059Y-2664133D01*
G01X20999059Y-2601141D02*
G01X20987629Y-2589711D01*
G01X20976199Y-2584123D01*
G01X20959181Y-2584123D01*
G01X20947751Y-2589711D01*
G01X20936321Y-2601141D01*
G01X20930479Y-2618413D01*
G01X20930479Y-2629843D01*
G01X20936321Y-2646861D01*
G01X20947751Y-2658291D01*
G01X20959181Y-2664133D01*
G01X20976199Y-2664133D01*
G01X20987629Y-2658291D01*
G01X20999059Y-2646861D01*
G01X21052653Y-2584123D02*
G01X21086943Y-2664133D01*
G01X21121233Y-2584123D02*
G01X21086943Y-2664133D01*
G01X21075513Y-2686993D01*
G01X21064083Y-2698423D01*
G01X21052653Y-2704011D01*
G01X21046811Y-2704011D01*
G01X21168985Y-2618413D02*
G01X21237565Y-2618413D01*
G01X21237565Y-2606983D01*
G01X21231977Y-2595553D01*
G01X21226135Y-2589711D01*
G01X21214705Y-2584123D01*
G01X21197687Y-2584123D01*
G01X21186257Y-2589711D01*
G01X21174827Y-2601141D01*
G01X21168985Y-2618413D01*
G01X21168985Y-2629843D01*
G01X21174827Y-2646861D01*
G01X21186257Y-2658291D01*
G01X21197687Y-2664133D01*
G01X21214705Y-2664133D01*
G01X21226135Y-2658291D01*
G01X21237565Y-2646861D01*
G01X21285317Y-2584123D02*
G01X21285317Y-2664133D01*
G01X21285317Y-2618413D02*
G01X21291159Y-2601141D01*
G01X21302589Y-2589711D01*
G01X21314019Y-2584123D01*
G01X21331037Y-2584123D01*

G04 Image Start*
G36*
G01X5637262Y-2724604D02*
G01X5531649Y-2713123D01*
G01X5488774Y-2810329D01*
G01X5445899Y-2713123D01*
G01X5340286Y-2724604D01*
G01X5403049Y-2638879D01*
G01X5363327Y-2584624D01*
G01X5394819Y-2584624D01*
G01X5434520Y-2638879D01*
G01X5394819Y-2693133D01*
G01X5461647Y-2685869D01*
G01X5461647Y-2685869D01*
G01X5488774Y-2747362D01*
G01X5515901Y-2685869D01*
G01X5582729Y-2693133D01*
G01X5543028Y-2638879D01*
G01X5582703Y-2584650D01*
G01X5515876Y-2591914D01*
G01X5488774Y-2530395D01*
G01X5461647Y-2591889D01*
G01X5394819Y-2584624D01*
G01X5363327Y-2584624D01*
G01X5340286Y-2553154D01*
G01X5445924Y-2564634D01*
G01X5488774Y-2467429D01*
G01X5531649Y-2564634D01*
G01X5637262Y-2553154D01*
G01X5574499Y-2638879D01*
G01X5637262Y-2724604D01*
G37*
G36*
G01X5508269Y-1610299D02*
G01X5500529Y-1610887D01*
G01X5492686Y-1611086D01*
G01X5484843Y-1610887D01*
G01X5477102Y-1610299D01*
G01X5469475Y-1609330D01*
G01X5461970Y-1607990D01*
G01X5447364Y-1604235D01*
G01X5433362Y-1599110D01*
G01X5420040Y-1592693D01*
G01X5407474Y-1585060D01*
G01X5395742Y-1576287D01*
G01X5384920Y-1566452D01*
G01X5375084Y-1555629D01*
G01X5366311Y-1543897D01*
G01X5358678Y-1531332D01*
G01X5352261Y-1518010D01*
G01X5347137Y-1504008D01*
G01X5343382Y-1489402D01*
G01X5342042Y-1481896D01*
G01X5341072Y-1474269D01*
G01X5340484Y-1466529D01*
G01X5340286Y-1458686D01*
G01X5365686Y-1458686D01*
G01X5366343Y-1471652D01*
G01X5368270Y-1484248D01*
G01X5371405Y-1496410D01*
G01X5375682Y-1508072D01*
G01X5381037Y-1519172D01*
G01X5387405Y-1529643D01*
G01X5394723Y-1539423D01*
G01X5402925Y-1548446D01*
G01X5411949Y-1556649D01*
G01X5421728Y-1563966D01*
G01X5432200Y-1570335D01*
G01X5443299Y-1575690D01*
G01X5454962Y-1579966D01*
G01X5467123Y-1583101D01*
G01X5467123Y-1583101D01*
G01X5479719Y-1585029D01*
G01X5492686Y-1585686D01*
G01X5505652Y-1585029D01*
G01X5518248Y-1583101D01*
G01X5530410Y-1579966D01*
G01X5542072Y-1575690D01*
G01X5553172Y-1570335D01*
G01X5563643Y-1563966D01*
G01X5573423Y-1556649D01*
G01X5582446Y-1548446D01*
G01X5590649Y-1539423D01*
G01X5597966Y-1529643D01*
G01X5604335Y-1519172D01*
G01X5609690Y-1508072D01*
G01X5613966Y-1496410D01*
G01X5617101Y-1484248D01*
G01X5619029Y-1471652D01*
G01X5619686Y-1458686D01*
G01X5619029Y-1445719D01*
G01X5617101Y-1433123D01*
G01X5613966Y-1420962D01*
G01X5609690Y-1409299D01*
G01X5604335Y-1398200D01*
G01X5597966Y-1387728D01*
G01X5590649Y-1377949D01*
G01X5582446Y-1368925D01*
G01X5573423Y-1360723D01*
G01X5563643Y-1353405D01*
G01X5553172Y-1347037D01*
G01X5542072Y-1341682D01*
G01X5530410Y-1337405D01*
G01X5518248Y-1334271D01*
G01X5505652Y-1332343D01*
G01X5492686Y-1331686D01*
G01X5479719Y-1332343D01*
G01X5467123Y-1334271D01*
G01X5454962Y-1337405D01*
G01X5443299Y-1341682D01*
G01X5432200Y-1347037D01*
G01X5421728Y-1353405D01*
G01X5411949Y-1360723D01*
G01X5402925Y-1368925D01*
G01X5394723Y-1377949D01*
G01X5387405Y-1387728D01*
G01X5381037Y-1398200D01*
G01X5375682Y-1409299D01*
G01X5371405Y-1420962D01*
G01X5368270Y-1433123D01*
G01X5366343Y-1445719D01*
G01X5365686Y-1458686D01*
G01X5340286Y-1458686D01*
G01X5340484Y-1450843D01*
G01X5341072Y-1443102D01*
G01X5342042Y-1435475D01*
G01X5343382Y-1427970D01*
G01X5347137Y-1413364D01*
G01X5352261Y-1399362D01*
G01X5358678Y-1386040D01*
G01X5366311Y-1373474D01*
G01X5375084Y-1361742D01*
G01X5384920Y-1350920D01*
G01X5395742Y-1341084D01*
G01X5407474Y-1332311D01*
G01X5420040Y-1324678D01*
G01X5433362Y-1318261D01*
G01X5447364Y-1313137D01*
G01X5461970Y-1309382D01*
G01X5469475Y-1308042D01*
G01X5477102Y-1307072D01*
G01X5484843Y-1306484D01*
G01X5492686Y-1306286D01*
G01X5500529Y-1306484D01*
G01X5508269Y-1307072D01*
G01X5515896Y-1308042D01*
G01X5523402Y-1309382D01*
G01X5538008Y-1313137D01*
G01X5552010Y-1318261D01*
G01X5565332Y-1324678D01*
G01X5577897Y-1332311D01*
G01X5589629Y-1341084D01*
G01X5600452Y-1350920D01*
G01X5610287Y-1361742D01*
G01X5619060Y-1373474D01*
G01X5626693Y-1386040D01*
G01X5633110Y-1399362D01*
G01X5638235Y-1413364D01*
G01X5641990Y-1427970D01*
G01X5643330Y-1435475D01*
G01X5644299Y-1443102D01*
G01X5644887Y-1450843D01*
G01X5645086Y-1458686D01*
G01X5644887Y-1466529D01*
G01X5644299Y-1474269D01*
G01X5643330Y-1481896D01*
G01X5641990Y-1489402D01*
G01X5638235Y-1504008D01*
G01X5633110Y-1518010D01*
G01X5626693Y-1531332D01*
G01X5619060Y-1543897D01*
G01X5610287Y-1555629D01*
G01X5600452Y-1566452D01*
G01X5589629Y-1576287D01*
G01X5577897Y-1585060D01*
G01X5565332Y-1592693D01*
G01X5552010Y-1599110D01*
G01X5538008Y-1604235D01*
G01X5523402Y-1607990D01*
G01X5515896Y-1609330D01*
G01X5508269Y-1610299D01*
G37*
G36*
G01X5340286Y-1886857D02*
G01X5645086Y-1886857D01*
G01X5492686Y-2150814D01*
G01X5354951Y-1912257D01*
G01X5384278Y-1912257D01*
G01X5492686Y-2100014D01*
G01X5601093Y-1912257D01*
G01X5601093Y-1912257D01*
G01X5384278Y-1912257D01*
G01X5354951Y-1912257D01*
G01X5340286Y-1886857D01*
G37*
G36*
G01X5340286Y-725714D02*
G01X5619686Y-725714D01*
G01X5619686Y-1005114D01*
G01X5340286Y-1005114D01*
G01X5340286Y-751114D01*
G01X5365686Y-751114D01*
G01X5365686Y-979714D01*
G01X5594286Y-979714D01*
G01X5594286Y-751114D01*
G01X5594286Y-751114D01*
G01X5365686Y-751114D01*
G01X5340286Y-751114D01*
G01X5340286Y-725714D01*
G37*

G04 PolygonModel Start*
G54D15*
G01X5050000Y-2902857D02*
G01X21921769Y-2902857D01*
G01X5050000Y-2322286D02*
G01X21921769Y-2322286D01*
G01X5050000Y-1741714D02*
G01X21921769Y-1741714D01*
G01X5050000Y-1161143D02*
G01X21921769Y-1161143D01*
G01X5050000Y-580571D02*
G01X21921769Y-580571D01*
G01X5050000Y0D02*
G01X21921769Y0D01*
G01X5050000Y0D02*
G01X5050000Y-2877457D01*
G01X6501429Y0D02*
G01X6501429Y-2877457D01*
G01X7915592Y0D02*
G01X7915592Y-2877457D01*
G01X11962465Y0D02*
G01X11962465Y-2877457D01*
G01X13423872Y0D02*
G01X13423872Y-2877457D01*
G01X14855053Y0D02*
G01X14855053Y-2877457D01*
G01X16524232Y0D02*
G01X16524232Y-2877457D01*
G01X18443601Y0D02*
G01X18443601Y-2877457D01*
G01X21921769Y0D02*
G01X21921769Y-2877457D01*

M02*

