G04 Layer: TopLayer*
G04 EasyEDA Pro v3.2.149.88089769, 2026-07-20 20:13:49*
G04 Gerber Generator version 0.3*
G04 Scale: 100 percent, Rotated: No, Reflected: No*
G04 Dimensions in millimeters*
G04 Leading zeros omitted, absolute positions, 4 integers and 5 decimals*
G04 Generated by one-click*
G04 Object Configs: Pad,Via,Track,Text,Image,Dimension,BoardOutline,BoardCutout,CopperFilled,SolidRegion,FPCStiffener,Line,PlaneZone,ComponentProperty,ComponentSilkscreen,TearDrop*
G04 Layer Configs: 1,2,3,4,5,6,7,8,9,10,11,13,14,56*
G04 Copper Areas: 5*
%FSLAX45Y45*%
%MOMM*%
%ADD10C,0.2032*%
%ADD11C,0.254*%
%ADD12C,4.4*%
%ADD13C,3.0*%
%ADD14R,1.5X4.0*%
%ADD15C,1.6*%
%ADD16R,1.6073X1.6*%
%ADD17R,1.6X1.6*%
%ADD18C,0.61*%
%ADD19C,0.5*%
G75*


G04 Copper Start*
G36*
G01X2270741Y-35814D02*
G01X2303259Y-35814D01*
G01X2303186Y-38099D01*
G01X2303186Y-438099D01*
G01X2304939Y-449166D01*
G01X2310026Y-459150D01*
G01X2317949Y-467073D01*
G01X2327933Y-472160D01*
G01X2339000Y-473913D01*
G01X2489000Y-473913D01*
G01X2500067Y-472160D01*
G01X2510051Y-467073D01*
G01X2517974Y-459150D01*
G01X2523061Y-449166D01*
G01X2524814Y-438099D01*
G01X2524814Y-38099D01*
G01X2524741Y-35814D01*
G01X2557259Y-35814D01*
G01X2557186Y-38099D01*
G01X2557186Y-438099D01*
G01X2558939Y-449166D01*
G01X2564026Y-459150D01*
G01X2571949Y-467073D01*
G01X2581933Y-472160D01*
G01X2593000Y-473913D01*
G01X2608610Y-473913D01*
G01X2608610Y-606133D01*
G01X2603984Y-621845D01*
G01X2603350Y-638211D01*
G01X2606747Y-654234D01*
G01X2613967Y-668935D01*
G01X2624570Y-681419D01*
G01X2637909Y-690923D01*
G01X2653171Y-696867D01*
G01X2669424Y-698890D01*
G01X2685678Y-696867D01*
G01X2700939Y-690923D01*
G01X2714279Y-681419D01*
G01X2724882Y-668935D01*
G01X2732102Y-654234D01*
G01X2735498Y-638211D01*
G01X2734864Y-621845D01*
G01X2730238Y-606133D01*
G01X2730238Y-473913D01*
G01X2743000Y-473913D01*
G01X2754067Y-472160D01*
G01X2764051Y-467073D01*
G01X2771974Y-459150D01*
G01X2777061Y-449166D01*
G01X2778814Y-438099D01*
G01X2778814Y-38099D01*
G01X2778741Y-35814D01*
G01X3014186Y-35814D01*
G01X3014186Y-3764186D01*
G01X35814Y-3764186D01*
G01X35814Y-3400000D01*
G01X144186Y-3400000D01*
G01X146203Y-3432062D01*
G01X152223Y-3463618D01*
G01X162150Y-3494171D01*
G01X175828Y-3523239D01*
G01X193042Y-3550364D01*
G01X213520Y-3575117D01*
G01X236938Y-3597108D01*
G01X262928Y-3615991D01*
G01X291080Y-3631467D01*
G01X320949Y-3643293D01*
G01X352065Y-3651283D01*
G01X383937Y-3655309D01*
G01X416063Y-3655309D01*
G01X447935Y-3651283D01*
G01X479051Y-3643293D01*
G01X508920Y-3631467D01*
G01X537072Y-3615991D01*
G01X563062Y-3597108D01*
G01X586480Y-3575117D01*
G01X606958Y-3550364D01*
G01X624171Y-3523239D01*
G01X637850Y-3494171D01*
G01X647777Y-3463618D01*
G01X653797Y-3432062D01*
G01X655814Y-3400000D01*
G01X655814Y-3400000D01*
G01X2394186Y-3400000D01*
G01X2396203Y-3432062D01*
G01X2402223Y-3463618D01*
G01X2412150Y-3494171D01*
G01X2425829Y-3523239D01*
G01X2443042Y-3550364D01*
G01X2463520Y-3575117D01*
G01X2486938Y-3597108D01*
G01X2512928Y-3615991D01*
G01X2541080Y-3631467D01*
G01X2570949Y-3643293D01*
G01X2602065Y-3651283D01*
G01X2633937Y-3655309D01*
G01X2666063Y-3655309D01*
G01X2697935Y-3651283D01*
G01X2729051Y-3643293D01*
G01X2758920Y-3631467D01*
G01X2787072Y-3615991D01*
G01X2813062Y-3597108D01*
G01X2836480Y-3575117D01*
G01X2856958Y-3550364D01*
G01X2874171Y-3523239D01*
G01X2887850Y-3494171D01*
G01X2897777Y-3463618D01*
G01X2903797Y-3432062D01*
G01X2905814Y-3400000D01*
G01X2903797Y-3367938D01*
G01X2897777Y-3336382D01*
G01X2887850Y-3305829D01*
G01X2874171Y-3276761D01*
G01X2856958Y-3249636D01*
G01X2836480Y-3224883D01*
G01X2813062Y-3202892D01*
G01X2787072Y-3184009D01*
G01X2758920Y-3168533D01*
G01X2729051Y-3156706D01*
G01X2697935Y-3148717D01*
G01X2666063Y-3144691D01*
G01X2633937Y-3144691D01*
G01X2602065Y-3148717D01*
G01X2570949Y-3156706D01*
G01X2541080Y-3168533D01*
G01X2512928Y-3184009D01*
G01X2486938Y-3202892D01*
G01X2463520Y-3224883D01*
G01X2443042Y-3249636D01*
G01X2425829Y-3276761D01*
G01X2412150Y-3305829D01*
G01X2402223Y-3336382D01*
G01X2396203Y-3367938D01*
G01X2394186Y-3400000D01*
G01X2394186Y-3400000D01*
G01X655814Y-3400000D01*
G01X653797Y-3367938D01*
G01X647777Y-3336382D01*
G01X637850Y-3305829D01*
G01X624171Y-3276761D01*
G01X606958Y-3249636D01*
G01X586480Y-3224883D01*
G01X563062Y-3202892D01*
G01X537072Y-3184009D01*
G01X508920Y-3168533D01*
G01X479051Y-3156706D01*
G01X447935Y-3148717D01*
G01X416063Y-3144691D01*
G01X383937Y-3144691D01*
G01X352065Y-3148717D01*
G01X320949Y-3156706D01*
G01X291080Y-3168533D01*
G01X262928Y-3184009D01*
G01X236938Y-3202892D01*
G01X213520Y-3224883D01*
G01X193042Y-3249636D01*
G01X175828Y-3276761D01*
G01X162150Y-3305829D01*
G01X152223Y-3336382D01*
G01X146203Y-3367938D01*
G01X144186Y-3400000D01*
G01X144186Y-3400000D01*
G01X35814Y-3400000D01*
G01X35814Y-2903500D01*
G01X639686Y-2903500D01*
G01X641577Y-2929944D01*
G01X647213Y-2955850D01*
G01X656478Y-2980690D01*
G01X669183Y-3003959D01*
G01X685071Y-3025182D01*
G01X703818Y-3043929D01*
G01X725041Y-3059817D01*
G01X748310Y-3072522D01*
G01X773150Y-3081787D01*
G01X799056Y-3087423D01*
G01X825500Y-3089314D01*
G01X851944Y-3087423D01*
G01X877850Y-3081787D01*
G01X902690Y-3072522D01*
G01X925959Y-3059817D01*
G01X947182Y-3043929D01*
G01X965929Y-3025182D01*
G01X981817Y-3003959D01*
G01X994522Y-2980690D01*
G01X1003787Y-2955850D01*
G01X1009423Y-2929944D01*
G01X1011314Y-2903500D01*
G01X1009423Y-2877056D01*
G01X1003787Y-2851150D01*
G01X994522Y-2826310D01*
G01X981817Y-2803041D01*
G01X965929Y-2781818D01*
G01X947182Y-2763071D01*
G01X925959Y-2747183D01*
G01X902690Y-2734478D01*
G01X877850Y-2725213D01*
G01X851944Y-2719577D01*
G01X825500Y-2717686D01*
G01X799056Y-2719577D01*
G01X773150Y-2725213D01*
G01X748310Y-2734478D01*
G01X725041Y-2747183D01*
G01X703818Y-2763071D01*
G01X685071Y-2781818D01*
G01X669183Y-2803041D01*
G01X656478Y-2826310D01*
G01X647213Y-2851150D01*
G01X641577Y-2877056D01*
G01X639686Y-2903500D01*
G01X639686Y-2903500D01*
G01X35814Y-2903500D01*
G01X35814Y-2690493D01*
G01X2487686Y-2690493D01*
G01X2487686Y-2850493D01*
G01X2489439Y-2861560D01*
G01X2494526Y-2871544D01*
G01X2502449Y-2879467D01*
G01X2512433Y-2884554D01*
G01X2523500Y-2886307D01*
G01X2683500Y-2886307D01*
G01X2694567Y-2884554D01*
G01X2704551Y-2879467D01*
G01X2712474Y-2871544D01*
G01X2717561Y-2861560D01*
G01X2719314Y-2850493D01*
G01X2719314Y-2690493D01*
G01X2717561Y-2679426D01*
G01X2712474Y-2669442D01*
G01X2704551Y-2661519D01*
G01X2694567Y-2656432D01*
G01X2683500Y-2654679D01*
G01X2523500Y-2654679D01*
G01X2523500Y-2654679D01*
G01X2512433Y-2656432D01*
G01X2502449Y-2661519D01*
G01X2494526Y-2669442D01*
G01X2489439Y-2679426D01*
G01X2487686Y-2690493D01*
G01X35814Y-2690493D01*
G01X35814Y-2520506D01*
G01X2487686Y-2520506D01*
G01X2489658Y-2541787D01*
G01X2495507Y-2562343D01*
G01X2505033Y-2581474D01*
G01X2517913Y-2598529D01*
G01X2533707Y-2612928D01*
G01X2551877Y-2624178D01*
G01X2571806Y-2631899D01*
G01X2592814Y-2635826D01*
G01X2614186Y-2635826D01*
G01X2635194Y-2631899D01*
G01X2655123Y-2624178D01*
G01X2673293Y-2612928D01*
G01X2689087Y-2598529D01*
G01X2701967Y-2581474D01*
G01X2711493Y-2562343D01*
G01X2717342Y-2541787D01*
G01X2719314Y-2520506D01*
G01X2719314Y-2520506D01*
G01X2717342Y-2499225D01*
G01X2711493Y-2478669D01*
G01X2701967Y-2459538D01*
G01X2689087Y-2442483D01*
G01X2673293Y-2428085D01*
G01X2655123Y-2416834D01*
G01X2635194Y-2409113D01*
G01X2614186Y-2405186D01*
G01X2592814Y-2405186D01*
G01X2571806Y-2409113D01*
G01X2551877Y-2416834D01*
G01X2533707Y-2428085D01*
G01X2517913Y-2442483D01*
G01X2505033Y-2459538D01*
G01X2495507Y-2478669D01*
G01X2489658Y-2499225D01*
G01X2487686Y-2520506D01*
G01X35814Y-2520506D01*
G01X35814Y-2270494D01*
G01X2487686Y-2270494D01*
G01X2489658Y-2291775D01*
G01X2495507Y-2312331D01*
G01X2505033Y-2331462D01*
G01X2517913Y-2348517D01*
G01X2533707Y-2362915D01*
G01X2551877Y-2374166D01*
G01X2571806Y-2381887D01*
G01X2592814Y-2385814D01*
G01X2614186Y-2385814D01*
G01X2635194Y-2381887D01*
G01X2655123Y-2374166D01*
G01X2673293Y-2362915D01*
G01X2689087Y-2348517D01*
G01X2701967Y-2331462D01*
G01X2711493Y-2312331D01*
G01X2717342Y-2291775D01*
G01X2719314Y-2270494D01*
G01X2719314Y-2270494D01*
G01X2717342Y-2249213D01*
G01X2711493Y-2228657D01*
G01X2701967Y-2209526D01*
G01X2689087Y-2192471D01*
G01X2673293Y-2178072D01*
G01X2655123Y-2166822D01*
G01X2635194Y-2159101D01*
G01X2614186Y-2155174D01*
G01X2592814Y-2155174D01*
G01X2571806Y-2159101D01*
G01X2551877Y-2166822D01*
G01X2533707Y-2178072D01*
G01X2517913Y-2192471D01*
G01X2505033Y-2209526D01*
G01X2495507Y-2228657D01*
G01X2489658Y-2249213D01*
G01X2487686Y-2270494D01*
G01X35814Y-2270494D01*
G01X35814Y-1824000D01*
G01X639686Y-1824000D01*
G01X641577Y-1850444D01*
G01X647213Y-1876350D01*
G01X656478Y-1901190D01*
G01X669183Y-1924459D01*
G01X685071Y-1945682D01*
G01X703818Y-1964429D01*
G01X725041Y-1980317D01*
G01X748310Y-1993022D01*
G01X773150Y-2002287D01*
G01X799056Y-2007923D01*
G01X825500Y-2009814D01*
G01X851944Y-2007923D01*
G01X877850Y-2002287D01*
G01X902690Y-1993022D01*
G01X925959Y-1980317D01*
G01X947182Y-1964429D01*
G01X965929Y-1945682D01*
G01X981817Y-1924459D01*
G01X994522Y-1901190D01*
G01X1003787Y-1876350D01*
G01X1009423Y-1850444D01*
G01X1011314Y-1824000D01*
G01X1009423Y-1797556D01*
G01X1003787Y-1771650D01*
G01X994522Y-1746810D01*
G01X981817Y-1723541D01*
G01X965929Y-1702318D01*
G01X947182Y-1683571D01*
G01X925959Y-1667683D01*
G01X902690Y-1654978D01*
G01X877850Y-1645713D01*
G01X851944Y-1640077D01*
G01X825500Y-1638186D01*
G01X799056Y-1640077D01*
G01X773150Y-1645713D01*
G01X748310Y-1654978D01*
G01X725041Y-1667683D01*
G01X703818Y-1683571D01*
G01X685071Y-1702318D01*
G01X669183Y-1723541D01*
G01X656478Y-1746810D01*
G01X647213Y-1771650D01*
G01X641577Y-1797556D01*
G01X639686Y-1824000D01*
G01X639686Y-1824000D01*
G01X35814Y-1824000D01*
G01X35814Y-1400000D01*
G01X144186Y-1400000D01*
G01X146203Y-1432062D01*
G01X152223Y-1463618D01*
G01X162150Y-1494171D01*
G01X175828Y-1523239D01*
G01X193042Y-1550364D01*
G01X213520Y-1575117D01*
G01X236938Y-1597108D01*
G01X262928Y-1615991D01*
G01X291080Y-1631467D01*
G01X320949Y-1643294D01*
G01X352065Y-1651283D01*
G01X383937Y-1655309D01*
G01X416063Y-1655309D01*
G01X447935Y-1651283D01*
G01X479051Y-1643294D01*
G01X508920Y-1631467D01*
G01X537072Y-1615991D01*
G01X563062Y-1597108D01*
G01X586480Y-1575117D01*
G01X606958Y-1550364D01*
G01X624171Y-1523239D01*
G01X637850Y-1494171D01*
G01X647777Y-1463618D01*
G01X653797Y-1432062D01*
G01X655814Y-1400000D01*
G01X653797Y-1367938D01*
G01X647777Y-1336382D01*
G01X637850Y-1305829D01*
G01X624171Y-1276761D01*
G01X606958Y-1249636D01*
G01X586480Y-1224883D01*
G01X563062Y-1202892D01*
G01X537072Y-1184009D01*
G01X508920Y-1168533D01*
G01X479051Y-1156707D01*
G01X447935Y-1148717D01*
G01X416063Y-1144691D01*
G01X383937Y-1144691D01*
G01X352065Y-1148717D01*
G01X320949Y-1156707D01*
G01X291080Y-1168533D01*
G01X262928Y-1184009D01*
G01X236938Y-1202892D01*
G01X213520Y-1224883D01*
G01X193042Y-1249636D01*
G01X175828Y-1276761D01*
G01X162150Y-1305829D01*
G01X152223Y-1336382D01*
G01X146203Y-1367938D01*
G01X144186Y-1400000D01*
G01X144186Y-1400000D01*
G01X35814Y-1400000D01*
G01X35814Y-35814D01*
G01X271259Y-35814D01*
G01X271186Y-38099D01*
G01X271186Y-438099D01*
G01X272939Y-449166D01*
G01X278026Y-459150D01*
G01X285949Y-467073D01*
G01X295933Y-472160D01*
G01X307000Y-473913D01*
G01X320186Y-473913D01*
G01X320186Y-698500D01*
G01X321355Y-710364D01*
G01X324815Y-721773D01*
G01X330435Y-732286D01*
G01X337998Y-741502D01*
G01X1660005Y-2063509D01*
G01X1669221Y-2071072D01*
G01X1679735Y-2076692D01*
G01X1691143Y-2080153D01*
G01X1703007Y-2081321D01*
G01X2504938Y-2081321D01*
G01X2517799Y-2098406D01*
G01X2533583Y-2112835D01*
G01X2551750Y-2124116D01*
G01X2571682Y-2131864D01*
G01X2592698Y-2135816D01*
G01X2614083Y-2135836D01*
G01X2635107Y-2131925D01*
G01X2655053Y-2124214D01*
G01X2673242Y-2112968D01*
G01X2689053Y-2098569D01*
G01X2701946Y-2081508D01*
G01X2711484Y-2062368D01*
G01X2717340Y-2041801D01*
G01X2719314Y-2020507D01*
G01X2717340Y-1999214D01*
G01X2711484Y-1978646D01*
G01X2701946Y-1959506D01*
G01X2689053Y-1942446D01*
G01X2673242Y-1928047D01*
G01X2655053Y-1916800D01*
G01X2635107Y-1909090D01*
G01X2614083Y-1905178D01*
G01X2592698Y-1905198D01*
G01X2571682Y-1909150D01*
G01X2551750Y-1916898D01*
G01X2533583Y-1928179D01*
G01X2517799Y-1942608D01*
G01X2504938Y-1959693D01*
G01X1728197Y-1959693D01*
G01X1168504Y-1400000D01*
G01X2394186Y-1400000D01*
G01X2396203Y-1432062D01*
G01X2402223Y-1463618D01*
G01X2412150Y-1494171D01*
G01X2425829Y-1523239D01*
G01X2443042Y-1550364D01*
G01X2463520Y-1575117D01*
G01X2486938Y-1597108D01*
G01X2512928Y-1615991D01*
G01X2541080Y-1631467D01*
G01X2570949Y-1643294D01*
G01X2602065Y-1651283D01*
G01X2633937Y-1655309D01*
G01X2666063Y-1655309D01*
G01X2697935Y-1651283D01*
G01X2729051Y-1643294D01*
G01X2758920Y-1631467D01*
G01X2787072Y-1615991D01*
G01X2813062Y-1597108D01*
G01X2836480Y-1575117D01*
G01X2856958Y-1550364D01*
G01X2874171Y-1523239D01*
G01X2887850Y-1494171D01*
G01X2897777Y-1463618D01*
G01X2903797Y-1432062D01*
G01X2905814Y-1400000D01*
G01X2903797Y-1367938D01*
G01X2897777Y-1336382D01*
G01X2887850Y-1305829D01*
G01X2874171Y-1276761D01*
G01X2856958Y-1249636D01*
G01X2836480Y-1224883D01*
G01X2813062Y-1202892D01*
G01X2787072Y-1184009D01*
G01X2758920Y-1168533D01*
G01X2729051Y-1156707D01*
G01X2697935Y-1148717D01*
G01X2666063Y-1144691D01*
G01X2633937Y-1144691D01*
G01X2602065Y-1148717D01*
G01X2570949Y-1156707D01*
G01X2541080Y-1168533D01*
G01X2512928Y-1184009D01*
G01X2486938Y-1202892D01*
G01X2463520Y-1224883D01*
G01X2443042Y-1249636D01*
G01X2425829Y-1276761D01*
G01X2412150Y-1305829D01*
G01X2402223Y-1336382D01*
G01X2396203Y-1367938D01*
G01X2394186Y-1400000D01*
G01X2394186Y-1400000D01*
G01X1168504Y-1400000D01*
G01X441814Y-673310D01*
G01X441814Y-473913D01*
G01X457000Y-473913D01*
G01X468067Y-472160D01*
G01X478051Y-467073D01*
G01X485974Y-459150D01*
G01X491061Y-449166D01*
G01X492814Y-438099D01*
G01X492814Y-38099D01*
G01X492741Y-35814D01*
G01X525259Y-35814D01*
G01X525186Y-38099D01*
G01X525186Y-438099D01*
G01X526939Y-449166D01*
G01X532026Y-459150D01*
G01X539949Y-467073D01*
G01X549933Y-472160D01*
G01X561000Y-473913D01*
G01X711000Y-473913D01*
G01X722067Y-472160D01*
G01X732051Y-467073D01*
G01X739974Y-459150D01*
G01X745061Y-449166D01*
G01X746814Y-438099D01*
G01X746814Y-38099D01*
G01X746741Y-35814D01*
G01X779259Y-35814D01*
G01X779186Y-38099D01*
G01X779186Y-438099D01*
G01X780939Y-449166D01*
G01X786026Y-459150D01*
G01X793949Y-467073D01*
G01X803933Y-472160D01*
G01X815000Y-473913D01*
G01X965000Y-473913D01*
G01X976067Y-472160D01*
G01X986051Y-467073D01*
G01X993974Y-459150D01*
G01X999061Y-449166D01*
G01X1000814Y-438099D01*
G01X1000814Y-38099D01*
G01X1000741Y-35814D01*
G01X1033259Y-35814D01*
G01X1033186Y-38099D01*
G01X1033186Y-438099D01*
G01X1034939Y-449166D01*
G01X1040026Y-459150D01*
G01X1047949Y-467073D01*
G01X1057933Y-472160D01*
G01X1069000Y-473913D01*
G01X1219000Y-473913D01*
G01X1230067Y-472160D01*
G01X1240051Y-467073D01*
G01X1247974Y-459150D01*
G01X1253061Y-449166D01*
G01X1254814Y-438099D01*
G01X1254814Y-38099D01*
G01X1254741Y-35814D01*
G01X1287259Y-35814D01*
G01X1287186Y-38099D01*
G01X1287186Y-438099D01*
G01X1288939Y-449166D01*
G01X1294026Y-459150D01*
G01X1301949Y-467073D01*
G01X1311933Y-472160D01*
G01X1323000Y-473913D01*
G01X1473000Y-473913D01*
G01X1484067Y-472160D01*
G01X1494051Y-467073D01*
G01X1501974Y-459150D01*
G01X1507061Y-449166D01*
G01X1508814Y-438099D01*
G01X1508814Y-38099D01*
G01X1508741Y-35814D01*
G01X1541259Y-35814D01*
G01X1541186Y-38099D01*
G01X1541186Y-438099D01*
G01X1542939Y-449166D01*
G01X1548026Y-459150D01*
G01X1555949Y-467073D01*
G01X1565933Y-472160D01*
G01X1577000Y-473913D01*
G01X1727000Y-473913D01*
G01X1738067Y-472160D01*
G01X1748051Y-467073D01*
G01X1755974Y-459150D01*
G01X1761061Y-449166D01*
G01X1762814Y-438099D01*
G01X1762814Y-38099D01*
G01X1762741Y-35814D01*
G01X1795259Y-35814D01*
G01X1795186Y-38099D01*
G01X1795186Y-438099D01*
G01X1796939Y-449166D01*
G01X1802026Y-459150D01*
G01X1809949Y-467073D01*
G01X1819933Y-472160D01*
G01X1831000Y-473913D01*
G01X1981000Y-473913D01*
G01X1992067Y-472160D01*
G01X2002051Y-467073D01*
G01X2009974Y-459150D01*
G01X2015061Y-449166D01*
G01X2016814Y-438099D01*
G01X2016814Y-38099D01*
G01X2016741Y-35814D01*
G01X2049259Y-35814D01*
G01X2049186Y-38099D01*
G01X2049186Y-438099D01*
G01X2050939Y-449166D01*
G01X2056026Y-459150D01*
G01X2063949Y-467073D01*
G01X2073933Y-472160D01*
G01X2085000Y-473913D01*
G01X2235000Y-473913D01*
G01X2246067Y-472160D01*
G01X2256051Y-467073D01*
G01X2263974Y-459150D01*
G01X2269061Y-449166D01*
G01X2270814Y-438099D01*
G01X2270814Y-38099D01*
G01X2270741Y-35814D01*
G37*
G54D10*
G01X2270741Y-35814D02*
G01X2303259Y-35814D01*
G01X2303186Y-38099D01*
G01X2303186Y-438099D01*
G03X2339000Y-473913I35814J0D01*
G01X2489000Y-473913D01*
G03X2524814Y-438099I0J35814D01*
G01X2524814Y-38099D01*
G01X2524741Y-35814D01*
G01X2557259Y-35814D01*
G01X2557186Y-38099D01*
G01X2557186Y-438099D01*
G03X2593000Y-473913I35814J0D01*
G01X2608610Y-473913D01*
G01X2608610Y-606133D01*
G03X2669424Y-698890I60814J-26443D01*
G03X2730238Y-606133I0J66314D01*
G01X2730238Y-473913D01*
G01X2743000Y-473913D01*
G03X2778814Y-438099I0J35814D01*
G01X2778814Y-38099D01*
G01X2778741Y-35814D01*
G01X3014186Y-35814D01*
G01X3014186Y-3764186D01*
G01X35814Y-3764186D01*
G01X35814Y-35814D01*
G01X271259Y-35814D01*
G01X271186Y-38099D01*
G01X271186Y-438099D01*
G03X307000Y-473913I35814J0D01*
G01X320186Y-473913D01*
G01X320186Y-698500D01*
G03X337998Y-741502I60814J0D01*
G01X1660005Y-2063509D01*
G03X1703007Y-2081321I43002J43002D01*
G01X2504938Y-2081321D01*
G03X2719314Y-2020507I98562J60814D01*
G03X2504938Y-1959693I-115814J0D01*
G01X1728197Y-1959693D01*
G01X441814Y-673310D01*
G01X441814Y-473913D01*
G01X457000Y-473913D01*
G03X492814Y-438099I0J35814D01*
G01X492814Y-38099D01*
G01X492741Y-35814D01*
G01X525259Y-35814D01*
G01X525186Y-38099D01*
G01X525186Y-438099D01*
G03X561000Y-473913I35814J0D01*
G01X711000Y-473913D01*
G03X746814Y-438099I0J35814D01*
G01X746814Y-38099D01*
G01X746741Y-35814D01*
G01X779259Y-35814D01*
G01X779186Y-38099D01*
G01X779186Y-438099D01*
G03X815000Y-473913I35814J0D01*
G01X965000Y-473913D01*
G03X1000814Y-438099I0J35814D01*
G01X1000814Y-38099D01*
G01X1000741Y-35814D01*
G01X1033259Y-35814D01*
G01X1033186Y-38099D01*
G01X1033186Y-438099D01*
G03X1069000Y-473913I35814J0D01*
G01X1219000Y-473913D01*
G03X1254814Y-438099I0J35814D01*
G01X1254814Y-38099D01*
G01X1254741Y-35814D01*
G01X1287259Y-35814D01*
G01X1287186Y-38099D01*
G01X1287186Y-438099D01*
G03X1323000Y-473913I35814J0D01*
G01X1473000Y-473913D01*
G03X1508814Y-438099I0J35814D01*
G01X1508814Y-38099D01*
G01X1508741Y-35814D01*
G01X1541259Y-35814D01*
G01X1541186Y-38099D01*
G01X1541186Y-438099D01*
G03X1577000Y-473913I35814J0D01*
G01X1727000Y-473913D01*
G03X1762814Y-438099I0J35814D01*
G01X1762814Y-38099D01*
G01X1762741Y-35814D01*
G01X1795259Y-35814D01*
G01X1795186Y-38099D01*
G01X1795186Y-438099D01*
G03X1831000Y-473913I35814J0D01*
G01X1981000Y-473913D01*
G03X2016814Y-438099I0J35814D01*
G01X2016814Y-38099D01*
G01X2016741Y-35814D01*
G01X2049259Y-35814D01*
G01X2049186Y-38099D01*
G01X2049186Y-438099D01*
G03X2085000Y-473913I35814J0D01*
G01X2235000Y-473913D01*
G03X2270814Y-438099I0J35814D01*
G01X2270814Y-38099D01*
G01X2270741Y-35814D01*
G01X144186Y-1400000D02*
G03X655814Y-1400000I255814J0D01*
G03X144186Y-1400000I-255814J0D01*
G01X144186Y-3400000D02*
G03X655814Y-3400000I255814J0D01*
G03X144186Y-3400000I-255814J0D01*
G01X639686Y-2903500D02*
G03X1011314Y-2903500I185814J0D01*
G03X639686Y-2903500I-185814J0D01*
G01X639686Y-1824000D02*
G03X1011314Y-1824000I185814J0D01*
G03X639686Y-1824000I-185814J0D01*
G01X2394186Y-1400000D02*
G03X2905814Y-1400000I255814J0D01*
G03X2394186Y-1400000I-255814J0D01*
G01X2394186Y-3400000D02*
G03X2905814Y-3400000I255814J0D01*
G03X2394186Y-3400000I-255814J0D01*
G01X2719314Y-2520506D02*
G03X2487686Y-2520506I-115814J0D01*
G03X2719314Y-2520506I115814J0D01*
G01X2719314Y-2270494D02*
G03X2487686Y-2270494I-115814J0D01*
G03X2719314Y-2270494I115814J0D01*
G01X2523500Y-2654679D02*
G03X2487686Y-2690493I0J-35814D01*
G01X2487686Y-2850493D01*
G03X2523500Y-2886307I35814J0D01*
G01X2683500Y-2886307D01*
G03X2719314Y-2850493I0J35814D01*
G01X2719314Y-2690493D01*
G03X2683500Y-2654679I-35814J0D01*
G01X2523500Y-2654679D01*
G54D11*
G01X2603500Y-2520506D02*
G01X2709154Y-2520506D01*
G01X2603500Y-2520506D02*
G01X2497846Y-2520506D01*
G01X2603500Y-2520506D02*
G01X2603500Y-2626160D01*
G01X2603500Y-2520506D02*
G01X2603500Y-2414852D01*
G04 Copper End*

G04 Pad Start*
G54D12*
G01X400000Y-1400000D03*
G01X2650000Y-1400000D03*
G01X400000Y-3400000D03*
G01X2650000Y-3400000D03*
G54D13*
G01X825500Y-1824000D03*
G01X825500Y-2903500D03*
G54D14*
G01X2668000Y-238099D03*
G01X2414000Y-238099D03*
G01X2160000Y-238099D03*
G01X1906000Y-238099D03*
G01X1652000Y-238099D03*
G01X1398000Y-238099D03*
G01X1144000Y-238099D03*
G01X890000Y-238099D03*
G01X636000Y-238099D03*
G01X382000Y-238099D03*
G54D15*
G01X2603500Y-2520506D03*
G54D17*
G01X2603500Y-2770493D03*
G54D15*
G01X2603500Y-2020507D03*
G01X2603500Y-2270494D03*
G04 Pad End*

G04 Via Start*
G54D18*
G01X2669424Y-632576D03*
G04 Via End*

G04 Track Start*
G54D19*
G01X2603500Y-2020507D02*
G01X1703007Y-2020507D01*
G01X381000Y-698500D01*
G01X381000Y-239099D01*
G01X382000Y-238099D01*
G01X2669424Y-632576D02*
G01X2669424Y-239523D01*
G54D11*
G01X2669424Y-239523D02*
G01X2668000Y-238099D01*
G04 Track End*

M02*

